<svg width="166" height="60" viewBox="0 0 166 60" fill="none" xmlns="http://www.w3.org/2000/svg">
<path d="M22.8376 36.7323C21.9947 37.0199 21.2559 37.4612 20.6163 38.0562C19.9767 38.6512 19.471 39.3999 19.0991 40.3022C18.7272 41.2047 18.5387 42.2658 18.5387 43.4906C18.5387 44.7152 18.7272 45.7763 19.0991 46.6787C19.471 47.5811 19.9767 48.3298 20.6163 48.9348C21.2559 49.5397 21.9947 49.9859 22.8376 50.2735C23.6805 50.5611 24.5681 50.7049 25.5052 50.7049C26.5266 50.7049 27.4737 50.566 28.3513 50.2834C29.2288 50.0007 30.0371 49.624 30.7858 49.1479L32.2139 52.4106C31.3312 52.956 30.2899 53.3824 29.1 53.6996C27.9099 54.0121 26.6605 54.1707 25.3515 54.1707C23.7201 54.1707 22.2376 53.9029 20.9138 53.3675C19.59 52.832 18.4594 52.0833 17.5322 51.1213C16.6051 50.1594 15.8911 49.0289 15.3902 47.7299C14.8894 46.4308 14.6365 45.0127 14.6365 43.4856C14.6365 41.9584 14.8894 40.5403 15.3902 39.2413C15.8911 37.9422 16.6051 36.8116 17.5322 35.8498C18.4594 34.8878 19.585 34.1391 20.9138 33.6036C22.2426 33.0681 23.7201 32.8004 25.3515 32.8004C26.6605 32.8004 27.9099 32.9641 29.1 33.2863C30.2899 33.6086 31.3262 34.0449 32.2139 34.5854L30.7858 37.8231C30.0371 37.362 29.224 36.9951 28.3513 36.7125C27.4737 36.4299 26.5266 36.291 25.5052 36.291C24.5681 36.291 23.6805 36.4348 22.8376 36.7224V36.7323Z" fill="#4D4D4D"/>
<path d="M35.1095 36.7822C34.6931 36.46 34.4848 35.9839 34.4848 35.3542C34.4848 34.794 34.6831 34.3378 35.0847 33.9907C35.4863 33.6436 35.9822 33.4701 36.5772 33.4701C37.1722 33.4701 37.663 33.6436 38.0548 33.9907C38.4465 34.3378 38.6398 34.794 38.6398 35.3542C38.6398 35.9146 38.4465 36.3955 38.0647 36.7426C37.6828 37.0897 37.1871 37.2632 36.5722 37.2632C36.012 37.2632 35.5211 37.0995 35.1045 36.7773L35.1095 36.7822ZM38.3622 39.5093V53.8686H34.7922V39.5093H38.3622Z" fill="#4D4D4D"/>
<path d="M48.7699 42.7023C48.6359 42.7023 48.4327 42.7023 48.1699 42.7171C47.9071 42.7271 47.6343 42.7419 47.3517 42.7667C47.0691 42.7916 46.8063 42.8212 46.5634 42.8559C46.3154 42.8907 46.1419 42.9254 46.0428 42.96V53.8783H42.4727V39.9008C42.9141 39.8165 43.39 39.7372 43.9008 39.6579C44.4115 39.5834 44.9122 39.5191 45.4031 39.4644C45.894 39.4149 46.3749 39.3703 46.846 39.3356C47.317 39.3008 47.7336 39.286 48.1104 39.286H50.8127V42.7023H48.7699Z" fill="#4D4D4D"/>
<path d="M52.9893 43.5801C53.371 42.6529 53.9066 41.8497 54.5958 41.1703C55.285 40.4911 56.1031 39.9606 57.0451 39.5788C57.9872 39.1969 59.0137 39.0036 60.1193 39.0036C61.1061 39.0036 61.9986 39.1077 62.7967 39.311C63.5951 39.5143 64.3636 39.8019 65.0926 40.1787L63.6646 43.3917C63.1885 43.1189 62.6679 42.9008 62.1076 42.7422C61.5473 42.5785 60.9325 42.4992 60.2731 42.4992C59.6632 42.4992 59.0978 42.5984 58.5872 42.7918C58.0765 42.9851 57.6451 43.2677 57.2882 43.6347C56.9311 44.0016 56.6535 44.433 56.46 44.9337C56.2667 45.4346 56.1676 45.9898 56.1676 46.6047C56.1676 47.2196 56.2667 47.7748 56.46 48.2757C56.6535 48.7764 56.9311 49.2078 57.2882 49.5648C57.6451 49.9218 58.0765 50.1995 58.5872 50.3929C59.0978 50.5862 59.6582 50.6854 60.2731 50.6854C60.9375 50.6854 61.5473 50.611 62.1076 50.4573C62.6679 50.3036 63.1885 50.0855 63.6646 49.7929L65.0926 53.0307C64.3636 53.4025 63.5951 53.6901 62.7967 53.8835C61.9986 54.0768 61.1061 54.176 60.1193 54.176C59.0137 54.176 57.9872 53.9827 57.0451 53.6009C56.1031 53.219 55.285 52.6935 54.5958 52.0192C53.9066 51.3497 53.371 50.5466 52.9893 49.6194C52.6075 48.6921 52.4141 47.6856 52.4141 46.5947C52.4141 45.5039 52.6075 44.4975 52.9893 43.5702V43.5801Z" fill="#4D4D4D"/>
<path d="M67.8739 33.1877H71.4438V53.8738H67.8739V33.1877Z" fill="#4D4D4D"/>
<path d="M76.6603 55.6685C77.0917 55.7974 77.538 55.9114 77.999 56.0106C78.4601 56.1099 78.9065 56.1892 79.3378 56.2387C79.7692 56.2883 80.1659 56.3131 80.5228 56.3131C81.0682 56.3131 81.569 56.2685 82.0302 56.1742C82.4913 56.08 82.883 55.9362 83.2151 55.7429C83.5474 55.5495 83.8052 55.3016 83.9936 55.0041C84.1821 54.7066 84.2762 54.3447 84.2762 53.9182V53.6109C83.3094 53.8142 82.3525 53.9182 81.4203 53.9182C80.4882 53.9182 79.66 53.834 78.8965 53.6654C78.133 53.4967 77.4735 53.1893 76.9181 52.7481C76.3629 52.3068 75.9364 51.7019 75.629 50.9383C75.3216 50.1747 75.1678 49.2028 75.1678 48.0327V39.4895H78.7627V47.0113C78.7627 47.6758 78.8172 48.2212 78.9263 48.6574C79.0353 49.0888 79.2089 49.4409 79.4369 49.7037C79.665 49.9665 79.9576 50.1549 80.3146 50.2639C80.6716 50.373 81.098 50.4275 81.5888 50.4275C81.9806 50.4275 82.3921 50.4027 82.8235 50.3532C83.2549 50.3036 83.7358 50.1994 84.2664 50.0458V39.4846H87.8363V52.7729C87.8363 54.0471 87.7124 55.1181 87.4644 55.9859C87.2166 56.8535 86.805 57.5527 86.2298 58.0881C85.6498 58.6237 84.8861 59.0104 83.9341 59.2484C82.9822 59.4864 81.7921 59.6055 80.3642 59.6055C80.0766 59.6055 79.7543 59.5905 79.3973 59.5558C79.0403 59.5212 78.6734 59.4765 78.3015 59.417C77.9297 59.3575 77.5628 59.2881 77.2057 59.2137C76.8488 59.1394 76.5265 59.0551 76.2389 58.9708L75.4752 55.2471C75.8323 55.4008 76.2289 55.5396 76.6603 55.6685Z" fill="#4D4D4D"/>
<path d="M99.3493 50.4274C99.8748 50.2589 100.138 49.9664 100.138 49.5598C100.138 49.1879 99.974 48.8954 99.6419 48.6921C99.3096 48.4888 98.6849 48.2905 97.7676 48.1071L96.6222 47.9038C94.9908 47.5963 93.7166 47.0856 92.7944 46.3716C91.8771 45.6576 91.4159 44.6808 91.4159 43.4363C91.4159 42.0776 91.9465 40.9968 93.0126 40.1985C94.0737 39.4002 95.5412 38.9986 97.4105 38.9986C98.5509 38.9986 99.6517 39.1077 100.713 39.3308C101.774 39.554 102.706 39.8811 103.504 40.3275L102.205 43.6445C101.883 43.476 101.516 43.3172 101.109 43.1734C100.703 43.0298 100.276 42.9058 99.8352 42.8016C99.3939 42.6975 98.9477 42.6232 98.4964 42.5735C98.0452 42.5239 97.6188 42.4992 97.2072 42.4992C95.7098 42.4992 94.9612 42.8115 94.9612 43.4412C94.9612 43.7635 95.1298 44.0312 95.4719 44.2445C95.814 44.4577 96.4337 44.6461 97.3362 44.8196L98.4568 45.0229C100.41 45.3948 101.809 45.96 102.651 46.7087C103.494 47.4575 103.916 48.4788 103.916 49.7681C103.916 50.3978 103.782 50.9778 103.509 51.5134C103.237 52.0489 102.83 52.515 102.285 52.9166C101.739 53.3182 101.055 53.6256 100.232 53.8487C99.4088 54.0718 98.4518 54.181 97.361 54.181C96.7808 54.181 96.2007 54.1462 95.6157 54.0768C95.0305 54.0074 94.4554 53.9132 93.8951 53.7842C93.3348 53.6554 92.8043 53.5016 92.2985 53.3232C91.7978 53.1447 91.3416 52.9364 90.935 52.6984L92.2886 49.2276C92.9332 49.6541 93.7166 50.001 94.6339 50.2738C95.5512 50.5465 96.4982 50.6804 97.4651 50.6804C98.194 50.6804 98.8237 50.5961 99.3543 50.4274H99.3493Z" fill="#4D4D4D"/>
<path d="M1.071 27.9219C0.748711 27.8772 0.476001 27.8227 0.25288 27.7582L0 24.1883C0.342128 24.2726 0.639632 24.3321 0.892499 24.3668C1.14538 24.4014 1.41312 24.4164 1.68087 24.4164C2.39487 24.4164 2.8907 24.223 3.17333 23.8312C3.45595 23.4396 3.59478 22.8049 3.59478 21.9174V8.01921H7.16477V18.8085H9.92154V22.3785H7.13998C7.03585 24.3519 6.58961 25.7799 5.78636 26.6625C4.98311 27.5451 3.74353 27.9863 2.06267 27.9863C1.72054 27.9863 1.39329 27.9665 1.06605 27.9219H1.071ZM3.83774 5.36154C3.42124 5.03925 3.21299 4.56325 3.21299 3.93355C3.21299 3.37326 3.41133 2.91709 3.81295 2.57001C4.21458 2.22293 4.71041 2.04939 5.30541 2.04939C5.9004 2.04939 6.39623 2.22293 6.79785 2.57001C7.19948 2.91709 7.39781 3.37326 7.39781 3.93355C7.39781 4.56325 7.18957 5.03925 6.77307 5.36154C6.35657 5.68384 5.86569 5.84746 5.30541 5.84746C4.74512 5.84746 4.25424 5.68384 3.83774 5.36154Z" fill="#4D4D4D"/>
<path d="M14.7411 18.8032V8.01393H18.3111V18.8032H23.0017V22.3732H9.40597V18.8032H14.7411ZM12.1627 27.3464C11.7711 27.039 11.5777 26.5877 11.5777 25.9928C11.5777 25.4474 11.7711 25.0061 12.1529 24.6689C12.5347 24.3317 13.0057 24.1582 13.566 24.1582C14.1263 24.1582 14.5974 24.3268 14.984 24.6689C15.3708 25.011 15.5592 25.4523 15.5592 25.9928C15.5592 26.5877 15.3659 27.039 14.9742 27.3464C14.5824 27.6538 14.1163 27.8075 13.5709 27.8075C13.0256 27.8075 12.5595 27.6538 12.1677 27.3464H12.1627ZM17.6963 27.3464C17.3045 27.039 17.1112 26.5877 17.1112 25.9928C17.1112 25.4474 17.3045 25.0061 17.6864 24.6689C18.0682 24.3317 18.5392 24.1582 19.1045 24.1582C19.6697 24.1582 20.1606 24.3268 20.5324 24.6689C20.9043 25.011 21.0927 25.4523 21.0927 25.9928C21.0927 26.5877 20.8993 27.039 20.5077 27.3464C20.1159 27.6538 19.6499 27.8075 19.1045 27.8075C18.5591 27.8075 18.093 27.6538 17.7013 27.3464H17.6963Z" fill="#4D4D4D"/>
<path d="M24.9947 18.8032V1.68707H28.5647V18.8032H31.8273V22.3731H22.4907V18.8032H24.9947Z" fill="#4D4D4D"/>
<path d="M47.2128 16.0762C47.2128 15.5655 47.1583 15.1192 47.0491 14.7373C46.9401 14.3556 46.7665 14.0185 46.5286 13.7309C46.3054 13.4433 46.008 13.2053 45.6212 13.0169C45.2395 12.8284 44.8179 12.7342 44.3568 12.7342H33.6965C33.3741 12.3078 33.0965 11.8021 32.8684 11.217C32.6403 10.6319 32.5064 9.95262 32.4718 9.18904L36.6021 1.69206H40.4298L36.4781 9.18904H43.9999C45.1552 9.18904 46.1666 9.33779 47.0343 9.63529C47.9021 9.93279 48.6606 10.4237 49.3052 11.1029C49.8507 11.6831 50.2325 12.417 50.4506 13.3094C50.6737 14.2019 50.7828 15.1737 50.7828 16.2299V22.3781H31.3214V18.8082H47.2128V16.0762Z" fill="#4D4D4D"/>
<path d="M53.971 27.9216C53.6488 27.8769 53.376 27.8224 53.1529 27.758L52.9001 24.188C53.2422 24.2723 53.5396 24.3318 53.7926 24.3665C54.0454 24.4012 54.3131 24.4161 54.5809 24.4161C55.2949 24.4161 55.7907 24.2227 56.0733 23.8309C56.356 23.4393 56.4948 22.8046 56.4948 21.9171V8.01893H60.0648V18.8083H62.8216V22.3782H60.04C59.9358 24.3516 59.4896 25.7797 58.6864 26.6622C57.8831 27.5448 56.6435 27.9861 54.9627 27.9861C54.6206 27.9861 54.2933 27.9662 53.966 27.9216H53.971Z" fill="#4D4D4D"/>
<path d="M67.6411 18.8032V8.01393H71.2112V18.8032H75.9017V22.3732H62.306V18.8032H67.6411ZM65.0628 27.3464C64.6712 27.039 64.4778 26.5877 64.4778 25.9928C64.4778 25.4474 64.6712 25.0061 65.053 24.6689C65.4347 24.3317 65.9058 24.1582 66.466 24.1582C67.0264 24.1582 67.4973 24.3268 67.8841 24.6689C68.2708 25.011 68.4593 25.4523 68.4593 25.9928C68.4593 26.5877 68.266 27.039 67.8742 27.3464C67.4825 27.6538 67.0164 27.8075 66.471 27.8075C65.9256 27.8075 65.4595 27.6538 65.0678 27.3464H65.0628ZM70.5963 27.3464C70.2046 27.039 70.0113 26.5877 70.0113 25.9928C70.0113 25.4474 70.2046 25.0061 70.5865 24.6689C70.9682 24.3317 71.4393 24.1582 72.0045 24.1582C72.5698 24.1582 73.0607 24.3268 73.4324 24.6689C73.8043 25.011 73.9928 25.4523 73.9928 25.9928C73.9928 26.5877 73.7994 27.039 73.4077 27.3464C73.016 27.6538 72.5499 27.8075 72.0045 27.8075C71.4591 27.8075 70.9929 27.6538 70.6013 27.3464H70.5963Z" fill="#4D4D4D"/>
<path d="M80.9591 18.8029V9.28789H84.5291V18.8029H87.1322C87.5041 18.8029 87.8909 18.7583 88.2925 18.6641C88.6941 18.5698 89.0561 18.4013 89.3883 18.1534C89.7205 17.9054 89.9883 17.5782 90.1916 17.1716C90.3949 16.765 90.499 16.2444 90.499 15.6147V9.28789H94.0689V15.6147C94.1036 16.7898 94.4061 17.6575 94.9763 18.2179C95.5465 18.7781 96.315 19.0607 97.2869 19.0607C98.3083 19.0607 99.0719 18.7731 99.5826 18.193C100.093 17.6128 100.346 16.8345 100.346 15.8477V6.23357H103.891V15.3916C103.891 17.8558 103.346 19.6806 102.26 20.8606C101.169 22.0407 99.5132 22.6356 97.2869 22.6356C96.796 22.6356 96.3101 22.596 95.8341 22.5216C95.3582 22.4473 94.8969 22.3134 94.4557 22.1249C94.0144 21.9366 93.6029 21.6887 93.2211 21.3712C92.8392 21.054 92.5021 20.6622 92.2145 20.1863C91.57 20.8655 90.8014 21.401 89.9188 21.7928C89.0363 22.1844 88.109 22.3778 87.1372 22.3778H75.4058V18.8079H80.9641L80.9591 18.8029Z" fill="#4D4D4D"/>
<path d="M124.954 18.3371C124.414 18.1238 123.928 17.8065 123.507 17.4C123.422 17.3157 123.343 17.2363 123.269 17.147C123.179 17.0479 123.095 16.9389 123.016 16.8347C122.753 17.2264 122.505 17.6231 122.267 18.0247C122.029 18.4263 121.806 18.8378 121.593 19.2544C120.933 20.5435 120.393 21.8872 119.986 23.2804C119.852 23.7268 119.733 24.1779 119.629 24.6341C119.525 25.0902 119.431 25.5514 119.352 26.0175C119.486 25.9927 119.619 25.9729 119.758 25.958C119.872 25.9481 119.991 25.9382 120.11 25.9382C120.13 25.9382 120.15 25.9382 120.175 25.9382C120.735 25.9382 121.28 26.0423 121.791 26.2456C121.861 26.2753 121.935 26.3051 122.004 26.3348C122.084 25.8886 122.178 25.4423 122.287 25.0061C122.396 24.5697 122.515 24.1432 122.649 23.7218C122.971 22.6954 123.368 21.7038 123.839 20.7568C124.037 20.355 124.245 19.9634 124.469 19.5767C124.697 19.1849 124.935 18.7982 125.182 18.4214C125.108 18.3966 125.034 18.3668 124.959 18.342L124.954 18.3371ZM139.04 50.8636C138.595 50.7843 138.154 50.6901 137.723 50.581C137.29 50.4719 136.859 50.3529 136.438 50.2191C135.411 49.8968 134.419 49.4951 133.468 49.0241C133.066 48.8257 132.674 48.6175 132.293 48.3944C131.902 48.1663 131.514 47.9283 131.143 47.6804C131.117 47.7497 131.093 47.8192 131.064 47.8837C130.85 48.3944 130.548 48.8555 130.15 49.2621C130.057 49.3612 129.952 49.4554 129.843 49.5497C129.734 49.6438 129.626 49.7282 129.512 49.8075C129.903 50.0752 130.3 50.3232 130.707 50.5661C131.107 50.8041 131.519 51.0322 131.936 51.2454C133.245 51.9197 134.618 52.4701 136.037 52.8915C136.487 53.0255 136.938 53.1445 137.4 53.2486C137.861 53.3527 138.321 53.4469 138.794 53.5262C138.763 53.3874 138.739 53.2436 138.723 53.0998C138.709 52.956 138.699 52.8072 138.694 52.6585C138.684 52.1032 138.778 51.5676 138.977 51.052C139.001 50.9876 139.026 50.9281 139.051 50.8686L139.04 50.8636ZM162.935 41.661C162.415 41.1552 161.82 40.7635 161.19 40.4957C160.966 40.8875 160.728 41.2742 160.485 41.6461C160.545 41.671 160.609 41.6908 160.669 41.7205C161.17 41.9337 161.621 42.2362 162.013 42.613C162.122 42.7221 162.232 42.8361 162.33 42.9551C162.425 43.0692 162.514 43.1882 162.594 43.3071C162.861 42.9154 163.113 42.5088 163.351 42.1022C163.223 41.9486 163.089 41.7998 162.94 41.656L162.935 41.661ZM155.895 48.9002C155.502 48.5184 155.19 48.072 154.962 47.5861C154.933 47.5266 154.907 47.4623 154.883 47.4026C154.516 47.6606 154.14 47.9035 153.752 48.1415C153.371 48.3746 152.984 48.5927 152.592 48.796C151.65 49.2918 150.669 49.7183 149.646 50.0653C149.226 50.2091 148.803 50.343 148.372 50.457C147.941 50.576 147.5 50.6801 147.058 50.7694C147.089 50.8289 147.113 50.8934 147.138 50.9529C147.336 51.4536 147.446 51.9842 147.455 52.5346C147.455 52.6834 147.455 52.837 147.436 52.9957C147.42 53.1395 147.401 53.2833 147.376 53.4271C147.843 53.3378 148.303 53.2337 148.764 53.1146C149.22 53.0006 149.672 52.8668 150.119 52.723C151.536 52.2668 152.905 51.6818 154.209 50.9677C154.621 50.7446 155.026 50.5067 155.423 50.2537C155.825 50.0009 156.217 49.7381 156.604 49.4604C156.485 49.3811 156.366 49.3017 156.247 49.2076C156.123 49.1084 156.004 49.0043 155.895 48.8952V48.9002ZM124.711 40.9668C124.483 40.585 124.265 40.1983 124.057 39.8015C123.566 38.8596 123.145 37.8778 122.798 36.8613C122.654 36.4399 122.525 36.0135 122.406 35.5821C122.287 35.1458 122.183 34.7044 122.093 34.2632C122.024 34.2978 121.955 34.3277 121.885 34.3573C121.365 34.5805 120.809 34.6946 120.234 34.7044C120.1 34.7044 119.976 34.7044 119.857 34.6946C119.723 34.6846 119.585 34.6698 119.456 34.6449C119.545 35.1061 119.649 35.5672 119.763 36.0185C119.877 36.4696 120.011 36.9208 120.15 37.3622C120.596 38.7504 121.171 40.0941 121.866 41.3784C122.089 41.7899 122.322 42.1965 122.57 42.5931C122.817 42.9947 123.08 43.3865 123.353 43.7732C123.427 43.6542 123.512 43.5402 123.601 43.4311C123.685 43.327 123.774 43.2278 123.864 43.1385C124.26 42.7271 124.726 42.4047 125.243 42.1816C125.312 42.1519 125.376 42.1221 125.446 42.0974C125.188 41.7255 124.94 41.3486 124.707 40.9618L124.711 40.9668ZM138.421 9.15426C138.194 8.62372 138.075 8.06344 138.064 7.47836C138.064 7.36431 138.064 7.24036 138.075 7.12135C138.084 6.98253 138.099 6.84864 138.119 6.71477C137.658 6.80898 137.197 6.91311 136.745 7.0321C136.294 7.15111 135.843 7.28498 135.402 7.42877C134.028 7.87997 132.695 8.45514 131.426 9.1493C131.014 9.37243 130.617 9.60547 130.221 9.85339C129.824 10.1013 129.432 10.3641 129.05 10.6368C129.159 10.7112 129.269 10.7955 129.372 10.8798C129.462 10.9492 129.541 11.0285 129.631 11.1078C130.052 11.5144 130.379 11.9904 130.602 12.526C130.631 12.6003 130.662 12.6746 130.691 12.7491C131.064 12.4912 131.44 12.2384 131.826 12.0053C132.204 11.7723 132.595 11.5541 132.987 11.3458C133.924 10.85 134.906 10.4236 135.923 10.0716C136.344 9.92776 136.766 9.79388 137.197 9.67489C137.633 9.55588 138.069 9.4468 138.516 9.35755C138.48 9.28814 138.446 9.21872 138.416 9.1493L138.421 9.15426ZM154.788 9.48151C154.383 9.24351 153.971 9.02039 153.554 8.80718C152.255 8.14772 150.891 7.61223 149.493 7.20565C149.046 7.07672 148.596 6.95773 148.139 6.8536C147.684 6.74948 147.222 6.66023 146.756 6.58089C146.781 6.71477 146.801 6.84864 146.815 6.98252C146.831 7.10648 146.836 7.23539 146.836 7.3544C146.846 7.92956 146.741 8.48985 146.532 9.02039C146.503 9.08981 146.474 9.16418 146.444 9.2336C146.891 9.31293 147.336 9.40218 147.772 9.51126C148.208 9.61539 148.636 9.73438 149.062 9.86827C150.088 10.1856 151.084 10.5773 152.036 11.0434C152.438 11.2368 152.829 11.445 153.217 11.6632C153.609 11.8863 153.995 12.1242 154.372 12.3672C154.397 12.2978 154.422 12.2284 154.452 12.159C154.664 11.6384 154.972 11.1624 155.369 10.7558C155.468 10.6566 155.557 10.5723 155.647 10.493L155.657 10.4831C155.766 10.3889 155.874 10.3046 155.988 10.2253C155.597 9.96247 155.195 9.71455 154.788 9.47655V9.48151ZM162.182 16.2199C162.107 16.3339 162.023 16.448 161.939 16.557C161.844 16.676 161.751 16.7801 161.656 16.8744C161.264 17.276 160.808 17.5933 160.302 17.8214C160.233 17.8512 160.168 17.8809 160.099 17.9057C160.357 18.2726 160.604 18.6494 160.842 19.0361C161.487 18.7485 162.087 18.3371 162.608 17.8016C162.737 17.6677 162.856 17.5338 162.97 17.39C162.716 16.9934 162.454 16.6016 162.182 16.2199Z" fill="#04D0D9"/>
<path d="M148.372 50.457C147.515 48.3348 145.416 46.8469 142.992 46.8815C140.573 46.9162 138.525 48.4489 137.723 50.581C137.475 51.2305 137.345 51.939 137.355 52.6778C137.355 52.8712 137.369 53.0596 137.39 53.2481C137.717 56.1338 140.186 58.3502 143.145 58.3105C146.101 58.2707 148.501 55.9949 148.759 53.1141C148.779 52.9158 148.784 52.7175 148.784 52.5142C148.773 51.7854 148.631 51.0917 148.372 50.457ZM143.131 56.9766H143.071C140.98 56.9766 139.214 55.5288 138.788 53.5207C138.759 53.3819 138.733 53.2381 138.719 53.0943C138.704 52.9505 138.693 52.8018 138.688 52.653C138.679 52.0976 138.773 51.5622 138.971 51.0465C138.997 50.982 139.021 50.9225 139.045 50.8631C139.73 49.2714 141.262 48.2351 143.012 48.2103H143.071C144.778 48.2103 146.35 49.2224 147.058 50.7694C147.089 50.8289 147.113 50.8934 147.138 50.9529C147.336 51.4536 147.446 51.9842 147.455 52.5346C147.455 52.6834 147.455 52.837 147.436 52.9957C147.42 53.1395 147.401 53.2833 147.376 53.4271C146.994 55.45 145.239 56.9518 143.131 56.9816V56.9766Z" fill="#04D0D9"/>
<path d="M149.646 50.0593C149.632 50.0245 149.622 49.9899 149.607 49.9552C148.526 47.2776 145.863 45.5076 142.973 45.5473C140.052 45.5869 137.504 47.3769 136.478 50.1088C136.463 50.1435 136.452 50.1783 136.438 50.218C136.15 51.0113 136.011 51.8443 136.026 52.6971C136.026 52.7616 136.026 52.826 136.031 52.8856C136.042 53.0591 136.051 53.2277 136.071 53.3962C136.478 56.9712 139.477 59.6437 143.072 59.6437C143.106 59.6437 143.137 59.6437 143.172 59.6437C146.791 59.5941 149.765 56.8373 150.093 53.2325C150.108 53.0591 150.119 52.8904 150.119 52.7268C150.119 52.6525 150.119 52.5732 150.119 52.4988C150.103 51.6559 149.95 50.8377 149.646 50.0642V50.0593ZM143.071 56.9766C140.98 56.9766 139.214 55.5288 138.788 53.5207C138.759 53.3819 138.733 53.2381 138.719 53.0943C138.704 52.9505 138.693 52.8018 138.688 52.653C138.679 52.0976 138.773 51.5622 138.971 51.0465C138.997 50.982 139.021 50.9225 139.045 50.8631C139.73 49.2714 141.262 48.2351 143.012 48.2103H143.071C144.778 48.2103 146.35 49.2214 147.058 50.7684C147.089 50.8279 147.113 50.8923 147.138 50.9518C147.336 51.4526 147.446 51.9831 147.455 52.5335C147.455 52.6823 147.455 52.8359 147.436 52.9946C147.42 53.1384 147.401 53.2822 147.376 53.426C146.994 55.4489 145.239 56.9518 143.131 56.9816L143.072 56.9811L143.071 56.9766Z" fill="#04D0D9"/>
<path d="M130.993 42.1025C129.277 40.4315 126.779 40.0546 124.711 40.9621C124.057 41.2497 123.442 41.6661 122.911 42.2115C122.792 42.3355 122.678 42.4644 122.574 42.5933C120.725 44.8643 120.883 48.2111 123.025 50.2935C125.153 52.3661 128.484 52.4405 130.706 50.5564C130.845 50.4373 130.979 50.3135 131.107 50.1795C131.628 49.644 132.024 49.0341 132.293 48.3846C133.16 46.2873 132.724 43.7783 130.993 42.1025ZM131.058 47.8788C130.845 48.3895 130.543 48.8506 130.146 49.2572C130.051 49.3565 129.948 49.4507 129.838 49.5448C129.729 49.6391 129.62 49.7234 129.506 49.8027C127.796 50.9977 125.48 50.829 123.953 49.3415C122.44 47.869 122.212 45.5038 123.358 43.7783C123.432 43.6593 123.516 43.5454 123.606 43.4362C123.69 43.3321 123.779 43.2329 123.868 43.1436C124.265 42.7322 124.731 42.4098 125.247 42.1867C125.316 42.157 125.38 42.1272 125.45 42.1025C125.961 41.909 126.486 41.8149 127.012 41.8149C128.127 41.8149 129.224 42.2462 130.067 43.0593C130.934 43.9073 131.395 45.0377 131.395 46.193C131.395 46.6889 131.31 47.1896 131.138 47.6755C131.112 47.745 131.088 47.8143 131.058 47.8788Z" fill="#04D0D9"/>
<path d="M131.921 41.1499C129.858 39.1418 126.813 38.5914 124.176 39.7466C124.136 39.7665 124.097 39.7817 124.057 39.8015C123.274 40.1636 122.569 40.664 121.959 41.2887C121.93 41.3185 121.895 41.3531 121.865 41.3878C121.751 41.5068 121.642 41.6308 121.538 41.7597C120.432 43.1183 119.872 44.8388 119.971 46.5941C120.07 48.3642 120.824 50.0154 122.093 51.2549C123.358 52.4845 125.024 53.1936 126.784 53.2482C126.858 53.2482 126.932 53.2482 127.007 53.2482C128.677 53.2482 130.289 52.6581 131.559 51.5772C131.688 51.4681 131.812 51.3541 131.931 51.24C131.976 51.1954 132.015 51.1558 132.06 51.1111C132.372 50.7889 132.655 50.4418 132.898 50.0699C133.121 49.7376 133.309 49.3856 133.467 49.0187C133.488 48.9791 133.502 48.9394 133.522 48.8997C134.633 46.2173 134.003 43.1728 131.926 41.1499H131.921ZM131.138 47.6755C131.112 47.745 131.088 47.8143 131.058 47.8788C130.845 48.3895 130.543 48.8506 130.146 49.2572C130.051 49.3565 129.948 49.4507 129.838 49.5448C129.729 49.6391 129.62 49.7234 129.506 49.8027C127.796 50.9977 125.48 50.829 123.953 49.3415C122.44 47.869 122.212 45.5038 123.358 43.7783C123.432 43.6593 123.516 43.5454 123.606 43.4362C123.69 43.3321 123.779 43.2329 123.868 43.1436C124.265 42.7322 124.731 42.4098 125.247 42.1867C125.316 42.157 125.38 42.1272 125.45 42.1025C125.961 41.909 126.486 41.8149 127.012 41.8149C128.127 41.8149 129.224 42.2462 130.067 43.0593C130.934 43.9073 131.395 45.0377 131.395 46.193C131.395 46.6889 131.31 47.1896 131.138 47.6755Z" fill="#04D0D9"/>
<path d="M122.287 25.0061C121.608 24.7384 120.869 24.5938 120.095 24.6037C119.942 24.6037 119.788 24.6137 119.634 24.6285C116.699 24.9061 114.418 27.3953 114.463 30.395C114.502 33.3849 116.833 35.8095 119.768 36.0177C119.927 36.0327 120.09 36.0327 120.259 36.0327C121.023 36.0227 121.752 35.8591 122.416 35.5764C124.489 34.6939 125.927 32.6262 125.896 30.2364C125.862 27.8564 124.379 25.8334 122.292 25.0053L122.287 25.0061ZM122.099 34.2575C122.029 34.2922 121.96 34.322 121.89 34.3517C121.37 34.5748 120.814 34.6889 120.239 34.6988C120.105 34.6988 119.981 34.6988 119.862 34.6889C119.728 34.679 119.59 34.6641 119.461 34.6393C117.403 34.2972 115.826 32.4974 115.797 30.3752C115.767 28.2431 117.304 26.3986 119.362 26.0069C119.496 25.9821 119.629 25.9623 119.768 25.9474C119.882 25.9376 120.001 25.9276 120.12 25.9276C120.14 25.9276 120.16 25.9276 120.185 25.9276C120.745 25.9276 121.29 26.0317 121.801 26.235C121.871 26.2647 121.945 26.2945 122.014 26.3242C123.551 27.0284 124.543 28.5456 124.568 30.2462C124.593 31.9569 123.631 33.5039 122.104 34.2477L122.099 34.2575Z" fill="#04D0D9"/>
<path d="M122.777 23.7707C122.733 23.7509 122.688 23.7361 122.648 23.7211C121.825 23.4138 120.963 23.26 120.075 23.2749C120.045 23.2749 120.016 23.2749 119.991 23.2749C119.827 23.2749 119.663 23.2898 119.51 23.3047C117.75 23.4683 116.128 24.2865 114.943 25.6004C113.748 26.9243 113.104 28.6349 113.128 30.4149C113.153 32.19 113.837 33.8758 115.062 35.1649C116.277 36.4442 117.913 37.2177 119.663 37.3416C119.822 37.3566 119.981 37.3615 120.149 37.3615H120.268C121.146 37.3466 121.994 37.178 122.797 36.8557C122.842 36.8359 122.886 36.8211 122.926 36.8012C125.568 35.6756 127.254 33.0923 127.22 30.2166C127.18 27.3557 125.435 24.8219 122.777 23.7658V23.7707ZM121.885 34.3573C121.365 34.5805 120.809 34.6946 120.234 34.7044C120.1 34.7044 119.976 34.7044 119.857 34.6946C119.723 34.6846 119.585 34.6698 119.456 34.6449C117.398 34.3028 115.821 32.5023 115.791 30.3802C115.761 28.2481 117.298 26.4036 119.356 26.0119C119.49 25.9871 119.624 25.9673 119.763 25.9524C119.877 25.9425 119.996 25.9326 120.115 25.9326C120.135 25.9326 120.154 25.9326 120.179 25.9326C120.739 25.9326 121.285 26.0368 121.796 26.2401C121.865 26.2697 121.939 26.2995 122.009 26.3292C123.546 27.0333 124.537 28.5506 124.562 30.2513C124.587 31.9619 123.625 33.5089 122.098 34.2526C122.029 34.2874 121.959 34.3171 121.89 34.3469L121.885 34.3573Z" fill="#04D0D9"/>
<path d="M131.826 12.0107C131.539 11.3364 131.117 10.7067 130.551 10.1613C130.443 10.0522 130.329 9.95303 130.215 9.85882C127.944 7.9697 124.562 8.11845 122.47 10.2753C120.373 12.4272 120.318 15.8088 122.272 18.0302C122.371 18.1442 122.475 18.2533 122.584 18.3573C123.144 18.9028 123.784 19.304 124.469 19.5767C126.551 20.3998 129.01 19.949 130.667 18.2433C132.322 16.5377 132.703 14.0685 131.826 12.0107ZM129.713 17.3112C128.534 18.5259 126.779 18.9473 125.182 18.4169C125.108 18.3921 125.033 18.3623 124.959 18.3375C124.419 18.1243 123.933 17.807 123.511 17.4005C123.427 17.3162 123.348 17.2368 123.273 17.1475C123.184 17.0484 123.1 16.9393 123.02 16.8351C121.786 15.1345 121.934 12.7346 123.427 11.2025C124.28 10.3299 125.425 9.88361 126.575 9.88361C127.439 9.88361 128.306 10.1365 129.049 10.6472C129.158 10.7216 129.268 10.8059 129.372 10.8902C129.461 10.9596 129.541 11.0389 129.63 11.1182C130.051 11.5248 130.379 12.0008 130.601 12.5363C130.631 12.6106 130.661 12.6851 130.691 12.7594C131.265 14.3361 130.894 16.1014 129.713 17.3162V17.3112Z" fill="#04D0D9"/>
<path d="M133.052 11.4897C133.031 11.4401 133.012 11.3955 132.987 11.3508C132.625 10.5476 132.119 9.82863 131.485 9.20884C131.465 9.18901 131.445 9.16914 131.426 9.1493C131.311 9.04022 131.188 8.93118 131.069 8.83202C129.71 7.70152 127.984 7.12636 126.208 7.22057C124.429 7.30982 122.763 8.06348 121.518 9.34272C118.97 11.9607 118.861 16.1604 121.266 18.8925C121.37 19.0114 121.479 19.1304 121.598 19.2494C121.618 19.2692 121.637 19.2891 121.652 19.304C122.287 19.9238 123.021 20.4097 123.834 20.7518C123.879 20.7716 123.928 20.7914 123.973 20.8113C124.816 21.1435 125.698 21.3071 126.565 21.3071C127.498 21.3071 128.421 21.1237 129.283 20.7617C130.141 20.4047 130.94 19.8693 131.614 19.1701C133.602 17.1273 134.162 14.1126 133.047 11.4897H133.052ZM125.182 18.4169C125.108 18.3921 125.033 18.3623 124.959 18.3375C124.419 18.1243 123.933 17.807 123.511 17.4005C123.427 17.3162 123.348 17.2368 123.273 17.1475C123.184 17.0484 123.1 16.9393 123.02 16.8351C121.786 15.1345 121.934 12.7346 123.427 11.2025C124.28 10.3299 125.425 9.88361 126.575 9.88361C127.439 9.88361 128.306 10.1365 129.049 10.6472C129.158 10.7216 129.268 10.8059 129.372 10.8902C129.461 10.9596 129.541 11.0389 129.63 11.1182C130.051 11.5248 130.379 12.0008 130.601 12.5363C130.631 12.6106 130.661 12.6851 130.691 12.7594C131.267 14.3361 130.894 16.1014 129.713 17.3162C128.534 18.531 126.779 18.952 125.182 18.4214L125.182 18.4169Z" fill="#04D0D9"/>
<path d="M148.134 6.85305C147.848 3.92765 145.363 1.66665 142.368 1.70632C139.368 1.74598 136.938 4.09127 136.745 7.03651C136.735 7.19021 136.73 7.34393 136.735 7.49763C136.745 8.27112 136.909 9.00992 137.202 9.6793C138.089 11.742 140.152 13.17 142.532 13.1352C144.922 13.1005 146.95 11.6037 147.772 9.51126C148.036 8.84188 148.174 8.10751 148.165 7.34393C148.165 7.1803 148.155 7.01668 148.134 6.85801V6.85305ZM142.507 11.8064C140.801 11.8312 139.259 10.8792 138.516 9.36691C138.481 9.2975 138.445 9.22808 138.416 9.15867C138.188 8.62813 138.069 8.06785 138.059 7.48275C138.059 7.36872 138.059 7.24476 138.069 7.12576C138.08 6.98692 138.094 6.85305 138.114 6.71918C138.445 4.65156 140.251 3.06489 142.383 3.03515H142.442C144.54 3.03515 146.349 4.55239 146.746 6.58034C146.772 6.71422 146.791 6.8481 146.806 6.98197C146.82 7.10593 146.825 7.23484 146.825 7.35384C146.836 7.92901 146.732 8.48929 146.523 9.01983C146.494 9.08925 146.463 9.16362 146.434 9.23304C145.735 10.78 144.213 11.7816 142.502 11.8014L142.507 11.8064Z" fill="#04D0D9"/>
<path d="M149.493 7.32405C149.493 7.28439 149.493 7.24531 149.493 7.20565C149.488 7.04698 149.479 6.88275 149.463 6.72409C149.289 4.97381 148.472 3.3574 147.158 2.17732C145.834 0.992282 144.133 0.3477 142.353 0.377451C140.573 0.402242 138.878 1.09145 137.588 2.32111C136.304 3.54086 135.535 5.18702 135.416 6.95217C135.407 7.1158 135.402 7.27446 135.402 7.43313C135.402 7.46288 135.402 7.48768 135.402 7.51742C135.412 8.40496 135.59 9.26275 135.922 10.0759C135.942 10.1205 135.957 10.1652 135.976 10.2048C137.097 12.8029 139.626 14.4641 142.447 14.4641C142.482 14.4641 142.511 14.4641 142.547 14.4641C145.422 14.4244 147.961 12.6691 149.012 9.99162C149.027 9.94699 149.046 9.90733 149.062 9.86271C149.349 9.07929 149.498 8.25621 149.498 7.41826C149.498 7.38355 149.498 7.35379 149.498 7.3191L149.493 7.32405ZM146.811 6.98688C146.825 7.11084 146.83 7.23976 146.83 7.35876C146.841 7.93392 146.736 8.49421 146.528 9.02475C146.498 9.09417 146.468 9.16853 146.439 9.23795C145.739 10.785 144.218 11.7866 142.507 11.8064C140.801 11.8312 139.259 10.8792 138.516 9.36691C138.481 9.2975 138.445 9.22808 138.416 9.15867C138.188 8.62813 138.069 8.06785 138.059 7.48275C138.059 7.36872 138.059 7.24476 138.069 7.12576C138.08 6.98692 138.094 6.85305 138.114 6.71918C138.445 4.65156 140.251 3.06489 142.383 3.03515H142.442C144.54 3.03515 146.349 4.55239 146.746 6.58034C146.772 6.71422 146.791 6.8481 146.806 6.98197L146.811 6.98688Z" fill="#04D0D9"/>
<path d="M162.494 9.71876C160.357 7.63627 157.005 7.56759 154.788 9.48151C154.66 9.59059 154.536 9.70884 154.417 9.82785C153.886 10.3733 153.485 10.9988 153.217 11.6632C152.369 13.7555 152.81 16.2389 154.526 17.9099C156.252 19.5907 158.766 19.9584 160.842 19.0361C161.487 18.7485 162.087 18.3371 162.608 17.8016C162.737 17.6677 162.856 17.5338 162.97 17.39C164.794 15.1191 164.626 11.7913 162.494 9.71876ZM161.933 16.5562C161.839 16.6753 161.745 16.7795 161.651 16.8736C161.259 17.2752 160.802 17.5926 160.297 17.8206C160.228 17.8504 160.164 17.8801 160.094 17.9049C158.492 18.5248 156.693 18.1677 155.448 16.9579C154.214 15.758 153.802 13.9829 154.367 12.3714C154.392 12.3021 154.417 12.2326 154.447 12.1633C154.66 11.6426 154.967 11.1666 155.364 10.76C155.462 10.6608 155.552 10.5765 155.641 10.4972L155.652 10.4873C155.76 10.3931 155.869 10.3088 155.983 10.2295C156.742 9.68901 157.63 9.42127 158.507 9.42127C159.608 9.42127 160.709 9.84273 161.561 10.6708C163.089 12.1583 163.322 14.4738 162.176 16.2141C162.102 16.3282 162.018 16.4422 161.933 16.5514V16.5562Z" fill="#04D0D9"/>
<path d="M165.544 13.4028C165.439 11.6427 164.685 9.99653 163.421 8.76686C162.152 7.53225 160.476 6.8232 158.706 6.77362C156.95 6.72404 155.25 7.32895 153.921 8.46936C153.797 8.57349 153.673 8.68753 153.548 8.81149C153.519 8.84123 153.49 8.87099 153.455 8.9057C152.845 9.53044 152.364 10.2494 152.027 11.0477C152.007 11.0874 151.993 11.127 151.977 11.1667C150.891 13.8392 151.526 16.8588 153.593 18.867C154.943 20.1809 156.702 20.8701 158.497 20.8701C159.469 20.8701 160.451 20.6668 161.383 20.2504C162.201 19.8835 162.935 19.3727 163.56 18.7281C163.709 18.5744 163.858 18.4108 164.006 18.2273C165.102 16.8638 165.647 15.1483 165.544 13.4028ZM162.177 16.2192C162.102 16.3332 162.018 16.4472 161.933 16.5562C161.839 16.6753 161.745 16.7795 161.651 16.8736C161.259 17.2752 160.802 17.5926 160.297 17.8206C160.228 17.8504 160.164 17.8801 160.094 17.9049C158.492 18.5248 156.693 18.1677 155.448 16.9579C154.214 15.758 153.802 13.9829 154.367 12.3714C154.392 12.3021 154.417 12.2326 154.447 12.1633C154.66 11.6426 154.967 11.1666 155.364 10.76C155.462 10.6608 155.552 10.5765 155.641 10.4972L155.652 10.4873C155.76 10.3931 155.869 10.3088 155.983 10.2295C156.742 9.68901 157.63 9.42127 158.507 9.42127C159.608 9.42127 160.709 9.84273 161.561 10.6708C163.089 12.1583 163.322 14.4738 162.176 16.2141L162.177 16.2192Z" fill="#04D0D9"/>
<path d="M163.347 42.1072C163.218 41.9535 163.084 41.8048 162.935 41.661C162.415 41.1552 161.82 40.7635 161.19 40.4957C159.078 39.5983 156.549 40.0297 154.853 41.775C153.162 43.5154 152.8 46.0589 153.752 48.1415C154.04 48.7662 154.441 49.3464 154.962 49.8571C155.111 50.0008 155.26 50.1348 155.419 50.2587C157.69 52.0437 160.987 51.8602 163.044 49.748C165.102 47.6308 165.191 44.3335 163.347 42.1122V42.1072ZM162.092 48.8159C160.625 50.3232 158.333 50.571 156.604 49.4654C156.485 49.3861 156.366 49.3068 156.247 49.2125C156.123 49.1133 156.004 49.0092 155.895 48.9002C155.502 48.5184 155.19 48.072 154.962 47.5861C154.933 47.5266 154.907 47.4623 154.883 47.4026C154.238 45.8061 154.6 43.9419 155.805 42.7023C156.643 41.8395 157.798 41.3784 158.964 41.3784C159.474 41.3784 159.99 41.4676 160.481 41.651C160.54 41.6758 160.604 41.6957 160.664 41.7255C161.165 41.9386 161.616 42.2411 162.008 42.618C162.116 42.727 162.226 42.8411 162.325 42.9601C162.42 43.0741 162.509 43.193 162.588 43.3121C163.739 45.0128 163.554 47.3085 162.092 48.8159Z" fill="#04D0D9"/>
<path d="M164.373 41.259C164.214 41.0656 164.04 40.8821 163.862 40.7086C163.237 40.0988 162.514 39.6178 161.705 39.2707C159.047 38.1402 155.908 38.7749 153.896 40.8424C151.882 42.9102 151.337 46.0635 152.537 48.6915C152.551 48.7262 152.567 48.761 152.587 48.7956C152.944 49.5443 153.429 50.2237 154.034 50.8087C154.089 50.8632 154.148 50.9129 154.203 50.9674C154.327 51.0813 154.462 51.1955 154.595 51.2996C155.884 52.3111 157.416 52.8118 158.943 52.8118C159.866 52.8118 160.783 52.6333 161.645 52.2714C162.509 51.9145 163.312 51.3789 163.995 50.6699C166.52 48.0766 166.678 44.0306 164.368 41.259H164.373ZM156.604 49.4654C156.485 49.3861 156.366 49.3068 156.247 49.2125C156.123 49.1133 156.004 49.0092 155.895 48.9002C155.502 48.5184 155.19 48.072 154.962 47.5861C154.933 47.5266 154.907 47.4623 154.883 47.4026C154.238 45.8061 154.6 43.9419 155.805 42.7023C156.643 41.8395 157.798 41.3784 158.964 41.3784C159.474 41.3784 159.99 41.4676 160.481 41.651C160.54 41.6758 160.604 41.6957 160.664 41.7255C161.165 41.9386 161.616 42.2411 162.008 42.618C162.116 42.727 162.226 42.8411 162.325 42.9601C162.42 43.0741 162.509 43.193 162.588 43.3121C163.739 45.0128 163.554 47.3085 162.092 48.8159C160.625 50.3232 158.333 50.571 156.604 49.4654Z" fill="#04D0D9"/>
</svg>
