<svg width="158" height="64" viewBox="0 0 158 64" fill="none" xmlns="http://www.w3.org/2000/svg">
<path fill-rule="evenodd" clip-rule="evenodd" d="M151.265 18.3368C151.645 18.3368 152.214 18.4059 152.645 18.5007C153.05 18.6042 153.594 18.7595 153.853 18.8544C154.111 18.9579 154.525 19.1649 154.758 19.3202C155 19.4754 155.44 19.8722 155.741 20.2C156.121 20.5967 156.406 21.0108 156.621 21.4765C156.802 21.8561 157.052 22.5202 157.173 22.9429C157.294 23.3655 157.432 24.1246 157.466 24.6248C157.51 25.1251 157.51 25.841 157.475 26.2206C157.432 26.7295 157.346 27.0314 157.165 27.3764C157.027 27.6351 156.759 28.0147 156.569 28.2303C156.38 28.4459 155.948 28.7996 155.621 29.0238C155.293 29.2481 154.706 29.5931 154.327 29.7743C153.947 29.964 153.361 30.2314 153.033 30.3608C152.705 30.4902 151.308 30.9818 149.928 31.439C148.548 31.9048 147.229 32.3705 146.996 32.474C146.763 32.5775 146.349 32.8104 146.09 32.9916C145.831 33.1641 145.417 33.4832 145.167 33.6902C144.917 33.8973 144.512 34.3199 144.262 34.6304C144.011 34.9409 143.684 35.3895 143.528 35.6224C143.382 35.8639 143.132 36.3641 142.692 37.4337L142.666 47.3962C142.64 57.005 142.631 57.3759 142.468 57.9193C142.373 58.2298 142.14 58.7301 141.95 59.0406C141.76 59.3511 141.329 59.8859 140.984 60.2309C140.518 60.6967 140.173 60.9468 139.664 61.197C139.285 61.3867 138.664 61.6196 138.284 61.7231C137.784 61.8525 137.327 61.9043 136.603 61.9043C135.921 61.9129 135.438 61.8697 135.05 61.7662C134.74 61.68 134.257 61.4989 133.972 61.3608C133.687 61.2228 133.23 60.9382 132.954 60.7226C132.687 60.5069 132.247 60.0756 131.98 59.7565C131.721 59.4287 131.359 58.8767 131.177 58.5231C130.996 58.1694 130.807 57.6605 130.746 57.4017C130.677 57.0481 130.651 52.6922 130.694 23.5294L131.083 22.7617C131.376 22.1666 131.6 21.8561 132.074 21.4075C132.402 21.0798 132.911 20.6571 133.196 20.4587C133.48 20.269 134.024 19.9757 134.403 19.8118C134.783 19.6565 135.386 19.4495 135.74 19.3547C136.094 19.2598 136.663 19.1908 136.991 19.1908C137.318 19.1908 137.914 19.2684 138.31 19.3633C138.698 19.4582 139.242 19.622 139.518 19.7342C139.785 19.8463 140.242 20.0878 140.527 20.2862C140.812 20.476 141.32 20.9245 141.648 21.2868C141.976 21.6577 142.39 22.1924 142.554 22.4857C142.718 22.779 142.899 23.0291 142.942 23.0377C142.985 23.055 143.158 22.8652 143.313 22.6151C143.468 22.365 143.934 21.8647 144.348 21.4938C144.762 21.1315 145.409 20.6312 145.788 20.3897C146.168 20.1482 146.927 19.7256 147.47 19.4495C148.013 19.1735 148.79 18.8544 149.195 18.725C149.6 18.6042 150.083 18.4662 150.273 18.4231C150.463 18.38 150.911 18.3455 151.265 18.3368ZM52.6985 0.137041C54.1303 0.128415 54.3804 0.145666 54.8548 0.309551C55.1567 0.404432 55.5879 0.594193 55.8294 0.732201C56.0623 0.870209 56.4935 1.18073 56.7782 1.43087C57.0628 1.68101 57.4595 2.09503 57.6665 2.36242C57.8735 2.62981 58.1582 3.09559 58.3048 3.40611C58.4514 3.71662 58.6325 4.24278 58.7015 4.57055C58.8223 5.11396 58.8395 7.78786 58.8482 30.2314C58.8482 44.015 58.8223 55.8146 58.7878 56.4529C58.7447 57.3845 58.6843 57.7554 58.5032 58.3074C58.3738 58.6869 58.184 59.1527 58.0633 59.3425C57.9512 59.5322 57.701 59.8859 57.5027 60.1188C57.3043 60.3603 56.942 60.7139 56.7005 60.9037C56.459 61.1021 56.0105 61.404 55.7 61.5765C55.3895 61.7404 54.8289 61.9646 54.4494 62.0595C53.9319 62.1889 53.4834 62.232 52.6813 62.232C51.8792 62.232 51.4307 62.1889 50.9132 62.0595C50.5337 61.9646 49.973 61.7404 49.6625 61.5679C49.352 61.404 48.8777 61.0848 48.593 60.8606C48.317 60.6449 47.9117 60.2309 47.696 59.9463C47.4804 59.6616 47.2217 59.239 47.1095 58.9975C46.9974 58.7646 46.8163 58.2384 46.5144 57.0998V31.094C46.5144 7.10645 46.523 5.04495 46.661 4.52742C46.7387 4.2169 46.9025 3.73388 47.0319 3.44923C47.1527 3.16459 47.4632 2.66431 47.7047 2.33654C47.9548 2.00877 48.4205 1.52575 48.7569 1.26698C49.0847 1.01684 49.5935 0.689073 49.8782 0.559691C50.1628 0.421682 50.5509 0.275049 50.7407 0.231921C50.9304 0.180168 51.8102 0.145666 52.6985 0.137041ZM22.0798 18.3368C22.6404 18.3282 23.6323 18.3886 24.2791 18.4662C24.9346 18.5352 25.9524 18.6905 26.5475 18.8113C27.1426 18.932 28.031 19.1649 28.5313 19.3288C29.0315 19.5013 29.8595 19.8463 30.3856 20.0878C30.9031 20.338 31.7053 20.7692 32.1538 21.0539C32.6023 21.3299 33.3613 21.8647 33.8357 22.2442C34.31 22.6151 35.1208 23.3396 35.6297 23.8399C36.1471 24.3402 36.8458 25.1079 37.1994 25.5305C37.5444 25.9532 38.1654 26.8157 38.5794 27.4281C38.9934 28.0405 39.6317 29.1532 39.9939 29.8864C40.3562 30.6196 40.796 31.646 40.9772 32.1722C41.1497 32.6983 41.3912 33.5091 41.5033 33.9835C41.6154 34.4579 41.7534 35.1134 41.8052 35.4498C41.8569 35.7862 41.9432 36.4763 41.9863 37.0024C42.0294 37.5286 42.0725 38.8224 42.0725 39.892C42.0725 41.3497 42.0467 41.9448 41.9518 42.264C41.8742 42.4969 41.693 42.885 41.5378 43.1179C41.3825 43.3508 41.0203 43.7131 40.7357 43.9287C40.451 44.1443 39.9249 44.4549 39.5713 44.6187C39.2177 44.7826 38.6743 44.9724 38.3638 45.0414C37.898 45.1449 35.828 45.1708 26.03 45.2139C19.5526 45.2398 14.1706 45.3002 14.0585 45.3347C13.9291 45.3864 13.8688 45.4813 13.8688 45.6452C13.8688 45.7832 13.9981 46.1023 14.1448 46.3611C14.2914 46.6199 14.6019 47.1029 14.8175 47.4393C15.0418 47.7757 15.5161 48.3277 15.8611 48.6727C16.2148 49.0264 16.7495 49.4749 17.06 49.6819C17.3705 49.8803 17.8535 50.1649 18.1381 50.3116C18.4228 50.4496 19.0006 50.6911 19.4319 50.8377C19.8545 50.993 20.6308 51.1914 21.1569 51.2776C21.6744 51.3639 22.4938 51.4588 22.9681 51.4933C23.4425 51.5278 24.3309 51.5019 24.9519 51.4501C25.5643 51.3984 26.4958 51.2776 27.0219 51.1828C27.5394 51.0965 28.4968 50.8464 29.135 50.6307C29.8164 50.3978 31.0239 49.8803 32.0244 49.38C32.9731 48.9142 34.0427 48.414 34.3963 48.276C34.7499 48.138 35.3537 47.9482 35.7332 47.8706C36.2334 47.7584 36.6129 47.7326 37.1132 47.7671C37.6738 47.8102 37.9239 47.8792 38.45 48.138C38.9158 48.3708 39.278 48.6469 39.7438 49.1126C40.106 49.4749 40.589 50.0614 40.8219 50.4151C41.0548 50.7687 41.3394 51.3553 41.4602 51.7089C41.6154 52.2178 41.6672 52.5456 41.6672 53.2184C41.6672 53.8567 41.624 54.2621 41.4774 54.771C41.3739 55.1505 41.1669 55.6766 41.0289 55.9354C40.8909 56.1942 40.5373 56.6772 40.2354 57.0136C39.9335 57.35 39.416 57.833 39.0883 58.1004C38.7605 58.3678 38.0447 58.8853 37.5013 59.2562C36.9579 59.6185 35.8884 60.2223 35.1294 60.6018C34.3704 60.9727 33.3009 61.4385 32.7575 61.6282C32.2141 61.818 31.3948 62.0768 30.9463 62.1889C30.4978 62.301 29.618 62.4908 29.0056 62.6115C28.3846 62.7323 27.2979 62.8962 26.5906 62.9738C25.6678 63.0859 24.5896 63.1291 22.7956 63.1291C21.2345 63.1291 19.9753 63.0946 19.4319 63.0256C18.9575 62.9652 17.9484 62.7754 17.1894 62.6029C16.4304 62.439 15.5161 62.2061 15.1625 62.1026C14.8089 61.9905 14.1448 61.7662 13.6963 61.6024C13.2478 61.4385 12.5664 61.1625 12.1869 60.9899C11.8074 60.8174 11.0656 60.4293 10.5481 60.136C10.022 59.8428 9.24576 59.3511 8.82313 59.0406C8.39188 58.7301 7.73638 58.2212 7.35688 57.902C6.97738 57.5915 6.35638 56.9963 5.97688 56.5823C5.59738 56.1597 5.10575 55.5818 4.89013 55.2971C4.6745 55.0038 4.27775 54.4432 4.019 54.0378C3.75163 53.6324 3.3635 52.9769 3.14788 52.5715C2.93225 52.1661 2.56138 51.3553 2.3285 50.7601C2.087 50.1649 1.79375 49.3714 1.673 48.9919C1.55225 48.6124 1.397 48.0689 1.328 47.7843C1.259 47.4997 1.10375 46.663 0.983 45.9298C0.86225 45.1967 0.707 44.0236 0.629375 43.3163C0.560375 42.6176 0.5 41.3928 0.5 40.582C0.5 39.7712 0.543125 38.7362 0.594875 38.2704C0.646625 37.8132 0.819125 36.7178 0.983 35.838C1.18138 34.8116 1.44875 33.7334 1.75063 32.8191C2.00938 32.0341 2.45788 30.9128 2.75113 30.3177C3.03575 29.7225 3.59638 28.7565 3.99313 28.1613C4.38125 27.5661 4.99363 26.7295 5.34725 26.3068C5.70088 25.8842 6.3995 25.1424 6.89113 24.6766C7.38275 24.2108 8.09863 23.5812 8.47813 23.2879C8.85763 22.9946 9.55626 22.4943 10.0306 22.1752C10.505 21.8647 11.5918 21.2609 12.4456 20.8296C13.4979 20.3121 14.4984 19.8894 15.5506 19.5358C16.4045 19.2512 17.6034 18.9148 18.2244 18.794C18.8368 18.6819 19.7338 18.5266 20.2081 18.4662C20.6825 18.3972 21.5278 18.3455 22.0798 18.3368ZM19.7941 29.2912C19.5009 29.3861 18.9661 29.6276 18.6125 29.8174C18.2589 30.0158 17.75 30.3349 17.4913 30.5333C17.2325 30.7317 16.7323 31.1975 16.3873 31.577C16.0336 31.9479 15.5506 32.5689 15.3005 32.9484C15.0418 33.328 14.645 34.0353 14.3949 34.5183C14.1448 35.0272 13.955 35.5275 13.955 35.6827C13.9464 35.838 13.9981 36.0105 14.0585 36.0623C14.1361 36.1399 16.2234 36.183 21.6313 36.2261C27.1513 36.2779 29.1781 36.2693 29.411 36.1916C29.618 36.1313 29.756 36.0277 29.7819 35.9242C29.8078 35.8294 29.7129 35.4326 29.5749 35.0358C29.4455 34.6477 29.204 34.0784 29.0488 33.7679C28.8935 33.4574 28.5571 32.8794 28.2898 32.474C28.031 32.0686 27.4876 31.4045 27.0736 30.9991C26.582 30.5161 26.099 30.1279 25.6419 29.8691C25.2624 29.6535 24.7018 29.3947 24.3913 29.2999C24.0808 29.1964 23.5978 29.0756 23.3131 29.0238C23.0285 28.9807 22.442 28.9376 22.0194 28.9462C21.5881 28.9548 21.0361 28.9893 20.786 29.0325C20.5445 29.0756 20.096 29.1877 19.7941 29.2912ZM77.6507 18.3627C79.0738 18.3886 79.7811 18.4404 80.9282 18.6215C81.7389 18.7509 82.5324 18.8803 82.6963 18.9234C82.8602 18.9665 83.1189 19.0269 83.5157 19.1218L83.4553 20.2086C83.4208 20.8124 83.2569 22.0803 83.0931 23.0291C82.9292 23.9779 82.7308 25.0216 82.6532 25.358C82.5756 25.6944 82.3168 26.5828 82.0753 27.3419C81.8338 28.1009 81.4629 29.1446 81.2387 29.6708C81.0144 30.1969 80.5918 31.0681 80.2986 31.6115C80.0053 32.1549 79.4964 32.9571 79.1773 33.3797C78.8582 33.8024 78.3062 34.4579 77.9526 34.8374C77.5989 35.2083 77.0124 35.7517 76.6588 36.0536C76.3052 36.3469 75.7791 36.7437 75.4944 36.9334C75.2098 37.1232 74.6319 37.4596 74.2007 37.6838C73.7694 37.9081 72.8638 38.2876 72.1738 38.5205C71.3458 38.8052 70.6213 38.9863 70.0175 39.0726C69.5173 39.1329 68.5686 39.2192 67.9044 39.2451C67.0505 39.2882 66.2053 39.2623 65.0151 39.1588C64.0922 39.0812 63.1952 38.9863 63.0313 38.9518C62.8415 38.9173 62.7208 38.8397 62.7122 38.7448C62.6949 38.6672 62.8847 38.3394 63.1348 38.0116C63.3849 37.6925 63.9369 37.0283 64.3596 36.528C64.7822 36.0278 66.6279 34.1388 68.4564 32.3188C70.2849 30.5074 71.7426 29.0238 71.6994 29.0238C71.6563 29.0238 71.5183 29.1187 71.3976 29.2309C71.2768 29.343 70.466 29.9899 69.5863 30.6713C68.7066 31.3614 67.2921 32.4223 66.4382 33.0433C65.5843 33.6644 64.4803 34.4407 63.98 34.7771C63.4798 35.1048 62.669 35.6137 62.1688 35.907C61.6685 36.2003 61.1769 36.4418 61.0734 36.4418C60.9613 36.4418 60.8578 36.3814 60.8319 36.3124C60.806 36.2434 60.8664 35.6655 60.9613 35.0358C61.0562 34.4148 61.2545 33.3711 61.4012 32.7328C61.5564 32.0945 61.8238 31.1198 62.0135 30.5764C62.2033 30.033 62.4965 29.2309 62.6604 28.8082C62.8329 28.3856 63.1865 27.5834 63.4539 27.04C63.7299 26.4966 64.0577 25.8497 64.1957 25.6168C64.3337 25.3753 64.6614 24.8577 64.9374 24.4523C65.2048 24.0469 65.7482 23.3569 66.1449 22.9084C66.5417 22.4598 67.2834 21.7612 67.7923 21.3558C68.3357 20.9159 69.0861 20.4156 69.6467 20.1223C70.1556 19.8549 70.9491 19.5013 71.3976 19.3374C71.8461 19.1649 72.5274 18.9493 72.9069 18.8544C73.2864 18.7509 74.1058 18.5956 74.7182 18.5007C75.6238 18.3713 76.1844 18.3455 77.6507 18.3627ZM103.138 18.3713C104.543 18.3886 104.992 18.4317 105.854 18.6215C106.424 18.7422 107.2 18.9406 107.579 19.07C107.959 19.1908 108.58 19.4409 108.959 19.622C109.339 19.8032 110.081 20.2345 110.598 20.5795C111.193 20.9763 111.857 21.5283 112.392 22.0544C112.849 22.5202 113.237 22.8911 113.255 22.8739C113.272 22.8652 113.375 22.7186 113.488 22.5547C113.6 22.3908 113.945 21.9682 114.255 21.6145C114.574 21.2609 115.075 20.7865 115.385 20.5536C115.696 20.3207 116.222 19.9929 116.549 19.8291C116.877 19.6652 117.464 19.4582 117.843 19.3633C118.223 19.2684 118.792 19.1908 119.12 19.1908C119.439 19.1908 119.982 19.2512 120.327 19.3288C120.664 19.3978 121.241 19.5789 121.595 19.7169C121.949 19.8636 122.458 20.131 122.716 20.3121C122.975 20.4846 123.372 20.821 123.596 21.0539C123.82 21.2868 124.122 21.6318 124.269 21.8216C124.415 22.0113 124.657 22.3995 124.795 22.6841C124.933 22.9687 125.105 23.4863 125.174 23.8227C125.287 24.3747 125.304 26.5742 125.278 40.6855C125.261 55.944 125.252 56.9618 125.105 57.4449C125.019 57.7295 124.795 58.2902 124.605 58.6956C124.407 59.101 124.088 59.6444 123.881 59.9031C123.682 60.1619 123.277 60.6018 122.984 60.8692C122.665 61.1711 122.207 61.4902 121.837 61.6627C121.492 61.8266 120.974 62.0078 120.689 62.0595C120.362 62.1285 119.723 62.1458 118.964 62.1199C118.042 62.094 117.619 62.0336 117.153 61.887C116.825 61.7835 116.334 61.5851 116.075 61.4557C115.816 61.3263 115.368 61.0417 115.083 60.8347C114.799 60.6191 114.333 60.1533 114.048 59.791C113.764 59.4374 113.453 58.9975 113.186 58.5058L112.798 59.0061C112.582 59.2735 112.116 59.7565 111.763 60.0756C111.409 60.3862 110.883 60.8002 110.598 60.9899C110.314 61.1883 109.77 61.4989 109.391 61.6886C109.011 61.8784 108.407 62.1371 108.054 62.2579C107.7 62.3787 107.096 62.5598 106.717 62.6547C106.337 62.7496 105.639 62.8962 105.164 62.9738C104.612 63.0687 103.802 63.1204 102.922 63.1204C102.163 63.1204 101.231 63.0773 100.852 63.0169C100.472 62.9566 99.6358 62.7754 98.9976 62.6115C98.3593 62.4563 97.3847 62.1371 96.8413 61.9215C96.2979 61.7059 95.4182 61.3091 94.9007 61.0503C94.3832 60.7829 93.5207 60.2913 93.0032 59.9463C92.4857 59.6012 91.7439 59.0751 91.3644 58.7732C90.9936 58.4713 90.2173 57.7554 89.6394 57.1861C89.0702 56.6168 88.2594 55.6853 87.8282 55.116C87.3969 54.5467 86.8622 53.7704 86.6379 53.3909C86.4051 53.0114 85.9911 52.2351 85.7151 51.6658C85.4477 51.0965 85.0596 50.1994 84.8698 49.6819C84.6801 49.1644 84.4213 48.345 84.3092 47.8706C84.1884 47.3962 83.9901 46.4991 83.8693 45.8867C83.7572 45.2743 83.6192 44.2737 83.5674 43.6613C83.5157 43.0575 83.4726 41.919 83.4726 41.1168C83.4726 40.3232 83.5329 39.1674 83.6019 38.555C83.6709 37.9426 83.9211 36.6143 84.1539 35.6224C84.3868 34.6218 84.7577 33.2935 84.9733 32.6638C85.1889 32.0428 85.5081 31.2233 85.6806 30.8524C85.8531 30.4902 86.2326 29.6794 86.5344 29.067C86.8363 28.4546 87.4314 27.4195 87.8541 26.7812C88.2767 26.1429 88.9408 25.2459 89.3117 24.7973C89.6912 24.3488 90.4243 23.5812 90.9418 23.0895C91.4593 22.6065 92.3649 21.8561 92.9601 21.4334C93.5552 21.0108 94.3659 20.4846 94.7713 20.2776C95.1767 20.0706 95.8753 19.7428 96.3238 19.553C96.7723 19.3633 97.3416 19.1476 97.5744 19.0786C97.8159 19.001 98.506 18.8371 99.1269 18.7164C99.7479 18.587 100.524 18.4576 100.852 18.4145C101.18 18.3713 102.215 18.3541 103.138 18.3713ZM101.499 31.0508C101.188 31.1802 100.705 31.4131 100.421 31.5684C100.136 31.7236 99.6099 32.0773 99.2563 32.3619C98.9027 32.6466 98.4197 33.1037 98.1954 33.3883C97.9626 33.6644 97.5658 34.2682 97.3071 34.7167C97.0311 35.1997 96.712 35.9329 96.5308 36.4849C96.3583 37.0024 96.1686 37.8046 96.0996 38.2531C96.0306 38.7103 95.9788 39.7195 95.9788 40.5389C95.9788 41.3497 96.0219 42.333 96.0651 42.7384C96.1168 43.1438 96.1944 43.6613 96.2462 43.9028C96.2979 44.1357 96.4359 44.6619 96.5567 45.0673C96.6774 45.4727 96.9103 46.0678 97.0742 46.4042C97.2467 46.7406 97.5227 47.2236 97.6952 47.4824C97.8677 47.7412 98.2817 48.2415 98.6095 48.5951C98.9372 48.9401 99.4461 49.3973 99.7307 49.6043C100.015 49.8027 100.559 50.1304 100.938 50.3202C101.318 50.51 101.939 50.7687 102.318 50.8895C102.905 51.0879 103.198 51.131 104.259 51.1655C105.251 51.2 105.622 51.1828 106.07 51.0706C106.381 50.993 107.036 50.7515 107.536 50.5445C108.037 50.3288 108.64 50.0183 108.873 49.8544C109.115 49.6819 109.606 49.2506 109.986 48.8797C110.357 48.5175 110.805 47.9999 110.978 47.7412C111.15 47.4824 111.418 47.0339 111.564 46.7492C111.711 46.4646 111.961 45.9212 112.108 45.5417C112.254 45.1622 112.461 44.4807 112.547 44.0322C112.642 43.5837 112.754 42.8419 112.798 42.3934C112.841 41.9448 112.884 41.1254 112.884 40.582C112.884 40.0386 112.849 39.1847 112.798 38.6844C112.746 38.1841 112.651 37.5113 112.591 37.1749C112.522 36.8385 112.366 36.3038 112.237 35.9674C112.116 35.631 111.857 35.0703 111.676 34.7167C111.487 34.363 111.09 33.7592 110.788 33.3797C110.477 32.9829 109.969 32.4827 109.598 32.2067C109.244 31.9393 108.597 31.5425 108.166 31.3182C107.726 31.1026 107.062 30.8352 106.7 30.7403C106.191 30.6023 105.708 30.5506 104.733 30.5247C103.698 30.4988 103.301 30.5247 102.749 30.6541C102.37 30.7403 101.809 30.9215 101.499 31.0508ZM67.6025 41.6516C69.6984 41.6861 69.9572 41.7033 70.7507 41.9017C71.2251 42.0225 71.9409 42.2295 72.3463 42.3502C72.7517 42.4796 73.5624 42.8333 74.1576 43.1352C74.7527 43.4371 75.5807 43.9373 76.0119 44.2479C76.4432 44.5584 77.0987 45.1104 77.4782 45.4813C77.8577 45.8522 78.4097 46.4387 78.6943 46.7924C78.9876 47.146 79.4447 47.7843 79.7121 48.2156C79.9881 48.6469 80.4538 49.5008 80.7557 50.1132C81.0576 50.7256 81.4802 51.7175 81.6958 52.3127C81.9028 52.9079 82.2133 53.8567 82.3858 54.4259C82.5497 54.9952 82.8084 56.0993 82.9464 56.8842C83.0844 57.6691 83.2483 58.6352 83.3001 59.0406C83.3518 59.446 83.4036 60.2137 83.4294 61.7404L82.5669 61.9388C82.0926 62.0509 81.2732 62.2062 80.7557 62.2924C80.0139 62.4132 79.2981 62.4477 77.4782 62.4477C75.4341 62.439 75.0201 62.4218 74.0713 62.2493C73.4762 62.1371 72.4671 61.8784 71.8288 61.6627C71.1906 61.4471 70.2763 61.0676 69.8019 60.8088C69.3276 60.5587 68.6721 60.1533 68.3357 59.9204C68.0079 59.6875 67.3697 59.1527 66.9212 58.7301C66.4813 58.3074 65.8775 57.6519 65.5843 57.2724C65.291 56.8928 64.8943 56.3322 64.6959 56.0217C64.5062 55.7111 64.1525 55.116 63.9197 54.6847C63.6782 54.2534 63.2728 53.4254 63.014 52.8302C62.7467 52.2351 62.3758 51.3035 62.186 50.7601C61.9963 50.2167 61.7289 49.3196 61.5823 48.7762C61.4357 48.2328 61.2545 47.4738 61.1855 47.0943C61.1079 46.7147 60.9958 45.9988 60.9268 45.4986C60.8578 44.9983 60.8147 44.5411 60.8405 44.4807C60.8578 44.429 60.944 44.3772 61.0303 44.3772C61.1079 44.3772 61.5478 44.5842 61.9963 44.8258C62.4448 45.0759 63.4194 45.6797 64.1525 46.18C64.8857 46.6716 65.9207 47.3875 66.4382 47.7671C66.9557 48.1466 67.7147 48.7159 68.12 49.035C68.5254 49.3455 69.3621 49.9838 69.9744 50.4582C70.5954 50.924 71.3199 51.5019 71.5959 51.7434C71.8719 51.9849 72.1134 52.1661 72.1307 52.1402C72.1566 52.1143 71.4062 51.3725 70.4747 50.4927C69.5346 49.6129 68.3615 48.483 67.8699 47.9913C67.3783 47.4997 66.5848 46.6889 66.1018 46.1886C65.6274 45.6883 64.7563 44.7136 64.1612 44.015C63.5574 43.3249 62.9882 42.5918 62.8847 42.402C62.7122 42.0915 62.7035 42.0311 62.8157 41.919C62.9105 41.8241 63.2297 41.781 64.049 41.7378C64.6528 41.712 65.1875 41.6775 65.2307 41.6516C65.2738 41.6343 66.3433 41.6343 67.6025 41.6516Z" fill="#01CAFF"/>
</svg>
