<svg width="111" height="90" viewBox="0 0 111 90" fill="none" xmlns="http://www.w3.org/2000/svg">
<path d="M62.0062 0.26416C62.2399 0.386707 62.4094 0.568111 62.5901 0.756434C62.6298 0.797088 62.6694 0.837742 62.7102 0.879628C62.8236 0.996641 62.936 1.11451 63.048 1.23281C63.1196 1.30779 63.1196 1.30779 63.1925 1.38428C65.1636 3.54668 66.0178 6.25839 65.9444 9.15095C65.9005 10.0882 65.7063 10.9988 65.416 11.8888C65.4897 11.8423 65.5633 11.7957 65.6392 11.7477C67.4692 10.6161 69.382 10.0948 71.5256 10.1082C71.6296 10.1086 71.7335 10.1089 71.8374 10.1092C72.0896 10.1101 72.3418 10.1113 72.594 10.1128C72.6413 12.8369 72.3083 15.1262 70.744 17.4388C70.6952 17.5121 70.6463 17.5853 70.596 17.6608C70.6449 17.6364 70.6937 17.612 70.744 17.5868C70.8836 17.5805 71.0234 17.5789 71.1632 17.5796C71.2461 17.5798 71.3291 17.5801 71.4146 17.5803C71.5016 17.5809 71.5886 17.5815 71.6783 17.5822C71.7658 17.5825 71.8534 17.5829 71.9436 17.5832C72.1604 17.5841 72.3772 17.5853 72.594 17.5868C72.6571 20.3582 72.6571 20.3582 72.298 21.6568C72.2846 21.7067 72.2711 21.7566 72.2572 21.808C71.9269 22.9932 71.3529 24.0471 70.67 25.0608C71.3049 25.0852 71.9399 25.1096 72.594 25.1348C72.6368 27.821 72.6368 27.821 72.372 28.8348C72.3553 28.9065 72.3553 28.9065 72.3383 28.9797C72.0133 30.3747 71.3534 31.7221 70.448 32.8308C70.4128 32.8745 70.3776 32.9183 70.3413 32.9633C68.7206 34.9625 66.4219 36.3561 63.862 36.7528C63.5934 36.7772 63.3248 36.8016 63.048 36.8268C63.048 39.8305 63.048 42.8341 63.048 45.9288C62.0056 45.9334 60.9632 45.938 59.8891 45.9427C59.5633 45.9447 59.2375 45.9467 58.9018 45.9488C58.4955 45.9498 58.4955 45.9498 58.3036 45.95C58.1732 45.9503 58.0428 45.9511 57.9123 45.9522C56.6449 45.9628 55.3821 45.8603 54.1588 45.5079C54.0921 45.4892 54.0255 45.4704 53.9568 45.4511C53.2625 45.248 52.6014 44.9798 51.948 44.6708C51.8747 44.6362 51.8747 44.6362 51.7999 44.6009C50.6919 44.0674 49.6817 43.3472 48.8044 42.4866C48.6828 42.3678 48.5594 42.2513 48.4359 42.1346C46.3035 40.0929 44.8056 37.04 44.6893 34.0657C44.6868 33.8834 44.6865 33.7013 44.6871 33.519C44.6871 33.4498 44.687 33.3807 44.6869 33.3094C44.6868 33.0793 44.6872 32.8493 44.6876 32.6192C44.6876 32.4536 44.6876 32.288 44.6876 32.1224C44.6876 31.674 44.688 31.2257 44.6885 30.7773C44.689 30.3083 44.689 29.8392 44.6891 29.3702C44.6893 28.5834 44.6898 27.7965 44.6904 27.0097C44.6911 26.1995 44.6916 25.3893 44.692 24.5791C44.692 24.5291 44.692 24.4791 44.692 24.4276C44.6921 24.1767 44.6922 23.9259 44.6923 23.675C44.6931 21.5963 44.6944 19.5175 44.696 17.4388C44.6018 17.4274 44.5075 17.416 44.4104 17.4043C42.6852 17.1958 40.9695 15.9448 39.9187 14.6135C38.7999 13.1402 38.2351 11.4466 38.258 9.59481C38.3114 9.59373 38.3648 9.59265 38.4198 9.59154C41.9998 9.51183 45.4363 8.93572 48.84 7.81881C48.9085 7.79659 48.9769 7.77438 49.0475 7.75149C50.789 7.18251 52.4564 6.41523 54.094 5.59881C54.1566 5.56765 54.2192 5.53649 54.2838 5.50439C56.914 4.18476 59.5904 2.45208 61.7019 0.385855C61.864 0.270809 61.864 0.270809 62.0062 0.26416ZM61.938 3.37881C60.5609 4.78115 60.1287 6.90546 60.1405 8.79082C60.1686 10.6263 60.7834 12.3008 61.938 13.7388C62.2447 13.4586 62.443 13.1728 62.641 12.8092C62.6844 12.7302 62.6844 12.7302 62.7287 12.6496C63.7791 10.7082 64.1403 8.40034 63.5215 6.25863C63.209 5.22946 62.7549 4.17337 62.012 3.37881C61.9876 3.37881 61.9632 3.37881 61.938 3.37881ZM53.502 12.3328C53.7396 14.5104 54.8202 16.4499 56.4898 17.8643C57.7206 18.8312 59.2421 19.5833 60.828 19.6588C60.843 19.2286 60.8022 18.8651 60.6846 18.4517C60.6603 18.3662 60.6603 18.3662 60.6356 18.2789C59.9997 16.164 58.5973 14.3774 56.6707 13.2926C56.2449 13.0656 55.8001 12.8807 55.352 12.7028C55.2338 12.6556 55.2338 12.6556 55.1133 12.6074C54.5792 12.4115 54.0691 12.3511 53.502 12.3328ZM65.342 14.7748C65.2845 14.8306 65.227 14.8864 65.1677 14.9439C64.0461 16.1012 63.048 18.0104 63.048 19.6588C63.246 19.6368 63.4428 19.6121 63.64 19.5848C63.6911 19.5783 63.7421 19.5718 63.7947 19.5652C65.8274 19.2365 67.6947 17.9773 68.894 16.3288C69.1049 16.0151 69.2997 15.6956 69.486 15.3668C69.5201 15.308 69.5541 15.2491 69.5892 15.1885C69.9878 14.4508 70.393 13.4552 70.3786 12.6057C70.3771 12.5156 70.3756 12.4256 70.374 12.3328C68.4757 12.2621 66.6301 13.4905 65.342 14.7748ZM53.502 19.8068C53.5922 21.7014 54.5607 23.4416 55.87 24.7648C55.9439 24.8454 55.9439 24.8454 56.0192 24.9276C56.7395 25.6979 57.6618 26.1796 58.608 26.6148C58.6921 26.6536 58.7761 26.6925 58.8627 26.7325C59.1585 26.8497 59.4501 26.928 59.7596 26.9987C59.8136 27.0118 59.8675 27.0249 59.9231 27.0384C60.2309 27.1102 60.5096 27.1474 60.828 27.1328C60.7411 25.0034 59.5307 23.109 58.0016 21.6984C56.8368 20.6903 55.0688 19.8068 53.502 19.8068ZM65.934 21.7308C65.869 21.7844 65.8039 21.838 65.7369 21.8933C65.1579 22.3874 64.7247 22.9486 64.306 23.5808C64.2635 23.6449 64.2635 23.6449 64.2201 23.7103C63.7639 24.4137 63.5064 25.1505 63.27 25.9488C63.2277 26.0853 63.2277 26.0853 63.1845 26.2246C63.1288 26.4406 63.106 26.6109 63.1128 26.8322C63.1141 26.8893 63.1154 26.9465 63.1168 27.0053C63.1185 27.0474 63.1202 27.0895 63.122 27.1328C63.7523 27.1075 64.3039 26.9695 64.898 26.7628C64.9759 26.737 65.0537 26.7111 65.1339 26.6845C66.213 26.3023 67.093 25.6784 67.932 24.9128C67.9866 24.8644 68.0411 24.8159 68.0974 24.766C69.3129 23.6283 70.2583 21.7616 70.448 20.1028C70.448 20.0051 70.448 19.9074 70.448 19.8068C68.8681 19.7418 67.0883 20.7146 65.934 21.7308ZM53.502 27.2808C53.6189 28.9459 54.3398 30.5424 55.426 31.7948C55.4997 31.8845 55.4997 31.8845 55.5749 31.9761C56.8636 33.4935 58.6737 34.3343 60.606 34.6808C60.6793 34.6808 60.7525 34.6808 60.828 34.6808C60.8218 32.9173 59.8943 31.2416 58.756 29.9448C58.7031 29.8844 58.6501 29.824 58.5956 29.7618C57.3107 28.395 55.5465 27.6164 53.724 27.2808C53.6508 27.2808 53.5775 27.2808 53.502 27.2808ZM65.786 29.3528C65.7498 29.3859 65.7136 29.419 65.6762 29.4531C64.3992 30.6325 63.2071 32.4598 63.1136 34.2492C63.1129 34.3685 63.1168 34.4877 63.122 34.6068C64.933 34.6299 66.7056 33.5785 67.9816 32.3706C69.3184 31.067 70.1123 29.408 70.448 27.5768C70.448 27.4791 70.448 27.3814 70.448 27.2808C68.7928 27.2808 66.9746 28.2606 65.786 29.3528Z" fill="#143029"/>
<path d="M62.0062 0.26416C62.2399 0.386707 62.4094 0.568111 62.5901 0.756434C62.6298 0.797088 62.6694 0.837742 62.7102 0.879628C62.8236 0.996641 62.936 1.11451 63.048 1.23281C63.1196 1.30779 63.1196 1.30779 63.1925 1.38428C65.1636 3.54668 66.0178 6.25839 65.9444 9.15095C65.9005 10.0882 65.7063 10.9988 65.416 11.8888C65.4897 11.8423 65.5633 11.7957 65.6392 11.7477C67.4692 10.6161 69.382 10.0948 71.5256 10.1082C71.6296 10.1086 71.7335 10.1089 71.8374 10.1092C72.0896 10.1101 72.3418 10.1113 72.594 10.1128C72.6413 12.8369 72.3083 15.1262 70.744 17.4388C70.6952 17.5121 70.6463 17.5853 70.596 17.6608C70.6449 17.6364 70.6937 17.612 70.744 17.5868C70.8836 17.5805 71.0234 17.5789 71.1632 17.5796C71.2461 17.5798 71.3291 17.5801 71.4146 17.5803C71.5016 17.5809 71.5886 17.5815 71.6783 17.5822C71.7658 17.5825 71.8534 17.5829 71.9436 17.5832C72.1604 17.5841 72.3772 17.5853 72.594 17.5868C72.6571 20.3582 72.6571 20.3582 72.298 21.6568C72.2846 21.7067 72.2711 21.7566 72.2572 21.808C71.9269 22.9932 71.3529 24.0471 70.67 25.0608C71.3049 25.0852 71.9399 25.1096 72.594 25.1348C72.6368 27.821 72.6368 27.821 72.372 28.8348C72.3553 28.9065 72.3553 28.9065 72.3383 28.9797C72.0133 30.3747 71.3534 31.7221 70.448 32.8308C70.4128 32.8745 70.3776 32.9183 70.3413 32.9633C68.7206 34.9625 66.4219 36.3561 63.862 36.7528C63.5934 36.7772 63.3248 36.8016 63.048 36.8268C63.048 39.8305 63.048 42.8341 63.048 45.9288C62.0056 45.9334 60.9632 45.938 59.8891 45.9427C59.5633 45.9447 59.2375 45.9467 58.9018 45.9488C58.4955 45.9498 58.4955 45.9498 58.3036 45.95C58.1732 45.9503 58.0428 45.9511 57.9123 45.9522C56.6449 45.9628 55.3821 45.8603 54.1588 45.5079C54.0921 45.4892 54.0255 45.4704 53.9568 45.4511C53.2625 45.248 52.6014 44.9798 51.948 44.6708C51.8747 44.6362 51.8747 44.6362 51.7999 44.6009C50.6919 44.0674 49.6817 43.3472 48.8044 42.4866C48.6828 42.3678 48.5594 42.2513 48.4359 42.1346C46.3035 40.0929 44.8056 37.04 44.6893 34.0657C44.6868 33.8834 44.6865 33.7013 44.6871 33.519C44.6871 33.4498 44.687 33.3807 44.6869 33.3094C44.6868 33.0793 44.6872 32.8493 44.6876 32.6192C44.6876 32.4536 44.6876 32.288 44.6876 32.1224C44.6876 31.674 44.688 31.2257 44.6885 30.7773C44.689 30.3083 44.689 29.8392 44.6891 29.3702C44.6893 28.5834 44.6898 27.7965 44.6904 27.0097C44.6911 26.1995 44.6916 25.3893 44.692 24.5791C44.692 24.5291 44.692 24.4791 44.692 24.4276C44.6921 24.1767 44.6922 23.9259 44.6923 23.675C44.6931 21.5963 44.6944 19.5175 44.696 17.4388C44.6018 17.4274 44.5075 17.416 44.4104 17.4043C42.6852 17.1958 40.9695 15.9448 39.9187 14.6135C38.7999 13.1402 38.2351 11.4466 38.258 9.59481C38.3114 9.59373 38.3648 9.59265 38.4198 9.59154C41.9998 9.51183 45.4363 8.93572 48.84 7.81881C48.9085 7.79659 48.9769 7.77438 49.0475 7.75149C50.789 7.18251 52.4564 6.41523 54.094 5.59881C54.1566 5.56765 54.2192 5.53649 54.2838 5.50439C56.914 4.18476 59.5904 2.45208 61.7019 0.385855C61.864 0.270809 61.864 0.270809 62.0062 0.26416ZM61.938 3.37881C60.5609 4.78115 60.1287 6.90546 60.1405 8.79082C60.1686 10.6263 60.7834 12.3008 61.938 13.7388C62.2447 13.4586 62.443 13.1728 62.641 12.8092C62.6844 12.7302 62.6844 12.7302 62.7287 12.6496C63.7791 10.7082 64.1403 8.40034 63.5215 6.25863C63.209 5.22946 62.7549 4.17337 62.012 3.37881C61.9876 3.37881 61.9632 3.37881 61.938 3.37881ZM53.502 12.3328C53.7396 14.5104 54.8202 16.4499 56.4898 17.8643C57.7206 18.8312 59.2421 19.5833 60.828 19.6588C60.843 19.2286 60.8022 18.8651 60.6846 18.4517C60.6603 18.3662 60.6603 18.3662 60.6356 18.2789C59.9997 16.164 58.5973 14.3774 56.6707 13.2926C56.2449 13.0656 55.8001 12.8807 55.352 12.7028C55.2338 12.6556 55.2338 12.6556 55.1133 12.6074C54.5792 12.4115 54.0691 12.3511 53.502 12.3328ZM65.342 14.7748C65.2845 14.8306 65.227 14.8864 65.1677 14.9439C64.0461 16.1012 63.048 18.0104 63.048 19.6588C63.246 19.6368 63.4428 19.6121 63.64 19.5848C63.6911 19.5783 63.7421 19.5718 63.7947 19.5652C65.8274 19.2365 67.6947 17.9773 68.894 16.3288C69.1049 16.0151 69.2997 15.6956 69.486 15.3668C69.5201 15.308 69.5541 15.2491 69.5892 15.1885C69.9878 14.4508 70.393 13.4552 70.3786 12.6057C70.3771 12.5156 70.3756 12.4256 70.374 12.3328C68.4757 12.2621 66.6301 13.4905 65.342 14.7748ZM53.502 19.8068C53.5922 21.7014 54.5607 23.4416 55.87 24.7648C55.9439 24.8454 55.9439 24.8454 56.0192 24.9276C56.7395 25.6979 57.6618 26.1796 58.608 26.6148C58.6921 26.6536 58.7761 26.6925 58.8627 26.7325C59.1585 26.8497 59.4501 26.928 59.7596 26.9987C59.8136 27.0118 59.8675 27.0249 59.9231 27.0384C60.2309 27.1102 60.5096 27.1474 60.828 27.1328C60.7411 25.0034 59.5307 23.109 58.0016 21.6984C56.8368 20.6903 55.0688 19.8068 53.502 19.8068ZM65.934 21.7308C65.869 21.7844 65.8039 21.838 65.7369 21.8933C65.1579 22.3874 64.7247 22.9486 64.306 23.5808C64.2635 23.6449 64.2635 23.6449 64.2201 23.7103C63.7639 24.4137 63.5064 25.1505 63.27 25.9488C63.2277 26.0853 63.2277 26.0853 63.1845 26.2246C63.1288 26.4406 63.106 26.6109 63.1128 26.8322C63.1141 26.8893 63.1154 26.9465 63.1168 27.0053C63.1185 27.0474 63.1202 27.0895 63.122 27.1328C63.7523 27.1075 64.3039 26.9695 64.898 26.7628C64.9759 26.737 65.0537 26.7111 65.1339 26.6845C66.213 26.3023 67.093 25.6784 67.932 24.9128C67.9866 24.8644 68.0411 24.8159 68.0974 24.766C69.3129 23.6283 70.2583 21.7616 70.448 20.1028C70.448 20.0051 70.448 19.9074 70.448 19.8068C68.8681 19.7418 67.0883 20.7146 65.934 21.7308ZM53.502 27.2808C53.6189 28.9459 54.3398 30.5424 55.426 31.7948C55.4997 31.8845 55.4997 31.8845 55.5749 31.9761C56.8636 33.4935 58.6737 34.3343 60.606 34.6808C60.6793 34.6808 60.7525 34.6808 60.828 34.6808C60.8218 32.9173 59.8943 31.2416 58.756 29.9448C58.7031 29.8844 58.6501 29.824 58.5956 29.7618C57.3107 28.395 55.5465 27.6164 53.724 27.2808C53.6508 27.2808 53.5775 27.2808 53.502 27.2808ZM65.786 29.3528C65.7498 29.3859 65.7136 29.419 65.6762 29.4531C64.3992 30.6325 63.2071 32.4598 63.1136 34.2492C63.1129 34.3685 63.1168 34.4877 63.122 34.6068C64.933 34.6299 66.7056 33.5785 67.9816 32.3706C69.3184 31.067 70.1123 29.408 70.448 27.5768C70.448 27.4791 70.448 27.3814 70.448 27.2808C68.7928 27.2808 66.9746 28.2606 65.786 29.3528Z" fill="#143029"/>
<path d="M77.996 57.0288C77.996 60.2278 77.996 63.4268 77.996 66.7228C79.0705 66.7228 80.145 66.7228 81.252 66.7228C81.252 63.8168 81.252 60.9108 81.252 57.9168C81.8015 57.8069 81.8015 57.8069 82.362 57.6948C82.9137 57.5009 83.3911 57.2913 83.916 57.0288C83.9404 58.8847 83.9649 60.7406 83.99 62.6528C84.2464 62.3597 84.2464 62.3597 84.508 62.0608C85.3608 61.229 86.4327 60.8862 87.6021 60.8537C88.5936 60.8721 89.5137 61.1005 90.2661 61.774C91.0831 62.6654 91.2231 63.8486 91.1952 65.0029C91.1671 65.5638 91.0507 66.1434 90.798 66.6488C91.7031 66.7178 91.7031 66.7178 92.5 66.3528C92.784 66.0032 92.8692 65.7167 92.8992 65.2778C92.9971 63.9893 93.2038 62.8078 94.1977 61.8847C94.9345 61.3045 95.8475 60.9148 96.792 60.8768C96.8779 60.873 96.9637 60.8692 97.0522 60.8652C98.243 60.8297 99.396 61.0185 100.303 61.8582C101.235 62.9003 101.244 64.2641 101.237 65.5804C101.235 65.9574 101.234 66.3344 101.232 66.7228C101.989 66.7228 102.746 66.7228 103.526 66.7228C103.526 63.8168 103.526 60.9108 103.526 57.9168C103.917 57.8435 104.307 57.7703 104.71 57.6948C105.042 57.593 105.042 57.593 105.311 57.4728C105.398 57.4362 105.486 57.3995 105.575 57.3618C105.808 57.2564 106.036 57.1428 106.264 57.0288C106.264 60.936 106.264 64.8432 106.264 68.8688C104.712 68.8718 103.16 68.8749 101.56 68.878C100.828 68.8801 100.828 68.8801 100.081 68.8821C99.4799 68.8828 99.4799 68.8828 99.1976 68.8829C99.0025 68.8831 98.8074 68.8836 98.6123 68.8844C95.3369 68.8974 95.3369 68.8974 94.054 67.9068C94.0336 67.9517 94.0132 67.9966 93.9921 68.0429C93.7833 68.4306 93.4251 68.6094 93.0273 68.752C92.5909 68.8707 92.1694 68.8792 91.7209 68.8777C91.6504 68.8777 91.5799 68.8778 91.5073 68.8779C91.2714 68.878 91.0355 68.8776 90.7996 68.8772C90.6304 68.8772 90.4612 68.8772 90.292 68.8772C89.8328 68.8772 89.3735 68.8768 88.9143 68.8763C88.4343 68.8758 87.9543 68.8758 87.4743 68.8757C86.6687 68.8755 85.8631 68.875 85.0576 68.8744C84.2279 68.8737 83.3982 68.8732 82.5686 68.8728C82.5169 68.8728 82.4652 68.8728 82.412 68.8728C81.9624 68.8726 81.5127 68.8725 81.0631 68.8723C79.1281 68.8716 77.1931 68.8701 75.258 68.8688C75.258 65.2546 75.258 61.6405 75.258 57.9168C75.6487 57.8435 76.0395 57.7703 76.442 57.6948C76.8182 57.5537 77.5927 57.0288 77.996 57.0288ZM96.1029 63.4853C95.6397 64.0962 95.622 64.6326 95.682 65.3908C95.763 65.8045 95.9438 66.0887 96.274 66.3528C96.8227 66.6822 97.2951 66.7339 97.9251 66.7274C97.987 66.7271 98.0489 66.7267 98.1126 66.7264C98.2644 66.7255 98.4162 66.7242 98.568 66.7228C98.5736 66.4096 98.5776 66.0965 98.5802 65.7833C98.5813 65.6771 98.5828 65.5709 98.5848 65.4647C98.6084 64.3939 98.6084 64.3939 98.1795 63.4344C97.8788 63.1542 97.6113 63.0395 97.2036 62.995C96.7521 63.0426 96.4144 63.1422 96.1029 63.4853ZM84.952 64.2808C84.4762 64.9799 83.971 65.8606 83.99 66.7228C84.3531 66.7283 84.7162 66.7323 85.0794 66.735C85.2026 66.7361 85.3257 66.7376 85.4488 66.7395C86.739 66.781 86.739 66.781 87.8796 66.2557C88.3153 65.8254 88.4244 65.3766 88.4485 64.7803C88.4412 64.2964 88.3318 63.8182 88.0323 63.4298C87.6706 63.0854 87.3046 63.0543 86.8208 63.065C86.0368 63.1685 85.4323 63.6814 84.952 64.2808Z" fill="#143029"/>
<path d="M84.656 73.9008C84.656 77.7836 84.656 81.6664 84.656 85.6668C82.1652 85.6668 79.6743 85.6668 77.108 85.6668C77.0802 83.4098 77.0802 83.4098 77.0726 82.7003C77.07 82.5136 77.0674 82.3269 77.0646 82.1402C77.0638 82.0442 77.063 81.9482 77.0621 81.8492C77.0644 80.9784 77.0644 80.9784 76.738 80.1908C76.1782 79.8695 76.1782 79.8695 74.962 79.9688C74.9376 81.8491 74.9132 83.7295 74.888 85.6668C72.991 85.6718 71.0939 85.6759 69.1969 85.6783C68.316 85.6794 67.435 85.681 66.5541 85.6835C65.7858 85.6858 65.0174 85.6872 64.2491 85.6877C63.8427 85.688 63.4364 85.6886 63.03 85.6903C62.6465 85.6918 62.263 85.6922 61.8795 85.6919C61.7397 85.692 61.6 85.6924 61.4602 85.6933C59.7264 85.7034 57.8826 85.4931 56.5545 84.2608C55.5909 83.2463 55.3342 81.9182 55.352 80.5608C55.3633 80.3163 55.3829 80.0735 55.4075 79.83C55.4129 79.7756 55.4184 79.7212 55.424 79.6651C55.4805 79.1886 55.5989 78.73 55.722 78.2668C56.0958 78.2014 56.4698 78.1369 56.8439 78.073C56.9711 78.0512 57.0983 78.0292 57.2255 78.0069C57.4083 77.9749 57.5913 77.9437 57.7743 77.9127C57.8595 77.8976 57.8595 77.8976 57.9463 77.8821C58.2165 77.837 58.4199 77.8185 58.682 77.8968C58.657 77.9658 58.632 78.0347 58.6063 78.1058C58.1804 79.3099 57.8675 80.7788 58.3912 82.0041C58.7207 82.633 59.1413 82.96 59.792 83.2248C60.4989 83.4432 61.1897 83.4797 61.9229 83.4788C62.0368 83.4795 62.1507 83.4802 62.2645 83.4811C62.5706 83.4831 62.8766 83.4838 63.1826 83.4842C63.5036 83.4849 63.8246 83.4869 64.1455 83.4887C64.7519 83.4919 65.3584 83.494 65.9648 83.4957C66.7852 83.4981 67.6056 83.5022 68.4261 83.5062C69.7167 83.5125 71.0073 83.5164 72.298 83.5208C72.298 81.7137 72.298 79.9066 72.298 78.0448C73.3531 77.8103 74.3654 77.7336 75.4414 77.7268C75.5551 77.726 75.6688 77.725 75.7824 77.7235C76.7564 77.7128 77.6842 77.7756 78.514 78.3408C78.5594 78.3692 78.6048 78.3976 78.6516 78.4269C79.258 78.8643 79.5321 79.654 79.6679 80.3613C79.7143 80.6688 79.7163 80.9702 79.7124 81.2806C79.7121 81.3775 79.7121 81.3775 79.7118 81.4765C79.711 81.68 79.7091 81.8835 79.7072 82.087C79.7065 82.2263 79.7058 82.3655 79.7052 82.5047C79.7037 82.8434 79.7008 83.1821 79.698 83.5208C80.4306 83.5208 81.1632 83.5208 81.918 83.5208C81.918 80.6148 81.918 77.7088 81.918 74.7148C82.4308 74.6415 82.4308 74.6415 82.954 74.5668C83.2359 74.4902 83.2359 74.4902 83.4627 74.391C83.5409 74.3589 83.619 74.3268 83.6995 74.2936C84.5778 73.9008 84.5778 73.9008 84.656 73.9008Z" fill="#143029"/>
<path d="M64.38 61.0248C64.38 62.9052 64.38 64.7855 64.38 66.7228C66.5046 66.7228 68.6291 66.7228 70.818 66.7228C70.8431 65.1855 70.8431 65.1855 70.1945 63.8507C69.5812 63.2419 68.7331 63.2206 67.9228 63.2217C67.3517 63.2255 66.8015 63.2669 66.23 63.3188C66.23 62.6106 66.23 61.9025 66.23 61.1728C67.2318 61.0059 67.2318 61.0059 67.6811 61.0026C67.7293 61.0021 67.7774 61.0017 67.827 61.0013C67.9792 61.0004 68.1313 61.0009 68.2835 61.0017C68.3358 61.0018 68.388 61.002 68.4418 61.0021C69.9504 61.0087 71.3293 61.2431 72.4923 62.2874C73.5461 63.4 73.603 64.9634 73.5674 66.4049C73.4837 68.1976 73.4837 68.1976 73.26 68.8688C70.2808 68.8688 67.3016 68.8688 64.232 68.8688C64.1832 69.1374 64.1344 69.4061 64.084 69.6828C63.7707 70.7126 63.1295 71.5742 62.1765 72.0875C60.7344 72.7399 58.9132 72.8083 57.424 72.2728C56.4379 71.898 55.8225 71.2727 55.3818 70.3187C55.2248 69.9163 55.1268 69.5163 55.056 69.0908C55.0464 69.0359 55.0368 68.9809 55.0268 68.9243C54.8445 67.6408 55.0177 66.2652 55.352 65.0208C56.2762 64.7783 57.2207 64.6471 58.164 64.5028C58.1033 64.9562 58.0146 65.4006 57.9212 65.8484C57.7009 67.0182 57.5737 68.5012 58.1872 69.5718C58.4501 69.9461 58.7609 70.2049 59.2 70.3488C59.8607 70.4254 60.4313 70.3823 60.976 69.9788C61.552 69.3438 61.5772 68.3678 61.5832 67.5514C61.584 67.4893 61.5847 67.4271 61.5854 67.3631C61.5878 67.1597 61.5896 66.9563 61.5914 66.7529C61.593 66.611 61.5945 66.4692 61.5961 66.3274C61.6002 65.9556 61.6038 65.5838 61.6074 65.2121C61.6111 64.8321 61.6153 64.4521 61.6193 64.0721C61.6273 63.3277 61.6348 62.5832 61.642 61.8388C61.7213 61.8249 61.8006 61.8111 61.8823 61.7967C61.9885 61.7776 62.0946 61.7585 62.2008 61.7394C62.2528 61.7303 62.3048 61.7213 62.3584 61.712C62.9303 61.6078 63.4889 61.432 63.986 61.1243C64.158 61.0248 64.158 61.0248 64.38 61.0248Z" fill="#143029"/>
<path d="M0 73.6048C0.95238 73.6048 1.90476 73.6048 2.886 73.6048C3.21885 74.0803 3.53265 74.5451 3.82487 75.0432C4.51795 76.2107 5.25376 77.3508 5.994 78.4888C6.02737 78.4326 6.02737 78.4326 6.06142 78.3753C6.54026 77.5701 7.02785 76.7716 7.53037 75.9809C7.86255 75.458 8.18971 74.932 8.51746 74.4063C8.5625 74.3341 8.60754 74.2619 8.65395 74.1876C8.71407 74.0911 8.71407 74.0911 8.77539 73.9927C8.85769 73.8622 8.94241 73.7332 9.028 73.6048C9.98038 73.6048 10.9328 73.6048 11.914 73.6048C11.914 77.5364 11.914 81.4681 11.914 85.5188C11.0593 85.5188 10.2046 85.5188 9.324 85.5188C9.29958 83.0524 9.27516 80.586 9.25 78.0448C8.82495 78.6824 8.4 79.3198 7.9787 79.9599C7.90988 80.0643 7.90988 80.0643 7.83966 80.1709C7.69616 80.3887 7.5527 80.6066 7.40925 80.8244C7.2642 81.0447 7.11915 81.2649 6.97408 81.4851C6.88462 81.6209 6.79518 81.7567 6.70575 81.8926C6.49408 82.2139 6.28188 82.5349 6.068 82.8548C5.88193 82.8279 5.79401 82.8063 5.66913 82.6617C5.62189 82.5833 5.62189 82.5833 5.5737 82.5033C5.53626 82.4426 5.49881 82.3819 5.46023 82.3194C5.39935 82.2181 5.39935 82.2181 5.33725 82.1148C4.86759 81.3544 4.37825 80.6093 3.88037 79.8671C3.77466 79.7094 3.66896 79.5518 3.56335 79.3941C3.49955 79.2989 3.43566 79.2037 3.37167 79.1086C3.15307 78.7825 2.94636 78.4522 2.738 78.1188C2.71358 80.5608 2.68916 83.0028 2.664 85.5188C1.78488 85.5188 0.90576 85.5188 0 85.5188C0 81.5872 0 77.6556 0 73.6048Z" fill="#143029"/>
<path d="M16.798 58.0648C17.8481 58.0587 18.8981 58.0526 19.98 58.0463C20.3092 58.0436 20.6384 58.0409 20.9776 58.0381C21.3856 58.0368 21.3856 58.0368 21.5778 58.0366C21.7094 58.0361 21.8411 58.0351 21.9728 58.0336C23.4039 58.0179 24.72 58.1894 25.8017 59.215C26.7138 60.1776 26.8248 61.1734 26.8085 62.4479C26.7771 63.4151 26.4048 64.2592 25.7011 64.9283C24.8133 65.6868 24.8133 65.6868 24.346 65.6868C24.7333 66.3106 25.1455 66.9148 25.5632 67.5184C25.8104 67.8767 26.0554 68.2366 26.3008 68.5962C26.5554 68.9689 26.8134 69.3386 27.0785 69.7039C27.158 69.8308 27.158 69.8308 27.158 69.9788C26.16 70.1787 24.9368 70.4169 23.976 69.9788C23.0661 69.2817 22.5149 68.075 22.0101 67.0721C21.9504 66.9555 21.8904 66.8391 21.83 66.7228C21.8059 66.6755 21.7817 66.6282 21.7568 66.5794C21.6828 66.4411 21.6828 66.4411 21.534 66.2788C21.3143 66.2114 21.3143 66.2114 21.0681 66.2193C20.9475 66.2164 20.9475 66.2164 20.8244 66.2135C20.672 66.2138 20.672 66.2138 20.5165 66.2141C20.0312 66.2095 20.0312 66.2095 19.536 66.2048C19.536 67.4502 19.536 68.6957 19.536 69.9788C18.6325 69.9788 17.7289 69.9788 16.798 69.9788C16.798 66.0472 16.798 62.1156 16.798 58.0648ZM19.536 60.5068C19.536 61.6057 19.536 62.7046 19.536 63.8368C19.9847 63.8399 20.4335 63.8429 20.8958 63.8461C21.1059 63.8481 21.1059 63.8481 21.3202 63.8501C22.6353 63.8705 22.6353 63.8705 23.754 63.2448C24.0327 62.8792 24.1436 62.4431 24.124 61.9868C24.0467 61.5622 23.9306 61.1751 23.606 60.8768C23.2425 60.6604 22.8962 60.4972 22.4679 60.4984C22.4018 60.4984 22.3358 60.4984 22.2677 60.4984C22.1985 60.4988 22.1294 60.4992 22.0581 60.4996C21.9624 60.4997 21.9624 60.4997 21.8648 60.4998C21.6266 60.5002 21.3884 60.5012 21.1501 60.5022C20.6175 60.5037 20.0848 60.5052 19.536 60.5068Z" fill="#143029"/>
<path d="M49.1083 74.4604C49.1531 74.4882 49.1978 74.5161 49.2439 74.5447C49.4776 74.6973 49.6345 74.8169 49.7281 75.0848C49.6582 75.1815 49.6582 75.1815 49.587 75.2802C49.1779 75.8489 48.7802 76.4229 48.3961 77.0088C48.1394 76.9133 47.9186 76.8003 47.6884 76.6527C47.276 76.4013 46.8504 76.2144 46.3981 76.0468C46.3489 76.0284 46.2998 76.01 46.2492 75.991C45.6946 75.819 44.9295 75.7761 44.3862 75.9913C44.0308 76.2015 44.0308 76.2015 43.8427 76.5544C43.7914 76.865 43.7872 77.1024 43.9561 77.3788C44.5921 77.9487 45.5047 78.1151 46.3102 78.3315C47.6147 78.6948 48.9197 79.0932 49.7281 80.2648C50.181 81.1651 50.2668 82.2951 49.9527 83.258C49.5711 84.1983 49.018 84.8492 48.1001 85.2968C46.3315 86.0343 44.3679 85.8118 42.6194 85.1303C41.879 84.808 41.2069 84.3783 40.6261 83.8168C40.8068 83.4876 41.0323 83.2189 41.2782 82.938C41.3158 82.8946 41.3534 82.8512 41.3922 82.8065C41.468 82.7192 41.5438 82.6319 41.6197 82.5447C41.8077 82.3284 41.9939 82.1106 42.1801 81.8928C42.4087 82.0035 42.6175 82.1311 42.8291 82.2719C43.8989 82.9823 45.0116 83.4558 46.3241 83.2433C46.6083 83.1829 46.8247 83.0987 47.0641 82.9288C47.1129 82.9288 47.1617 82.9288 47.2121 82.9288C47.3865 82.5909 47.4117 82.2649 47.3601 81.8928C47.1534 81.4794 46.7335 81.3224 46.3241 81.1528C45.8109 80.9824 45.2846 80.8496 44.7621 80.7109C43.543 80.3851 42.2299 79.988 41.4909 78.8912C40.9753 77.968 40.9828 76.9292 41.2152 75.9283C41.3303 75.5518 41.5033 75.2521 41.7361 74.9368C41.7741 74.8844 41.8122 74.8321 41.8514 74.7781C43.52 72.6853 47.1025 73.2051 49.1083 74.4604Z" fill="#143029"/>
<path d="M37.37 59.3228C37.3226 59.6066 37.1895 59.7998 37.0298 60.0362C36.9766 60.1154 36.9234 60.1946 36.8686 60.2761C36.8122 60.3592 36.7558 60.4423 36.6994 60.5253C36.6427 60.6095 36.5859 60.6937 36.5293 60.778C36.3906 60.9838 36.2515 61.1894 36.112 61.3948C35.7779 61.3376 35.5596 61.2227 35.2703 61.0433C34.508 60.5951 33.7754 60.329 32.8884 60.3218C32.8329 60.3213 32.7774 60.3209 32.7202 60.3204C32.2852 60.3305 31.9784 60.4433 31.6443 60.7334C31.4682 61.0518 31.4583 61.3353 31.524 61.6908C32.0057 62.4056 33.1757 62.5451 33.9595 62.7634C35.2701 63.1301 36.6557 63.5387 37.4192 64.7621C37.882 65.6269 37.8826 66.7638 37.6198 67.6987C37.2959 68.5862 36.724 69.2258 35.8886 69.6568C34.2961 70.3789 32.345 70.3372 30.71 69.7568C29.7781 69.4039 28.9672 68.9205 28.268 68.2028C28.3446 68.1128 28.3446 68.1128 28.4227 68.021C28.4727 67.9621 28.4727 67.9621 28.5237 67.9019C28.5973 67.8153 28.6709 67.7287 28.7447 67.6421C28.9252 67.4296 29.1031 67.2161 29.274 66.9957C29.3312 66.9224 29.3884 66.8492 29.4474 66.7737C29.4984 66.7068 29.5495 66.6399 29.602 66.5711C29.748 66.4268 29.748 66.4268 30.044 66.4268C30.2093 66.5238 30.3635 66.623 30.5204 66.7321C31.4377 67.3441 32.2781 67.6903 33.3787 67.7079C33.4346 67.7093 33.4906 67.7106 33.5482 67.7119C34.023 67.7112 34.4399 67.6253 34.8124 67.3102C34.9909 67.0889 35.0188 66.9434 35.0298 66.6627C35.0352 66.5681 35.0352 66.5681 35.0408 66.4716C34.985 66.1938 34.8424 66.0945 34.632 65.9088C33.9876 65.5542 33.2812 65.3628 32.5733 65.1805C31.4354 64.885 30.2816 64.578 29.452 63.6888C29.3971 63.6308 29.3421 63.5728 29.2855 63.5131C28.6806 62.6056 28.6585 61.5045 28.8314 60.4528C29.1029 59.5474 29.7189 58.8779 30.5181 58.403C32.6692 57.2526 35.5157 57.8756 37.37 59.3228Z" fill="#143029"/>
<path d="M93.9548 78.1591C94.0149 78.1792 94.075 78.1993 94.137 78.2201C94.1828 78.2355 94.2287 78.2509 94.276 78.2668C94.2812 79.2935 94.2851 80.3202 94.2875 81.3469C94.2886 81.8237 94.2902 82.3005 94.2927 82.7773C94.2951 83.2379 94.2965 83.6985 94.297 84.1591C94.2974 84.3344 94.2982 84.5096 94.2994 84.6848C94.3011 84.9313 94.3013 85.1778 94.3012 85.4243C94.302 85.4959 94.3028 85.5674 94.3036 85.6411C94.2986 86.7583 93.9101 87.7155 93.1417 88.5265C91.9679 89.5613 90.4056 89.7662 88.8971 89.7553C88.8006 89.755 88.7041 89.7547 88.6047 89.7544C87.8724 89.7479 87.1557 89.6986 86.432 89.5888C86.4424 89.3437 86.4533 89.0985 86.4643 88.8534C86.4673 88.7849 86.4702 88.7163 86.4732 88.6457C86.4927 88.2172 86.528 87.7946 86.58 87.3688C86.7141 87.3795 86.8482 87.3903 86.9823 87.4012C87.0944 87.4102 87.0944 87.4102 87.2087 87.4194C87.3998 87.4366 87.5889 87.4576 87.7793 87.481C88.8926 87.6056 90.2111 87.7092 91.1402 86.9803C91.5268 86.6003 91.6009 86.1854 91.686 85.6668C91.6 85.6685 91.6 85.6685 91.5122 85.6703C89.3797 85.7079 89.3797 85.7079 88.578 85.4448C88.5113 85.4242 88.4446 85.4036 88.3759 85.3824C87.5866 85.1053 86.9828 84.5691 86.6213 83.8168C86.3456 83.1758 86.269 82.6502 86.2655 81.9576C86.2639 81.8849 86.2624 81.8122 86.2608 81.7373C86.2549 80.6155 86.6631 79.6072 87.4434 78.7984C89.0581 77.2865 91.9935 77.5011 93.9548 78.1591ZM89.2948 80.4313C88.9521 80.9899 88.8564 81.5747 88.9827 82.2174C89.1185 82.6935 89.346 83.0462 89.7605 83.3225C90.4049 83.6397 90.9187 83.5208 91.686 83.5208C91.686 82.3975 91.686 81.2742 91.686 80.1168C90.7526 79.7668 90.0242 79.7216 89.2948 80.4313Z" fill="#143029"/>
<path d="M0 58.0648C3.00366 58.0648 6.00732 58.0648 9.102 58.0648C9.102 58.8707 9.102 59.6765 9.102 60.5068C6.97746 60.5068 4.85292 60.5068 2.664 60.5068C2.664 61.3127 2.664 62.1185 2.664 62.9488C4.54434 62.9488 6.42468 62.9488 8.362 62.9488C8.362 63.7547 8.362 64.5605 8.362 65.3908C6.48166 65.3908 4.60132 65.3908 2.664 65.3908C2.664 66.9048 2.664 68.4189 2.664 69.9788C1.78488 69.9788 0.90576 69.9788 0 69.9788C0 66.0472 0 62.1156 0 58.0648Z" fill="#143029"/>
<path d="M106.264 73.9008C106.264 77.7836 106.264 81.6664 106.264 85.6668C102.943 85.6668 99.6217 85.6668 96.2 85.6668C96.2 84.9586 96.2 84.2504 96.2 83.5208C96.957 83.5208 97.714 83.5208 98.494 83.5208C98.494 81.8358 98.494 80.1508 98.494 78.4148C98.8603 78.366 99.2266 78.3171 99.604 78.2668C99.9337 78.1724 99.9337 78.1724 100.205 78.0494C100.294 78.0121 100.383 77.9748 100.474 77.9364C100.713 77.8284 100.713 77.8284 100.922 77.6976C101.084 77.6008 101.084 77.6008 101.232 77.6008C101.232 79.5544 101.232 81.508 101.232 83.5208C101.989 83.5208 102.746 83.5208 103.526 83.5208C103.526 80.6148 103.526 77.7088 103.526 74.7148C104.039 74.6415 104.039 74.6415 104.562 74.5668C104.784 74.5006 104.984 74.4362 105.196 74.3494C105.244 74.3308 105.293 74.3121 105.343 74.2929C105.634 74.1789 105.958 73.9008 106.264 73.9008Z" fill="#143029"/>
<path d="M39.146 58.0648C42.4183 58.0648 45.6905 58.0648 49.062 58.0648C49.062 58.8707 49.062 59.6765 49.062 60.5068C47.8654 60.5068 46.6688 60.5068 45.436 60.5068C45.436 63.6326 45.436 66.7583 45.436 69.9788C44.5324 69.9788 43.6289 69.9788 42.698 69.9788C42.698 66.853 42.698 63.7273 42.698 60.5068C41.5258 60.5068 40.3537 60.5068 39.146 60.5068C39.146 59.7009 39.146 58.8951 39.146 58.0648Z" fill="#143029"/>
<path d="M30.932 73.6048C31.8111 73.6048 32.6902 73.6048 33.596 73.6048C33.596 76.755 33.596 79.9052 33.596 83.1508C35.5496 83.1508 37.5032 83.1508 39.516 83.1508C39.516 83.9323 39.516 84.7137 39.516 85.5188C36.6833 85.5188 33.8506 85.5188 30.932 85.5188C30.932 81.5872 30.932 77.6556 30.932 73.6048Z" fill="#143029"/>
<path d="M20.424 73.6048C21.3031 73.6048 22.1823 73.6048 23.088 73.6048C23.088 76.755 23.088 79.9052 23.088 83.1508C25.0416 83.1508 26.9952 83.1508 29.008 83.1508C29.008 83.9323 29.008 84.7137 29.008 85.5188C26.1753 85.5188 23.3426 85.5188 20.424 85.5188C20.424 81.5872 20.424 77.6556 20.424 73.6048Z" fill="#143029"/>
<path d="M14.874 73.6048C15.7531 73.6048 16.6323 73.6048 17.538 73.6048C17.538 77.5364 17.538 81.4681 17.538 85.5188C16.6589 85.5188 15.7798 85.5188 14.874 85.5188C14.874 81.5872 14.874 77.6556 14.874 73.6048Z" fill="#143029"/>
<path d="M11.248 58.0648C12.1271 58.0648 13.0063 58.0648 13.912 58.0648C13.912 61.9964 13.912 65.928 13.912 69.9788C13.0329 69.9788 12.1538 69.9788 11.248 69.9788C11.248 66.0472 11.248 62.1156 11.248 58.0648Z" fill="#143029"/>
<path d="M111 57.0288C111 60.936 111 64.8432 111 68.8688C110.121 68.8688 109.242 68.8688 108.336 68.8688C108.336 65.2546 108.336 61.6405 108.336 57.9168C108.885 57.8069 108.885 57.8069 109.446 57.6948C109.793 57.5741 110.637 57.0288 111 57.0288Z" fill="#143029"/>
<path d="M111 73.9008C111 77.7836 111 81.6664 111 85.6668C110.121 85.6668 109.242 85.6668 108.336 85.6668C108.336 82.0526 108.336 78.4385 108.336 74.7148C108.849 74.6415 108.849 74.6415 109.372 74.5668C109.656 74.4902 109.656 74.4902 109.885 74.391C110.003 74.3428 110.003 74.3428 110.122 74.2936C110.981 73.9008 110.981 73.9008 111 73.9008Z" fill="#143029"/>
<path d="M70.374 12.3328C70.391 12.7754 70.3402 13.1434 70.2168 13.5677C70.2002 13.6257 70.1835 13.6838 70.1664 13.7436C69.8236 14.8979 69.229 15.9333 68.45 16.8468C68.4062 16.9014 68.3624 16.9559 68.3173 17.0122C67.1306 18.4393 65.2445 19.4011 63.418 19.6588C63.2947 19.661 63.1713 19.6616 63.048 19.6588C63.3307 17.6615 64.1399 15.981 65.564 14.5528C65.6199 14.4952 65.6758 14.4376 65.7334 14.3782C66.8898 13.2576 68.7315 12.2909 70.374 12.3328Z" fill="#FAB14B"/>
<path d="M53.502 27.2808C55.3354 27.5135 56.9331 28.2828 58.312 29.5008C58.3626 29.5452 58.4131 29.5895 58.4652 29.6352C59.8227 30.9075 60.7672 32.8229 60.828 34.6808C58.5601 34.339 56.5058 33.3252 55.1112 31.4479C54.2684 30.2784 53.502 28.7581 53.502 27.2808Z" fill="#FAB14B"/>
<path d="M53.502 19.8068C55.4159 19.9411 57.1164 20.8453 58.46 22.1748C58.5406 22.2486 58.5406 22.2486 58.6227 22.3239C59.3931 23.0443 59.8747 23.9666 60.31 24.9128C60.3488 24.9968 60.3876 25.0809 60.4276 25.1675C60.5449 25.4633 60.6232 25.7549 60.6939 26.0644C60.707 26.1184 60.7201 26.1723 60.7336 26.2279C60.8054 26.5357 60.8426 26.8144 60.828 27.1328C58.6982 27.0459 56.8039 25.8352 55.3933 24.3057C54.3686 23.1243 53.502 21.3899 53.502 19.8068Z" fill="#FAB24B"/>
<path d="M77.996 57.0288C77.996 60.2278 77.996 63.4268 77.996 66.7228C79.0705 66.7228 80.145 66.7228 81.252 66.7228C81.252 63.8168 81.252 60.9108 81.252 57.9168C81.8015 57.8069 81.8015 57.8069 82.362 57.6948C82.9137 57.5009 83.3911 57.2913 83.916 57.0288C83.9404 58.8847 83.9649 60.7406 83.99 62.6528C84.2464 62.3597 84.2464 62.3597 84.508 62.0608C85.3608 61.229 86.4327 60.8862 87.6021 60.8537C88.5936 60.8721 89.5137 61.1005 90.2661 61.774C91.0831 62.6654 91.2231 63.8486 91.1952 65.0029C91.1671 65.5638 91.0507 66.1434 90.798 66.6488C91.7031 66.7178 91.7031 66.7178 92.5 66.3528C92.784 66.0032 92.8692 65.7167 92.8992 65.2778C92.9971 63.9893 93.2038 62.8078 94.1977 61.8847C94.9345 61.3045 95.8475 60.9148 96.792 60.8768C96.8779 60.873 96.9637 60.8692 97.0522 60.8652C98.243 60.8297 99.396 61.0185 100.303 61.8582C101.235 62.9003 101.244 64.2641 101.237 65.5804C101.235 65.9574 101.234 66.3344 101.232 66.7228C101.989 66.7228 102.746 66.7228 103.526 66.7228C103.526 63.8168 103.526 60.9108 103.526 57.9168C103.917 57.8435 104.307 57.7703 104.71 57.6948C105.042 57.593 105.042 57.593 105.311 57.4728C105.398 57.4362 105.486 57.3995 105.575 57.3618C105.808 57.2564 106.036 57.1428 106.264 57.0288C106.264 60.936 106.264 64.8432 106.264 68.8688C104.712 68.8718 103.16 68.8749 101.56 68.878C100.828 68.8801 100.828 68.8801 100.081 68.8821C99.4799 68.8828 99.4799 68.8828 99.1976 68.8829C99.0025 68.8831 98.8074 68.8836 98.6123 68.8844C95.3369 68.8974 95.3369 68.8974 94.054 67.9068C94.0336 67.9517 94.0132 67.9966 93.9921 68.0429C93.7833 68.4306 93.4251 68.6094 93.0273 68.752C92.5909 68.8707 92.1694 68.8792 91.7209 68.8777C91.6504 68.8777 91.5799 68.8778 91.5073 68.8779C91.2714 68.878 91.0355 68.8776 90.7996 68.8772C90.6304 68.8772 90.4612 68.8772 90.292 68.8772C89.8328 68.8772 89.3735 68.8768 88.9143 68.8763C88.4343 68.8758 87.9543 68.8758 87.4743 68.8757C86.6687 68.8755 85.8631 68.875 85.0576 68.8744C84.2279 68.8737 83.3982 68.8732 82.5686 68.8728C82.5169 68.8728 82.4652 68.8728 82.412 68.8728C81.9624 68.8726 81.5127 68.8725 81.0631 68.8723C79.1281 68.8716 77.1931 68.8701 75.258 68.8688C75.258 65.2546 75.258 61.6405 75.258 57.9168C75.6487 57.8435 76.0395 57.7703 76.442 57.6948C76.8182 57.5537 77.5927 57.0288 77.996 57.0288ZM96.1029 63.4853C95.6397 64.0962 95.622 64.6326 95.682 65.3908C95.763 65.8045 95.9438 66.0887 96.274 66.3528C96.8227 66.6822 97.2951 66.7339 97.9251 66.7274C97.987 66.7271 98.0489 66.7267 98.1126 66.7264C98.2644 66.7255 98.4162 66.7242 98.568 66.7228C98.5736 66.4096 98.5776 66.0965 98.5802 65.7833C98.5813 65.6771 98.5828 65.5709 98.5848 65.4647C98.6084 64.3939 98.6084 64.3939 98.1795 63.4344C97.8788 63.1542 97.6113 63.0395 97.2036 62.995C96.7521 63.0426 96.4144 63.1422 96.1029 63.4853ZM84.952 64.2808C84.4762 64.9799 83.971 65.8606 83.99 66.7228C84.3531 66.7283 84.7162 66.7323 85.0794 66.735C85.2026 66.7361 85.3257 66.7376 85.4488 66.7395C86.739 66.781 86.739 66.781 87.8796 66.2557C88.3153 65.8254 88.4244 65.3766 88.4485 64.7803C88.4412 64.2964 88.3318 63.8182 88.0323 63.4298C87.6706 63.0854 87.3046 63.0543 86.8208 63.065C86.0368 63.1685 85.4323 63.6814 84.952 64.2808Z" fill="#143029"/>
<path d="M84.656 73.9008C84.656 77.7836 84.656 81.6664 84.656 85.6668C82.1652 85.6668 79.6743 85.6668 77.108 85.6668C77.0802 83.4098 77.0802 83.4098 77.0726 82.7003C77.07 82.5136 77.0674 82.3269 77.0646 82.1402C77.0638 82.0442 77.063 81.9482 77.0621 81.8492C77.0644 80.9784 77.0644 80.9784 76.738 80.1908C76.1782 79.8695 76.1782 79.8695 74.962 79.9688C74.9376 81.8491 74.9132 83.7295 74.888 85.6668C72.991 85.6718 71.0939 85.6759 69.1969 85.6783C68.316 85.6794 67.435 85.681 66.5541 85.6835C65.7858 85.6858 65.0174 85.6872 64.2491 85.6877C63.8427 85.688 63.4364 85.6886 63.03 85.6903C62.6465 85.6918 62.263 85.6922 61.8795 85.6919C61.7397 85.692 61.6 85.6924 61.4602 85.6933C59.7264 85.7034 57.8826 85.4931 56.5545 84.2608C55.5909 83.2463 55.3342 81.9182 55.352 80.5608C55.3633 80.3163 55.3829 80.0735 55.4075 79.83C55.4129 79.7756 55.4184 79.7212 55.424 79.6651C55.4805 79.1886 55.5989 78.73 55.722 78.2668C56.0958 78.2014 56.4698 78.1369 56.8439 78.073C56.9711 78.0512 57.0983 78.0292 57.2255 78.0069C57.4083 77.9749 57.5913 77.9437 57.7743 77.9127C57.8595 77.8976 57.8595 77.8976 57.9463 77.8821C58.2165 77.837 58.4199 77.8185 58.682 77.8968C58.657 77.9658 58.632 78.0347 58.6063 78.1058C58.1804 79.3099 57.8675 80.7788 58.3912 82.0041C58.7207 82.633 59.1413 82.96 59.792 83.2248C60.4989 83.4432 61.1897 83.4797 61.9229 83.4788C62.0368 83.4795 62.1507 83.4802 62.2645 83.4811C62.5706 83.4831 62.8766 83.4838 63.1826 83.4842C63.5036 83.4849 63.8246 83.4869 64.1455 83.4887C64.7519 83.4919 65.3584 83.494 65.9648 83.4957C66.7852 83.4981 67.6056 83.5022 68.4261 83.5062C69.7167 83.5125 71.0073 83.5164 72.298 83.5208C72.298 81.7137 72.298 79.9066 72.298 78.0448C73.3531 77.8103 74.3654 77.7336 75.4414 77.7268C75.5551 77.726 75.6688 77.725 75.7824 77.7235C76.7564 77.7128 77.6842 77.7756 78.514 78.3408C78.5594 78.3692 78.6048 78.3976 78.6516 78.4269C79.258 78.8643 79.5321 79.654 79.6679 80.3613C79.7143 80.6688 79.7163 80.9702 79.7124 81.2806C79.7121 81.3775 79.7121 81.3775 79.7118 81.4765C79.711 81.68 79.7091 81.8835 79.7072 82.087C79.7065 82.2263 79.7058 82.3655 79.7052 82.5047C79.7037 82.8434 79.7008 83.1821 79.698 83.5208C80.4306 83.5208 81.1632 83.5208 81.918 83.5208C81.918 80.6148 81.918 77.7088 81.918 74.7148C82.4308 74.6415 82.4308 74.6415 82.954 74.5668C83.2359 74.4902 83.2359 74.4902 83.4627 74.391C83.5409 74.3589 83.619 74.3268 83.6995 74.2936C84.5778 73.9008 84.5778 73.9008 84.656 73.9008Z" fill="#143029"/>
<path d="M64.38 61.0248C64.38 62.9052 64.38 64.7855 64.38 66.7228C66.5046 66.7228 68.6291 66.7228 70.818 66.7228C70.8431 65.1855 70.8431 65.1855 70.1945 63.8507C69.5812 63.2419 68.7331 63.2206 67.9228 63.2217C67.3517 63.2255 66.8015 63.2669 66.23 63.3188C66.23 62.6106 66.23 61.9025 66.23 61.1728C67.2318 61.0059 67.2318 61.0059 67.6811 61.0026C67.7293 61.0021 67.7774 61.0017 67.827 61.0013C67.9792 61.0004 68.1313 61.0009 68.2835 61.0017C68.3358 61.0018 68.388 61.002 68.4418 61.0021C69.9504 61.0087 71.3293 61.2431 72.4923 62.2874C73.5461 63.4 73.603 64.9634 73.5674 66.4049C73.4837 68.1976 73.4837 68.1976 73.26 68.8688C70.2808 68.8688 67.3016 68.8688 64.232 68.8688C64.1832 69.1374 64.1344 69.4061 64.084 69.6828C63.7707 70.7126 63.1295 71.5742 62.1765 72.0875C60.7344 72.7399 58.9132 72.8083 57.424 72.2728C56.4379 71.898 55.8225 71.2727 55.3818 70.3187C55.2248 69.9163 55.1268 69.5163 55.056 69.0908C55.0464 69.0359 55.0368 68.9809 55.0268 68.9243C54.8445 67.6408 55.0177 66.2652 55.352 65.0208C56.2762 64.7783 57.2207 64.6471 58.164 64.5028C58.1033 64.9562 58.0146 65.4006 57.9212 65.8484C57.7009 67.0182 57.5737 68.5012 58.1872 69.5718C58.4501 69.9461 58.7609 70.2049 59.2 70.3488C59.8607 70.4254 60.4313 70.3823 60.976 69.9788C61.552 69.3438 61.5772 68.3678 61.5832 67.5514C61.584 67.4893 61.5847 67.4271 61.5854 67.3631C61.5878 67.1597 61.5896 66.9563 61.5914 66.7529C61.593 66.611 61.5945 66.4692 61.5961 66.3274C61.6002 65.9556 61.6038 65.5838 61.6074 65.2121C61.6111 64.8321 61.6153 64.4521 61.6193 64.0721C61.6273 63.3277 61.6348 62.5832 61.642 61.8388C61.7213 61.8249 61.8006 61.8111 61.8823 61.7967C61.9885 61.7776 62.0946 61.7585 62.2008 61.7394C62.2528 61.7303 62.3048 61.7213 62.3584 61.712C62.9303 61.6078 63.4889 61.432 63.986 61.1243C64.158 61.0248 64.158 61.0248 64.38 61.0248Z" fill="#143029"/>
<path d="M0 73.6048C0.95238 73.6048 1.90476 73.6048 2.886 73.6048C3.21885 74.0803 3.53265 74.5451 3.82487 75.0432C4.51795 76.2107 5.25376 77.3508 5.994 78.4888C6.02737 78.4326 6.02737 78.4326 6.06142 78.3753C6.54026 77.5701 7.02785 76.7716 7.53037 75.9809C7.86255 75.458 8.18971 74.932 8.51746 74.4063C8.5625 74.3341 8.60754 74.2619 8.65395 74.1876C8.71407 74.0911 8.71407 74.0911 8.77539 73.9927C8.85769 73.8622 8.94241 73.7332 9.028 73.6048C9.98038 73.6048 10.9328 73.6048 11.914 73.6048C11.914 77.5364 11.914 81.4681 11.914 85.5188C11.0593 85.5188 10.2046 85.5188 9.324 85.5188C9.29958 83.0524 9.27516 80.586 9.25 78.0448C8.82495 78.6824 8.4 79.3198 7.9787 79.9599C7.90988 80.0643 7.90988 80.0643 7.83966 80.1709C7.69616 80.3887 7.5527 80.6066 7.40925 80.8244C7.2642 81.0447 7.11915 81.2649 6.97408 81.4851C6.88462 81.6209 6.79518 81.7567 6.70575 81.8926C6.49408 82.2139 6.28188 82.5349 6.068 82.8548C5.88193 82.8279 5.79401 82.8063 5.66913 82.6617C5.62189 82.5833 5.62189 82.5833 5.5737 82.5033C5.53626 82.4426 5.49881 82.3819 5.46023 82.3194C5.39935 82.2181 5.39935 82.2181 5.33725 82.1148C4.86759 81.3544 4.37825 80.6093 3.88037 79.8671C3.77466 79.7094 3.66896 79.5518 3.56335 79.3941C3.49955 79.2989 3.43566 79.2037 3.37167 79.1086C3.15307 78.7825 2.94636 78.4522 2.738 78.1188C2.71358 80.5608 2.68916 83.0028 2.664 85.5188C1.78488 85.5188 0.90576 85.5188 0 85.5188C0 81.5872 0 77.6556 0 73.6048Z" fill="#143029"/>
<path d="M16.798 58.0648C17.8481 58.0587 18.8981 58.0526 19.98 58.0463C20.3092 58.0436 20.6384 58.0409 20.9776 58.0381C21.3856 58.0368 21.3856 58.0368 21.5778 58.0366C21.7094 58.0361 21.8411 58.0351 21.9728 58.0336C23.4039 58.0179 24.72 58.1894 25.8017 59.215C26.7138 60.1776 26.8248 61.1734 26.8085 62.4479C26.7771 63.4151 26.4048 64.2592 25.7011 64.9283C24.8133 65.6868 24.8133 65.6868 24.346 65.6868C24.7333 66.3106 25.1455 66.9148 25.5632 67.5184C25.8104 67.8767 26.0554 68.2366 26.3008 68.5962C26.5554 68.9689 26.8134 69.3386 27.0785 69.7039C27.158 69.8308 27.158 69.8308 27.158 69.9788C26.16 70.1787 24.9368 70.4169 23.976 69.9788C23.0661 69.2817 22.5149 68.075 22.0101 67.0721C21.9504 66.9555 21.8904 66.8391 21.83 66.7228C21.8059 66.6755 21.7817 66.6282 21.7568 66.5794C21.6828 66.4411 21.6828 66.4411 21.534 66.2788C21.3143 66.2114 21.3143 66.2114 21.0681 66.2193C20.9475 66.2164 20.9475 66.2164 20.8244 66.2135C20.672 66.2138 20.672 66.2138 20.5165 66.2141C20.0312 66.2095 20.0312 66.2095 19.536 66.2048C19.536 67.4502 19.536 68.6957 19.536 69.9788C18.6325 69.9788 17.7289 69.9788 16.798 69.9788C16.798 66.0472 16.798 62.1156 16.798 58.0648ZM19.536 60.5068C19.536 61.6057 19.536 62.7046 19.536 63.8368C19.9847 63.8399 20.4335 63.8429 20.8958 63.8461C21.1059 63.8481 21.1059 63.8481 21.3202 63.8501C22.6353 63.8705 22.6353 63.8705 23.754 63.2448C24.0327 62.8792 24.1436 62.4431 24.124 61.9868C24.0467 61.5622 23.9306 61.1751 23.606 60.8768C23.2425 60.6604 22.8962 60.4972 22.4679 60.4984C22.4018 60.4984 22.3358 60.4984 22.2677 60.4984C22.1985 60.4988 22.1294 60.4992 22.0581 60.4996C21.9624 60.4997 21.9624 60.4997 21.8648 60.4998C21.6266 60.5002 21.3884 60.5012 21.1501 60.5022C20.6175 60.5037 20.0848 60.5052 19.536 60.5068Z" fill="#143029"/>
<path d="M49.1083 74.4604C49.1531 74.4882 49.1978 74.5161 49.2439 74.5447C49.4776 74.6973 49.6345 74.8169 49.7281 75.0848C49.6582 75.1815 49.6582 75.1815 49.587 75.2802C49.1779 75.8489 48.7802 76.4229 48.3961 77.0088C48.1394 76.9133 47.9186 76.8003 47.6884 76.6527C47.276 76.4013 46.8504 76.2144 46.3981 76.0468C46.3489 76.0284 46.2998 76.01 46.2492 75.991C45.6946 75.819 44.9295 75.7761 44.3862 75.9913C44.0308 76.2015 44.0308 76.2015 43.8427 76.5544C43.7914 76.865 43.7872 77.1024 43.9561 77.3788C44.5921 77.9487 45.5047 78.1151 46.3102 78.3315C47.6147 78.6948 48.9197 79.0932 49.7281 80.2648C50.181 81.1651 50.2668 82.2951 49.9527 83.258C49.5711 84.1983 49.018 84.8492 48.1001 85.2968C46.3315 86.0343 44.3679 85.8118 42.6194 85.1303C41.879 84.808 41.2069 84.3783 40.6261 83.8168C40.8068 83.4876 41.0323 83.2189 41.2782 82.938C41.3158 82.8946 41.3534 82.8512 41.3922 82.8065C41.468 82.7192 41.5438 82.6319 41.6197 82.5447C41.8077 82.3284 41.9939 82.1106 42.1801 81.8928C42.4087 82.0035 42.6175 82.1311 42.8291 82.2719C43.8989 82.9823 45.0116 83.4558 46.3241 83.2433C46.6083 83.1829 46.8247 83.0987 47.0641 82.9288C47.1129 82.9288 47.1617 82.9288 47.2121 82.9288C47.3865 82.5909 47.4117 82.2649 47.3601 81.8928C47.1534 81.4794 46.7335 81.3224 46.3241 81.1528C45.8109 80.9824 45.2846 80.8496 44.7621 80.7109C43.543 80.3851 42.2299 79.988 41.4909 78.8912C40.9753 77.968 40.9828 76.9292 41.2152 75.9283C41.3303 75.5518 41.5033 75.2521 41.7361 74.9368C41.7741 74.8844 41.8122 74.8321 41.8514 74.7781C43.52 72.6853 47.1025 73.2051 49.1083 74.4604Z" fill="#143029"/>
<path d="M37.37 59.3228C37.3226 59.6066 37.1895 59.7998 37.0298 60.0362C36.9766 60.1154 36.9234 60.1946 36.8686 60.2761C36.8122 60.3592 36.7558 60.4423 36.6994 60.5253C36.6427 60.6095 36.5859 60.6937 36.5293 60.778C36.3906 60.9838 36.2515 61.1894 36.112 61.3948C35.7779 61.3376 35.5596 61.2227 35.2703 61.0433C34.508 60.5951 33.7754 60.329 32.8884 60.3218C32.8329 60.3213 32.7774 60.3209 32.7202 60.3204C32.2852 60.3305 31.9784 60.4433 31.6443 60.7334C31.4682 61.0518 31.4583 61.3353 31.524 61.6908C32.0057 62.4056 33.1757 62.5451 33.9595 62.7634C35.2701 63.1301 36.6557 63.5387 37.4192 64.7621C37.882 65.6269 37.8826 66.7638 37.6198 67.6987C37.2959 68.5862 36.724 69.2258 35.8886 69.6568C34.2961 70.3789 32.345 70.3372 30.71 69.7568C29.7781 69.4039 28.9672 68.9205 28.268 68.2028C28.3446 68.1128 28.3446 68.1128 28.4227 68.021C28.4727 67.9621 28.4727 67.9621 28.5237 67.9019C28.5973 67.8153 28.6709 67.7287 28.7447 67.6421C28.9252 67.4296 29.1031 67.2161 29.274 66.9957C29.3312 66.9224 29.3884 66.8492 29.4474 66.7737C29.4984 66.7068 29.5495 66.6399 29.602 66.5711C29.748 66.4268 29.748 66.4268 30.044 66.4268C30.2093 66.5238 30.3635 66.623 30.5204 66.7321C31.4377 67.3441 32.2781 67.6903 33.3787 67.7079C33.4346 67.7093 33.4906 67.7106 33.5482 67.7119C34.023 67.7112 34.4399 67.6253 34.8124 67.3102C34.9909 67.0889 35.0188 66.9434 35.0298 66.6627C35.0352 66.5681 35.0352 66.5681 35.0408 66.4716C34.985 66.1938 34.8424 66.0945 34.632 65.9088C33.9876 65.5542 33.2812 65.3628 32.5733 65.1805C31.4354 64.885 30.2816 64.578 29.452 63.6888C29.3971 63.6308 29.3421 63.5728 29.2855 63.5131C28.6806 62.6056 28.6585 61.5045 28.8314 60.4528C29.1029 59.5474 29.7189 58.8779 30.5181 58.403C32.6692 57.2526 35.5157 57.8756 37.37 59.3228Z" fill="#143029"/>
<path d="M93.9548 78.1591C94.0149 78.1792 94.075 78.1993 94.137 78.2201C94.1828 78.2355 94.2287 78.2509 94.276 78.2668C94.2812 79.2935 94.2851 80.3202 94.2875 81.3469C94.2886 81.8237 94.2902 82.3005 94.2927 82.7773C94.2951 83.2379 94.2965 83.6985 94.297 84.1591C94.2974 84.3344 94.2982 84.5096 94.2994 84.6848C94.3011 84.9313 94.3013 85.1778 94.3012 85.4243C94.302 85.4959 94.3028 85.5674 94.3036 85.6411C94.2986 86.7583 93.9101 87.7155 93.1417 88.5265C91.9679 89.5613 90.4056 89.7662 88.8971 89.7553C88.8006 89.755 88.7041 89.7547 88.6047 89.7544C87.8724 89.7479 87.1557 89.6986 86.432 89.5888C86.4424 89.3437 86.4533 89.0985 86.4643 88.8534C86.4673 88.7849 86.4702 88.7163 86.4732 88.6457C86.4927 88.2172 86.528 87.7946 86.58 87.3688C86.7141 87.3795 86.8482 87.3903 86.9823 87.4012C87.0944 87.4102 87.0944 87.4102 87.2087 87.4194C87.3998 87.4366 87.5889 87.4576 87.7793 87.481C88.8926 87.6056 90.2111 87.7092 91.1402 86.9803C91.5268 86.6003 91.6009 86.1854 91.686 85.6668C91.6 85.6685 91.6 85.6685 91.5122 85.6703C89.3797 85.7079 89.3797 85.7079 88.578 85.4448C88.5113 85.4242 88.4446 85.4036 88.3759 85.3824C87.5866 85.1053 86.9828 84.5691 86.6213 83.8168C86.3456 83.1758 86.269 82.6502 86.2655 81.9576C86.2639 81.8849 86.2624 81.8122 86.2608 81.7373C86.2549 80.6155 86.6631 79.6072 87.4434 78.7984C89.0581 77.2865 91.9935 77.5011 93.9548 78.1591ZM89.2948 80.4313C88.9521 80.9899 88.8564 81.5747 88.9827 82.2174C89.1185 82.6935 89.346 83.0462 89.7605 83.3225C90.4049 83.6397 90.9187 83.5208 91.686 83.5208C91.686 82.3975 91.686 81.2742 91.686 80.1168C90.7526 79.7668 90.0242 79.7216 89.2948 80.4313Z" fill="#143029"/>
<path d="M0 58.0648C3.00366 58.0648 6.00732 58.0648 9.102 58.0648C9.102 58.8707 9.102 59.6765 9.102 60.5068C6.97746 60.5068 4.85292 60.5068 2.664 60.5068C2.664 61.3127 2.664 62.1185 2.664 62.9488C4.54434 62.9488 6.42468 62.9488 8.362 62.9488C8.362 63.7547 8.362 64.5605 8.362 65.3908C6.48166 65.3908 4.60132 65.3908 2.664 65.3908C2.664 66.9048 2.664 68.4189 2.664 69.9788C1.78488 69.9788 0.90576 69.9788 0 69.9788C0 66.0472 0 62.1156 0 58.0648Z" fill="#143029"/>
<path d="M106.264 73.9008C106.264 77.7836 106.264 81.6664 106.264 85.6668C102.943 85.6668 99.6217 85.6668 96.2 85.6668C96.2 84.9586 96.2 84.2504 96.2 83.5208C96.957 83.5208 97.714 83.5208 98.494 83.5208C98.494 81.8358 98.494 80.1508 98.494 78.4148C98.8603 78.366 99.2266 78.3171 99.604 78.2668C99.9337 78.1724 99.9337 78.1724 100.205 78.0494C100.294 78.0121 100.383 77.9748 100.474 77.9364C100.713 77.8284 100.713 77.8284 100.922 77.6976C101.084 77.6008 101.084 77.6008 101.232 77.6008C101.232 79.5544 101.232 81.508 101.232 83.5208C101.989 83.5208 102.746 83.5208 103.526 83.5208C103.526 80.6148 103.526 77.7088 103.526 74.7148C104.039 74.6415 104.039 74.6415 104.562 74.5668C104.784 74.5006 104.984 74.4362 105.196 74.3494C105.244 74.3308 105.293 74.3121 105.343 74.2929C105.634 74.1789 105.958 73.9008 106.264 73.9008Z" fill="#143029"/>
<path d="M39.146 58.0648C42.4183 58.0648 45.6905 58.0648 49.062 58.0648C49.062 58.8707 49.062 59.6765 49.062 60.5068C47.8654 60.5068 46.6688 60.5068 45.436 60.5068C45.436 63.6326 45.436 66.7583 45.436 69.9788C44.5324 69.9788 43.6289 69.9788 42.698 69.9788C42.698 66.853 42.698 63.7273 42.698 60.5068C41.5258 60.5068 40.3537 60.5068 39.146 60.5068C39.146 59.7009 39.146 58.8951 39.146 58.0648Z" fill="#143029"/>
<path d="M30.932 73.6048C31.8111 73.6048 32.6902 73.6048 33.596 73.6048C33.596 76.755 33.596 79.9052 33.596 83.1508C35.5496 83.1508 37.5032 83.1508 39.516 83.1508C39.516 83.9323 39.516 84.7137 39.516 85.5188C36.6833 85.5188 33.8506 85.5188 30.932 85.5188C30.932 81.5872 30.932 77.6556 30.932 73.6048Z" fill="#143029"/>
<path d="M20.424 73.6048C21.3031 73.6048 22.1823 73.6048 23.088 73.6048C23.088 76.755 23.088 79.9052 23.088 83.1508C25.0416 83.1508 26.9952 83.1508 29.008 83.1508C29.008 83.9323 29.008 84.7137 29.008 85.5188C26.1753 85.5188 23.3426 85.5188 20.424 85.5188C20.424 81.5872 20.424 77.6556 20.424 73.6048Z" fill="#143029"/>
<path d="M14.874 73.6048C15.7531 73.6048 16.6323 73.6048 17.538 73.6048C17.538 77.5364 17.538 81.4681 17.538 85.5188C16.6589 85.5188 15.7798 85.5188 14.874 85.5188C14.874 81.5872 14.874 77.6556 14.874 73.6048Z" fill="#143029"/>
<path d="M11.248 58.0648C12.1271 58.0648 13.0063 58.0648 13.912 58.0648C13.912 61.9964 13.912 65.928 13.912 69.9788C13.0329 69.9788 12.1538 69.9788 11.248 69.9788C11.248 66.0472 11.248 62.1156 11.248 58.0648Z" fill="#143029"/>
<path d="M111 57.0288C111 60.936 111 64.8432 111 68.8688C110.121 68.8688 109.242 68.8688 108.336 68.8688C108.336 65.2546 108.336 61.6405 108.336 57.9168C108.885 57.8069 108.885 57.8069 109.446 57.6948C109.793 57.5741 110.637 57.0288 111 57.0288Z" fill="#143029"/>
<path d="M111 73.9008C111 77.7836 111 81.6664 111 85.6668C110.121 85.6668 109.242 85.6668 108.336 85.6668C108.336 82.0526 108.336 78.4385 108.336 74.7148C108.849 74.6415 108.849 74.6415 109.372 74.5668C109.656 74.4902 109.656 74.4902 109.885 74.391C110.003 74.3428 110.003 74.3428 110.122 74.2936C110.981 73.9008 110.981 73.9008 111 73.9008Z" fill="#143029"/>
<path d="M70.374 12.3328C70.391 12.7754 70.3402 13.1434 70.2168 13.5677C70.2002 13.6257 70.1835 13.6838 70.1664 13.7436C69.8236 14.8979 69.229 15.9333 68.45 16.8468C68.4062 16.9014 68.3624 16.9559 68.3173 17.0122C67.1306 18.4393 65.2445 19.4011 63.418 19.6588C63.2947 19.661 63.1713 19.6616 63.048 19.6588C63.3307 17.6615 64.1399 15.981 65.564 14.5528C65.6199 14.4952 65.6758 14.4376 65.7334 14.3782C66.8898 13.2576 68.7315 12.2909 70.374 12.3328Z" fill="#FAB14B"/>
<path d="M53.502 27.2808C55.3354 27.5135 56.9331 28.2828 58.312 29.5008C58.3626 29.5452 58.4131 29.5895 58.4652 29.6352C59.8227 30.9075 60.7672 32.8229 60.828 34.6808C58.5601 34.339 56.5058 33.3252 55.1112 31.4479C54.2684 30.2784 53.502 28.7581 53.502 27.2808Z" fill="#FAB14B"/>
<path d="M53.502 19.8068C55.4159 19.9411 57.1164 20.8453 58.46 22.1748C58.5406 22.2486 58.5406 22.2486 58.6227 22.3239C59.3931 23.0443 59.8747 23.9666 60.31 24.9128C60.3488 24.9968 60.3876 25.0809 60.4276 25.1675C60.5449 25.4633 60.6232 25.7549 60.6939 26.0644C60.707 26.1184 60.7201 26.1723 60.7336 26.2279C60.8054 26.5357 60.8426 26.8144 60.828 27.1328C58.6982 27.0459 56.8039 25.8352 55.3933 24.3057C54.3686 23.1243 53.502 21.3899 53.502 19.8068Z" fill="#FAB24B"/>
<path d="M53.502 12.3328C55.3807 12.3088 57.2263 13.4455 58.54 14.7025C59.7045 15.8612 60.8406 17.759 60.8465 19.4322C60.8404 19.507 60.8343 19.5818 60.828 19.6588C58.7443 19.5596 56.8457 18.3728 55.4656 16.8702C54.5618 15.8057 53.8422 14.4479 53.5667 13.0682C53.5543 13.0078 53.5419 12.9474 53.5291 12.8852C53.5013 12.6983 53.4973 12.5215 53.502 12.3328Z" fill="#FAB14B"/>
<path d="M53.502 12.3328C55.3807 12.3088 57.2263 13.4455 58.54 14.7025C59.7045 15.8612 60.8406 17.759 60.8465 19.4322C60.8404 19.507 60.8343 19.5818 60.828 19.6588C58.7443 19.5596 56.8457 18.3728 55.4656 16.8702C54.5618 15.8057 53.8422 14.4479 53.5667 13.0682C53.5543 13.0078 53.5419 12.9474 53.5291 12.8852C53.5013 12.6983 53.4973 12.5215 53.502 12.3328Z" fill="#FAB14B"/>
<path d="M61.938 3.37881C63.1366 4.50664 63.7437 6.39511 63.8094 8.00668C63.8563 10.0554 63.3447 12.1327 62.012 13.7388C60.8025 12.5964 60.1955 10.7026 60.1456 9.07621C60.1059 6.98542 60.5307 5.0016 61.938 3.37881Z" fill="#FAB24B"/>
<path d="M70.448 19.8068C70.4323 19.9251 70.416 20.0432 70.398 20.1612C70.3821 20.2699 70.3684 20.3791 70.357 20.4884C70.1561 21.9865 69.2976 23.4355 68.302 24.5428C68.2522 24.5987 68.2024 24.6546 68.1511 24.7122C66.9815 25.952 65.2063 26.9662 63.492 27.1328C63.3687 27.1345 63.2453 27.135 63.122 27.1328C63.1021 26.6362 63.1589 26.2323 63.307 25.7592C63.3269 25.695 63.3468 25.6307 63.3672 25.5646C64.0592 23.4176 65.5663 21.6723 67.556 20.6211C68.4344 20.1782 69.4549 19.7803 70.448 19.8068Z" fill="#FAB14B"/>
<path d="M70.448 27.2808C70.155 29.549 69.0639 31.5804 67.2733 33.0178C66.0912 33.9039 64.6096 34.5792 63.122 34.6068C63.0651 32.8388 64.1668 31.0492 65.3209 29.7991C66.5671 28.4842 68.5733 27.2808 70.448 27.2808Z" fill="#FAB24B"/>
<path d="M99.9046 72.633C99.9758 72.6329 100.047 72.6328 100.12 72.6327C100.194 72.633 100.268 72.6333 100.344 72.6336C100.455 72.6331 100.455 72.6331 100.568 72.6327C100.639 72.6328 100.71 72.6329 100.783 72.633C100.848 72.6331 100.913 72.6331 100.98 72.6332C101.148 72.6423 101.293 72.6697 101.454 72.7168C101.408 73.1934 101.333 73.6548 101.232 74.1228C101.148 74.1106 101.064 74.0984 100.978 74.0858C100.54 74.0314 100.106 74.0014 99.678 74.1228C99.678 74.2693 99.678 74.4158 99.678 74.5668C99.916 74.7064 100.101 74.7363 100.375 74.7455C100.489 74.7497 100.489 74.7497 100.605 74.7541C100.684 74.7564 100.762 74.7587 100.843 74.7611C100.963 74.7654 100.963 74.7654 101.085 74.7697C101.282 74.7767 101.479 74.7828 101.676 74.7888C101.676 75.2528 101.676 75.7168 101.676 76.1948C100.235 76.1948 98.7944 76.1948 97.31 76.1948C97.31 75.7308 97.31 75.2669 97.31 74.7888C97.5054 74.7888 97.7007 74.7888 97.902 74.7888C97.8776 74.74 97.8532 74.6911 97.828 74.6408C97.7932 74.1271 97.8786 73.7782 98.1783 73.3455C98.3678 73.1368 98.5363 73.0408 98.79 72.9203C98.8663 72.8833 98.9426 72.8463 99.0212 72.8082C99.3259 72.6773 99.5733 72.6334 99.9046 72.633Z" fill="#143029"/>
<path d="M59.9539 61.2514C60.2814 61.4771 60.5445 61.7 60.658 62.0929C60.7162 62.5081 60.6747 62.8024 60.458 63.1708C60.2126 63.4539 59.9963 63.6628 59.6168 63.7111C59.225 63.7129 58.9398 63.6983 58.608 63.4668C58.287 63.1396 58.1517 62.9074 58.1409 62.4493C58.1446 62.0585 58.1867 61.8383 58.46 61.5428C58.9084 61.1382 59.3825 61.061 59.9539 61.2514Z" fill="#143029"/>
<path d="M61.938 3.37881C63.1366 4.50664 63.7437 6.39511 63.8094 8.00668C63.8563 10.0554 63.3447 12.1327 62.012 13.7388C60.8025 12.5964 60.1955 10.7026 60.1456 9.07621C60.1059 6.98542 60.5307 5.0016 61.938 3.37881Z" fill="#FAB24B"/>
<path d="M70.448 19.8068C70.4323 19.9251 70.416 20.0432 70.398 20.1612C70.3821 20.2699 70.3684 20.3791 70.357 20.4884C70.1561 21.9865 69.2976 23.4355 68.302 24.5428C68.2522 24.5987 68.2024 24.6546 68.1511 24.7122C66.9815 25.952 65.2063 26.9662 63.492 27.1328C63.3687 27.1345 63.2453 27.135 63.122 27.1328C63.1021 26.6362 63.1589 26.2323 63.307 25.7592C63.3269 25.695 63.3468 25.6307 63.3672 25.5646C64.0592 23.4176 65.5663 21.6723 67.556 20.6211C68.4344 20.1782 69.4549 19.7803 70.448 19.8068Z" fill="#FAB14B"/>
<path d="M70.448 27.2808C70.155 29.549 69.0639 31.5804 67.2733 33.0178C66.0912 33.9039 64.6096 34.5792 63.122 34.6068C63.0651 32.8388 64.1668 31.0492 65.3209 29.7991C66.5671 28.4842 68.5733 27.2808 70.448 27.2808Z" fill="#FAB24B"/>
<path d="M99.9046 72.633C99.9758 72.6329 100.047 72.6328 100.12 72.6327C100.194 72.633 100.268 72.6333 100.344 72.6336C100.455 72.6331 100.455 72.6331 100.568 72.6327C100.639 72.6328 100.71 72.6329 100.783 72.633C100.848 72.6331 100.913 72.6331 100.98 72.6332C101.148 72.6423 101.293 72.6697 101.454 72.7168C101.408 73.1934 101.333 73.6548 101.232 74.1228C101.148 74.1106 101.064 74.0984 100.978 74.0858C100.54 74.0314 100.106 74.0014 99.678 74.1228C99.678 74.2693 99.678 74.4158 99.678 74.5668C99.916 74.7064 100.101 74.7363 100.375 74.7455C100.489 74.7497 100.489 74.7497 100.605 74.7541C100.684 74.7564 100.762 74.7587 100.843 74.7611C100.963 74.7654 100.963 74.7654 101.085 74.7697C101.282 74.7767 101.479 74.7828 101.676 74.7888C101.676 75.2528 101.676 75.7168 101.676 76.1948C100.235 76.1948 98.7944 76.1948 97.31 76.1948C97.31 75.7308 97.31 75.2669 97.31 74.7888C97.5054 74.7888 97.7007 74.7888 97.902 74.7888C97.8776 74.74 97.8532 74.6911 97.828 74.6408C97.7932 74.1271 97.8786 73.7782 98.1783 73.3455C98.3678 73.1368 98.5363 73.0408 98.79 72.9203C98.8663 72.8833 98.9426 72.8463 99.0212 72.8082C99.3259 72.6773 99.5733 72.6334 99.9046 72.633Z" fill="#143029"/>
<path d="M59.9539 61.2514C60.2814 61.4771 60.5445 61.7 60.658 62.0929C60.7162 62.5081 60.6747 62.8024 60.458 63.1708C60.2126 63.4539 59.9963 63.6628 59.6168 63.7111C59.225 63.7129 58.9398 63.6983 58.608 63.4668C58.287 63.1396 58.1517 62.9074 58.1409 62.4493C58.1446 62.0585 58.1867 61.8383 58.46 61.5428C58.9084 61.1382 59.3825 61.061 59.9539 61.2514Z" fill="#143029"/>
</svg>
