<svg width="218" height="46" viewBox="0 0 218 46" fill="none" xmlns="http://www.w3.org/2000/svg">
<path fill-rule="evenodd" clip-rule="evenodd" d="M112.838 11.9524C112.817 12.9937 112.799 14.0119 112.782 15.0136C112.736 17.5832 112.693 20.0432 112.603 22.5015C112.431 27.1268 108.61 28.7379 105.327 29.9799C102.982 30.8669 100.404 31.1384 97.7435 31.4186C96.5566 31.5435 95.3539 31.6703 94.147 31.8542V0.337402H112.838V11.9524ZM32.57 32.5943C40.3572 32.6894 48.1484 32.7846 55.9179 32.4378C60.1906 32.2471 74.3771 30.5929 73.2315 23.7335C72.5147 23.7335 71.7984 23.7372 71.0816 23.7409C69.5849 23.7486 68.087 23.7563 66.5915 23.7304C63.8255 23.6827 62.4218 22.3648 62.1721 19.6624C61.7863 15.4832 57.8396 13.2321 54.1696 12.088C50.4841 10.939 46.5041 10.3931 42.629 10.2658C36.7932 10.0741 30.9496 10.1163 25.1062 10.1585C22.9015 10.1745 20.6966 10.1904 18.4923 10.1937C17.9717 10.1946 17.4512 10.2485 16.9925 10.2959L16.9919 10.296C16.7976 10.3161 16.6143 10.3351 16.4469 10.3484V16.6653C18.5227 16.6653 20.5816 16.6646 22.6284 16.6639C27.7492 16.6621 32.7943 16.6602 37.8393 16.6699C40.4412 16.6749 42.5374 17.5 43.326 20.2835L44.3034 23.7335C42.6052 23.7335 40.901 23.7319 39.1921 23.7302C34.0238 23.7251 28.8137 23.7201 23.6041 23.7607C22.4875 23.7694 21.2754 23.9214 20.2745 24.3754C13.6457 27.3828 7.41851 31.0257 2.09852 36.0929C-3.4813 41.4075 3.27932 45.3917 8.28502 45.4471C19.3695 45.5697 30.4554 45.5518 41.5414 45.5339H41.5425C44.783 45.5287 48.0234 45.5235 51.2639 45.5218C51.8462 45.5214 52.4285 45.4844 52.9987 45.448C53.2603 45.4314 53.5193 45.4149 53.7747 45.4021V39.637C51.5006 39.637 49.2373 39.641 46.9819 39.645H46.9811C40.5274 39.6565 34.1393 39.6678 27.7524 39.5846C26.1027 39.5631 24.4105 38.9988 22.8437 38.4056C19.4075 37.1045 25.5946 32.5189 27.369 32.5356C29.1022 32.5519 30.8361 32.5731 32.57 32.5943ZM77.5955 44.1223C79.2919 44.3943 80.9877 44.6662 82.9603 44.9381C84.7768 45.0039 86.5622 45.0785 88.3269 45.1523H88.3275C91.838 45.2991 95.2673 45.4425 98.6983 45.5052C103.125 45.586 107.555 45.5618 111.984 45.5375C112.953 45.5321 113.921 45.5268 114.89 45.5227C115.818 45.5186 116.747 45.5227 117.675 45.5267C124.344 45.5559 130.999 45.5851 137.319 42.6121C137.783 42.3939 138.251 42.1817 138.719 41.9701C142.852 40.0975 146.896 38.2654 147.109 32.5688C151.916 32.5688 156.707 32.5791 161.486 32.5893C174.58 32.6174 187.589 32.6454 200.595 32.461C204.7 32.4028 208.859 31.2523 212.857 30.1241C216.278 29.1588 218.247 26.3049 217.975 23.7335C217.408 23.7335 216.838 23.7474 216.268 23.7614C214.984 23.7928 213.694 23.8243 212.42 23.6978C212.196 23.6755 211.964 23.6551 211.728 23.6343C209.294 23.4199 206.381 23.1632 206.135 20.3791C205.675 15.1624 201.946 13.7052 198.33 12.2927C198.134 12.2163 197.939 12.14 197.745 12.0633C194.799 10.9004 191.454 10.345 188.269 10.268C181.527 10.1052 174.781 10.1347 168.035 10.1641C165.394 10.1757 162.753 10.1872 160.113 10.1872V16.6653H163.16C164.854 16.6653 166.55 16.6517 168.245 16.6381C172.637 16.6029 177.028 16.5677 181.409 16.7688C183.307 16.8559 186.499 17.8792 186.734 18.9792C187.207 21.1948 187.615 22.7375 189.913 23.536H146.991V20.3194H128.153C128.153 21.3714 128.156 22.4146 128.16 23.4516C128.169 26.1795 128.179 28.8636 128.122 31.5463C128.1 32.5623 128.006 33.8216 127.419 34.5375C125.138 37.3185 122.148 38.9241 118.47 39.0477C116.7 39.1071 114.931 39.1722 113.162 39.2372L113.16 39.2372C109.09 39.3869 105.019 39.5365 100.947 39.6179C99.2838 39.6512 97.6121 39.6054 95.9411 39.5597C92.8835 39.476 89.8294 39.3924 86.8366 39.7939C84.5595 40.0995 82.3754 41.1031 80.1913 42.1068C79.2165 42.5547 78.2423 43.0026 77.2592 43.3884L77.5955 44.1223ZM63.8914 37.2011C63.7412 37.138 63.5716 37.1401 63.4226 37.2068L56.1921 40.4469C55.7487 40.6456 55.723 41.2654 56.1484 41.5001L63.3802 45.49C63.5522 45.5849 63.7601 45.5878 63.9344 45.4977L71.6635 41.5085C72.1082 41.2791 72.0829 40.6352 71.6211 40.4418L63.8914 37.2011Z" fill="#3DA5F5"/>
</svg>
