<svg width="177" height="57" viewBox="0 0 177 57" fill="none" xmlns="http://www.w3.org/2000/svg">
<path d="M51.1698 37.016C47.6022 37.016 44.3966 33.8104 44.3966 30.2428C44.3966 26.6753 47.6022 23.4696 51.1698 23.4696C54.7374 23.4696 57.943 26.6753 57.943 30.2428C57.9947 33.8104 55.2027 37.016 51.1698 37.016Z" fill="#F5A800"/>
<path d="M75.5223 46.1676V0.668213H83.1228V17.8339C85.1392 15.0419 88.7068 12.6635 93.5153 12.6635C97.0828 12.6635 99.8748 13.8527 102.305 16.2311C104.683 18.6095 105.873 21.8151 105.873 26.2099V46.1676H97.9101V28.2264C97.9101 22.6424 95.1181 19.8504 90.7233 19.8504C85.9148 19.8504 82.7609 23.4179 82.7609 28.64V46.2193C82.7092 46.1676 75.5223 46.1676 75.5223 46.1676Z" fill="#E21A2D"/>
<path d="M118.643 27.0372H136.223C135.447 22.6424 132.241 19.4367 127.847 19.4367C123.038 19.4367 119.833 22.2287 118.643 27.0372ZM143.771 32.6212H119.005C120.194 37.016 123.4 40.2217 128.984 40.2217C132.965 40.2217 136.585 39.0325 139.739 37.016L142.944 42.6001C138.963 45.8057 134.155 46.9949 128.571 46.9949C116.213 46.9949 110.991 38.6189 110.991 29.8292C110.991 25.0207 112.594 20.6259 115.8 17.472C119.005 14.2663 122.986 12.6635 128.157 12.6635C132.965 12.6635 136.947 14.2663 139.739 17.0583C142.944 19.8504 144.133 23.8316 144.133 29.0536C143.771 30.2428 143.771 31.432 143.771 32.6212Z" fill="#E21A2D"/>
<path d="M159.334 39.808H176.5V46.1676H148.58V40.9972L165.332 20.264H149.355V13.8527H176.086V19.0748L159.334 39.808Z" fill="#E21A2D"/>
<path d="M12.8572 13.8527V21.8151H21.2333V40.17C21.2333 45.754 18.0276 49.3733 12.8572 49.3733C9.65159 49.3733 6.85958 48.1841 4.4812 45.3921L0.5 51.3897C4.06757 54.9573 8.4624 56.5601 13.6845 56.5601C18.4929 56.5601 22.0605 55.3709 24.8525 52.5789C27.6445 49.7869 29.2474 45.8057 29.2474 40.5836V13.8527H12.8572Z" fill="#E21A2D"/>
<path d="M61.9759 13.8527V16.6447C59.1839 14.2663 55.6163 13.0771 51.5834 13.0771C42.0182 13.0771 34.4177 20.6776 34.4177 30.2428C34.4177 39.8081 42.0182 47.4085 51.5834 47.4085C55.5646 47.4085 59.1839 46.2193 61.9759 43.841V46.633H69.1628V13.8527H61.9759ZM51.1698 40.5836C45.1721 40.5836 40.7773 35.7752 40.7773 30.1911C40.7773 24.1935 45.5858 19.7987 51.1698 19.7987C57.1674 19.7987 61.5623 24.6071 61.5623 30.1911C61.5623 35.7752 57.1674 40.5836 51.1698 40.5836Z" fill="#E21A2D"/>
</svg>
