<svg width="229" height="45" viewBox="0 0 229 45" fill="none" xmlns="http://www.w3.org/2000/svg">
<path d="M36.1383 35.5727H12.203C10.8214 35.5727 9.46502 35.2009 8.27481 34.4956C7.08475 33.7905 6.10441 32.7778 5.43592 31.5627L0.795538 23.1225C0.596027 22.7614 0.4942 22.3541 0.500255 21.9413C0.506311 21.5282 0.619929 21.1241 0.829798 20.769C1.03967 20.414 1.33862 20.1203 1.69652 19.9176C2.05459 19.7148 2.45919 19.6097 2.87016 19.6131H39.9974L42.6669 24.4777C43.2971 25.6179 43.62 26.9037 43.6034 28.2078C43.5868 29.5118 43.2315 30.7891 42.5724 31.9127C41.9134 33.0363 40.9737 33.9674 39.8463 34.6135C38.719 35.2597 37.4431 35.5988 36.1453 35.5969" fill="#009E9B"/>
<path d="M40.0044 19.6141H14.9557L8.42715 7.74777C8.04327 7.05044 7.8471 6.26435 7.8581 5.46742C7.86909 4.67049 8.08677 3.89013 8.48994 3.2038C8.89294 2.5173 9.46725 1.94841 10.156 1.55337C10.8449 1.15833 11.6244 0.950695 12.4175 0.951173H27.0443C27.8589 0.950695 28.6587 1.16965 29.3605 1.58524C30.0623 2.00084 30.6404 2.59778 31.0347 3.31407L40.0044 19.6141Z" fill="#75E19F"/>
<path d="M12.4861 35.5725L12.203 35.5727C10.8214 35.5727 9.46502 35.2009 8.27481 34.4956C7.08475 33.7905 6.10441 32.7778 5.43592 31.5627L0.7949 23.126C0.595708 22.7646 0.4942 22.3572 0.500256 21.9441C0.506311 21.5311 0.61993 21.1268 0.829799 20.7716C1.03951 20.4164 1.3383 20.1225 1.69605 19.9192C2.05395 19.716 2.45903 19.6104 2.87016 19.6131H14.9723L18.3125 25.6869C18.8709 26.7012 19.1563 27.8444 19.1403 29.0033C19.1244 30.1623 18.8079 31.2971 18.2218 32.2954C17.6359 33.2939 16.8007 34.1213 15.799 34.6961C14.7973 35.2709 13.6637 35.573 12.5103 35.5725" fill="#006173"/>
<path d="M58.328 4.18797H71.039V24.5953C71.039 32.1946 67.2354 35.5477 60.9836 35.5477H60.7484C54.5484 35.5477 50.6964 32.2433 50.6964 24.5953V20.0607H54.1784V24.5953C54.1784 30.2592 56.153 32.337 60.7484 32.337H60.9836C65.5894 32.337 67.5155 30.2522 67.5155 24.5953V14.2057C67.5155 12.9392 67.8068 11.6897 68.3663 10.5548C68.926 9.41987 69.7388 8.43013 70.7417 7.66284L71.0253 7.44388H58.328V4.18797Z" fill="black"/>
<path d="M97.6063 24.446H80.8807V24.6372C80.8807 30.2524 83.4187 32.3789 87.4126 32.3789H87.6477C90.6076 32.3789 92.8138 31.2461 93.7992 28.5081H97.2294C96.0088 33.3241 92.3884 35.541 87.6477 35.541H87.4126C81.4443 35.541 77.4504 32.1426 77.4504 24.6372V22.4654C77.4504 14.9112 81.4926 11.5581 87.4126 11.5581H87.6477C93.6124 11.5581 97.6063 14.9565 97.6063 22.4654V24.446ZM87.4126 14.7166C83.6088 14.7166 81.1157 16.6521 80.8807 21.6662H94.1761C93.941 16.6592 91.4513 14.7166 87.6477 14.7166H87.4126Z" fill="black"/>
<path d="M124.622 24.446H107.896V24.6372C107.896 30.2524 110.434 32.3789 114.425 32.3789H114.66C117.62 32.3789 119.829 31.2461 120.815 28.5081H124.245C123.024 33.3241 119.404 35.541 114.66 35.541H114.425C108.46 35.541 104.466 32.1426 104.466 24.6372V22.4654C104.466 14.9112 108.505 11.5581 114.425 11.5581H114.66C120.628 11.5581 124.622 14.9565 124.622 22.4654V24.446ZM114.425 14.7166C110.621 14.7166 108.131 16.6521 107.896 21.6662H121.192C120.956 16.6592 118.467 14.7166 114.66 14.7166H114.425Z" fill="black"/>
<path d="M139.291 31.9131C138.493 31.9131 138.071 31.5343 138.071 30.5892V4.18797H125.854V7.40564H138.06L137.78 7.61758C136.79 8.37563 135.987 9.35326 135.435 10.4743C134.882 11.5955 134.595 12.8297 134.596 14.0806V29.3697C134.596 32.7679 136.473 35.082 139.997 35.082H148.265V31.9201L139.291 31.9131Z" fill="black"/>
<path d="M166.771 4.18797C172.736 4.18797 176.401 7.06861 176.401 13.8652V13.2641C176.401 20.0607 172.736 22.9414 166.771 22.9414H158.942V35.0752H155.446V4.18797H166.771ZM172.927 13.8652C172.927 8.95536 171.045 7.44388 166.771 7.44388H158.942V19.6854H166.789C171.063 19.6854 172.943 18.174 172.943 13.2641L172.927 13.8652Z" fill="black"/>
<path d="M199.855 31.9077H203.942V35.0698H196.801L196.521 30.4448H196.003C194.924 32.8981 192.008 35.5424 187.5 35.5424H187.305C184.11 35.5424 180.632 33.7494 180.632 29.4997V29.2148C180.632 25.2501 183.744 23.4572 189.041 22.797L196.465 21.8519V20.6565C196.465 16.7369 194.961 14.6626 191.061 14.6626H190.875C187.399 14.6626 185.376 16.313 184.996 19.9963H181.393C181.908 14.5201 185.431 11.5457 191.023 11.5457H191.109C197.313 11.5457 199.848 14.8988 199.848 20.799L199.855 31.9077ZM188.015 32.4707C191.866 32.4707 196.473 30.1113 196.473 24.6802V24.5865L189.519 25.4343C185.618 25.9069 184.021 26.9458 184.021 29.1176V29.4025C184.021 31.3379 185.479 32.4707 187.825 32.4707H188.015Z" fill="black"/>
<path d="M224.879 12.0312H228.5L218.493 38.5646C217.224 41.9628 215.063 44.2771 211.07 44.2771H206.841V41.0177H212.574C213.793 41.0177 214.302 40.5452 214.686 39.4609L216.47 35.0688H214.874L206.229 12.0312H209.849L216.99 31.8582H217.646L224.879 12.0312Z" fill="black"/>
</svg>
