<svg width="109" height="93" viewBox="0 0 109 93" fill="none" xmlns="http://www.w3.org/2000/svg">
<path d="M94.0247 91.4908H92.2628V91.0638C92.2628 90.9163 92.3219 90.775 92.4273 90.6707C92.5326 90.566 92.6755 90.5072 92.8247 90.5069H93.6987C93.8848 90.5069 94.0636 90.4337 94.1951 90.3035C94.3267 90.1736 94.4008 89.9971 94.4008 89.813V89.5229H92.8264C92.4127 89.5229 92.0162 89.6854 91.7238 89.9742C91.4313 90.2633 91.2672 90.6551 91.2672 91.0638V91.4908H91.0256C90.8398 91.4908 90.6617 91.5636 90.5305 91.6935C90.3992 91.8231 90.3254 91.9993 90.3254 92.1827V92.4728H94.7973V92.2528C94.7966 92.0504 94.7152 91.8567 94.5703 91.7138C94.4254 91.5709 94.2294 91.4908 94.0247 91.4908Z" fill="#005247"/>
<path d="M43.581 3.11489L6.71017 22.8028H11.8621C18.7946 22.7943 25.6167 21.0868 31.7176 17.8333L47.047 9.64695C48.8657 8.67336 50.9004 8.1614 52.9687 8.15702C55.037 8.15266 57.0744 8.65604 58.8971 9.62193L76.9653 19.1724C81.4697 21.5509 86.4972 22.7982 91.6045 22.8045H99.659L62.3395 3.07652C59.4544 1.54663 56.2297 0.749206 52.9551 0.755901C49.6809 0.762596 46.4598 1.57322 43.581 3.11489Z" fill="#005247"/>
<path d="M0.645086 55.2816H38.7596V41.4403C38.7543 37.4224 37.1366 33.5706 34.2618 30.7295C31.3868 27.8885 27.4892 26.2901 23.4234 26.2848H4.60742V28.953C4.60968 30.7285 5.32441 32.4307 6.59489 33.6862C7.86537 34.9417 9.58782 35.6478 11.3845 35.6502H23.4216C24.9755 35.6518 26.4656 36.2626 27.5646 37.3483C28.6635 38.4342 29.2818 39.906 29.284 41.442V45.9278H8.13101C6.14571 45.9304 4.24242 46.711 2.83875 48.0984C1.43509 49.4858 0.64567 51.3667 0.643438 53.3286L0.645086 55.2816Z" fill="#005247"/>
<path d="M88.3595 58.3149C87.2802 58.3149 86.2254 58.6312 85.3282 59.2234C84.4313 59.8159 83.7318 60.658 83.3187 61.6429C82.906 62.6282 82.798 63.7122 83.0083 64.758C83.219 65.8041 83.7384 66.7645 84.5014 67.5185C85.2644 68.2725 86.2367 68.7862 87.2951 68.9942C88.3532 69.2023 89.4501 69.0953 90.4471 68.6872C91.444 68.2791 92.296 67.5883 92.8955 66.7017C93.495 65.8151 93.8153 64.7726 93.8153 63.7062C93.8133 62.277 93.2381 60.9065 92.2153 59.896C91.1924 58.8851 89.8057 58.3165 88.3595 58.3149Z" fill="#005247"/>
<path d="M108.5 54.8629V41.0216C108.495 37.004 106.877 33.1521 104.002 30.3111C101.127 27.47 97.2295 25.8716 93.1637 25.8663H76.3323V27.4989C76.3349 29.5485 77.1601 31.5134 78.6269 32.9627C80.0933 34.412 82.0815 35.2275 84.1558 35.2301H93.1587C94.7126 35.2318 96.2026 35.8426 97.3016 36.9282C98.4005 38.0139 99.0189 39.486 99.0209 41.0216V45.5077H68.7487V37.1695C68.745 34.1714 67.5384 31.2972 65.393 29.1773C63.248 27.0574 60.3393 25.8649 57.3053 25.8613H54.4369C50.7143 25.8657 47.1457 27.3289 44.5135 29.9299C41.8816 32.531 40.4008 36.0576 40.3965 39.7359V43.5531C40.3998 46.5525 41.6075 49.428 43.7535 51.5488C45.8995 53.6695 48.8096 54.8629 51.8445 54.8662H59.2699V57.7097H59.258C59.1317 58.9383 58.5429 60.0754 57.6077 60.8946C56.0838 62.0523 54.2468 62.7382 52.329 62.8658C50.6622 63.0895 49.1349 63.906 48.033 65.1617C46.931 66.4179 46.3296 68.0276 46.3415 69.6898V72.2728C47.4571 72.3562 48.5135 72.3997 49.4871 72.3997C55.8139 72.3997 60.7547 70.8003 64.1685 67.6471C65.5981 66.3248 66.7402 64.7287 67.5261 62.9566C68.3117 61.1844 68.7241 59.2726 68.7384 57.3376V54.8629H108.5ZM59.2783 45.4991H51.8429C51.3201 45.4988 50.8187 45.2934 50.4492 44.9285C50.0793 44.5633 49.8709 44.0682 49.8703 43.5514V39.7375C49.8719 38.5416 50.3538 37.3948 51.2098 36.5494C52.0658 35.7037 53.2263 35.2281 54.4369 35.2268H57.3053C57.8277 35.2271 58.3282 35.4322 58.6977 35.797C59.0669 36.1619 59.2743 36.6567 59.2749 37.1728L59.2783 45.4991Z" fill="#005247"/>
<path d="M1.67109 76.6137H0.5V82.6003C0.501787 84.0671 1.09229 85.4734 2.142 86.5105C3.19172 87.5473 4.6149 88.1305 6.09919 88.1319H8.87851C10.3625 88.1302 11.7853 87.5467 12.8347 86.5099C13.884 85.4727 14.4743 84.0667 14.4761 82.6003V75.4563H13.3033C12.5468 75.4573 11.8214 75.7547 11.2864 76.2831C10.7515 76.8118 10.4506 77.5286 10.4497 78.2763V82.6003C10.4492 83.0123 10.2833 83.4074 9.98841 83.6989C9.69356 83.9903 9.29386 84.1541 8.87688 84.1545H6.09756C5.68058 84.1541 5.28065 83.9903 4.98579 83.6989C4.69093 83.4074 4.52521 83.0123 4.52478 82.6003V79.432C4.52342 78.6847 4.22231 77.9682 3.68739 77.4398C3.15248 76.9115 2.42735 76.6144 1.67109 76.6137Z" fill="#005247"/>
<path d="M93.1703 71.7075C92.4748 71.7085 91.8082 71.982 91.3167 72.4682C90.8249 72.9544 90.5484 73.6133 90.5481 74.3005V84.2113H94.573V71.7042L93.1703 71.7075Z" fill="#005247"/>
<path d="M97.5209 70.4468V81.5249C97.5199 82.2244 97.2384 82.895 96.738 83.3895C96.2375 83.884 95.5593 84.1621 94.8515 84.1631H89.7296C89.1085 84.1634 88.5127 84.4073 88.0734 84.8413C87.6337 85.2753 87.3865 85.8639 87.3855 86.4776V88.1455H94.8515C96.6263 88.1432 98.3274 87.4456 99.5825 86.2055C100.837 84.9653 101.543 83.2838 101.546 81.5299V67.8554H100.143C99.4483 67.8564 98.7817 68.1296 98.2902 68.6154C97.7984 69.1013 97.5219 69.7599 97.5209 70.4468Z" fill="#005247"/>
<path d="M108.5 67.8538H104.475V88.1405H108.5V67.8538Z" fill="#005247"/>
<path d="M7.03928 70.3883C6.63407 70.468 6.25826 70.6551 5.95224 70.9296C5.64625 71.2038 5.42151 71.555 5.30191 71.9461C5.18235 72.3369 5.17258 72.7523 5.2735 73.1484C5.37442 73.5442 5.58231 73.9058 5.87501 74.1939C6.15388 74.4694 6.50021 74.6687 6.88027 74.7724C7.2603 74.8761 7.66093 74.8807 8.04332 74.7857C8.4257 74.691 8.77685 74.4996 9.06217 74.2308C9.34753 73.9619 9.55741 73.6246 9.67153 73.2518C9.78564 72.8786 9.79993 72.4828 9.71313 72.1027C9.62637 71.7228 9.44144 71.3712 9.17632 71.0831C8.91121 70.7947 8.57504 70.579 8.2005 70.4574C7.82599 70.3354 7.42589 70.3119 7.03928 70.3883Z" fill="#005247"/>
<path d="M79.5404 88.1319C81.057 88.1302 82.5112 87.534 83.5836 86.474C84.6559 85.4142 85.2594 83.9773 85.261 82.4786V75.5447H83.5736C82.9558 75.5457 82.3637 75.7886 81.9267 76.2203C81.49 76.6519 81.2438 77.2371 81.2431 77.8476V82.4786C81.2405 82.9203 81.0617 83.3426 80.746 83.655C80.43 83.967 80.0023 84.1435 79.5553 84.1462H78.3235V76.405H76.636C76.0182 76.406 75.4261 76.649 74.9891 77.0806C74.5524 77.5123 74.3065 78.0975 74.3055 78.7083V82.472C74.3029 82.915 74.1231 83.3386 73.8054 83.6513C73.4877 83.9637 73.058 84.1392 72.6098 84.1395H71.3779V76.969H69.6904C69.0724 76.9696 68.4802 77.2126 68.0432 77.6442C67.6065 78.0759 67.3606 78.6614 67.36 79.2719V84.1312H37.0552V83.8963C37.2642 80.5738 36.2417 77.29 34.1781 74.6591C32.8551 73.2102 31.0869 72.2313 29.1458 71.8727L28.5113 71.7458L39.3773 66.0759C40.0798 65.7087 40.6062 65.081 40.8412 64.3306C41.0758 63.5803 40.9997 62.7685 40.6295 62.0736L40.1503 61.178L25.5598 68.8008C25.2636 68.9417 25.0139 69.1627 24.8392 69.4382C24.6645 69.7134 24.5722 70.0317 24.5727 70.3567V73.1132C24.5761 73.5588 24.7416 73.9885 25.039 74.3235C25.3365 74.6584 25.7459 74.8764 26.1926 74.9376C28.088 75.1154 29.8559 75.9598 31.1742 77.3172C32.5442 79.2443 33.1997 81.5788 33.0305 83.9278L33.0169 84.1428H20.8888V69.4279C20.8879 68.6709 20.5831 67.9452 20.0416 67.4101C19.4999 66.8748 18.7657 66.5737 17.9997 66.5727H16.8641V88.1186H72.6098C73.0846 88.1162 73.5572 88.0558 74.0171 87.9385L74.3055 87.8667V88.1186L79.5404 88.1319Z" fill="#005247"/>
</svg>
