<svg width="165" height="61" viewBox="0 0 165 61" fill="none" xmlns="http://www.w3.org/2000/svg">
<path d="M72.5926 37.8955V44.3494H55.4144V15.0236H62.118V37.8955H72.5926ZM85.6993 39.3189C87.2013 39.3628 88.657 38.7874 89.7223 37.7291L94.7459 40.6176C92.6939 43.4667 89.5929 44.9341 85.6115 44.9341C78.4504 44.9341 74.0091 40.1161 74.0091 33.8748C74.0091 27.6334 78.5336 22.8132 85.1516 22.8132C91.2659 22.8132 95.7904 27.5502 95.7904 33.8748C95.7927 34.7182 95.7095 35.5616 95.5408 36.3889H80.6572C81.459 38.5656 83.3839 39.3189 85.6993 39.3189ZM89.5536 31.6865C88.8835 29.2579 87.0095 28.3752 85.1146 28.3752C82.7276 28.3752 81.1332 29.549 80.5486 31.6865H89.5536ZM117.347 31.4877V44.3494H111.064V32.4097C111.064 29.8101 109.433 28.5947 107.423 28.5947C105.117 28.5947 103.527 29.9349 103.527 32.9112V44.3587H97.2438V23.4024H103.511V25.3689C104.638 23.8206 106.734 22.8247 109.502 22.8247C113.745 22.8132 117.347 25.831 117.347 31.4877ZM141.345 15.0236V44.3494H135.062V42.3784C133.68 43.9728 131.628 44.9225 128.82 44.9225C123.33 44.9225 118.806 40.1046 118.806 33.8632C118.806 27.6218 123.33 22.8016 128.82 22.8016C131.628 22.8016 133.68 23.7675 135.062 25.3457V15.0259H141.345V15.0236ZM135.059 33.8748C135.059 30.7321 132.966 28.761 130.073 28.761C127.18 28.761 125.086 30.7321 125.086 33.8748C125.086 37.0174 127.18 38.9631 130.073 38.9631C132.966 38.9631 135.059 37.0174 135.059 33.8748ZM142.798 33.8748C142.775 27.7443 147.725 22.7554 153.857 22.7323C159.988 22.7092 164.977 27.6588 165 33.7916C165.023 39.922 160.073 44.911 153.941 44.9341C153.927 44.9341 153.913 44.9341 153.899 44.9341C147.833 44.9988 142.865 40.1369 142.798 34.0712C142.798 34.0065 142.798 33.9395 142.798 33.8748ZM158.719 33.8748C158.719 30.9078 156.621 28.9297 153.899 28.9297C151.177 28.9297 149.081 30.8962 149.081 33.8748C149.081 36.851 151.175 38.8198 153.899 38.8198C156.623 38.8198 158.719 36.8464 158.719 33.8748Z" fill="#160141"/>
<path d="M12.462 60.0279C7.70649 60.0303 3.84983 56.1759 3.84752 51.4181C3.84752 49.1304 4.75565 46.9375 6.37318 45.3223L10.6481 41.0404C11.406 40.2848 11.406 39.0578 10.6504 38.2999L2.29469 29.9349C-0.850253 26.5381 -0.750891 21.2649 2.52115 17.9929C5.79318 14.7186 11.0663 14.6123 14.4632 17.7549L30.1093 33.401C33.4622 36.9088 33.4622 42.4338 30.1093 45.9439L18.5555 57.5231C16.938 59.136 14.7451 60.0372 12.462 60.0279Z" fill="url(#paint0_linear_252_1579)"/>
<path d="M37.7857 44.7215C35.5003 44.7261 33.3074 43.8203 31.6922 42.2027L16.0553 26.5681C14.4008 24.9067 13.4926 22.6422 13.5412 20.2967C13.4926 17.9513 14.4008 15.6868 16.0553 14.0253L27.6091 2.44612C30.9851 -0.853647 36.3876 -0.821299 39.7244 2.51544C43.0611 5.85449 43.0912 11.257 39.7914 14.6308L35.5211 18.9357C34.7678 19.6936 34.7678 20.9206 35.5211 21.6786L43.8837 30.0412C47.2343 33.4172 47.2159 38.8683 43.8398 42.2212C42.2292 43.8203 40.0525 44.7192 37.7857 44.7215Z" fill="url(#paint1_linear_252_1579)"/>
<path d="M30.419 33.713L19.6485 22.9426C19.593 22.8871 19.5561 22.8247 19.5052 22.7646L14.4632 17.7364C14.3106 17.5839 14.1535 17.4476 13.9964 17.3135C13.6659 18.2679 13.5065 19.2731 13.525 20.2806C13.4857 22.4689 14.276 24.5901 15.7387 26.2169L26.5091 36.9874C26.56 37.0428 26.6085 37.1029 26.6524 37.1653L31.6852 42.1935C31.8331 42.346 31.9949 42.4777 32.152 42.6164C33.1757 39.5477 32.5125 36.167 30.4051 33.713H30.419Z" fill="url(#paint2_linear_252_1579)"/>
<defs>
<linearGradient id="paint0_linear_252_1579" x1="-0.871661" y1="30.0046" x2="165.361" y2="30.0046" gradientUnits="userSpaceOnUse">
<stop stop-color="#7BE6FB"/>
<stop offset="1" stop-color="#63C8F9"/>
</linearGradient>
<linearGradient id="paint1_linear_252_1579" x1="0.177771" y1="29.9911" x2="165.181" y2="29.9911" gradientUnits="userSpaceOnUse">
<stop stop-color="#4A89F5"/>
<stop offset="1" stop-color="#5AB0F7"/>
</linearGradient>
<linearGradient id="paint2_linear_252_1579" x1="13.5123" y1="29.9634" x2="32.614" y2="29.9634" gradientUnits="userSpaceOnUse">
<stop stop-color="#59C2F8"/>
<stop offset="1" stop-color="#1437F4"/>
</linearGradient>
</defs>
</svg>
