<svg width="91" height="110" viewBox="0 0 91 110" fill="none" xmlns="http://www.w3.org/2000/svg">
<g clip-path="url(#clip0_252_925)">
<mask id="mask0_252_925" style="mask-type:luminance" maskUnits="userSpaceOnUse" x="0" y="0" width="91" height="110">
<path d="M90.4157 0.0539551H0.582764V109.211H90.4157V0.0539551Z" fill="white"/>
</mask>
<g mask="url(#mask0_252_925)">
<path d="M90.4125 33.3073C90.387 32.9582 90.3523 32.5924 90.3102 32.2147C90.0769 30.198 89.6089 28.3137 88.9181 26.6145C87.3619 22.8023 84.7446 19.9669 81.1371 18.1849C78.1888 16.7326 74.5572 15.9921 70.3431 15.9816L69.8043 14.9672L69.7366 14.8528C69.115 13.9513 68.4152 13.1085 67.75 12.3304C66.4753 10.848 65.351 9.73877 64.2132 8.8463C62.657 7.62724 60.8555 6.69112 58.8599 6.06352C57.5701 5.66018 56.1283 5.33811 54.4547 5.07924C53.9851 5.0055 53.4945 4.95132 52.9888 4.89714C52.1219 4.80382 51.2249 4.7075 50.349 4.48326C48.9779 4.12958 47.7318 3.31687 46.8408 2.19714C46.6873 2.00299 46.5398 1.79379 46.4074 1.56954L45.4998 0.0524902L44.5923 1.57105C44.4584 1.7953 44.3139 2.0045 44.1634 2.19563C43.2709 3.31837 42.0232 4.13108 40.6537 4.48326C39.7747 4.70901 38.8793 4.80383 38.0109 4.89864C37.5067 4.95282 37.016 5.007 36.548 5.08075C34.8699 5.33961 33.4296 5.66169 32.1413 6.06503C30.1426 6.69262 28.3411 7.63025 26.788 8.8478C25.6456 9.74329 24.5229 10.851 23.2512 12.3319C22.6206 13.0664 21.8921 13.9378 21.2615 14.8588L20.6595 15.9816C16.444 15.9921 12.8124 16.7341 9.86253 18.1849C7.34163 19.4296 5.28728 21.204 3.75668 23.4615C2.11772 25.8741 1.08678 28.8194 0.696983 32.2147C0.648822 32.6361 0.611197 33.0349 0.584106 33.497V109.208H90.4186V36.6379L90.4125 33.3073ZM2.82809 32.4901C3.17575 29.4786 4.07274 26.8884 5.49949 24.792C6.83143 22.8249 8.55468 21.3394 10.7671 20.2483C13.4535 18.9269 16.8142 18.2572 20.7558 18.2572H21.9132L23.0344 16.1426C23.5943 15.3299 24.2595 14.5353 24.839 13.8625C26.0144 12.493 27.0378 11.4801 28.0642 10.6764C29.4157 9.61536 30.9915 8.79814 32.7478 8.2458C33.9383 7.87406 35.2808 7.57456 36.858 7.33075C37.299 7.26152 37.758 7.21336 38.2276 7.16068C39.1637 7.06135 40.1344 6.956 41.1564 6.69563C42.8164 6.26821 44.3425 5.32757 45.4983 4.02573C46.6542 5.32757 48.1803 6.26971 49.8433 6.69563C50.8607 6.956 51.8299 7.06135 52.7661 7.16068C53.2386 7.21336 53.6946 7.26152 54.1386 7.33075C55.7129 7.57456 57.0569 7.87406 58.2458 8.2458C60.0037 8.79663 61.5794 9.61386 62.9309 10.6764C63.9543 11.4801 64.9793 12.4915 66.1562 13.8625C66.7672 14.5744 67.4069 15.3435 67.9592 16.1396L69.0834 18.2572H70.2408C74.1824 18.2572 77.5416 18.9254 80.2281 20.2483C83.3871 21.809 85.5844 24.1869 86.9435 27.5175C87.553 29.0165 87.9684 30.6901 88.1761 32.4901C88.2152 32.8333 88.2468 33.1659 88.2664 33.3946V97.0884H80.5276V92.161H68.9796V87.0951H22.0171V92.1595H10.4691V97.0869H2.73026V36.6184L2.72725 33.5797C2.75133 33.2321 2.78595 32.8694 2.82809 32.4901Z" fill="#04814F"/>
</g>
<mask id="mask1_252_925" style="mask-type:luminance" maskUnits="userSpaceOnUse" x="0" y="0" width="91" height="110">
<path d="M90.4157 0.0539551H0.582764V109.211H90.4157V0.0539551Z" fill="white"/>
</mask>
<g mask="url(#mask1_252_925)">
<path d="M86.6517 81.6563L78.4057 47.1553L45.2968 41.9961L12.5958 47.1553L4.34984 81.6563L4.31824 81.7887H4.45369H12.9796C13.3197 81.7993 13.6644 81.8053 14.0181 81.8053C14.2724 81.8053 14.5373 81.7947 14.7962 81.7887H43.089C43.1281 82.6436 43.6338 83.1568 44.1289 83.4352C44.6467 83.7287 45.1539 83.7919 45.1599 83.7934H45.1674H45.1749H45.8251H45.8311H45.8386C45.8462 83.7919 46.3534 83.7287 46.8696 83.4352C47.3647 83.1568 47.8689 82.6451 47.9095 81.7887H76.1903C76.4522 81.7962 76.7156 81.8053 76.9684 81.8053C77.3221 81.8053 77.6667 81.7978 78.0084 81.7887H86.5478H86.6848L86.6517 81.6563Z" fill="#E9CA5E"/>
</g>
<mask id="mask2_252_925" style="mask-type:luminance" maskUnits="userSpaceOnUse" x="0" y="0" width="91" height="110">
<path d="M90.4157 0.0539551H0.582764V109.211H90.4157V0.0539551Z" fill="white"/>
</mask>
<g mask="url(#mask2_252_925)">
<path d="M86.6517 81.6563L78.4057 47.1553L45.2968 41.9961L12.5958 47.1553L4.34984 81.6563L4.31824 81.7887H4.45369H12.9796C13.3197 81.7993 13.6644 81.8053 14.0181 81.8053C14.2724 81.8053 14.5373 81.7947 14.7962 81.7887H43.089C43.1281 82.6436 43.6338 83.1568 44.1289 83.4352C44.6467 83.7287 45.1539 83.7919 45.1599 83.7934H45.1674H45.1749H45.8251H45.8311H45.8386C45.8462 83.7919 46.3534 83.7287 46.8696 83.4352C47.3647 83.1568 47.8689 82.6451 47.9095 81.7887H76.1903C76.4522 81.7963 76.7156 81.8053 76.9684 81.8053C77.3221 81.8053 77.6667 81.7978 78.0084 81.7887H86.5478H86.6848L86.6517 81.6563Z" stroke="#231F20" stroke-width="1.4594" stroke-miterlimit="10"/>
</g>
<mask id="mask3_252_925" style="mask-type:luminance" maskUnits="userSpaceOnUse" x="0" y="0" width="91" height="110">
<path d="M90.4157 0.0539551H0.582764V109.211H90.4157V0.0539551Z" fill="white"/>
</mask>
<g mask="url(#mask3_252_925)">
<path d="M76.2189 45.1988L74.7274 44.9158C69.2913 43.8879 55.5355 39.5429 45.5 41.4693C35.4646 39.5429 21.7087 43.8879 16.2726 44.9158L14.7811 45.1988L5.61255 80.6404C14.6863 82.9401 21.9555 81.2665 26.3712 78.8163C34.7045 74.1914 45.5015 80.9008 45.5015 80.9008C45.5015 80.9008 56.297 74.1914 64.6333 78.8163C69.049 81.2665 76.3167 82.9401 85.3905 80.6404L76.2189 45.1988Z" fill="#E9CA5E"/>
</g>
<mask id="mask4_252_925" style="mask-type:luminance" maskUnits="userSpaceOnUse" x="0" y="0" width="91" height="110">
<path d="M90.4157 0.0539551H0.582764V109.211H90.4157V0.0539551Z" fill="white"/>
</mask>
<g mask="url(#mask4_252_925)">
<path d="M76.2189 45.1988L74.7274 44.9158C69.2913 43.8879 55.5355 39.5429 45.5 41.4693C35.4646 39.5429 21.7087 43.8879 16.2726 44.9158L14.7811 45.1988L5.61255 80.6404C14.6863 82.9401 21.9555 81.2665 26.3712 78.8163C34.7045 74.1914 45.5015 80.9008 45.5015 80.9008C45.5015 80.9008 56.297 74.1914 64.6333 78.8163C69.049 81.2665 76.3167 82.9401 85.3905 80.6404L76.2189 45.1988Z" stroke="#231F20" stroke-width="1.4594" stroke-miterlimit="10"/>
</g>
<mask id="mask5_252_925" style="mask-type:luminance" maskUnits="userSpaceOnUse" x="0" y="0" width="91" height="110">
<path d="M90.4157 0.0539551H0.582764V109.211H90.4157V0.0539551Z" fill="white"/>
</mask>
<g mask="url(#mask5_252_925)">
<path d="M73.8168 43.1038C73.8168 43.1038 56.0035 37.8408 45.509 41.1367C45.506 41.1367 45.503 41.1322 45.5 41.1322C45.497 41.1322 45.4939 41.1367 45.4924 41.1367C34.9965 37.8408 17.1846 43.1038 17.1846 43.1038L7.50732 79.7961C13.8404 82.0747 20.2669 80.3364 23.6351 78.9036C36.2095 71.3259 45.5 80.6434 45.5 80.6434C45.5 80.6434 54.7889 71.3259 67.3648 78.9036C70.7346 80.3364 77.161 82.0747 83.4926 79.7961L73.8168 43.1038Z" fill="#E9CA5E"/>
</g>
<mask id="mask6_252_925" style="mask-type:luminance" maskUnits="userSpaceOnUse" x="0" y="0" width="91" height="110">
<path d="M90.4157 0.0539551H0.582764V109.211H90.4157V0.0539551Z" fill="white"/>
</mask>
<g mask="url(#mask6_252_925)">
<path d="M73.8169 43.1038C73.8169 43.1038 56.0035 37.8408 45.509 41.1367C45.506 41.1367 45.503 41.1322 45.5 41.1322C45.497 41.1322 45.4939 41.1367 45.4924 41.1367C34.9965 37.8408 17.1846 43.1038 17.1846 43.1038L7.50732 79.7961C13.8404 82.0747 20.2669 80.3364 23.6351 78.9036C36.2095 71.3259 45.5 80.6434 45.5 80.6434C45.5 80.6434 54.7889 71.3259 67.3648 78.9036C70.7346 80.3364 77.161 82.0747 83.4926 79.7961L73.8169 43.1038Z" stroke="#231F20" stroke-width="1.4594" stroke-miterlimit="10"/>
</g>
<mask id="mask7_252_925" style="mask-type:luminance" maskUnits="userSpaceOnUse" x="9" y="36" width="73" height="45">
<path d="M18.655 42.2007L9.31787 78.5935C14.7615 82.2447 22.8118 77.9705 22.8149 77.8124C36.0409 69.288 45.4985 80.3981 45.4985 80.3981C45.4985 80.3981 54.959 69.288 68.1851 77.8124C68.1881 77.969 76.2369 82.2447 81.6806 78.5935L72.3435 42.2007C72.3435 42.2007 67.2174 36.5464 58.714 36.5464C54.9274 36.5464 50.4726 37.6676 45.5 40.9079C40.5289 37.6676 36.0726 36.5464 32.2874 36.5464C23.7811 36.5449 18.655 42.2007 18.655 42.2007Z" fill="white"/>
</mask>
<g mask="url(#mask7_252_925)">
<path d="M81.6821 36.5449H9.31787V82.2462H81.6821V36.5449Z" fill="url(#paint0_linear_252_925)"/>
</g>
<mask id="mask8_252_925" style="mask-type:luminance" maskUnits="userSpaceOnUse" x="0" y="0" width="91" height="110">
<path d="M90.4157 0.0539551H0.582764V109.211H90.4157V0.0539551Z" fill="white"/>
</mask>
<g mask="url(#mask8_252_925)">
<path d="M72.3434 42.2023C72.3434 42.2023 61.6382 30.3864 45.4984 40.9064C29.3616 30.3864 18.6534 42.2023 18.6534 42.2023L9.31482 78.5951C14.757 82.2477 22.8088 77.972 22.8103 77.814C36.0409 69.2911 45.4999 80.3996 45.4999 80.3996C45.4999 80.3996 54.959 69.2896 68.1865 77.8125C68.1896 77.972 76.2384 82.2462 81.6835 78.5936L72.3434 42.2023Z" stroke="#231F20" stroke-width="1.4594" stroke-miterlimit="10"/>
</g>
<path d="M45.5 80.6435V40.8494" stroke="#020303" stroke-width="1.3271" stroke-miterlimit="10" stroke-linejoin="round"/>
<mask id="mask9_252_925" style="mask-type:luminance" maskUnits="userSpaceOnUse" x="0" y="0" width="91" height="110">
<path d="M90.4157 0.0539551H0.582764V109.211H90.4157V0.0539551Z" fill="white"/>
</mask>
<g mask="url(#mask9_252_925)">
<path d="M44.8815 89.1451L45.047 88.4377C44.4796 89.0443 44.2795 89.9864 44.2133 90.8984C44.2449 91.1663 44.5489 91.3048 44.8138 91.2356C45.0801 91.1332 45.4158 90.9301 45.4489 90.629C45.6837 90.024 45.3164 89.4822 44.8815 89.1451ZM45.2487 90.3597C45.0139 90.4951 44.746 90.7299 44.4796 90.6306C44.4465 90.3943 44.5128 90.0556 44.6467 89.8209C44.8469 89.9548 45.2487 90.024 45.2487 90.3597Z" fill="white"/>
</g>
<mask id="mask10_252_925" style="mask-type:luminance" maskUnits="userSpaceOnUse" x="0" y="0" width="91" height="110">
<path d="M90.4157 0.0539551H0.582764V109.211H90.4157V0.0539551Z" fill="white"/>
</mask>
<g mask="url(#mask10_252_925)">
<path d="M44.3802 91.9776L44.0115 93.0567C44.3802 95.7191 44.4464 98.5515 44.6797 101.282C44.5126 102.428 45.3148 104.079 44.0115 104.653C43.2093 104.856 42.1407 104.755 41.7073 104.113C42.4417 103.574 43.7451 103.709 43.7782 102.46C42.4402 101.113 40.0668 101.315 38.3631 101.786C37.561 101.786 37.4917 102.731 37.26 103.27L38.029 103.101C38.7319 103.101 39.2315 103.541 39.7327 104.012C39.0299 104.551 38.2292 104.754 37.3593 104.788C36.9906 104.755 36.6218 104.418 36.4894 104.046C35.7881 101.247 35.7881 97.9781 33.8827 95.8214L33.7157 96.7304C34.2846 98.6523 35.3215 100.44 35.2538 102.562C33.7819 104.552 31.7411 106.069 29.3345 106.001C28.9011 105.866 28.6678 105.429 28.6994 104.988C29.8703 104.046 31.5755 103.136 31.9096 101.586C32.5779 98.112 31.7095 94.6084 31.7411 91.1363C31.9096 91.3049 32.0436 91.5396 32.2422 91.5743C32.1098 90.5644 31.6417 89.5515 31.2083 88.6094L30.8727 89.4176C31.1737 93.3607 31.407 97.5401 31.5755 101.586C30.7733 102.428 29.8026 103.204 28.8349 103.608C28.9342 103.237 29.1344 102.799 29.0682 102.46C28.734 102.967 28.8665 103.775 28.2329 104.113C26.9641 104.755 25.3929 105.326 23.921 104.755C22.9533 104.283 22.4506 103.271 22.4837 102.225C22.419 101.08 23.0526 100.239 23.3536 99.2589C23.2859 99.4289 23.0842 99.7661 22.8193 99.6983C22.3167 98.9564 22.9518 98.249 23.018 97.5055C22.6177 98.3152 22.0157 99.4274 22.6839 100.338C22.3167 101.078 22.2158 101.954 22.2158 102.832C22.2158 104.113 22.6177 105.326 23.7886 106C25.3583 106.74 26.9973 105.965 28.3021 105.225L28.5023 106.439C28.7371 106.943 29.1705 107.282 29.7048 107.314C32.179 107.043 34.7195 105.225 35.5894 102.832C35.8573 103.809 35.7218 104.922 36.4593 105.697C37.9297 106.674 39.3008 105.429 40.5018 104.755C41.3717 105.529 42.3078 106.203 43.578 106.034C44.3817 105.934 44.7805 105.023 45.0469 104.383C45.816 101.215 44.8814 97.8442 44.9145 94.5421L45.4834 94.8778C45.2817 93.8649 44.8468 92.7512 44.3802 91.9776ZM40.0006 102.729C40.4356 102.561 41.3371 102.627 41.8382 102.896L40.8344 103.369L40.0006 102.729Z" fill="white"/>
</g>
<mask id="mask11_252_925" style="mask-type:luminance" maskUnits="userSpaceOnUse" x="0" y="0" width="91" height="110">
<path d="M90.4157 0.0539551H0.582764V109.211H90.4157V0.0539551Z" fill="white"/>
</mask>
<g mask="url(#mask11_252_925)">
<path d="M47.8884 88.6079C47.5874 88.7103 47.6552 89.0459 47.5212 89.2475L47.9547 89.1467C48.4573 89.687 47.455 90.2273 47.321 90.6638C47.9547 90.2604 48.4242 89.6193 48.4242 88.8788C48.3565 88.641 48.1232 88.6079 47.8884 88.6079Z" fill="white"/>
</g>
<mask id="mask12_252_925" style="mask-type:luminance" maskUnits="userSpaceOnUse" x="0" y="0" width="91" height="110">
<path d="M90.4157 0.0539551H0.582764V109.211H90.4157V0.0539551Z" fill="white"/>
</mask>
<g mask="url(#mask12_252_925)">
<path d="M34.6188 89.213C34.6188 88.9767 34.3855 88.9767 34.2184 88.9089C33.9144 88.942 33.7489 89.2792 33.7489 89.5847L34.1838 89.4839C34.5525 90.0558 33.6826 90.5961 33.5171 90.9994C34.1176 90.5961 34.6534 89.988 34.6188 89.213Z" fill="white"/>
</g>
<mask id="mask13_252_925" style="mask-type:luminance" maskUnits="userSpaceOnUse" x="0" y="0" width="91" height="110">
<path d="M90.4157 0.0539551H0.582764V109.211H90.4157V0.0539551Z" fill="white"/>
</mask>
<g mask="url(#mask13_252_925)">
<path d="M51.8993 91.0341L52.3358 91.305C52.3704 91.1019 52.6368 90.9318 52.4682 90.697C51.8346 90.4622 52.5013 89.955 52.2681 89.484C52.101 88.8428 51.5336 89.4494 51.2642 89.6872C50.7962 90.1251 51.2642 90.7316 51.6661 90.9664C50.7299 91.9101 49.5936 92.2818 48.5913 93.0554C49.8284 92.7514 50.9993 92.1463 51.8993 91.0341ZM51.4674 89.9882C51.5336 89.7865 51.934 89.6872 51.934 90.0228V90.2259C51.7684 90.3253 51.5998 90.1251 51.4674 89.9882Z" fill="white"/>
</g>
<mask id="mask14_252_925" style="mask-type:luminance" maskUnits="userSpaceOnUse" x="0" y="0" width="91" height="110">
<path d="M90.4157 0.0539551H0.582764V109.211H90.4157V0.0539551Z" fill="white"/>
</mask>
<g mask="url(#mask14_252_925)">
<path d="M54.8762 95.6514L54.6746 96.1571C55.6438 95.8862 56.5453 95.3143 57.4814 95.1126C57.6154 98.0429 57.9826 100.976 57.9164 103.909C59.1535 101.214 58.1843 97.8427 58.2189 94.9441L62.8302 93.0899L62.9642 92.685C61.3598 93.3578 59.8232 93.731 58.2174 94.4038C58.0157 93.6949 57.9826 92.8867 58.0157 92.1778C58.2174 92.2441 58.3829 92.6158 58.5846 92.5481C58.3167 91.5382 57.9826 90.4591 57.4799 89.6494L57.0796 90.7977C57.3475 92.0424 57.4483 93.3924 57.3806 94.6717L54.8762 95.6514Z" fill="white"/>
</g>
<mask id="mask15_252_925" style="mask-type:luminance" maskUnits="userSpaceOnUse" x="0" y="0" width="91" height="110">
<path d="M90.4157 0.0539551H0.582764V109.211H90.4157V0.0539551Z" fill="white"/>
</mask>
<g mask="url(#mask15_252_925)">
<path d="M26.931 92.0785C26.9641 92.2832 27.1643 92.4517 27.3976 92.4156C27.7663 92.2139 27.7663 91.776 27.8672 91.4389L27.3976 91.8753C26.7309 91.2357 27.4653 90.426 27.4999 89.687C27.1327 90.3944 26.764 91.2026 26.931 92.0785Z" fill="white"/>
</g>
<mask id="mask16_252_925" style="mask-type:luminance" maskUnits="userSpaceOnUse" x="0" y="0" width="91" height="110">
<path d="M90.4157 0.0539551H0.582764V109.211H90.4157V0.0539551Z" fill="white"/>
</mask>
<g mask="url(#mask16_252_925)">
<path d="M39.2316 91.9115C39.2978 92.2471 39.2662 92.7197 39.7342 92.6519C40.1346 92.4819 40.1015 92.0123 40.2023 91.6752C40.0352 91.8437 40.0021 92.1462 39.7342 92.1131C39.1653 91.4404 39.6996 90.6307 39.8682 89.9233C39.4995 90.5299 39.2978 91.2026 39.2316 91.9115Z" fill="white"/>
</g>
<mask id="mask17_252_925" style="mask-type:luminance" maskUnits="userSpaceOnUse" x="0" y="0" width="91" height="110">
<path d="M90.4157 0.0539551H0.582764V109.211H90.4157V0.0539551Z" fill="white"/>
</mask>
<g mask="url(#mask17_252_925)">
<path d="M59.7902 92.214C59.8233 92.4503 59.9903 92.6851 60.2898 92.652C60.6254 92.4503 60.6254 92.0123 60.7594 91.6752L60.2898 92.1117C59.7224 91.5052 60.2567 90.5299 60.3575 89.9219C59.9572 90.5961 59.757 91.3727 59.7902 92.214Z" fill="white"/>
</g>
<mask id="mask18_252_925" style="mask-type:luminance" maskUnits="userSpaceOnUse" x="0" y="0" width="91" height="110">
<path d="M90.4157 0.0539551H0.582764V109.211H90.4157V0.0539551Z" fill="white"/>
</mask>
<g mask="url(#mask18_252_925)">
<path d="M46.4526 91.6421L46.0177 92.8536C46.4527 97.1339 46.7853 101.652 46.8545 105.899C47.2217 105.157 47.4219 104.349 47.455 103.472L46.9553 94.2021L47.5227 94.607C47.2548 93.5625 46.9207 92.5842 46.4526 91.6421Z" fill="white"/>
</g>
<mask id="mask19_252_925" style="mask-type:luminance" maskUnits="userSpaceOnUse" x="0" y="0" width="91" height="110">
<path d="M90.4157 0.0539551H0.582764V109.211H90.4157V0.0539551Z" fill="white"/>
</mask>
<g mask="url(#mask19_252_925)">
<path d="M34.417 91.9128C33.9836 92.6864 33.7172 93.5277 33.7172 94.4398C33.7834 94.676 34.0182 94.6761 34.1852 94.7423C34.4862 94.6761 34.8188 94.5406 34.9212 94.2035C35.1876 93.6301 34.8881 92.9904 34.3854 92.6518L34.5856 91.9128H34.417ZM34.7526 93.7309C34.6518 93.9326 34.417 94.1357 34.1506 94.1011H33.9836C33.8496 93.8317 34.0513 93.5262 34.1506 93.2914C34.3508 93.3938 34.5524 93.5623 34.7526 93.7309Z" fill="white"/>
</g>
<mask id="mask20_252_925" style="mask-type:luminance" maskUnits="userSpaceOnUse" x="0" y="0" width="91" height="110">
<path d="M90.4157 0.0539551H0.582764V109.211H90.4157V0.0539551Z" fill="white"/>
</mask>
<g mask="url(#mask20_252_925)">
<path d="M65.8072 93.1921C65.3391 93.8995 64.9719 94.7408 65.0035 95.7191C65.0366 96.0231 65.3707 96.0231 65.6055 95.9885C66.0058 95.8876 66.3068 95.4828 66.2406 95.0448C66.3399 94.6053 66.0389 94.202 65.6702 93.9657C65.6401 93.6632 65.9396 93.3938 65.8072 93.1921ZM66.0404 95.0448C65.9396 95.3142 65.6055 95.415 65.3391 95.415C65.1043 95.1456 65.3391 94.8416 65.4384 94.6053C65.6717 94.6746 65.8734 94.8085 66.0404 95.0448Z" fill="white"/>
</g>
<mask id="mask21_252_925" style="mask-type:luminance" maskUnits="userSpaceOnUse" x="0" y="0" width="91" height="110">
<path d="M90.4157 0.0539551H0.582764V109.211H90.4157V0.0539551Z" fill="white"/>
</mask>
<g mask="url(#mask21_252_925)">
<path d="M51.499 93.9989C51.1995 93.7295 50.8985 93.4932 50.4982 93.3923L50.0632 94.336L51.1333 95.078L51.5667 94.336L52.5706 94.9771C52.7708 94.6731 53.0025 94.3691 53.0718 93.9989C52.7376 93.6617 52.3373 93.5278 52.0032 93.2915C51.8346 93.5278 51.7338 93.8995 51.499 93.9989Z" fill="white"/>
</g>
<mask id="mask22_252_925" style="mask-type:luminance" maskUnits="userSpaceOnUse" x="0" y="0" width="91" height="110">
<path d="M90.4157 0.0539551H0.582764V109.211H90.4157V0.0539551Z" fill="white"/>
</mask>
<g mask="url(#mask22_252_925)">
<path d="M35.5895 96.6296C36.8928 96.2248 38.2955 95.6529 38.9983 94.3029C39.1654 94.4383 39.4318 94.6746 39.6335 94.4383C40.0684 94.8778 40.1015 95.5505 40.3333 96.0547C40.6704 95.3835 40.6373 94.506 41.1039 93.8995L41.5388 94.1704C41.6396 94.0681 41.6396 93.9326 41.7059 93.8318C41.6381 93.5624 41.4395 93.2584 41.1039 93.3276C40.538 93.7987 40.6704 94.7092 40.3333 95.1156C40.1677 94.5422 40.0684 93.7641 39.334 93.5624C38.5303 95.1788 36.7258 95.7191 35.5895 96.6296Z" fill="white"/>
</g>
<mask id="mask23_252_925" style="mask-type:luminance" maskUnits="userSpaceOnUse" x="0" y="0" width="91" height="110">
<path d="M90.4157 0.0539551H0.582764V109.211H90.4157V0.0539551Z" fill="white"/>
</mask>
<g mask="url(#mask23_252_925)">
<path d="M25.7271 94.8778C26.4961 94.944 27.5316 94.7408 28.1682 95.1141C27.4322 95.7191 26.5307 95.9569 25.861 96.595C27.2652 96.3256 28.9026 95.552 29.2352 94.0004C28.5685 93.6301 27.6986 93.7325 26.8648 93.7325C26.1951 93.6963 25.9949 94.4052 25.7271 94.8778Z" fill="white"/>
</g>
<mask id="mask24_252_925" style="mask-type:luminance" maskUnits="userSpaceOnUse" x="0" y="0" width="91" height="110">
<path d="M90.4157 0.0539551H0.582764V109.211H90.4157V0.0539551Z" fill="white"/>
</mask>
<g mask="url(#mask24_252_925)">
<path d="M62.2959 96.5951C62.3622 96.7636 62.5292 97.0346 62.764 96.9322C63.1312 96.7305 63.1312 96.2941 63.2652 95.9555C63.0996 96.0548 62.9988 96.3919 62.7294 96.3919C62.1951 95.7192 62.7971 94.9095 62.8633 94.2036C62.5307 94.9456 62.1289 95.6876 62.2959 96.5951Z" fill="white"/>
</g>
<mask id="mask25_252_925" style="mask-type:luminance" maskUnits="userSpaceOnUse" x="0" y="0" width="91" height="110">
<path d="M90.4157 0.0539551H0.582764V109.211H90.4157V0.0539551Z" fill="white"/>
</mask>
<g mask="url(#mask25_252_925)">
<path d="M53.7715 94.8433C53.3035 95.8531 52.6353 96.863 51.9339 97.7404L50.8307 96.5951C50.9647 96.3919 51.2326 96.5274 51.4327 96.4943V96.3919C50.9316 96.0232 50.3958 95.6183 49.8615 95.4829C49.0608 96.8976 50.9316 97.6065 51.3665 98.7187C50.7329 99.8309 50.0301 101.011 50.2965 102.459C50.3958 102.93 50.9647 103.1 51.3665 102.93C52.268 102.594 53.3727 101.852 53.4058 100.705C53.4058 99.6939 53.0702 98.818 52.3689 98.0745C53.0025 97.0662 53.9732 96.0894 53.7715 94.8433ZM53.0025 100.573C52.4351 101.214 51.6675 101.753 50.7976 101.586C50.465 101.315 50.7645 100.945 50.8307 100.677L51.8015 99.1596C52.3358 99.4591 52.703 100.066 53.0025 100.573Z" fill="white"/>
</g>
<mask id="mask26_252_925" style="mask-type:luminance" maskUnits="userSpaceOnUse" x="0" y="0" width="91" height="110">
<path d="M90.4157 0.0539551H0.582764V109.211H90.4157V0.0539551Z" fill="white"/>
</mask>
<g mask="url(#mask26_252_925)">
<path d="M60.225 97.0345C60.4583 96.7305 60.5937 96.3934 60.66 96.0563C60.359 95.7207 59.9902 95.5506 59.5899 95.3835L59.1534 96.3257L60.225 97.0345Z" fill="white"/>
</g>
<mask id="mask27_252_925" style="mask-type:luminance" maskUnits="userSpaceOnUse" x="0" y="0" width="91" height="110">
<path d="M90.4157 0.0539551H0.582764V109.211H90.4157V0.0539551Z" fill="white"/>
</mask>
<g mask="url(#mask27_252_925)">
<path d="M37.4602 98.6857L42.809 96.529L42.9084 96.1934C41.1355 96.8315 39.3656 97.4034 37.6604 98.1454L37.4602 98.6857Z" fill="white"/>
</g>
<mask id="mask28_252_925" style="mask-type:luminance" maskUnits="userSpaceOnUse" x="0" y="0" width="91" height="110">
<path d="M90.4157 0.0539551H0.582764V109.211H90.4157V0.0539551Z" fill="white"/>
</mask>
<g mask="url(#mask28_252_925)">
<path d="M48.6591 99.73C49.1271 99.6623 49.0925 99.1235 49.1933 98.7533C49.0263 98.9218 48.9917 99.2921 48.6591 99.1912C48.191 98.5185 48.7253 97.6742 48.8261 97.0662C48.4243 97.7404 48.2241 98.517 48.2587 99.3598C48.2241 99.5284 48.4589 99.8324 48.6591 99.73Z" fill="white"/>
</g>
<mask id="mask29_252_925" style="mask-type:luminance" maskUnits="userSpaceOnUse" x="0" y="0" width="91" height="110">
<path d="M90.4157 0.0539551H0.582764V109.211H90.4157V0.0539551Z" fill="white"/>
</mask>
<g mask="url(#mask29_252_925)">
<path d="M67.0759 101.282C67.109 100.035 66.7072 98.8194 65.607 98.1436C65.0381 97.9419 64.5369 98.3122 64.1697 98.7517C63.8356 99.2242 63.7363 99.8654 63.8025 100.403C64.2359 101.718 66.1744 100.538 66.644 101.718C65.2714 103.402 63.5692 104.716 61.5645 105.122C61.0634 105.089 60.4599 105.055 60.1272 104.65C60.8617 104.009 61.864 103.402 61.998 102.391C62.5669 101.044 61.4622 100.135 61.1958 99.0557L61.6292 99.1565C61.2274 98.6493 60.794 98.109 60.3259 97.7388C59.6562 99.4244 61.4291 100.571 61.7632 102.055C61.1627 102.83 60.3605 103.268 59.5915 103.809C59.2573 102.729 59.8262 101.685 59.891 100.741C59.4229 101.786 59.2242 102.931 59.1234 104.113C58.3212 104.618 57.4182 104.954 56.4144 105.091C55.8786 105.124 55.4767 104.82 55.111 104.45C55.8139 103.911 56.5483 103.237 56.7154 102.392C57.2843 101.045 56.148 100.136 55.8801 99.0572L56.3165 99.158C55.9493 98.6508 55.5144 98.1105 55.0463 97.7403C54.3435 99.3266 55.9147 100.439 56.4159 101.786V102.158C55.8801 102.696 55.2796 103.203 54.6776 103.471C54.6129 102.428 55.0132 101.516 55.0809 100.677C54.6129 101.617 54.4097 102.698 54.3104 103.81C53.0732 104.585 51.368 105.63 49.9639 104.585C48.8291 103.541 49.6975 101.822 49.7983 100.677C49.5966 101.014 49.4958 101.416 49.3634 101.786C49.0277 103.203 48.7945 105.091 50.1309 106.102C51.7037 106.709 53.2072 105.73 54.512 104.889C54.7137 105.291 54.8808 105.697 55.2811 106.001C56.6853 106.81 58.1873 105.831 59.4244 105.158C59.6261 105.595 59.9933 105.935 60.362 106.203C61.6985 106.775 62.9356 106.034 63.9711 105.327C65.1706 104.248 67.1421 103.101 67.0759 101.282ZM65.8072 99.9316C65.3722 99.7645 64.5023 100.136 64.4707 99.4605C64.6378 99.1896 65.0381 99.2919 65.2699 99.3597C65.4716 99.4605 65.6386 99.6607 65.8072 99.8307V99.9316Z" fill="white"/>
</g>
<mask id="mask30_252_925" style="mask-type:luminance" maskUnits="userSpaceOnUse" x="0" y="0" width="91" height="110">
<path d="M90.4157 0.0539551H0.582764V109.211H90.4157V0.0539551Z" fill="white"/>
</mask>
<g mask="url(#mask30_252_925)">
<path d="M28.4015 101.011C28.4678 101.282 28.5686 101.617 28.9373 101.515C29.2368 101.313 29.3723 100.943 29.3723 100.571C29.2037 100.707 29.1721 101.045 28.9042 101.011C28.3022 100.335 28.9373 99.5284 29.0366 98.8196C28.6709 99.4607 28.3684 100.167 28.4015 101.011Z" fill="white"/>
</g>
<mask id="mask31_252_925" style="mask-type:luminance" maskUnits="userSpaceOnUse" x="0" y="0" width="91" height="110">
<path d="M90.4157 0.0539551H0.582764V109.211H90.4157V0.0539551Z" fill="white"/>
</mask>
<g mask="url(#mask31_252_925)">
<path d="M25.7271 102.662C25.7602 102.83 25.9287 103.101 26.1951 102.999C26.5623 102.797 26.5623 102.359 26.6647 102.022C26.5322 102.123 26.4299 102.459 26.1635 102.459C25.6262 101.784 26.1951 100.976 26.296 100.269C25.9287 100.978 25.56 101.784 25.7271 102.662Z" fill="white"/>
</g>
<mask id="mask32_252_925" style="mask-type:luminance" maskUnits="userSpaceOnUse" x="0" y="0" width="91" height="110">
<path d="M90.4157 0.0539551H0.582764V109.211H90.4157V0.0539551Z" fill="white"/>
</mask>
<g mask="url(#mask32_252_925)">
<path d="M34.0845 100.606C34.1176 100.335 33.8166 100.203 33.5517 100.269C33.3154 100.403 33.1845 100.641 33.1845 100.91L33.6194 100.806C33.9867 101.345 33.2522 101.819 32.9497 102.255C33.4494 101.988 34.0514 101.313 34.0845 100.606Z" fill="white"/>
</g>
<mask id="mask33_252_925" style="mask-type:luminance" maskUnits="userSpaceOnUse" x="0" y="0" width="91" height="110">
<path d="M90.4157 0.0539551H0.582764V109.211H90.4157V0.0539551Z" fill="white"/>
</mask>
<g mask="url(#mask33_252_925)">
<path d="M64.269 107.178L68.7826 103.909V103.371L64.269 106.739V107.178Z" fill="white"/>
</g>
<mask id="mask34_252_925" style="mask-type:luminance" maskUnits="userSpaceOnUse" x="0" y="0" width="91" height="110">
<path d="M90.4157 0.0539551H0.582764V109.211H90.4157V0.0539551Z" fill="white"/>
</mask>
<g mask="url(#mask34_252_925)">
<path d="M48.6244 105.359C48.3565 105.493 48.2572 105.729 48.2572 105.999L48.659 105.898C49.2279 106.438 48.1578 106.942 48.057 107.413C48.659 107.041 49.0593 106.436 49.1587 105.762C49.1933 105.46 48.9254 105.291 48.6244 105.359Z" fill="white"/>
</g>
<mask id="mask35_252_925" style="mask-type:luminance" maskUnits="userSpaceOnUse" x="0" y="0" width="91" height="110">
<path d="M90.4157 0.0539551H0.582764V109.211H90.4157V0.0539551Z" fill="white"/>
</mask>
<g mask="url(#mask35_252_925)">
<path d="M21.8818 32.0117C21.3761 31.9591 21.3265 31.3269 20.875 31.2231C19.8967 31.7167 19.701 32.844 19.2646 33.6989C19.1412 33.9367 18.8974 34.2091 18.5828 34.1398C17.9206 33.6943 18.2201 32.6875 18.187 32.0388C17.9251 32.6694 17.9221 33.5408 18.1825 34.191C18.3209 34.3972 18.4775 34.7042 18.792 34.6711C19.7868 34.1263 19.5611 32.844 20.4009 32.1111C21.1007 31.3616 21.0962 32.8139 21.796 32.6965C22.1964 32.6634 22.5816 32.5776 22.8586 32.2902C22.7893 32.7853 22.6313 33.4671 22.9775 33.9126C23.745 34.206 24.2327 33.3527 24.8106 33.0803C25.1733 34.0902 23.7796 33.9306 23.7089 34.5958L24.7037 34.0194C24.7895 34.2918 24.8256 34.5657 25.0679 34.7704C25.2937 34.9932 25.6775 34.9781 25.9574 34.9104C27.3029 34.2979 28.7176 32.9674 29.0186 31.5166L30.2226 30.7851C30.5191 30.7851 30.796 31.1283 31.1467 31.1464C32.0347 31.336 32.733 30.6723 33.2417 30.0402L33.3275 30.4841C33.4644 30.7565 33.779 30.743 34.0589 30.743C34.5465 30.6587 34.9664 30.1124 35.2464 29.8054C35.281 30.0086 35.3322 30.1967 35.4887 30.3517C35.6633 30.4706 35.8544 30.4209 36.0651 30.4044C36.4489 30.2689 36.5708 29.8776 36.7469 29.5856C36.8688 29.8234 37.0388 30.1666 37.3534 30.2027C37.7025 30.2193 38.0352 30.0176 38.2097 29.7948C38.2248 30.3577 38.3813 30.9748 38.8509 31.333C39.6862 31.4549 39.7057 30.4646 40.0037 29.986C40.2144 29.6112 40.547 29.0122 41.0693 29.0845C41.3643 29.7166 41.9903 30.2644 42.7248 30.3186C43.2576 30.3908 43.7918 30.4315 44.3261 30.4525L44.4104 30.2223L44.3893 29.7994C43.5541 29.7542 42.7278 29.6413 41.9407 29.4261C41.5599 29.1191 41.5268 28.5366 41.0196 28.4162C40.097 28.7203 39.9194 29.7106 39.5327 30.4285C39.4107 30.6693 39.1489 30.9402 38.8343 30.8198C38.3663 30.5112 38.3301 29.8957 38.4024 29.3494C38.8418 27.7089 38.3587 25.9992 38.3452 24.3256L38.3994 24.2744C38.4867 24.3256 38.5544 24.5152 38.6778 24.446C38.5574 23.9328 38.3301 23.4542 38.1074 22.9771C38.1586 22.8748 38.0547 22.7032 38.1932 22.6355C39.185 23.5099 39.8261 24.5709 40.2445 25.7162C40.693 26.7773 40.2385 27.8865 39.6952 28.7579C40.1843 28.3139 40.4462 27.751 40.5711 27.137C40.8721 24.9833 39.8668 23.0509 38.0728 21.8679C37.8455 22.345 38.1074 22.8748 37.9479 23.3699C37.978 25.2316 38.2699 27.1144 38.2654 29.0438L38.1074 29.2997C37.8816 29.4713 37.6363 29.5736 37.3218 29.5375C37.0253 29.4517 36.9561 29.1266 37.0102 28.8181H36.9576C36.7649 29.1266 36.5542 29.5029 36.2412 29.6895C36.05 29.7753 35.7686 29.8415 35.5955 29.6353C35.4225 29.4637 35.4932 29.2425 35.5444 29.0363C35.1606 29.3433 34.8641 29.9062 34.3584 30.0251C34.095 30.1079 33.7459 30.1079 33.5382 29.9213C33.3816 29.7482 33.4885 29.5435 33.4885 29.3388C33.1559 29.4923 32.9286 29.8851 32.6141 30.141C32.1445 30.4646 31.3905 30.6843 30.9044 30.3412C31.3062 30.001 31.8992 29.8836 31.9865 29.2846C31.2912 28.8226 30.2798 28.9912 29.5454 29.229C29.0412 29.3298 28.6559 29.7211 28.6198 30.2343C28.7778 30.15 28.9163 30.0657 29.1074 30.0657C29.4219 30.0131 29.6643 30.2208 29.8915 30.4089L28.9328 30.9537C28.7748 30.731 28.6544 30.4571 28.394 30.3367C28.1683 30.2328 27.8718 30.284 27.7138 30.4706C27.4519 30.7942 27.2066 31.1689 27.3104 31.6129C27.6054 32.093 28.2857 31.7363 28.6875 31.6851L28.7026 31.9064C27.9335 32.981 26.8318 34.2452 25.4201 34.2918C25.2275 34.2226 25.0002 34.0676 24.9325 33.8629C25.4201 33.5228 25.9634 33.3015 26.451 32.9795L26.5579 32.7582C26.0327 33.0126 25.527 33.3196 25.0198 33.6251H24.8979L24.9355 32.9749C25.4592 32.4121 26.1395 31.953 26.6301 31.339C26.7882 30.9116 26.9116 30.2975 26.5293 29.9378C25.8837 29.6278 25.101 29.6443 24.5442 29.1642C24.6661 29.0965 24.8557 29.1146 24.9114 28.9957C24.5969 28.8557 24.2311 28.7534 23.9 28.7534V29.2139C24.3847 29.9845 25.3449 30.2268 26.1801 30.4495C26.3367 30.5353 26.5985 30.5684 26.6332 30.7927C25.688 31.7303 24.6586 32.6679 23.5403 33.297C23.3492 33.3647 23.1566 33.3482 23.0181 33.1932C22.8616 32.543 22.985 31.792 23.5975 31.3826C23.6502 31.5708 23.5087 31.7935 23.5087 31.9455C23.7179 31.6566 23.8218 31.3495 23.8594 31.0079C23.8925 30.8875 23.8429 30.734 23.7194 30.7325C23.14 31.1253 22.7382 32.1156 21.8818 32.0117ZM31.0248 29.6759L30.4995 30.0176L29.9954 29.7241C30.3099 29.6383 30.6937 29.5736 31.0248 29.6759ZM27.6731 31.1885L27.6551 31.0335C27.8477 30.8469 28.1623 30.8649 28.3338 31.1223C28.1442 31.2231 27.9004 31.2412 27.6731 31.1885Z" fill="#231F20"/>
</g>
<mask id="mask36_252_925" style="mask-type:luminance" maskUnits="userSpaceOnUse" x="0" y="0" width="91" height="110">
<path d="M90.4157 0.0539551H0.582764V109.211H90.4157V0.0539551Z" fill="white"/>
</mask>
<g mask="url(#mask36_252_925)">
<path d="M46.5339 30.3864C47.759 30.2584 48.9464 29.98 50.0451 29.5511C50.1158 29.7226 50.1309 29.9273 50.2182 30.0823C50.3732 30.4074 50.6862 30.5113 51.0369 30.4767C51.2446 30.427 51.386 30.2208 51.4718 30.0507C51.6479 29.6068 51.6163 28.9912 51.3394 28.6345C51.2852 28.7865 51.2325 28.94 51.1799 29.077C51.1272 29.3509 51.4929 29.5737 51.2476 29.7964C51.0549 29.8626 50.7419 29.8792 50.5508 29.7407C50.3085 29.536 50.3596 29.1613 50.3596 28.9039C49.1752 29.3328 47.8493 29.6308 46.4947 29.7588L46.4722 30.2253L46.5339 30.3864Z" fill="#231F20"/>
</g>
<mask id="mask37_252_925" style="mask-type:luminance" maskUnits="userSpaceOnUse" x="0" y="0" width="91" height="110">
<path d="M90.4157 0.0539551H0.582764V109.211H90.4157V0.0539551Z" fill="white"/>
</mask>
<g mask="url(#mask37_252_925)">
<path d="M60.0324 24.449C60.1528 24.4325 60.2958 24.3482 60.3108 24.2127C60.4327 23.8877 60.2431 23.6318 60.0158 23.4241L60.1046 23.084C59.7705 23.2872 59.7374 23.8004 59.6471 24.2097C59.6471 24.3798 59.8563 24.4987 60.0324 24.449ZM59.8759 23.7477C59.9978 23.8004 60.1362 23.8847 60.207 24.0051C60.1528 24.124 59.9812 24.2097 59.8232 24.1405C59.7193 24.0216 59.8412 23.8681 59.8759 23.7477Z" fill="#231F20"/>
</g>
<mask id="mask38_252_925" style="mask-type:luminance" maskUnits="userSpaceOnUse" x="0" y="0" width="91" height="110">
<path d="M90.4157 0.0539551H0.582764V109.211H90.4157V0.0539551Z" fill="white"/>
</mask>
<g mask="url(#mask38_252_925)">
<path d="M33.2522 24.1963C33.3741 23.8908 33.2702 23.5296 32.9737 23.358C33.0099 23.2391 33.1137 23.1022 33.0806 23.0149C32.9406 23.0841 32.9226 23.2542 32.8533 23.3746C32.7465 23.7162 32.4681 24.2279 32.7977 24.4838C32.9722 24.4687 33.1468 24.3498 33.2522 24.1963ZM32.8518 23.7508C32.9903 23.7508 33.0941 23.8366 33.1995 23.9405C33.0941 24.0594 32.9542 24.1602 32.7961 24.1602C32.7284 24.0248 32.7796 23.8712 32.8518 23.7508Z" fill="#231F20"/>
</g>
<mask id="mask39_252_925" style="mask-type:luminance" maskUnits="userSpaceOnUse" x="0" y="0" width="91" height="110">
<path d="M90.4157 0.0539551H0.582764V109.211H90.4157V0.0539551Z" fill="white"/>
</mask>
<g mask="url(#mask39_252_925)">
<path d="M58.1285 24.8375C58.3046 24.7683 58.3392 24.5485 58.3754 24.3755C58.3227 24.4432 58.2354 24.5801 58.1316 24.5636C57.8351 24.237 58.1165 23.7599 58.1692 23.4709C58.0292 23.7945 57.8185 24.1015 57.8712 24.4959C57.8697 24.6659 57.9389 24.8029 58.1285 24.8375Z" fill="#231F20"/>
</g>
<mask id="mask40_252_925" style="mask-type:luminance" maskUnits="userSpaceOnUse" x="0" y="0" width="91" height="110">
<path d="M90.4157 0.0539551H0.582764V109.211H90.4157V0.0539551Z" fill="white"/>
</mask>
<g mask="url(#mask40_252_925)">
<path d="M62.9943 24.8841C63.1343 24.7652 63.1343 24.6117 63.1869 24.4567L62.9597 24.6283C62.5774 24.3348 62.9612 23.8758 62.9973 23.5356C62.8047 23.8592 62.6135 24.2355 62.6993 24.6629C62.6978 24.7984 62.8543 24.9172 62.9943 24.8841Z" fill="#231F20"/>
</g>
<mask id="mask41_252_925" style="mask-type:luminance" maskUnits="userSpaceOnUse" x="0" y="0" width="91" height="110">
<path d="M90.4157 0.0539551H0.582764V109.211H90.4157V0.0539551Z" fill="white"/>
</mask>
<g mask="url(#mask41_252_925)">
<path d="M54.3284 25.033C54.4849 24.9307 54.5557 24.7441 54.5557 24.556C54.503 24.6417 54.4142 24.7757 54.3119 24.7591C54.0319 24.4175 54.2953 23.9901 54.3841 23.6484C54.19 23.9735 54.0154 24.3152 54.0485 24.7426C54.0846 24.878 54.1523 25.033 54.3284 25.033Z" fill="#231F20"/>
</g>
<mask id="mask42_252_925" style="mask-type:luminance" maskUnits="userSpaceOnUse" x="0" y="0" width="91" height="110">
<path d="M90.4157 0.0539551H0.582764V109.211H90.4157V0.0539551Z" fill="white"/>
</mask>
<g mask="url(#mask42_252_925)">
<path d="M31.0007 25.1985C31.2279 25.0977 31.2625 24.8584 31.3152 24.6522C31.2294 24.7214 31.1752 24.9246 31.0022 24.9066C30.8095 24.5664 31.0368 24.1405 31.1075 23.7974C30.969 24.1405 30.7749 24.4626 30.7749 24.8734C30.808 24.9939 30.808 25.2316 31.0007 25.1985Z" fill="#231F20"/>
</g>
<mask id="mask43_252_925" style="mask-type:luminance" maskUnits="userSpaceOnUse" x="0" y="0" width="91" height="110">
<path d="M90.4157 0.0539551H0.582764V109.211H90.4157V0.0539551Z" fill="white"/>
</mask>
<g mask="url(#mask43_252_925)">
<path d="M53.0642 28.7384C52.995 28.9265 52.8369 29.1132 52.8716 29.3013L53.0988 29.2501C53.5533 29.1824 53.8303 29.5421 54.1267 29.8341C53.5172 30.0869 52.852 30.1712 52.2425 30.409C51.1272 30.5249 50.7555 32.2 49.553 32.0088C48.7358 31.3918 49.5575 30.4541 49.6282 29.7889C49.3137 30.266 49.0864 30.7777 49.0503 31.3586C49.0127 31.8372 49.2385 32.2662 49.6403 32.5055C50.4756 32.7974 50.8428 31.8418 51.4538 31.4489C52.3629 30.7687 53.5142 30.6678 54.5436 30.2961C54.9966 30.8274 55.5701 31.1705 56.2503 31.1028C56.5468 31.017 56.7229 30.7115 56.8629 30.4722C57.3008 28.901 56.7665 27.2575 56.8388 25.6531C57.5657 26.8677 58.5244 27.9814 58.6418 29.4503C58.6057 30.1682 58.0293 30.7627 57.4348 31.1555L57.4363 30.0974L57.3324 30.3533C57.191 30.8304 57.3655 31.5317 56.7711 31.7183C56.9456 31.7018 57.0856 31.5995 57.2256 31.5317C57.3114 31.5678 57.2767 31.6506 57.2767 31.7033C57.4498 32.2165 57.5522 33.0006 58.249 33.0382C58.9654 32.5958 58.8796 31.6913 59.596 31.2142C59.7525 31.1449 59.9963 31.0426 60.1363 31.2142C60.4493 31.8132 60.8843 32.6183 61.7196 32.5506C61.9814 32.501 62.2629 32.3309 62.3998 32.0916C62.6451 31.7334 62.4721 31.2367 62.3682 30.9117C63.0665 31.5122 63.6023 32.6921 64.6844 32.507C65.0667 32.4061 65.1374 32.0133 65.2443 31.7048L65.3301 32.1668C65.6431 33.0563 66.6334 33.6899 67.4883 33.8645L67.541 33.4551C67.5078 33.252 67.2445 33.1647 67.0895 33.0608C66.811 32.7884 66.3234 32.6319 66.2707 32.2391L67.6493 32.0028C67.8043 32.3444 68.1023 32.7041 68.4139 32.9103C68.6231 32.9961 68.9361 33.0984 69.043 32.808C69.1829 32.3655 69.1679 31.8177 68.7856 31.4911C68.5222 31.3195 68.1911 31.2683 67.8766 31.3361C67.6523 30.6678 67.5665 29.9168 67.568 29.199L68.8789 29.0831C69.0008 29.0996 69.0701 28.928 69.0354 28.8603L67.553 28.9928C67.4672 28.1725 67.3995 27.2304 67.4371 26.3605L67.7321 26.6359C67.6297 26.07 67.3679 25.5583 67.1782 25.0105C67.091 25.0451 67.0548 25.2302 66.9841 25.3506C67.0864 26.5306 67.0473 27.8113 67.2023 28.9913C66.8878 29.1613 66.2948 28.9371 66.2256 29.3645L67.2008 29.2652C67.3212 29.9665 67.3378 30.7356 67.4762 31.4023L66.516 31.604C66.1849 31.6898 66.0269 32.0464 65.9562 32.3204L65.8869 32.2346C65.1405 30.5414 65.4791 28.3893 65.2202 26.4749C65.1179 25.8593 65.0502 25.1399 64.8063 24.6613L64.6649 25.1068C64.9915 27.1431 65.0727 29.2772 65.0532 31.4474C65.0517 31.6521 64.859 31.7876 64.6844 31.8734C64.3368 31.9742 64.0388 31.8041 63.7784 31.6491C62.317 30.1757 60.7338 28.5819 59.1686 27.3312C60.3741 26.6675 61.7512 26.4147 63.1117 26.1272C63.512 26.1287 64.0885 25.9406 64.2961 26.3349C63.9289 26.7789 63.3179 27.1356 63.2652 27.7331C63.6159 27.0332 64.6092 26.7443 64.5776 25.8909C64.4045 25.4635 63.795 25.5824 63.3916 25.5989C61.9272 25.8488 60.4283 26.0685 59.1701 26.8331C59.0301 27.125 59.0105 27.4998 59.0466 27.8264L61.4818 30.2404C61.846 30.6678 62.2463 31.0968 62.3502 31.6431C62.1229 31.8478 61.8445 31.9321 61.5134 31.8809C60.7473 31.8282 60.645 30.9734 60.1739 30.5279C59.2303 30.424 58.9669 31.5167 58.5997 32.0976C58.4958 32.2857 58.3032 32.5897 58.0067 32.4874C57.5537 32.3324 57.4844 31.8372 57.4333 31.4279C57.9405 31.1043 58.5349 30.6784 58.7607 30.0989C59.2889 28.0476 57.793 26.4568 56.9095 24.7787C56.6823 24.5229 56.7003 24.0939 56.4204 23.9224C56.3165 24.1797 56.142 24.5183 56.3843 24.7576C56.5032 26.52 56.6732 28.2463 56.7048 30.0237C56.6853 30.1772 56.6507 30.3473 56.4776 30.4C55.9885 30.5866 55.4482 30.3969 55.117 30.0719C55.5189 29.8672 56.1465 29.9199 56.1992 29.3374C55.9222 29.065 55.5896 28.8573 55.2254 28.7399C54.5828 28.5533 53.6948 28.4495 53.0642 28.7384ZM68.7465 32.2466V32.3309C68.5192 32.3143 68.31 32.1774 68.1716 31.9712C68.4003 31.9712 68.6261 32.0735 68.7465 32.2466ZM55.2239 29.4443L54.7002 29.6309L54.2125 29.1869C54.5798 29.2035 54.9289 29.2396 55.2239 29.4443Z" fill="#231F20"/>
</g>
<mask id="mask44_252_925" style="mask-type:luminance" maskUnits="userSpaceOnUse" x="0" y="0" width="91" height="110">
<path d="M90.4157 0.0539551H0.582764V109.211H90.4157V0.0539551Z" fill="white"/>
</mask>
<g mask="url(#mask44_252_925)">
<path d="M34.5405 25.0375C34.0694 25.5477 33.4584 25.8367 32.9678 26.2792C33.5969 26.0068 34.226 25.6501 34.679 25.0526L34.9032 25.1549C34.9228 25.0541 35.0793 24.9352 34.9574 24.8313C34.697 24.7967 34.9047 24.5574 34.8716 24.422C34.977 23.9088 34.4186 24.2158 34.3298 24.437C34.1236 24.6598 34.3479 24.9517 34.5405 25.0375ZM34.6985 24.5424L34.682 24.6959C34.5932 24.6628 34.5059 24.6101 34.4547 24.5409C34.4713 24.4551 34.7166 24.3527 34.6985 24.5424Z" fill="#231F20"/>
</g>
<mask id="mask45_252_925" style="mask-type:luminance" maskUnits="userSpaceOnUse" x="0" y="0" width="91" height="110">
<path d="M90.4157 0.0539551H0.582764V109.211H90.4157V0.0539551Z" fill="white"/>
</mask>
<g mask="url(#mask45_252_925)">
<path d="M68.8157 25.7855C68.9918 25.4288 68.748 25.1022 68.5403 24.8463C68.5734 24.7455 68.6803 24.6236 68.6457 24.5212C68.3311 24.8463 68.0662 25.3911 68.2935 25.8547C68.4485 25.9239 68.6923 25.9736 68.8157 25.7855ZM68.4169 25.1865C68.5569 25.2572 68.7134 25.3926 68.7465 25.5296C68.6231 25.5808 68.4846 25.6319 68.3642 25.5808C68.2589 25.4604 68.3642 25.3069 68.4169 25.1865Z" fill="#231F20"/>
</g>
<mask id="mask46_252_925" style="mask-type:luminance" maskUnits="userSpaceOnUse" x="0" y="0" width="91" height="110">
<path d="M90.4157 0.0539551H0.582764V109.211H90.4157V0.0539551Z" fill="white"/>
</mask>
<g mask="url(#mask46_252_925)">
<path d="M65.6612 25.0269C65.8358 25.2827 65.9035 25.5747 65.9728 25.8652C65.8508 25.966 65.7636 26.1045 65.7997 26.2926C65.8508 26.2399 66.0435 26.121 66.1293 26.2926L65.7786 26.4281C65.6567 27.1279 65.9848 27.8473 65.9652 28.5471C66.0721 27.9331 65.9351 27.298 65.7952 26.702C65.9878 26.6011 66.2316 26.6162 66.4589 26.5831C66.6861 26.2761 66.2331 26.0368 66.0766 25.8486L66.2888 25.0796C66.3761 24.7726 66.5492 25.0796 66.653 25.1338L66.6891 25.1172C66.7584 24.9622 66.6726 24.8087 66.5507 24.6883C66.0977 24.6356 66.2166 25.2346 66.06 25.5085C65.9201 25.1669 65.8885 24.7048 65.4671 24.5498L65.2925 24.8072C65.3813 24.9065 65.5047 25.1127 65.6612 25.0269Z" fill="#231F20"/>
</g>
<mask id="mask47_252_925" style="mask-type:luminance" maskUnits="userSpaceOnUse" x="0" y="0" width="91" height="110">
<path d="M90.4157 0.0539551H0.582764V109.211H90.4157V0.0539551Z" fill="white"/>
</mask>
<g mask="url(#mask47_252_925)">
<path d="M36.5076 25.9466C36.6987 25.8442 36.7363 25.623 36.7875 25.4349C36.7002 25.4845 36.6671 25.6907 36.5091 25.6561C36.2668 25.331 36.5271 24.8705 36.5813 24.5635C36.4052 24.9217 36.2487 25.2799 36.2818 25.7238C36.2999 25.8277 36.3691 25.9646 36.5076 25.9466Z" fill="#231F20"/>
</g>
<mask id="mask48_252_925" style="mask-type:luminance" maskUnits="userSpaceOnUse" x="0" y="0" width="91" height="110">
<path d="M90.4157 0.0539551H0.582764V109.211H90.4157V0.0539551Z" fill="white"/>
</mask>
<g mask="url(#mask48_252_925)">
<path d="M61.6172 24.6238C60.6946 24.7923 59.7329 24.8751 58.8434 25.1144L58.7908 25.3341L61.5645 24.7954L61.6172 24.6238Z" fill="#231F20"/>
</g>
<mask id="mask49_252_925" style="mask-type:luminance" maskUnits="userSpaceOnUse" x="0" y="0" width="91" height="110">
<path d="M90.4157 0.0539551H0.582764V109.211H90.4157V0.0539551Z" fill="white"/>
</mask>
<g mask="url(#mask49_252_925)">
<path d="M50.6652 25.9812L53.4208 25.2196L53.5096 25.0315C52.9347 25.1669 52.3598 25.3024 51.7999 25.4378C51.4342 25.641 50.7871 25.5041 50.6652 25.9812Z" fill="#231F20"/>
</g>
<mask id="mask50_252_925" style="mask-type:luminance" maskUnits="userSpaceOnUse" x="0" y="0" width="91" height="110">
<path d="M90.4157 0.0539551H0.582764V109.211H90.4157V0.0539551Z" fill="white"/>
</mask>
<g mask="url(#mask50_252_925)">
<path d="M31.9413 25.6952L32.1159 25.8156C32.1852 25.7464 32.1852 25.644 32.1852 25.5432L32.0648 25.3882C31.5952 25.5056 31.6975 26.0534 31.5395 26.395C31.4688 26.1557 31.401 25.933 31.2099 25.7268C31.1226 25.6922 30.9857 25.5914 30.9134 25.7268C30.8457 25.8457 30.6877 25.9992 30.8788 26.1031C30.9646 26.1542 31.0714 26.1557 31.1407 26.0865C31.3484 26.3093 31.4522 26.6012 31.4342 26.8902C30.9631 27.4696 30.2467 27.8609 29.7395 28.32C30.194 28.1002 30.647 27.8955 31.0323 27.5389C31.6765 27.0633 31.5199 26.2415 31.9413 25.6952Z" fill="#231F20"/>
</g>
<mask id="mask51_252_925" style="mask-type:luminance" maskUnits="userSpaceOnUse" x="0" y="0" width="91" height="110">
<path d="M90.4157 0.0539551H0.582764V109.211H90.4157V0.0539551Z" fill="white"/>
</mask>
<g mask="url(#mask51_252_925)">
<path d="M22.4025 26.2536C22.3167 26.3228 22.246 26.5275 22.0879 26.5275C21.8968 26.1843 22.1271 25.775 22.1963 25.4153C21.9856 25.8262 21.7598 26.3875 22.0006 26.8165C22.3137 26.818 22.3137 26.4583 22.4025 26.2536Z" fill="#231F20"/>
</g>
<mask id="mask52_252_925" style="mask-type:luminance" maskUnits="userSpaceOnUse" x="0" y="0" width="91" height="110">
<path d="M90.4157 0.0539551H0.582764V109.211H90.4157V0.0539551Z" fill="white"/>
</mask>
<g mask="url(#mask52_252_925)">
<path d="M52.3207 26.5502L55.1125 25.8383L55.1637 25.6682C54.2215 25.8548 53.3125 26.0731 52.4245 26.3289L52.3207 26.5502Z" fill="#231F20"/>
</g>
<mask id="mask53_252_925" style="mask-type:luminance" maskUnits="userSpaceOnUse" x="0" y="0" width="91" height="110">
<path d="M90.4157 0.0539551H0.582764V109.211H90.4157V0.0539551Z" fill="white"/>
</mask>
<g mask="url(#mask53_252_925)">
<path d="M29.0788 26.7488L29.2534 26.818C29.6537 26.4944 28.8861 26.4598 29.2218 26.1016C29.2218 25.9812 29.2564 25.7931 29.0818 25.8096C28.838 25.912 28.5927 26.1693 28.5927 26.4417C28.6273 26.5952 28.8019 26.6299 28.8892 26.7156C28.4527 27.2785 27.7529 27.6006 27.3345 28.0611C27.9786 27.7887 28.6062 27.2951 29.0788 26.7488ZM28.8019 26.2521C28.8199 26.1347 29.0472 26.0474 29.0457 26.2205L29.0291 26.374C28.9403 26.3574 28.8696 26.3048 28.8019 26.2521Z" fill="#231F20"/>
</g>
<mask id="mask54_252_925" style="mask-type:luminance" maskUnits="userSpaceOnUse" x="0" y="0" width="91" height="110">
<path d="M90.4157 0.0539551H0.582764V109.211H90.4157V0.0539551Z" fill="white"/>
</mask>
<g mask="url(#mask54_252_925)">
<path d="M39.6078 27.4592C39.7312 27.3056 39.8351 27.1341 39.8697 26.9475C39.8004 26.8451 39.6966 26.8271 39.6093 26.7759C39.1382 26.6555 39.6966 26.3831 39.6093 26.1603L39.069 25.8337L38.8071 26.3454L39.0675 26.5005C39.504 26.5878 39.0856 26.9098 39.066 27.116L39.6078 27.4592Z" fill="#231F20"/>
</g>
<mask id="mask55_252_925" style="mask-type:luminance" maskUnits="userSpaceOnUse" x="0" y="0" width="91" height="110">
<path d="M90.4157 0.0539551H0.582764V109.211H90.4157V0.0539551Z" fill="white"/>
</mask>
<g mask="url(#mask55_252_925)">
<path d="M25.4351 26.6042C25.5224 26.69 25.6789 26.7231 25.7827 26.6389C25.9754 26.8435 26.0446 27.1175 26.1123 27.3733C26.3396 27.0497 26.2719 26.6057 26.4645 26.2641C26.5353 26.1106 26.6557 26.2475 26.7429 26.2987C26.8302 26.2129 26.8137 26.1121 26.8137 25.9917C26.761 25.924 26.6933 25.8894 26.606 25.8728C26.2388 26.076 26.2899 26.538 26.1846 26.8797C26.0958 26.8962 26.1138 26.7442 26.0792 26.6569C25.9934 26.4688 25.873 26.2129 25.6112 26.2129C25.2244 27.0482 24.2988 27.5765 23.6185 28.1725C24.3169 27.8654 25.0844 27.3206 25.4351 26.6042Z" fill="#231F20"/>
</g>
<mask id="mask56_252_925" style="mask-type:luminance" maskUnits="userSpaceOnUse" x="0" y="0" width="91" height="110">
<path d="M90.4157 0.0539551H0.582764V109.211H90.4157V0.0539551Z" fill="white"/>
</mask>
<g mask="url(#mask56_252_925)">
<path d="M18.0876 29.524C18.5241 29.2516 18.9606 28.9822 19.3458 28.6059C19.9734 28.1108 19.9403 27.3432 20.2037 26.6946C20.2564 26.6088 20.3602 26.6088 20.4129 26.6946C20.5529 26.7804 20.5363 26.5576 20.5529 26.4748C20.5213 26.3875 20.4671 26.3529 20.3798 26.3018C19.9795 26.5245 20.0487 27.0543 19.8907 27.3763C19.8575 27.1551 19.7688 26.9324 19.5776 26.7623L19.2811 26.7608C19.2811 26.8977 19.0554 27.0001 19.2104 27.1355C19.2811 27.2063 19.4708 27.2379 19.5069 27.1205C19.6619 27.3432 19.8199 27.5645 19.835 27.8564C19.3473 28.4855 18.6641 28.9807 18.0876 29.524Z" fill="#231F20"/>
</g>
<mask id="mask57_252_925" style="mask-type:luminance" maskUnits="userSpaceOnUse" x="0" y="0" width="91" height="110">
<path d="M90.4157 0.0539551H0.582764V109.211H90.4157V0.0539551Z" fill="white"/>
</mask>
<g mask="url(#mask57_252_925)">
<path d="M34.9723 26.5757C34.7616 26.8301 35.1605 27.2078 34.8128 27.4125C34.3417 27.4968 34.6924 26.9339 34.5178 26.7262L34.3944 26.8813C34.429 27.0679 34.4275 27.2906 34.4636 27.548C34.4817 27.6187 34.5675 27.7542 34.6894 27.7195C34.864 27.6699 34.9528 27.5495 35.025 27.396L35.162 27.5675C35.2478 27.5495 35.3712 27.6022 35.4223 27.5149C35.7369 27.1913 35.3727 26.8316 35.3561 26.4915C35.162 26.7473 35.3712 27.0032 35.4404 27.2425C34.9347 27.5329 35.1996 26.7458 34.9723 26.5757Z" fill="#231F20"/>
</g>
<mask id="mask58_252_925" style="mask-type:luminance" maskUnits="userSpaceOnUse" x="0" y="0" width="91" height="110">
<path d="M90.4157 0.0539551H0.582764V109.211H90.4157V0.0539551Z" fill="white"/>
</mask>
<g mask="url(#mask58_252_925)">
<path d="M23.4305 26.5139C22.4703 26.9895 21.5793 27.5855 20.6552 28.1469L20.5845 28.4208L23.292 26.7532L23.4305 26.5139Z" fill="#231F20"/>
</g>
<mask id="mask59_252_925" style="mask-type:luminance" maskUnits="userSpaceOnUse" x="0" y="0" width="91" height="110">
<path d="M90.4157 0.0539551H0.582764V109.211H90.4157V0.0539551Z" fill="white"/>
</mask>
<g mask="url(#mask59_252_925)">
<path d="M70.0001 32.966L69.7142 28.2146L69.7683 28.1635L70.0453 28.472C69.9083 27.8911 69.7172 27.3252 69.4583 26.8135L69.2642 27.3086C69.4703 29.5481 69.654 31.8718 69.6675 34.0932C69.8948 33.7682 69.9655 33.3753 70.0001 32.966Z" fill="#231F20"/>
</g>
<mask id="mask60_252_925" style="mask-type:luminance" maskUnits="userSpaceOnUse" x="0" y="0" width="91" height="110">
<path d="M90.4157 0.0539551H0.582764V109.211H90.4157V0.0539551Z" fill="white"/>
</mask>
<g mask="url(#mask60_252_925)">
<path d="M51.8466 28.1033C51.8647 28.2237 51.9851 28.3276 52.1055 28.3276C52.28 28.2252 52.3162 28.0371 52.3342 27.849C52.2815 27.9348 52.1943 28.0883 52.0723 28.0522C51.83 27.7105 52.0739 27.2665 52.1431 26.9761C51.9339 27.2997 51.8285 27.6759 51.8466 28.1033Z" fill="#231F20"/>
</g>
<mask id="mask61_252_925" style="mask-type:luminance" maskUnits="userSpaceOnUse" x="0" y="0" width="91" height="110">
<path d="M90.4157 0.0539551H0.582764V109.211H90.4157V0.0539551Z" fill="white"/>
</mask>
<g mask="url(#mask61_252_925)">
<path d="M68.304 28.3817C68.4605 28.2975 68.5312 28.1274 68.5312 27.9378C68.4786 28.0401 68.3928 28.1078 68.2859 28.1078C67.9909 27.7827 68.2874 27.3222 68.3416 27.0317C68.1309 27.3553 68.0075 27.6985 68.0255 28.1063C68.0602 28.2433 68.1655 28.3652 68.304 28.3817Z" fill="#231F20"/>
</g>
<mask id="mask62_252_925" style="mask-type:luminance" maskUnits="userSpaceOnUse" x="0" y="0" width="91" height="110">
<path d="M90.4157 0.0539551H0.582764V109.211H90.4157V0.0539551Z" fill="white"/>
</mask>
<g mask="url(#mask62_252_925)">
<path d="M61.7316 27.7015C61.8189 27.7542 61.7497 27.8881 61.8881 27.8731C61.9589 27.855 62.0793 27.8219 62.0281 27.703C61.9589 27.5314 61.7497 27.4787 61.5751 27.4095C61.2621 27.3418 60.7549 27.2891 60.5457 27.563C60.7714 28.0747 61.5375 28.2478 61.6082 28.8122C61.086 28.4179 60.4238 28.0582 60.0761 27.5269C60.0219 28.2614 60.9099 28.5729 61.3975 28.9296C61.539 28.9657 61.7301 28.9311 61.8355 28.761C61.9077 28.1289 61.0529 28.0416 60.8271 27.5119C61.1221 27.4261 61.4697 27.563 61.7316 27.7015Z" fill="#231F20"/>
</g>
<mask id="mask63_252_925" style="mask-type:luminance" maskUnits="userSpaceOnUse" x="0" y="0" width="91" height="110">
<path d="M90.4157 0.0539551H0.582764V109.211H90.4157V0.0539551Z" fill="white"/>
</mask>
<g mask="url(#mask63_252_925)">
<path d="M32.7524 28.6375C32.7524 28.7745 32.8397 28.928 33.0128 28.8934C33.1693 28.7925 33.2401 28.4674 33.2401 28.3997C33.1528 28.4674 33.1182 28.639 32.9782 28.621C32.7359 28.2628 32.9978 27.8188 33.0685 27.5103C32.8939 27.8684 32.7178 28.2116 32.7524 28.6375Z" fill="#231F20"/>
</g>
<mask id="mask64_252_925" style="mask-type:luminance" maskUnits="userSpaceOnUse" x="0" y="0" width="91" height="110">
<path d="M90.4157 0.0539551H0.582764V109.211H90.4157V0.0539551Z" fill="white"/>
</mask>
<g mask="url(#mask64_252_925)">
<path d="M57.5823 28.0129L57.3535 28.475L57.8065 28.8678L57.5778 29.2952C57.7689 29.4487 57.9615 29.6369 58.1527 29.7573C58.258 29.6203 58.3634 29.4668 58.3814 29.2967C58.2761 29.1598 58.1015 29.0574 57.963 28.919C57.9465 28.8181 58.0503 28.7654 58.085 28.6812C58.2791 28.3576 57.7719 28.186 57.5823 28.0129Z" fill="#231F20"/>
</g>
<mask id="mask65_252_925" style="mask-type:luminance" maskUnits="userSpaceOnUse" x="0" y="0" width="91" height="110">
<path d="M90.4157 0.0539551H0.582764V109.211H90.4157V0.0539551Z" fill="white"/>
</mask>
<g mask="url(#mask65_252_925)">
<path d="M21.6635 28.9175C21.5928 29.0033 21.4528 29.1222 21.5386 29.226C21.7132 29.3976 21.4859 29.7377 21.7297 29.8747C21.975 29.8912 22.0969 29.6534 22.1827 29.4999L22.3046 29.6549C22.4446 29.6881 22.5515 29.6203 22.6192 29.5014C22.7953 29.1929 22.5876 28.8347 22.4837 28.5608C22.2204 28.8678 22.6899 29.1252 22.5153 29.381C22.0608 29.4322 22.3603 28.9024 22.1677 28.7143C21.8366 28.9024 22.3949 29.3464 21.9389 29.5857C21.4874 29.6188 21.8727 29.0725 21.6635 28.9175Z" fill="#231F20"/>
</g>
<mask id="mask66_252_925" style="mask-type:luminance" maskUnits="userSpaceOnUse" x="0" y="0" width="91" height="110">
<path d="M90.4157 0.0539551H0.582764V109.211H90.4157V0.0539551Z" fill="white"/>
</mask>
<g mask="url(#mask66_252_925)">
<path d="M63.33 30.0793C63.3465 30.2494 63.3992 30.4556 63.6264 30.439C63.7845 30.3548 63.8191 30.1847 63.8372 30.0312L63.6264 30.2012C63.2622 29.9093 63.5768 29.4322 63.6641 29.092C63.4353 29.3795 63.3661 29.7196 63.33 30.0793Z" fill="#231F20"/>
</g>
<mask id="mask67_252_925" style="mask-type:luminance" maskUnits="userSpaceOnUse" x="0" y="0" width="91" height="110">
<path d="M90.4157 0.0539551H0.582764V109.211H90.4157V0.0539551Z" fill="white"/>
</mask>
<g mask="url(#mask67_252_925)">
<path d="M65.9441 30.6994C65.9787 30.7852 66.0841 30.9222 66.1864 30.9222C66.3956 30.8544 66.3971 30.582 66.4137 30.4782C66.3625 30.5474 66.3098 30.6663 66.1864 30.6498C65.8402 30.3066 66.2045 29.8988 66.2406 29.5391C66.0329 29.8822 65.8764 30.2735 65.9441 30.6994Z" fill="#231F20"/>
</g>
<mask id="mask68_252_925" style="mask-type:luminance" maskUnits="userSpaceOnUse" x="0" y="0" width="91" height="110">
<path d="M90.4157 0.0539551H0.582764V109.211H90.4157V0.0539551Z" fill="white"/>
</mask>
<g mask="url(#mask68_252_925)">
<path d="M19.6197 30.3143C19.7943 30.3669 19.9869 30.5039 20.1254 30.4873C20.2112 30.2992 20.3692 30.1472 20.3526 29.9244L19.8289 29.7183L19.6016 30.1442L19.0448 29.9726L18.8175 30.5355L19.3397 30.7582C19.4797 30.6213 19.4632 30.4166 19.6197 30.3143Z" fill="#231F20"/>
</g>
<mask id="mask69_252_925" style="mask-type:luminance" maskUnits="userSpaceOnUse" x="0" y="0" width="91" height="110">
<path d="M90.4157 0.0539551H0.582764V109.211H90.4157V0.0539551Z" fill="white"/>
</mask>
<g mask="url(#mask69_252_925)">
<path d="M17.9958 31.8477C18.2381 31.7634 18.2923 31.4232 18.2923 31.2848C18.2577 31.4037 18.1523 31.5241 18.0289 31.5572C17.8046 31.214 18.0319 30.7701 18.1373 30.4299C17.9642 30.8047 17.7685 31.1794 17.8046 31.658C17.8212 31.7453 17.8739 31.8657 17.9958 31.8477Z" fill="#231F20"/>
</g>
<mask id="mask70_252_925" style="mask-type:luminance" maskUnits="userSpaceOnUse" x="0" y="0" width="91" height="110">
<path d="M90.4157 0.0539551H0.582764V109.211H90.4157V0.0539551Z" fill="white"/>
</mask>
<g mask="url(#mask70_252_925)">
<path d="M50.4079 31.0893C50.5313 30.8003 50.0783 30.6799 49.9037 30.5068L49.6418 31.0035L50.0934 31.3451C50.2694 31.4821 50.3025 31.1751 50.4079 31.0893Z" fill="#231F20"/>
</g>
<mask id="mask71_252_925" style="mask-type:luminance" maskUnits="userSpaceOnUse" x="0" y="0" width="91" height="110">
<path d="M90.4157 0.0539551H0.582764V109.211H90.4157V0.0539551Z" fill="white"/>
</mask>
<g mask="url(#mask71_252_925)">
<path d="M35.8333 31.2427L35.8152 31.038L35.5368 31.3796C34.4743 31.1373 34.1402 32.4497 33.353 32.8606C33.7744 32.7913 34.0182 32.3489 34.3328 32.0765C34.6654 31.4805 35.3442 31.941 35.7099 31.4654C35.8333 31.5527 36.0605 31.5196 36.1478 31.3826C36.1825 31.2442 36.2893 31.0064 36.1493 30.886C36.0967 30.9718 36.0259 31.0907 36.0967 31.1945C36.041 31.2773 35.9206 31.2261 35.8333 31.2427Z" fill="#231F20"/>
</g>
<mask id="mask72_252_925" style="mask-type:luminance" maskUnits="userSpaceOnUse" x="0" y="0" width="91" height="110">
<path d="M90.4157 0.0539551H0.582764V109.211H90.4157V0.0539551Z" fill="white"/>
</mask>
<g mask="url(#mask72_252_925)">
<path d="M36.825 32.1669C36.825 32.2692 36.9274 32.3385 37.0162 32.3385C37.2224 32.2692 37.2946 31.9803 37.2946 31.8253C37.26 31.9276 37.1546 32.048 37.0327 32.048C36.7543 31.7214 37.0869 31.312 37.1215 30.9358C36.9485 31.3136 36.7197 31.7229 36.825 32.1669Z" fill="#231F20"/>
</g>
<mask id="mask73_252_925" style="mask-type:luminance" maskUnits="userSpaceOnUse" x="0" y="0" width="91" height="110">
<path d="M90.4157 0.0539551H0.582764V109.211H90.4157V0.0539551Z" fill="white"/>
</mask>
<g mask="url(#mask73_252_925)">
<path d="M54.029 32.9268C54.4127 33.0472 54.9019 33.0292 55.1999 32.7583C54.8146 32.7583 54.3089 32.8922 54.0124 32.6364C53.9612 32.1247 54.7649 31.9711 54.8161 31.5091C54.6099 31.5949 54.3285 31.8673 54.1208 31.5422L54.1719 31.4248C54.2261 31.2698 54.4157 31.321 54.4338 31.4579C54.4865 31.3722 54.5557 31.321 54.5738 31.2367C54.5738 31.1344 54.4519 31.0832 54.3646 31.0997C54.1719 31.2367 53.9116 31.4414 53.9101 31.6972C53.9627 31.8161 54.0485 31.8854 54.1704 31.9711L53.9432 32.3293C53.8739 32.5009 53.8032 32.8079 54.029 32.9268Z" fill="#231F20"/>
</g>
<mask id="mask74_252_925" style="mask-type:luminance" maskUnits="userSpaceOnUse" x="0" y="0" width="91" height="110">
<path d="M90.4157 0.0539551H0.582764V109.211H90.4157V0.0539551Z" fill="white"/>
</mask>
<g mask="url(#mask74_252_925)">
<path d="M38.2157 32.5973L41.0105 31.3752L41.0286 31.2036L38.2879 32.3414L38.2157 32.5973Z" fill="#231F20"/>
</g>
<mask id="mask75_252_925" style="mask-type:luminance" maskUnits="userSpaceOnUse" x="0" y="0" width="91" height="110">
<path d="M90.4157 0.0539551H0.582764V109.211H90.4157V0.0539551Z" fill="white"/>
</mask>
<g mask="url(#mask75_252_925)">
<path d="M47.8433 31.8539L47.2865 31.5107L47.0592 32.0059L47.6146 32.3671L47.8433 32.0255C48.0164 32.1444 48.191 32.2828 48.3641 32.4047L48.5386 32.1308C48.7855 31.7546 48.2271 31.7199 48.0706 31.5138L47.8433 31.8539Z" fill="#231F20"/>
</g>
<mask id="mask76_252_925" style="mask-type:luminance" maskUnits="userSpaceOnUse" x="0" y="0" width="91" height="110">
<path d="M90.4157 0.0539551H0.582764V109.211H90.4157V0.0539551Z" fill="white"/>
</mask>
<g mask="url(#mask76_252_925)">
<path d="M30.4061 33.4851C30.7734 33.4505 31.2083 33.2307 31.3483 32.993C30.981 33.1103 30.5958 33.3827 30.1789 33.16C30.1984 32.5971 31.0006 32.3759 30.9841 31.813L30.7387 32.0854C30.6168 32.1878 30.4438 32.1878 30.3218 32.0854L30.3565 31.9139C30.4287 31.813 30.5672 31.7784 30.6349 31.8792L30.7402 31.6234L30.6891 31.5376C30.4287 31.6384 30.1488 31.947 30.1127 32.254C30.1307 32.4075 30.2526 32.4256 30.355 32.4933C30.1804 32.7326 30.0946 32.9704 30.0585 33.2623C30.0735 33.4159 30.23 33.5348 30.4061 33.4851Z" fill="#231F20"/>
</g>
<mask id="mask77_252_925" style="mask-type:luminance" maskUnits="userSpaceOnUse" x="0" y="0" width="91" height="110">
<path d="M90.4157 0.0539551H0.582764V109.211H90.4157V0.0539551Z" fill="white"/>
</mask>
<g mask="url(#mask77_252_925)">
<path d="M32.3235 32.823C32.3416 32.9253 32.3943 33.0789 32.5493 33.0442C32.76 32.9765 32.76 32.7207 32.8307 32.5325L32.602 32.7718C32.2558 32.4979 32.6065 31.9847 32.6215 31.6611C32.4831 32.0374 32.2709 32.379 32.3235 32.823Z" fill="#231F20"/>
</g>
<mask id="mask78_252_925" style="mask-type:luminance" maskUnits="userSpaceOnUse" x="0" y="0" width="91" height="110">
<path d="M90.4157 0.0539551H0.582764V109.211H90.4157V0.0539551Z" fill="white"/>
</mask>
<g mask="url(#mask78_252_925)">
<path d="M56.4009 33.0007C56.4189 33.103 56.5228 33.2054 56.6447 33.2054C56.8554 33.1392 56.8915 32.8306 56.8734 32.7629C56.8208 32.8306 56.7515 32.951 56.6462 32.9315C56.2985 32.6244 56.6657 32.1805 56.7019 31.8223C56.4731 32.1639 56.3346 32.5733 56.4009 33.0007Z" fill="#231F20"/>
</g>
<mask id="mask79_252_925" style="mask-type:luminance" maskUnits="userSpaceOnUse" x="0" y="0" width="91" height="110">
<path d="M90.4157 0.0539551H0.582764V109.211H90.4157V0.0539551Z" fill="white"/>
</mask>
<g mask="url(#mask79_252_925)">
<path d="M59.6622 33.4536C59.9753 33.3694 60.2552 33.0443 60.2552 32.7192C60.2552 32.5657 60.0987 32.4618 59.9422 32.4949C59.8188 32.5642 59.8022 32.6996 59.8022 32.7854L59.8534 32.7689C59.9407 32.7162 60.028 32.7704 60.0806 32.8381C60.1002 33.112 59.8188 33.2836 59.6622 33.4536Z" fill="#231F20"/>
</g>
<mask id="mask80_252_925" style="mask-type:luminance" maskUnits="userSpaceOnUse" x="0" y="0" width="91" height="110">
<path d="M90.4157 0.0539551H0.582764V109.211H90.4157V0.0539551Z" fill="white"/>
</mask>
<g mask="url(#mask80_252_925)">
<path d="M63.5993 34.5222C63.634 34.6411 63.7559 34.7269 63.8748 34.7284C64.0147 34.6426 64.0689 34.471 64.0689 34.301L63.8416 34.471C63.5286 34.1459 63.81 33.72 63.8958 33.3799C63.6535 33.6854 63.5467 34.1128 63.5993 34.5222Z" fill="#231F20"/>
</g>
<mask id="mask81_252_925" style="mask-type:luminance" maskUnits="userSpaceOnUse" x="0" y="0" width="91" height="110">
<path d="M90.4157 0.0539551H0.582764V109.211H90.4157V0.0539551Z" fill="white"/>
</mask>
<g mask="url(#mask81_252_925)">
<path d="M68.3236 34.4319H68.3763C68.6201 34.3295 68.9527 34.0586 68.9166 33.7486C68.9166 33.5785 68.745 33.5093 68.587 33.5093C68.5012 33.562 68.4651 33.6628 68.447 33.7832C68.5524 33.7305 68.6728 33.7486 68.7435 33.8524C68.7947 34.1263 68.4455 34.2618 68.3236 34.4319Z" fill="#231F20"/>
</g>
<mask id="mask82_252_925" style="mask-type:luminance" maskUnits="userSpaceOnUse" x="0" y="0" width="91" height="110">
<path d="M90.4157 0.0539551H0.582764V109.211H90.4157V0.0539551Z" fill="white"/>
</mask>
<g mask="url(#mask82_252_925)">
<path d="M21.6169 34.0601C21.5627 34.2844 21.3881 34.0255 21.2677 34.0255C20.8689 33.7336 20.902 34.3506 20.7605 34.5207L21.3189 34.7434L21.5461 34.316L22.0669 34.5237C22.1556 34.3371 22.3287 34.1655 22.2956 33.9608L21.7719 33.7366L21.6169 34.0601Z" fill="#231F20"/>
</g>
<mask id="mask83_252_925" style="mask-type:luminance" maskUnits="userSpaceOnUse" x="0" y="0" width="91" height="110">
<path d="M90.4157 0.0539551H0.582764V109.211H90.4157V0.0539551Z" fill="white"/>
</mask>
<g mask="url(#mask83_252_925)">
<path d="M66.334 35.2475L66.4905 35.1963C66.7358 35.0413 66.9977 34.7869 66.9285 34.4619C66.8954 34.3415 66.7719 34.2903 66.6696 34.2903C66.5116 34.3068 66.492 34.4769 66.5116 34.5792L66.5281 34.5627C66.6335 34.5446 66.7208 34.5642 66.7885 34.65C66.7885 34.9224 66.474 35.0578 66.334 35.2475Z" fill="#231F20"/>
</g>
<mask id="mask84_252_925" style="mask-type:luminance" maskUnits="userSpaceOnUse" x="0" y="0" width="91" height="110">
<path d="M90.4157 0.0539551H0.582764V109.211H90.4157V0.0539551Z" fill="white"/>
</mask>
<g mask="url(#mask84_252_925)">
<path d="M19.8876 35.4252C19.9041 35.5441 19.9734 35.6811 20.1329 35.6299C20.3225 35.4764 20.3586 35.2702 20.3948 35.067C20.3075 35.1694 20.2548 35.3575 20.0968 35.3229C19.8891 34.9466 20.169 34.5884 20.2217 34.2302C20.011 34.5869 19.8891 34.9797 19.8876 35.4252Z" fill="#231F20"/>
</g>
<mask id="mask85_252_925" style="mask-type:luminance" maskUnits="userSpaceOnUse" x="0" y="0" width="91" height="110">
<path d="M90.4157 0.0539551H0.582764V109.211H90.4157V0.0539551Z" fill="white"/>
</mask>
<g mask="url(#mask85_252_925)">
<path d="M69.8737 35.4778H69.9429C70.0137 35.4612 70.1175 35.4943 70.1702 35.5816C70.1852 35.8194 69.8902 35.9714 69.7172 36.143C69.8029 36.161 69.8391 36.1099 69.8887 36.0933C70.1341 35.9413 70.3959 35.7005 70.3267 35.3754C70.2725 35.2731 70.1521 35.2219 70.0468 35.2039C69.9083 35.2204 69.8737 35.3589 69.8737 35.4778Z" fill="#231F20"/>
</g>
<mask id="mask86_252_925" style="mask-type:luminance" maskUnits="userSpaceOnUse" x="0" y="0" width="91" height="110">
<path d="M90.4157 0.0539551H0.582764V109.211H90.4157V0.0539551Z" fill="white"/>
</mask>
<g mask="url(#mask86_252_925)">
<path d="M73.899 38.9875L73.9021 38.9954L73.856 39.0078L73.899 38.9875Z" fill="#020303"/>
</g>
<mask id="mask87_252_925" style="mask-type:luminance" maskUnits="userSpaceOnUse" x="0" y="0" width="91" height="110">
<path d="M90.4157 0.0539551H0.582764V109.211H90.4157V0.0539551Z" fill="white"/>
</mask>
<g mask="url(#mask87_252_925)">
<path d="M49.9458 14.7522C52.4156 14.385 54.0801 17.4387 54.0801 17.4387C53.7565 12.5489 48.5673 13.2698 48.5673 13.2698C49.8826 12.2359 52.548 13.5497 52.548 13.5497C50.6111 10.8272 47.8343 11.6068 47.8343 11.6068C48.1654 10.9792 50.1565 11.1146 50.1565 11.1146C48.349 9.33418 46.2345 11.1221 46.2345 11.1221C46.3353 10.1409 45.4985 8.60425 45.4985 8.60425C45.4985 8.60425 44.6632 10.1424 44.7641 11.1221C44.7641 11.1221 42.6495 9.33418 40.842 11.1146C40.842 11.1146 42.8331 10.9777 43.1657 11.6068C43.1657 11.6068 40.389 10.8287 38.452 13.5497C38.452 13.5497 41.1159 12.2343 42.4328 13.2698C42.4328 13.2698 37.2435 12.5489 36.9199 17.4387C36.9199 17.4387 38.583 14.385 41.0527 14.7522C41.0527 14.7522 35.7701 16.2497 38.297 20.9574C38.297 20.9574 38.1601 17.0564 41.2047 16.1715C41.2047 16.1715 37.2014 19.3696 40.8074 22.0681C40.8074 22.0681 40.0609 19.0385 42.1529 17.6539C42.1529 17.6539 40.6719 21.0553 43.5555 23.9223C43.5555 23.9223 42.9641 21.0101 44.8213 19.4103V24.4611C44.7972 25.1865 44.743 26.0459 44.7099 26.678C44.6482 27.8203 44.588 28.6616 44.585 28.6977C44.43 29.4096 44.4285 29.8852 44.4285 29.8912V29.8942V29.8987L44.445 30.2374L44.4661 30.6588L44.3803 30.889L44.3577 30.9522C44.2614 31.1268 44.2208 31.2864 44.2208 31.4203C44.2208 31.6476 44.3246 31.7935 44.3863 31.8583L44.1967 35.4492C43.679 35.994 43.235 36.9738 43.2305 36.9783L43.1567 37.1409H43.3328H45.1298H45.8642H47.6642H47.8403L47.7651 36.9783C47.7621 36.9753 47.3151 35.994 46.7989 35.4477L46.6107 31.8583C46.6724 31.792 46.7748 31.6476 46.7748 31.4203C46.7748 31.2864 46.7356 31.1268 46.6378 30.9522L46.5912 30.8213L46.5295 30.6573L46.552 30.1922L46.5671 29.8972V29.8927V29.8897C46.5671 29.8837 46.5656 29.4096 46.4106 28.6977C46.4075 28.6736 46.3474 27.8293 46.2856 26.678C46.2525 26.0444 46.1968 25.1835 46.1743 24.4581V19.4073C48.033 21.0071 47.44 23.9193 47.44 23.9193C50.3221 21.0537 48.8427 17.6509 48.8427 17.6509C50.9346 19.0355 50.1882 22.0651 50.1882 22.0651C53.7942 19.3651 49.7923 16.1685 49.7923 16.1685C52.834 17.0534 52.697 20.9544 52.697 20.9544C55.23 16.2482 49.9458 14.7522 49.9458 14.7522Z" fill="#04814F"/>
</g>
<mask id="mask88_252_925" style="mask-type:luminance" maskUnits="userSpaceOnUse" x="0" y="0" width="91" height="110">
<path d="M90.4157 0.0539551H0.582764V109.211H90.4157V0.0539551Z" fill="white"/>
</mask>
<g mask="url(#mask88_252_925)">
<path d="M49.9458 14.7522C52.4156 14.385 54.0801 17.4387 54.0801 17.4387C53.7565 12.5489 48.5673 13.2698 48.5673 13.2698C49.8826 12.2359 52.548 13.5497 52.548 13.5497C50.6111 10.8272 47.8343 11.6068 47.8343 11.6068C48.1654 10.9792 50.1565 11.1146 50.1565 11.1146C48.349 9.33418 46.2345 11.1221 46.2345 11.1221C46.3353 10.1409 45.4985 8.60425 45.4985 8.60425C45.4985 8.60425 44.6632 10.1424 44.7641 11.1221C44.7641 11.1221 42.6495 9.33418 40.842 11.1146C40.842 11.1146 42.8331 10.9777 43.1657 11.6068C43.1657 11.6068 40.389 10.8287 38.452 13.5497C38.452 13.5497 41.1159 12.2343 42.4328 13.2698C42.4328 13.2698 37.2435 12.5489 36.9199 17.4387C36.9199 17.4387 38.583 14.385 41.0527 14.7522C41.0527 14.7522 35.7701 16.2497 38.297 20.9574C38.297 20.9574 38.1601 17.0564 41.2047 16.1715C41.2047 16.1715 37.2014 19.3696 40.8074 22.0681C40.8074 22.0681 40.0609 19.0385 42.1529 17.6539C42.1529 17.6539 40.6719 21.0553 43.5555 23.9223C43.5555 23.9223 42.9641 21.0101 44.8213 19.4103V24.4611C44.7972 25.1865 44.743 26.0459 44.7099 26.678C44.6482 27.8203 44.588 28.6616 44.585 28.6977C44.43 29.4096 44.4285 29.8852 44.4285 29.8912V29.8942V29.8987L44.445 30.2374L44.4661 30.6588L44.3803 30.889L44.3577 30.9522C44.2614 31.1268 44.2208 31.2864 44.2208 31.4203C44.2208 31.6476 44.3246 31.7935 44.3863 31.8583L44.1967 35.4492C43.679 35.994 43.235 36.9738 43.2305 36.9783L43.1567 37.1409H43.3328H45.1298H45.8642H47.6642H47.8403L47.7651 36.9783C47.7621 36.9753 47.3151 35.994 46.7989 35.4477L46.6107 31.8583C46.6724 31.792 46.7748 31.6476 46.7748 31.4203C46.7748 31.2864 46.7356 31.1268 46.6378 30.9522L46.5912 30.8213L46.5295 30.6573L46.552 30.1922L46.5671 29.8972V29.8927V29.8897C46.5671 29.8837 46.5656 29.4096 46.4106 28.6977C46.4075 28.6736 46.3473 27.8293 46.2856 26.678C46.2525 26.0444 46.1968 25.1835 46.1743 24.4581V19.4073C48.033 21.0071 47.44 23.9193 47.44 23.9193C50.3221 21.0537 48.8427 17.6509 48.8427 17.6509C50.9346 19.0355 50.1882 22.0651 50.1882 22.0651C53.7942 19.3651 49.7923 16.1685 49.7923 16.1685C52.834 17.0534 52.697 20.9544 52.697 20.9544C55.23 16.2482 49.9458 14.7522 49.9458 14.7522Z" stroke="#231F20" stroke-width="1.3271" stroke-miterlimit="10"/>
</g>
<mask id="mask89_252_925" style="mask-type:luminance" maskUnits="userSpaceOnUse" x="0" y="0" width="91" height="110">
<path d="M90.4157 0.0539551H0.582764V109.211H90.4157V0.0539551Z" fill="white"/>
</mask>
<g mask="url(#mask89_252_925)">
<path d="M57.5387 36.8746C56.7545 37.0146 55.9734 37.1846 55.2044 37.3953C54.3224 37.6331 53.454 37.9281 52.6082 38.2773C51.6661 38.6671 50.7525 39.1276 49.8766 39.6513C48.9029 40.2308 47.9728 40.8855 47.0803 41.5853C46.099 42.3528 45.1644 43.1731 44.2539 44.0189C43.7738 44.4614 43.3027 44.9114 42.8316 45.3629C42.4855 45.6985 42.1393 46.0416 41.7841 46.3637L41.5659 46.5533L41.5027 46.6075L41.5343 46.6843C41.6321 46.9251 41.8549 47.3043 42.3154 47.3871L42.3937 47.4022L42.4343 47.3314C42.4343 47.3314 42.4659 47.2712 42.5336 47.1764C42.5999 47.0816 42.6977 46.9537 42.8196 46.8273C43.0634 46.5744 43.405 46.3336 43.7918 46.3351C43.8701 46.3351 43.9514 46.3457 44.0356 46.3652C44.5293 46.4916 44.8288 46.9281 44.8288 47.3977C44.8288 47.8025 44.6091 48.236 44.0642 48.5249L44.0372 48.5355L43.9408 48.5671C43.8535 48.5911 43.7226 48.6137 43.5555 48.6137C43.0288 48.6137 42.1243 48.385 40.9955 47.1283L40.9293 47.0545L40.848 47.1102C40.7652 47.1674 40.684 47.2216 40.6042 47.2712C40.1196 47.5737 39.6275 47.8582 39.1308 48.1411C38.4641 48.5234 37.8907 48.6739 37.4271 48.6739C36.497 48.6694 36.0019 48.0839 36.0004 47.4714C36.0004 47.3615 36.0154 47.2532 36.0485 47.1448C36.2367 46.5323 36.646 46.4059 37.0208 46.3983C37.2796 46.3968 37.5144 46.4751 37.5776 46.5082C37.6634 46.5503 37.7703 46.6361 37.85 46.7114L37.9855 46.8483L38.0096 46.8754L38.0427 46.8844L38.2504 46.9356V46.9341L38.3331 46.9462C38.5348 46.9416 39.045 46.8258 40.1647 45.8294L40.2039 45.7948V45.7452V45.7286C40.2039 45.4878 40.1392 45.1853 39.8863 44.958L39.8261 44.9038L39.7554 44.943L39.6696 44.9866C39.6124 45.0122 39.5311 45.0483 39.4318 45.0844C39.2331 45.1567 38.9637 45.2274 38.6943 45.2274C38.4054 45.2259 38.1209 45.1492 37.8922 44.9099C37.6905 44.6992 37.5957 44.4388 37.5942 44.1784C37.5987 43.6171 38.0321 43.0587 38.8569 43.0542L38.9984 43.0587C39.5055 43.0978 39.8035 43.435 40.0308 43.8865C40.2535 44.3365 40.38 44.8783 40.538 45.2666L40.6027 45.4216L40.7216 45.3042L40.9037 45.1236L40.9052 45.1221C49.7607 35.3545 59.9286 36.5149 60.1679 36.5224C59.9347 36.545 59.6999 36.56 59.4666 36.5886C58.8224 36.6669 58.1783 36.7617 57.5387 36.8746Z" fill="#1C7A62"/>
</g>
<mask id="mask90_252_925" style="mask-type:luminance" maskUnits="userSpaceOnUse" x="0" y="0" width="91" height="110">
<path d="M90.4157 0.0539551H0.582764V109.211H90.4157V0.0539551Z" fill="white"/>
</mask>
<g mask="url(#mask90_252_925)">
<path d="M57.5387 36.8746C56.7545 37.0146 55.9734 37.1846 55.2044 37.3953C54.3224 37.6331 53.454 37.9281 52.6082 38.2773C51.6661 38.6671 50.7525 39.1276 49.8766 39.6513C48.9029 40.2308 47.9728 40.8855 47.0803 41.5853C46.099 42.3528 45.1644 43.1731 44.2539 44.0189C43.7738 44.4614 43.3027 44.9114 42.8316 45.3629C42.4855 45.6985 42.1393 46.0416 41.7841 46.3637L41.5659 46.5533L41.5027 46.6075L41.5343 46.6843C41.6321 46.9251 41.8549 47.3043 42.3154 47.3871L42.3937 47.4022L42.4343 47.3314C42.4343 47.3314 42.4659 47.2712 42.5336 47.1764C42.5999 47.0816 42.6977 46.9537 42.8196 46.8273C43.0634 46.5744 43.405 46.3336 43.7918 46.3351C43.8701 46.3351 43.9514 46.3457 44.0356 46.3652C44.5293 46.4916 44.8288 46.9281 44.8288 47.3977C44.8288 47.8025 44.6091 48.236 44.0642 48.5249L44.0372 48.5355L43.9408 48.5671C43.8535 48.5911 43.7226 48.6137 43.5555 48.6137C43.0288 48.6137 42.1243 48.385 40.9955 47.1283L40.9293 47.0545L40.848 47.1102C40.7652 47.1674 40.684 47.2216 40.6042 47.2712C40.1196 47.5737 39.6275 47.8582 39.1308 48.1411C38.4641 48.5234 37.8907 48.6739 37.4271 48.6739C36.497 48.6694 36.0019 48.0839 36.0004 47.4714C36.0004 47.3615 36.0154 47.2532 36.0485 47.1448C36.2367 46.5323 36.646 46.4059 37.0208 46.3983C37.2796 46.3968 37.5144 46.4751 37.5776 46.5082C37.6634 46.5503 37.7703 46.6361 37.85 46.7114L37.9855 46.8483L38.0096 46.8754L38.0427 46.8844L38.2504 46.9356V46.9341L38.3331 46.9462C38.5348 46.9416 39.045 46.8258 40.1647 45.8294L40.2039 45.7948V45.7452V45.7286C40.2039 45.4878 40.1392 45.1853 39.8863 44.958L39.8261 44.9038L39.7554 44.943L39.6696 44.9866C39.6124 45.0122 39.5311 45.0483 39.4318 45.0844C39.2331 45.1567 38.9637 45.2274 38.6943 45.2274C38.4054 45.2259 38.1209 45.1492 37.8922 44.9099C37.6905 44.6992 37.5957 44.4388 37.5942 44.1784C37.5987 43.6171 38.0321 43.0587 38.8569 43.0542L38.9984 43.0587C39.5055 43.0978 39.8035 43.435 40.0308 43.8865C40.2535 44.3365 40.38 44.8783 40.538 45.2666L40.6027 45.4216L40.7216 45.3042L40.9037 45.1236L40.9052 45.1221C49.7607 35.3545 59.9286 36.5149 60.1679 36.5224C59.9347 36.545 59.6999 36.56 59.4666 36.5886C58.8224 36.6669 58.1783 36.7617 57.5387 36.8746Z" stroke="#020303" stroke-width="1.3271" stroke-miterlimit="10" stroke-linejoin="round"/>
</g>
<mask id="mask91_252_925" style="mask-type:luminance" maskUnits="userSpaceOnUse" x="0" y="0" width="91" height="110">
<path d="M90.4157 0.0539551H0.582764V109.211H90.4157V0.0539551Z" fill="white"/>
</mask>
<g mask="url(#mask91_252_925)">
<path d="M33.4598 36.8746C34.2439 37.0146 35.0251 37.1846 35.7941 37.3953C36.6761 37.6331 37.5444 37.9281 38.3903 38.2773C39.3324 38.6671 40.246 39.1276 41.1219 39.6513C42.0956 40.2308 43.0257 40.8855 43.9182 41.5853C44.898 42.3528 45.8341 43.1731 46.7446 44.0189C47.2247 44.4614 47.6973 44.9114 48.1669 45.3629C48.513 45.6985 48.8592 46.0416 49.2143 46.3637L49.4326 46.5533L49.4958 46.6075L49.4642 46.6843C49.3679 46.9251 49.1436 47.3043 48.6831 47.3871L48.6048 47.4022L48.5642 47.3314C48.5642 47.3314 48.5326 47.2712 48.4649 47.1764C48.4001 47.0816 48.3023 46.9537 48.1804 46.8273C47.9366 46.5744 47.5949 46.3336 47.2082 46.3351C47.1299 46.3351 47.0486 46.3457 46.9643 46.3652C46.4707 46.4916 46.1712 46.9281 46.1712 47.3977C46.1712 47.8025 46.3909 48.236 46.9358 48.5249L46.9613 48.5355L47.0577 48.5671C47.145 48.5911 47.2759 48.6137 47.4429 48.6137C47.9697 48.6137 48.8742 48.385 50.003 47.1283L50.0692 47.0545L50.1505 47.1102C50.2332 47.1674 50.3145 47.2216 50.3943 47.2712C50.8789 47.5737 51.371 47.8582 51.8677 48.1411C52.5344 48.5234 53.1078 48.6739 53.5714 48.6739C54.5015 48.6694 54.9966 48.0839 54.9981 47.4714C54.9981 47.3615 54.9831 47.2532 54.95 47.1448C54.7618 46.5323 54.3525 46.4059 53.9777 46.3983C53.7189 46.3968 53.4841 46.4751 53.4209 46.5082C53.3351 46.5503 53.2282 46.6361 53.15 46.7114L53.0145 46.8483L52.9904 46.8754L52.9573 46.8844L52.7496 46.9356V46.9341L52.6669 46.9462C52.4652 46.9416 51.9535 46.8258 50.8353 45.8294L50.7961 45.7948V45.7452V45.7286C50.7961 45.4878 50.8608 45.1853 51.1137 44.958L51.1739 44.9038L51.2446 44.943L51.3304 44.9866C51.3876 45.0122 51.4689 45.0483 51.5682 45.0844C51.7684 45.1567 52.0362 45.2274 52.3056 45.2274C52.5946 45.2259 52.8791 45.1492 53.1078 44.9099C53.3095 44.6992 53.4043 44.4388 53.4043 44.1784C53.4013 43.6171 52.9679 43.0587 52.1431 43.0542L52.0016 43.0587C51.4944 43.0978 51.1965 43.435 50.9707 43.8865C50.7465 44.3365 50.62 44.8783 50.4635 45.2666L50.3988 45.4216L50.2799 45.3042L50.0993 45.1236L50.0978 45.1221C41.2423 35.3545 31.0744 36.5149 30.8351 36.5224C31.0684 36.545 31.3046 36.56 31.5364 36.5886C32.1761 36.6669 32.8202 36.7617 33.4598 36.8746Z" fill="#1C7A62"/>
</g>
<mask id="mask92_252_925" style="mask-type:luminance" maskUnits="userSpaceOnUse" x="0" y="0" width="91" height="110">
<path d="M90.4157 0.0539551H0.582764V109.211H90.4157V0.0539551Z" fill="white"/>
</mask>
<g mask="url(#mask92_252_925)">
<path d="M33.4598 36.8746C34.2439 37.0146 35.0251 37.1846 35.7941 37.3953C36.6761 37.6331 37.5444 37.9281 38.3903 38.2773C39.3324 38.6671 40.246 39.1276 41.1219 39.6513C42.0956 40.2308 43.0257 40.8855 43.9182 41.5853C44.898 42.3528 45.8341 43.1731 46.7446 44.0189C47.2247 44.4614 47.6973 44.9114 48.1669 45.3629C48.513 45.6985 48.8592 46.0416 49.2143 46.3637L49.4326 46.5533L49.4958 46.6075L49.4642 46.6843C49.3679 46.9251 49.1436 47.3043 48.6831 47.3871L48.6048 47.4022L48.5642 47.3314C48.5642 47.3314 48.5326 47.2712 48.4649 47.1764C48.4001 47.0816 48.3023 46.9537 48.1804 46.8273C47.9366 46.5744 47.595 46.3336 47.2082 46.3351C47.1299 46.3351 47.0486 46.3457 46.9643 46.3652C46.4707 46.4916 46.1712 46.9281 46.1712 47.3977C46.1712 47.8025 46.3909 48.236 46.9358 48.5249L46.9613 48.5355L47.0577 48.5671C47.145 48.5911 47.2759 48.6137 47.4429 48.6137C47.9697 48.6137 48.8742 48.385 50.003 47.1283L50.0692 47.0545L50.1505 47.1102C50.2332 47.1674 50.3145 47.2216 50.3943 47.2712C50.8789 47.5737 51.371 47.8582 51.8677 48.1411C52.5344 48.5234 53.1078 48.6739 53.5714 48.6739C54.5015 48.6694 54.9966 48.0839 54.9981 47.4714C54.9981 47.3615 54.9831 47.2532 54.95 47.1448C54.7618 46.5323 54.3525 46.4059 53.9777 46.3983C53.7189 46.3968 53.4841 46.4751 53.4209 46.5082C53.3351 46.5503 53.2282 46.6361 53.15 46.7114L53.0145 46.8483L52.9904 46.8754L52.9573 46.8844L52.7496 46.9356V46.9341L52.6669 46.9462C52.4652 46.9416 51.9535 46.8258 50.8353 45.8294L50.7961 45.7948V45.7452V45.7286C50.7961 45.4878 50.8608 45.1853 51.1137 44.958L51.1739 44.9038L51.2446 44.943L51.3304 44.9866C51.3876 45.0122 51.4689 45.0483 51.5682 45.0844C51.7684 45.1567 52.0362 45.2274 52.3056 45.2274C52.5946 45.2259 52.8791 45.1492 53.1078 44.9099C53.3095 44.6992 53.4043 44.4388 53.4043 44.1784C53.4013 43.6171 52.9679 43.0587 52.1431 43.0542L52.0016 43.0587C51.4944 43.0978 51.1965 43.435 50.9707 43.8865C50.7465 44.3365 50.62 44.8783 50.4635 45.2666L50.3988 45.4216L50.2799 45.3042L50.0993 45.1236L50.0978 45.1221C41.2423 35.3545 31.0744 36.5149 30.8351 36.5224C31.0684 36.545 31.3046 36.56 31.5364 36.5886C32.1761 36.6669 32.8202 36.7617 33.4598 36.8746Z" stroke="#020303" stroke-width="1.3271" stroke-miterlimit="10" stroke-linejoin="round"/>
</g>
<mask id="mask93_252_925" style="mask-type:luminance" maskUnits="userSpaceOnUse" x="0" y="0" width="91" height="110">
<path d="M90.4157 0.0539551H0.582764V109.211H90.4157V0.0539551Z" fill="white"/>
</mask>
<g mask="url(#mask93_252_925)">
<path d="M70.6985 62.8948C70.387 63.5028 69.5246 65.0078 68.0015 66.4376C66.2572 68.072 63.6611 69.6056 60.0099 69.6071C56.1149 69.6071 53.5519 67.8643 51.9445 66.1155C51.1393 65.2411 50.5779 64.3667 50.2197 63.7105C50.0407 63.3824 49.9097 63.1085 49.8269 62.9204L49.8164 62.8948H70.6985Z" fill="#04814F"/>
</g>
<mask id="mask94_252_925" style="mask-type:luminance" maskUnits="userSpaceOnUse" x="0" y="0" width="91" height="110">
<path d="M90.4157 0.0539551H0.582764V109.211H90.4157V0.0539551Z" fill="white"/>
</mask>
<g mask="url(#mask94_252_925)">
<path d="M70.6985 62.8948C70.387 63.5028 69.5246 65.0078 68.0015 66.4376C66.2572 68.072 63.6611 69.6056 60.0099 69.6071C56.1149 69.6071 53.5519 67.8643 51.9445 66.1155C51.1393 65.2411 50.5779 64.3667 50.2197 63.7105C50.0407 63.3824 49.9097 63.1085 49.8269 62.9204L49.8164 62.8948H70.6985Z" stroke="#020303" stroke-width="1.3271" stroke-miterlimit="10" stroke-linejoin="round"/>
</g>
<mask id="mask95_252_925" style="mask-type:luminance" maskUnits="userSpaceOnUse" x="0" y="0" width="91" height="110">
<path d="M90.4157 0.0539551H0.582764V109.211H90.4157V0.0539551Z" fill="white"/>
</mask>
<g mask="url(#mask95_252_925)">
<path d="M60.2552 36.5449L49.7938 62.6043H70.7181L60.2552 36.5449Z" stroke="#020303" stroke-width="1.3271" stroke-miterlimit="10" stroke-linejoin="round"/>
</g>
<mask id="mask96_252_925" style="mask-type:luminance" maskUnits="userSpaceOnUse" x="0" y="0" width="91" height="110">
<path d="M90.4157 0.0539551H0.582764V109.211H90.4157V0.0539551Z" fill="white"/>
</mask>
<g mask="url(#mask96_252_925)">
<path d="M41.2724 62.8948C40.9609 63.5028 40.0985 65.0078 38.5754 66.4376C36.8311 68.072 34.2349 69.6056 30.5838 69.6071C26.6888 69.6071 24.1257 67.8643 22.5184 66.1155C21.7147 65.2411 21.1533 64.3667 20.7936 63.7105C20.613 63.3824 20.4836 63.1085 20.3993 62.9204L20.3888 62.8948H41.2724Z" fill="#04814F"/>
</g>
<mask id="mask97_252_925" style="mask-type:luminance" maskUnits="userSpaceOnUse" x="0" y="0" width="91" height="110">
<path d="M90.4157 0.0539551H0.582764V109.211H90.4157V0.0539551Z" fill="white"/>
</mask>
<g mask="url(#mask97_252_925)">
<path d="M41.2724 62.8948C40.9609 63.5028 40.0985 65.0078 38.5754 66.4376C36.8311 68.072 34.2349 69.6056 30.5838 69.6071C26.6888 69.6071 24.1257 67.8643 22.5184 66.1155C21.7147 65.2411 21.1533 64.3667 20.7936 63.7105C20.613 63.3824 20.4836 63.1085 20.3993 62.9204L20.3888 62.8948H41.2724Z" stroke="#020303" stroke-width="1.3271" stroke-miterlimit="10" stroke-linejoin="round"/>
</g>
<mask id="mask98_252_925" style="mask-type:luminance" maskUnits="userSpaceOnUse" x="0" y="0" width="91" height="110">
<path d="M90.4157 0.0539551H0.582764V109.211H90.4157V0.0539551Z" fill="white"/>
</mask>
<g mask="url(#mask98_252_925)">
<path d="M30.8306 36.5449L20.3693 62.6043H41.2935L30.8306 36.5449Z" stroke="#020303" stroke-width="1.3271" stroke-miterlimit="10" stroke-linejoin="round"/>
</g>
</g>
<defs>
<linearGradient id="paint0_linear_252_925" x1="9.31685" y1="59.3939" x2="81.682" y2="59.3939" gradientUnits="userSpaceOnUse">
<stop stop-color="#FDCA5E"/>
<stop offset="0.1157" stop-color="#FBC558"/>
<stop offset="0.2678" stop-color="#F4B845"/>
<stop offset="0.4394" stop-color="#E9A328"/>
<stop offset="0.5" stop-color="#E59A1B"/>
<stop offset="0.5606" stop-color="#E9A328"/>
<stop offset="0.7322" stop-color="#F4B845"/>
<stop offset="0.8843" stop-color="#FBC558"/>
<stop offset="1" stop-color="#FDCA5E"/>
</linearGradient>
<clipPath id="clip0_252_925">
<rect width="90" height="109.264" fill="white" transform="translate(0.5)"/>
</clipPath>
</defs>
</svg>
