<svg width="138" height="73" viewBox="0 0 138 73" fill="none" xmlns="http://www.w3.org/2000/svg">
<path d="M72.3767 3.45345C72.3767 1.28268 72.7386 0.920909 74.6681 0.920909C76.5977 0.920909 76.9595 1.16208 76.9595 3.45345V26.0054C76.9595 27.0908 77.5625 28.1762 78.7685 28.1762H94.9287C96.3759 28.1762 96.6171 26.9702 96.6171 26.0054V18.0459C96.6171 15.7545 96.9789 15.5133 98.9084 15.5133C100.838 15.5133 101.2 15.7545 101.2 18.0459V26.0054C101.2 27.0908 101.803 28.1762 103.009 28.1762H113.863C115.31 28.1762 115.069 26.9702 115.069 26.0054V18.0459C115.069 15.7545 116.033 15.5133 117.963 15.5133C119.893 15.5133 120.857 15.7545 120.857 18.0459V26.0054C120.857 27.0908 120.857 28.1762 122.305 28.1762H130.505C131.952 28.1762 132.435 26.9702 132.435 26.0054V18.0459C132.435 15.7545 132.797 15.5133 134.726 15.5133C136.656 15.5133 137.018 15.7545 137.018 18.0459V26.0054C137.018 30.8294 135.812 31.7941 131.229 31.7941H78.0449C73.4621 31.7941 72.3767 30.7088 72.3767 26.0054V3.45345ZM38.2474 1.76504C39.4533 3.33282 39.4533 3.81528 37.6444 5.14186L25.3433 15.0309C24.9815 15.2721 24.8609 16.1163 25.7051 16.1163H43.1919C47.4128 16.1163 48.0158 16.5987 48.0158 20.699V25.8848C48.0158 26.9702 48.4982 28.0556 49.7042 28.0556H60.5581C61.8847 28.0556 61.7641 26.8496 61.7641 25.8848V17.9253C61.7641 15.6339 62.7289 15.3927 64.6585 15.3927C66.5881 15.3927 67.5528 15.6339 67.5528 17.9253V25.8848C67.5528 30.7087 66.1056 31.6736 61.4023 31.6736H0.5C0.861796 29.2616 3.51492 28.0556 7.01228 28.0556H41.6241C42.7095 28.0556 43.3125 27.332 43.3125 26.2466V21.0608C43.3125 20.096 42.8301 19.6137 41.6241 19.6137H22.449C19.1928 19.6137 18.228 17.8047 18.228 16.2369C18.228 14.7897 19.3134 13.5837 20.5193 12.6189L34.8706 1.28269C36.6796 0.0767043 37.0414 0.0766602 38.2474 1.76504ZM57.1813 40.9596L55.9754 42.2862C54.5282 43.7334 53.3222 43.854 52.1162 42.7686C50.9102 41.5626 51.0308 40.236 52.478 38.7888L53.8046 37.4623C55.2518 36.0151 56.4577 35.8945 57.6637 36.9799C58.7491 38.1858 58.6285 39.5124 57.1813 40.9596Z" fill="#0047AF"/>
<path d="M58.0256 72.7977C61.0405 72.7977 62.0053 71.8329 62.0053 68.8179V67.0089C62.0053 63.8734 61.1611 63.1498 58.0256 63.1498H48.1365C48.0159 63.1498 47.8952 63.1498 47.8952 63.0292C47.8952 62.6674 52.1162 59.8936 60.1963 59.6524C61.5229 59.6524 61.6435 59.0494 61.6435 57.8434C61.6435 56.758 61.2817 56.1551 59.8345 56.1551C49.2219 56.1551 43.0713 61.7026 43.0713 64.597C43.0713 65.9236 43.7949 66.7677 46.5687 66.7677H57.0607C57.9049 66.7677 57.4226 66.7677 57.4226 67.3707V68.4561C57.4226 69.0591 57.7843 69.1797 57.0607 69.1797H42.9507C40.4182 69.1797 38.4886 70.3857 38.1268 72.7977H58.0256ZM110.968 51.8135L110.124 52.6577C108.918 53.8637 108.074 53.9843 107.109 53.0195C106.144 52.0547 106.265 50.9693 107.471 49.8839L108.315 48.9192C109.521 47.8338 110.365 47.5926 111.33 48.5574C112.174 49.6428 112.054 50.7281 110.968 51.8135ZM66.1056 72.7977C64.6584 72.7977 63.5731 72.3153 63.5731 70.2651C63.5731 61.8232 72.2561 56.1551 75.7535 56.1551C76.9595 56.1551 77.2007 56.9992 77.2007 58.0846V63.391C77.2007 64.8382 77.2007 65.3205 75.5124 65.3205C73.9446 65.3205 73.8239 64.8382 73.8239 63.391V60.6172C73.8239 60.4966 73.9445 60.4966 73.9445 60.4966C72.4973 60.4966 67.5528 64.9588 67.5528 68.5767C67.5528 68.9385 67.6734 69.1797 68.6382 69.1797H78.7685C79.6126 69.1797 79.6127 68.9385 79.6127 68.2149V53.7431C79.6127 52.0547 80.4569 51.6929 81.9041 51.6929C83.3512 51.6929 84.1954 51.9341 84.1954 53.7431V68.2149C84.1954 71.7123 82.7482 72.7977 79.3714 72.7977H66.1056ZM90.4665 72.7977C87.0898 72.7977 86.2456 71.7123 86.2456 68.2149V44.6982C86.2456 43.0098 86.4868 42.7686 87.934 42.7686C89.3812 42.7686 89.6223 43.0098 89.6223 44.6982V68.2149C89.6223 68.9385 90.1048 69.1797 90.949 69.1797H100.959C101.923 69.1797 101.923 68.9385 101.923 68.5767C101.923 66.8883 99.632 61.9438 92.5167 59.773C91.1901 59.4112 91.0696 58.6876 91.552 57.4816C92.0344 56.155 92.8785 56.1551 93.8433 56.3963C102.165 58.9289 105.783 64.7176 105.783 70.2651C105.783 72.3153 104.577 72.7977 103.25 72.7977H90.4665ZM108.195 70.3857V60.1348C108.195 59.8936 108.436 59.5318 108.074 59.5318H107.35C105.903 59.5318 105.421 59.0494 105.421 57.7228C105.421 56.3963 105.903 55.9139 107.35 55.9139H110.486C111.571 55.9139 111.813 56.7581 111.813 57.964V70.7475C111.813 72.4359 111.451 72.7977 110.124 72.7977C108.677 72.7977 108.315 72.5565 108.315 70.7475V70.3857H108.195ZM114.466 70.2651C114.466 64.1146 119.531 56.1551 129.902 56.1551C131.108 56.1551 131.349 56.9992 131.349 58.0846V63.391C131.349 64.8382 131.229 65.3205 129.661 65.3205C128.093 65.3205 127.973 64.8382 127.973 63.391V60.6172C127.973 60.1348 127.973 60.0142 127.732 60.0142C122.184 60.0142 118.204 65.9235 118.204 68.5767C118.204 68.9385 118.325 69.1797 119.29 69.1797H132.676C135.209 69.1797 137.138 70.3857 137.5 72.7977H117.239C115.672 72.7977 114.466 72.3153 114.466 70.2651Z" fill="#FF9700"/>
</svg>
