<svg width="205" height="49" viewBox="0 0 205 49" fill="none" xmlns="http://www.w3.org/2000/svg">
<path d="M31.4809 32.3722H32.5221V26.4013H31.4809V32.3722ZM71.1526 26.4013H72.6613V27.4425H72.1938V32.3722H65.3517C64.9479 32.7972 64.353 33.0735 63.7155 33.0735C63.0993 33.0735 62.5043 32.7972 62.1006 32.3722H37.7493C36.6019 32.3722 35.6669 31.4373 35.6669 30.2898C35.6669 29.1424 36.6019 28.2287 37.7493 28.2287H38.3443V27.8675H39.3855V31.3523H45.8664V28.2287H46.9076V31.3523H54.0048V30.1199C54.0048 29.8224 53.771 29.5886 53.4735 29.5886H50.095L49.7337 28.5687L50.9237 26.4013H52.0286L50.8812 28.5687H53.5798C54.366 28.5687 55.0035 29.2061 55.0035 29.9924V31.3523H57.6808V26.4013H58.722V31.3523H61.5269C61.4844 31.2036 61.4844 31.0548 61.4844 30.8848C61.4844 29.6311 62.4831 28.6324 63.6943 28.6324C64.9479 28.6324 65.9466 29.6099 65.9466 30.8848C65.9466 31.0548 65.9254 31.2036 65.9041 31.3523H68.6028V26.4013H69.644V31.3523H71.1526V26.4013ZM38.3443 29.2699H37.7493C37.1756 29.2699 36.7081 29.7374 36.7081 30.3111C36.7081 30.8848 37.1756 31.3523 37.7493 31.3523H38.3443V29.2699ZM64.9054 30.8636C64.9054 30.1624 64.3955 29.6524 63.6943 29.6524C63.0143 29.6524 62.5256 30.1836 62.5256 30.8636C62.5256 31.5223 63.0355 32.0535 63.6943 32.0535C64.3742 32.0535 64.9054 31.5435 64.9054 30.8636ZM75.5724 30.2898C75.5724 29.1424 76.5074 28.2287 77.6335 28.2287H78.2285V27.8675H79.2697V31.3523H85.2619V28.2287H86.3031V32.3722H77.6548C76.4861 32.3722 75.5724 31.4373 75.5724 30.2898ZM76.5923 30.2898C76.5923 30.8636 77.0598 31.331 77.6335 31.331H78.2285V29.2486H77.6335C77.0598 29.2699 76.5923 29.7374 76.5923 30.2898ZM116.88 32.3722H117.921V26.4013H116.88V32.3722ZM132.201 27.1025V26.9113C132.201 26.6775 132.307 26.55 132.604 26.55H132.987V26.2101H132.562C131.988 26.2101 131.627 26.465 131.627 27.1238V27.655H133.242V27.1025H132.201ZM121.088 30.2898C121.088 29.1424 122.023 28.2287 123.17 28.2287H123.765V27.8675H124.806V31.3523H131.967V28.2287H133.008V31.3523H136.493V28.2287H137.534V31.3523H140.87C140.785 31.1611 140.722 30.9273 140.722 30.6936C140.722 29.8224 141.423 29.1212 142.294 29.1212C143.165 29.1212 143.866 29.8224 143.866 30.6936C143.866 30.9273 143.803 31.1398 143.718 31.3523H144.419C144.483 31.1398 144.525 30.9273 144.525 30.6936C144.525 29.4611 143.526 28.4624 142.294 28.4624C141.848 28.4624 141.444 28.5899 141.083 28.8237L140.509 27.91C141.019 27.57 141.635 27.3787 142.294 27.3787C144.121 27.3787 145.588 28.8662 145.588 30.6723C145.588 30.9061 145.566 31.1186 145.524 31.331H148.562V26.38H150.071V27.4212H149.604V32.3722H123.17C122.023 32.3722 121.088 31.4373 121.088 30.2898ZM141.657 30.6936C141.657 31.0548 141.954 31.3523 142.315 31.3523C142.676 31.3523 142.974 31.0548 142.974 30.6936C142.974 30.3323 142.676 30.0349 142.315 30.0349C141.954 30.0349 141.657 30.3323 141.657 30.6936ZM122.129 30.2898C122.129 30.8636 122.596 31.331 123.17 31.331H123.765V29.2486H123.17C122.575 29.2699 122.129 29.7374 122.129 30.2898ZM150.857 26.4013V32.3722H151.898V26.4013H150.857ZM7.74588 33.3922C7.74588 33.6897 8.00086 33.9447 8.29835 33.9447C8.59583 33.9447 8.85082 33.6897 8.85082 33.3922C8.85082 33.0947 8.59583 32.8397 8.29835 32.8397C7.97962 32.8397 7.74588 33.0947 7.74588 33.3922ZM9.50954 32.8397C9.21205 32.8397 8.95707 33.0947 8.95707 33.3922C8.95707 33.6897 9.21205 33.9447 9.50954 33.9447C9.80702 33.9447 10.062 33.6897 10.062 33.3922C10.062 33.0947 9.80702 32.8397 9.50954 32.8397ZM25.2125 27.3575C25.51 27.3575 25.765 27.1025 25.765 26.805C25.765 26.5075 25.51 26.2526 25.2125 26.2526C24.915 26.2526 24.66 26.5075 24.66 26.805C24.66 27.1238 24.8937 27.3575 25.2125 27.3575ZM45.6752 32.8397C45.3777 32.8397 45.1227 33.0947 45.1227 33.3922C45.1227 33.6897 45.3777 33.9447 45.6752 33.9447C45.9727 33.9447 46.2277 33.6897 46.2277 33.3922C46.2277 33.0947 45.9727 32.8397 45.6752 32.8397ZM47.4388 33.3922C47.4388 33.0947 47.1839 32.8397 46.8864 32.8397C46.5889 32.8397 46.3339 33.0947 46.3339 33.3922C46.3339 33.6897 46.5889 33.9447 46.8864 33.9447C47.1839 33.9447 47.4388 33.6897 47.4388 33.3922ZM122.979 27.3575C123.276 27.3575 123.531 27.1025 123.531 26.805C123.531 26.5075 123.276 26.2526 122.979 26.2526C122.681 26.2526 122.426 26.5075 122.426 26.805C122.447 27.1238 122.681 27.3575 122.979 27.3575ZM124.19 27.3575C124.487 27.3575 124.742 27.1025 124.742 26.805C124.742 26.5075 124.487 26.2526 124.19 26.2526C123.892 26.2526 123.637 26.5075 123.637 26.805C123.637 27.1238 123.892 27.3575 124.19 27.3575ZM84.4969 32.8397C84.1995 32.8397 83.9445 33.0947 83.9445 33.3922C83.9445 33.6897 84.1995 33.9447 84.4969 33.9447C84.7944 33.9447 85.0494 33.6897 85.0494 33.3922C85.0494 33.0947 84.8157 32.8397 84.4969 32.8397ZM86.2606 33.3922C86.2606 33.0947 86.0056 32.8397 85.7081 32.8397C85.4106 32.8397 85.1557 33.0947 85.1557 33.3922C85.1557 33.6897 85.4106 33.9447 85.7081 33.9447C86.0056 33.9447 86.2606 33.6897 86.2606 33.3922ZM136.344 32.8397C136.047 32.8397 135.792 33.0947 135.792 33.3922C135.792 33.6897 136.047 33.9447 136.344 33.9447C136.642 33.9447 136.897 33.6897 136.897 33.3922C136.897 33.0947 136.642 32.8397 136.344 32.8397ZM137.003 33.3922C137.003 33.6897 137.258 33.9447 137.555 33.9447C137.853 33.9447 138.108 33.6897 138.108 33.3922C138.108 33.0947 137.853 32.8397 137.555 32.8397C137.237 32.8397 137.003 33.0947 137.003 33.3922ZM77.4636 27.3575C77.761 27.3575 78.016 27.1025 78.016 26.805C78.016 26.5075 77.761 26.2526 77.4636 26.2526C77.1661 26.2526 76.9111 26.5075 76.9111 26.805C76.9111 27.1238 77.1661 27.3575 77.4636 27.3575ZM78.6747 27.3575C78.9722 27.3575 79.2272 27.1025 79.2272 26.805C79.2272 26.5075 78.9722 26.2526 78.6747 26.2526C78.3773 26.2526 78.1223 26.5075 78.1223 26.805C78.1223 27.1238 78.356 27.3575 78.6747 27.3575ZM90.7866 29.6524C90.7866 28.8662 90.1492 28.2287 89.3629 28.2287H88.4067L88.1518 29.2486H89.2142C89.5117 29.2486 89.7454 29.4824 89.7454 29.7799V31.3523H87.1106V32.3935H90.7866V29.6524ZM37.5793 27.3575C37.8768 27.3575 38.1318 27.1025 38.1318 26.805C38.1318 26.5075 37.8768 26.2526 37.5793 26.2526C37.2819 26.2526 37.0269 26.5075 37.0269 26.805C37.0269 27.1238 37.2819 27.3575 37.5793 27.3575ZM38.7905 27.3575C39.088 27.3575 39.343 27.1025 39.343 26.805C39.343 26.5075 39.088 26.2526 38.7905 26.2526C38.4931 26.2526 38.2381 26.5075 38.2381 26.805C38.2381 27.1238 38.4718 27.3575 38.7905 27.3575ZM2.4124 27.3575C2.70989 27.3575 2.96487 27.1025 2.96487 26.805C2.96487 26.5075 2.70989 26.2526 2.4124 26.2526C2.11492 26.2526 1.85993 26.5075 1.85993 26.805C1.85993 27.1238 2.11492 27.3575 2.4124 27.3575ZM3.62359 27.3575C3.92107 27.3575 4.17606 27.1025 4.17606 26.805C4.17606 26.5075 3.92107 26.2526 3.62359 26.2526C3.3261 26.2526 3.07112 26.5075 3.07112 26.805C3.07112 27.1238 3.30486 27.3575 3.62359 27.3575ZM0.5 30.2898C0.5 29.1424 1.43495 28.2287 2.56114 28.2287H3.15611V27.8675H4.21856V31.3523H8.89332V28.2287H9.93452V32.3722H2.58239C1.43495 32.3722 0.5 31.4373 0.5 30.2898ZM1.5412 30.2898C1.5412 30.8636 2.00867 31.331 2.58239 31.331H3.17736V29.2486H2.58239C2.00867 29.2699 1.5412 29.7374 1.5412 30.2898ZM11.3157 33.9872C11.1245 33.9872 10.912 33.9659 10.7845 33.9234V32.9035C10.9332 32.946 11.0607 32.946 11.1882 32.946C11.5919 32.946 11.7407 32.7335 11.7407 32.2235V28.2075H12.7819V31.331H19.3265V30.0986C19.3265 29.8011 19.0928 29.5674 18.7953 29.5674H15.4167L15.0555 28.5474L16.2454 26.38H17.3504L16.2029 28.5474H18.9016C19.6878 28.5474 20.3252 29.1849 20.3252 29.9711V31.331H23.2151C23.0238 31.0336 22.9389 30.6723 22.9389 30.2898C22.9389 29.1424 23.8738 28.2075 25 28.2075H26.6149V31.331H29.186V26.38H30.6947V27.4212H30.206V32.3722H12.7394C12.7181 33.4984 12.2931 33.9872 11.3157 33.9872ZM23.98 30.2898C23.98 30.8636 24.4475 31.331 25.0212 31.331H25.6162V29.2486H25.0212C24.4475 29.2699 23.98 29.7374 23.98 30.2898ZM94.1439 32.3722H93.5702C92.4228 32.3722 91.4878 31.4373 91.4878 30.2898C91.4878 29.1424 92.4228 28.2287 93.5702 28.2287H95.1851V31.3523H98.2875L97.3738 29.0149C98.075 28.3987 98.7762 27.9737 99.6474 27.9737C100.497 27.9737 101.241 28.3987 101.921 29.0362L101.029 31.3735H103.663C104.237 31.3735 104.705 30.9061 104.705 30.3323V27.6762H105.746V30.3323C105.746 30.9061 106.213 31.3735 106.787 31.3735C107.361 31.3735 107.828 30.9061 107.828 30.3323V28.5474H108.869V30.3323C108.869 30.9061 109.337 31.3735 109.911 31.3735C110.484 31.3735 110.952 30.9061 110.952 30.3323V27.6762H111.993V30.3323C111.993 30.9061 112.46 31.3735 113.034 31.3735H114.628V26.4225H116.137V27.4637H115.669V32.3722H113.034C112.418 32.3722 111.866 32.096 111.483 31.671C111.101 32.096 110.548 32.3722 109.932 32.3722C109.316 32.3722 108.763 32.096 108.381 31.671C107.998 32.096 107.446 32.3722 106.83 32.3722C106.213 32.3722 105.661 32.096 105.278 31.671C104.896 32.096 104.343 32.3722 103.727 32.3722H95.2276C95.1639 33.3497 94.6752 33.9872 93.3577 33.9872C92.954 33.9872 92.7415 33.9447 92.274 33.8172V32.7972C92.6353 32.9035 92.954 32.9672 93.2727 32.9672C93.7827 32.9672 94.0802 32.8822 94.1439 32.3722ZM98.5212 29.4399L99.2012 31.331H100.094L100.774 29.4186C100.37 29.1424 100.072 29.0362 99.6474 29.0362C99.2224 29.0362 98.9037 29.1637 98.5212 29.4399ZM94.1652 31.3523V29.2699H93.5702C92.9965 29.2699 92.529 29.7374 92.529 30.3111C92.529 30.8848 92.9965 31.3523 93.5702 31.3523H94.1652Z" fill="#4D4D4F"/>
<path d="M9.16956 39.1506V41.488C8.65958 41.6793 8.02211 41.8068 7.42714 41.8068C6.42845 41.8068 5.53599 41.4455 5.53599 40.4681C5.53599 39.5756 6.30095 39.1081 7.4059 39.1081C7.61838 39.1081 7.89462 39.1294 8.1921 39.1719V39.1081C8.1921 38.6619 7.80963 38.5344 7.25715 38.5344C6.85342 38.5344 6.2372 38.7044 5.85472 38.8957L5.98222 37.8757C6.30095 37.7057 6.85342 37.5782 7.4059 37.5782C8.40459 37.557 9.16956 37.982 9.16956 39.1506ZM8.17086 39.9793C7.97962 39.9368 7.72463 39.8944 7.49089 39.8944C6.98092 39.8944 6.55594 40.0218 6.55594 40.4043C6.55594 40.7656 6.93842 40.9143 7.42714 40.9143C7.68213 40.9143 7.95837 40.8718 8.17086 40.8081V39.9793ZM12.5906 40.7231C12.2931 40.8081 12.0594 40.8293 11.8469 40.8293C11.2944 40.8293 11.0607 40.6168 11.0607 39.8731V37.6845H10.062V40.1281C10.062 41.3818 10.8482 41.7855 11.8894 41.7855C12.5906 41.7855 13.0369 41.6793 13.6106 41.488V37.6845H12.6119L12.5906 40.7231ZM17.2866 35.9208H18.2853V41.573C17.7966 41.7005 17.2441 41.7855 16.6704 41.7855C15.183 41.7855 14.333 40.8718 14.333 39.6819C14.333 38.4919 15.2255 37.557 16.6067 37.557C16.7767 37.557 17.0317 37.5782 17.3079 37.6207V35.9208H17.2866ZM17.2866 38.6194C17.0529 38.5557 16.8404 38.5344 16.6704 38.5344C15.8842 38.5344 15.3742 38.9169 15.3742 39.6819C15.3742 40.4468 15.8842 40.8081 16.6704 40.8081C16.8617 40.8081 17.0741 40.7868 17.2866 40.7231V38.6194ZM19.369 41.7218H20.3677V37.7057H19.369V41.7218ZM31.4809 40.7231C31.1834 40.8081 30.9497 40.8293 30.7372 40.8293C30.1847 40.8293 29.951 40.6168 29.951 39.8731V37.6845H28.9523V40.1281C28.9523 41.3818 29.7385 41.7855 30.7797 41.7855C31.4809 41.7855 31.9271 41.6793 32.5009 41.488V37.6845H31.5022L31.4809 40.7231ZM34.8807 40.0856V38.6194H36.4107V37.6845H34.8807V36.2183H33.882V37.6845H33.1383V38.6194H33.882V40.4256C33.882 41.3818 34.3708 41.7005 35.497 41.7005H36.4319V40.7868H35.582C35.072 40.7868 34.8807 40.6168 34.8807 40.0856ZM39.0668 37.557C38.8543 37.557 38.5568 37.5995 38.2593 37.642V35.9421H37.2606V41.7218H38.2593V38.6194C38.5355 38.5769 38.8118 38.5344 39.0243 38.5344C39.6192 38.5344 39.9167 38.7469 39.9167 39.4906V41.7218H40.9154V39.2144C40.9154 37.8757 40.0867 37.557 39.0668 37.557ZM45.9302 39.6819C45.9302 40.8718 44.9952 41.8068 43.7628 41.8068C42.5303 41.8068 41.5954 40.8931 41.5954 39.6819C41.5954 38.4919 42.5303 37.557 43.7628 37.557C44.974 37.557 45.9302 38.4919 45.9302 39.6819ZM44.889 39.6819C44.889 39.0656 44.464 38.5344 43.7628 38.5344C43.0616 38.5344 42.6366 39.0656 42.6366 39.6819C42.6366 40.3193 43.0616 40.8293 43.7628 40.8293C44.4427 40.8081 44.889 40.3193 44.889 39.6819ZM49.7125 41.7218H50.7112V37.7057H49.7125V41.7218ZM53.1123 40.0856V38.6194H54.6422V37.6845H53.1123V36.2183H52.1136V37.6845H51.3699V38.6194H52.1136V40.4256C52.1136 41.3818 52.6023 41.7005 53.7285 41.7005H54.6635V40.7868H53.8135C53.2823 40.7868 53.1123 40.6168 53.1123 40.0856ZM57.9146 40.6381C57.6171 40.7231 57.3833 40.7443 57.1708 40.7443C56.6184 40.7443 56.3846 40.5318 56.3846 39.7881V37.6845H55.3859V40.0643C55.3859 41.3818 56.1084 41.7218 57.1283 41.7218C57.3833 41.7218 57.6596 41.7005 57.9358 41.6368V41.7218C57.9358 42.1892 57.5108 42.4017 56.8946 42.4017C56.5121 42.4017 55.8747 42.2742 55.4922 42.1042L55.7047 43.1454C56.0234 43.2517 56.5546 43.3154 56.8521 43.3154C58.4458 43.3154 58.9345 42.8267 58.9345 41.403V37.6845H57.9358L57.9146 40.6381ZM62.4193 37.302V37.6845H61.6756V38.6194H62.4193V41.7005H63.418V38.6194H64.9479V37.6845H63.418V37.4932C63.418 37.0682 63.503 36.8558 64.013 36.8558H64.9479V35.9208H63.9917C62.8868 35.9208 62.4193 36.3458 62.4193 37.302ZM69.5377 39.6819C69.5377 40.8718 68.6028 41.8068 67.3703 41.8068C66.1379 41.8068 65.2029 40.8931 65.2029 39.6819C65.2029 38.4919 66.1379 37.557 67.3703 37.557C68.6028 37.557 69.5377 38.4919 69.5377 39.6819ZM68.4965 39.6819C68.4965 39.0656 68.0715 38.5344 67.3703 38.5344C66.6691 38.5344 66.2441 39.0656 66.2441 39.6819C66.2441 40.3193 66.6691 40.8293 67.3703 40.8293C68.0715 40.8081 68.4965 40.3193 68.4965 39.6819ZM79.2697 37.557C78.8447 37.557 78.0798 37.642 77.4636 37.7695V41.7218H78.4623V38.6194C78.7385 38.5769 79.0147 38.5344 79.2272 38.5344C79.8222 38.5344 80.1197 38.7469 80.1197 39.4906V41.7218H81.1184V39.2144C81.1396 37.8757 80.2897 37.557 79.2697 37.557ZM83.4557 40.0856V38.6194H84.9857V37.6845H83.4557V36.2183H82.457V37.6845H81.7133V38.6194H82.457V40.4256C82.457 41.3818 82.9458 41.7005 84.072 41.7005H85.0069V40.7868H84.157C83.6257 40.7868 83.4557 40.6168 83.4557 40.0856ZM89.5542 40.0006H86.3881C86.5156 40.5531 86.9618 40.8081 87.5993 40.8081H87.7055C88.1305 40.8081 88.6617 40.6381 88.8742 40.4468L89.3204 41.3393C88.8955 41.573 88.3642 41.7855 87.578 41.7855C86.3031 41.7855 85.3682 40.8718 85.3682 39.6606C85.3682 38.4282 86.3031 37.5357 87.493 37.5357C88.7042 37.557 89.5967 38.4494 89.5542 40.0006ZM88.513 39.1719C88.4067 38.6832 88.003 38.4282 87.4718 38.4282C86.9406 38.4282 86.5368 38.7469 86.4093 39.1719H88.513ZM90.2554 41.7218H91.2541V35.9421H90.2554V41.7218ZM92.3378 41.7218H93.3365V35.9421H92.3378V41.7218ZM98.2662 40.0006H95.1001C95.2276 40.5531 95.6739 40.8081 96.3113 40.8081H96.4176C96.8426 40.8081 97.3738 40.6381 97.5863 40.4468L98.0325 41.3393C97.6075 41.573 97.0763 41.7855 96.2901 41.7855C95.0151 41.7855 94.0802 40.8718 94.0802 39.6606C94.0802 38.4282 95.0152 37.5357 96.2051 37.5357C97.4375 37.557 98.33 38.4494 98.2662 40.0006ZM97.225 39.1719C97.1188 38.6832 96.7151 38.4282 96.1838 38.4282C95.6526 38.4282 95.2489 38.7469 95.1214 39.1719H97.225ZM100.944 38.5344C101.305 38.5344 101.624 38.6407 101.879 38.7894L102.282 37.897C101.879 37.6845 101.432 37.557 100.901 37.557C99.6687 37.557 98.755 38.4707 98.755 39.6819C98.755 40.8931 99.6687 41.8068 100.901 41.8068C101.454 41.8068 101.879 41.7005 102.282 41.488L101.879 40.5743C101.624 40.7443 101.305 40.8293 100.944 40.8293C100.242 40.8293 99.7962 40.3831 99.7962 39.6819C99.7962 39.0019 100.242 38.5344 100.944 38.5344ZM104.301 40.0856V38.6194H105.831V37.6845H104.301V36.2183H103.302V37.6845H102.559V38.6194H103.302V40.4256C103.302 41.3818 103.791 41.7005 104.917 41.7005H105.852V40.7868H105.002C104.492 40.7868 104.301 40.6168 104.301 40.0856ZM109.103 40.7231C108.806 40.8081 108.572 40.8293 108.359 40.8293C107.807 40.8293 107.573 40.6168 107.573 39.8731V37.6845H106.575V40.1281C106.575 41.3818 107.361 41.7855 108.402 41.7855C109.103 41.7855 109.549 41.6793 110.123 41.488V37.6845H109.124L109.103 40.7231ZM114.628 39.1506V41.488C114.118 41.6793 113.48 41.8068 112.885 41.8068C111.887 41.8068 110.994 41.4455 110.994 40.4681C110.994 39.5756 111.759 39.1081 112.864 39.1081C113.077 39.1081 113.353 39.1294 113.65 39.1719V39.1081C113.65 38.6619 113.268 38.5344 112.715 38.5344C112.312 38.5344 111.696 38.7044 111.313 38.8957L111.441 37.8757C111.759 37.7057 112.312 37.5782 112.864 37.5782C113.863 37.557 114.628 37.982 114.628 39.1506ZM113.608 39.9793C113.417 39.9368 113.162 39.8944 112.928 39.8944C112.418 39.8944 111.993 40.0218 111.993 40.4043C111.993 40.7656 112.376 40.9143 112.864 40.9143C113.119 40.9143 113.395 40.8718 113.608 40.8081V39.9793ZM115.627 41.7218H116.625V35.9421H115.627V41.7218ZM131.733 39.6819C131.733 40.8718 130.798 41.8068 129.566 41.8068C128.333 41.8068 127.398 40.8931 127.398 39.6819C127.398 38.4919 128.333 37.557 129.566 37.557C130.798 37.557 131.733 38.4919 131.733 39.6819ZM130.692 39.6819C130.692 39.0656 130.267 38.5344 129.566 38.5344C128.865 38.5344 128.44 39.0656 128.44 39.6819C128.44 40.3193 128.865 40.8293 129.566 40.8293C130.267 40.8081 130.692 40.3193 130.692 39.6819ZM136.429 39.6819C136.429 40.8718 135.537 41.8068 134.156 41.8068C133.986 41.8068 133.752 41.7855 133.454 41.743V43.2729H132.456V37.7695C132.944 37.6207 133.497 37.557 134.071 37.557C135.579 37.557 136.429 38.4707 136.429 39.6819ZM135.388 39.6819C135.388 38.9169 134.878 38.5344 134.092 38.5344C133.901 38.5344 133.688 38.5769 133.476 38.6194V40.7443C133.709 40.8081 133.922 40.8293 134.092 40.8293C134.899 40.8081 135.388 40.4468 135.388 39.6819ZM141.147 40.0006H137.98C138.108 40.5531 138.554 40.8081 139.192 40.8081H139.298C139.723 40.8081 140.254 40.6381 140.467 40.4468L140.913 41.3393C140.488 41.573 139.957 41.7855 139.17 41.7855C137.895 41.7855 136.961 40.8718 136.961 39.6606C136.961 38.4282 137.895 37.5357 139.085 37.5357C140.318 37.557 141.189 38.4494 141.147 40.0006ZM140.105 39.1719C139.999 38.6832 139.595 38.4282 139.064 38.4282C138.533 38.4282 138.129 38.7469 138.002 39.1719H140.105ZM146.225 40.0856V38.6194H147.755V37.6845H146.225V36.2183H145.226V37.6845H144.461V38.6194H145.205V40.4256C145.205 41.3818 145.694 41.7005 146.82 41.7005H147.755V40.7868H146.905C146.395 40.7868 146.225 40.6168 146.225 40.0856ZM150.9 40.6381C150.602 40.7231 150.369 40.7443 150.156 40.7443C149.604 40.7443 149.37 40.5318 149.37 39.7881V37.6845H148.371V40.0643C148.371 41.3818 149.094 41.7218 150.114 41.7218C150.369 41.7218 150.645 41.7005 150.921 41.6368V41.7218C150.921 42.1892 150.496 42.4017 149.88 42.4017C149.497 42.4017 148.86 42.2742 148.477 42.1042L148.69 43.1454C149.009 43.2517 149.54 43.3154 149.837 43.3154C151.431 43.3154 151.92 42.8267 151.92 41.403V37.6845H150.921L150.9 40.6381ZM70.2814 38.7469V41.7218H71.2801V38.8957C71.2801 38.7257 71.4076 38.5982 71.5776 38.5982C71.9813 38.5982 72.5975 38.5982 72.5975 38.5982V37.642H71.3651C70.7914 37.642 70.2814 38.1307 70.2814 38.7469ZM46.6739 38.7469V41.7218H47.6726V38.8957C47.6726 38.7257 47.8001 38.5982 47.9701 38.5982C48.3738 38.5982 48.99 38.5982 48.99 38.5982V37.642H47.7788C47.1626 37.642 46.6739 38.1307 46.6739 38.7469ZM124.7 38.7469V41.7218H125.699V38.8957C125.699 38.7257 125.826 38.5982 125.996 38.5982C126.4 38.5982 127.016 38.5982 127.016 38.5982V37.642H125.784C125.189 37.642 124.7 38.1307 124.7 38.7469ZM141.805 38.7469V41.7218H142.804V38.8957C142.804 38.7257 142.931 38.5982 143.101 38.5982C143.505 38.5982 144.121 38.5982 144.121 38.5982V37.642H142.889C142.315 37.642 141.805 38.1307 141.805 38.7469ZM19.8578 35.9846C19.5603 35.9846 19.3053 36.2395 19.3053 36.537C19.3053 36.8345 19.5603 37.0895 19.8578 37.0895C20.1552 37.0895 20.4102 36.8345 20.4102 36.537C20.4102 36.2395 20.1765 35.9846 19.8578 35.9846ZM50.2224 35.9846C49.925 35.9846 49.67 36.2395 49.67 36.537C49.67 36.8345 49.925 37.0895 50.2224 37.0895C50.5199 37.0895 50.7749 36.8345 50.7749 36.537C50.7537 36.2395 50.5199 35.9846 50.2224 35.9846Z" fill="#4D4D4F"/>
<path d="M4.91977 40.0643C4.91977 41.1693 3.94232 41.7855 2.62489 41.7855C1.81743 41.7855 0.988725 41.573 0.5 41.2755L0.90373 40.3618C1.30746 40.6168 2.00867 40.8081 2.60364 40.8081C3.30486 40.8081 3.83608 40.5743 3.83608 40.0431C3.83608 39.5544 3.4111 39.3844 2.73114 39.2356L2.26366 39.1081C1.22246 38.8532 0.669992 38.2369 0.669992 37.387C0.669992 36.452 1.51995 35.8146 2.77363 35.8146C3.4961 35.8146 4.30355 36.0271 4.79228 36.3458L4.38855 37.2595C3.96357 36.9833 3.3261 36.8133 2.75238 36.8133C2.19991 36.8133 1.73244 37.0257 1.73244 37.4295C1.73244 37.812 2.00867 38.0032 2.64614 38.1732L3.13487 38.3007C4.11232 38.5344 4.91977 39.0444 4.91977 40.0643ZM26.3812 35.9208L28.5273 41.7005H27.4436L26.9549 40.3406H24.5538L24.065 41.7005H22.9813L25.1275 35.9208H26.3812ZM26.6149 39.3844L25.765 36.9833L24.915 39.3844H26.6149ZM124.19 37.7057C124.19 38.6619 123.51 39.5544 122.065 39.5544H120.918V41.7218H119.898V35.9421H122.065C123.531 35.9208 124.19 36.792 124.19 37.7057ZM123.106 37.727C123.106 37.1532 122.702 36.8983 121.853 36.8983H120.939V38.5982H121.853C122.596 38.5982 123.106 38.3857 123.106 37.727ZM75.4024 41.7218H76.4011V35.9421H75.4024V41.7218Z" fill="#006E63"/>
<path d="M195.841 17.3068C196.989 11.2933 198.115 5.21613 193.228 2.815C184.919 -1.24354 163.755 -1.07355 161.375 9.93339C160.929 12.037 161.8 15.7556 163.245 19.2192C163.777 15.5219 167.028 9.89089 181.519 8.95594C190.784 8.36097 194.609 12.1008 195.841 17.3068Z" fill="#0065A1"/>
<path d="M204.49 11.1021C204.362 7.00104 200.304 4.53617 195.501 3.06999C196.032 3.53747 196.5 4.04744 196.904 4.66366C198.072 6.42732 198.115 9.97589 197.562 13.6519C193.78 39.5756 183.963 39.0656 183.134 39.0869C193.844 42.763 197.86 33.7747 198.37 32.7972C198.646 32.2872 204.787 20.7278 204.49 11.1021Z" fill="#006E63"/>
<path d="M184.771 18.178C185.217 18.093 185.684 18.0505 186.173 18.0505C188.319 18.0505 190.253 18.8792 191.719 20.2179C190.38 17.4555 187.575 15.5643 184.324 15.5643C184.091 15.5643 183.857 15.5856 183.644 15.5856C184.346 14.5657 185.366 13.8007 186.555 13.397C184.728 13.142 182.879 13.8219 181.647 15.2244C181.647 15.1394 181.647 15.0544 181.647 14.9694C181.647 13.9069 181.328 12.9082 180.776 12.1008C180.223 12.9295 179.905 13.9069 179.905 14.9694C179.905 15.0544 179.905 15.1394 179.905 15.2244C178.672 13.8219 176.802 13.142 174.996 13.397C176.186 13.8007 177.206 14.5657 177.907 15.5856C177.673 15.5644 177.461 15.5643 177.227 15.5643C173.976 15.5643 171.171 17.4555 169.833 20.2179C171.299 18.8792 173.254 18.0505 175.379 18.0505C175.846 18.0505 176.313 18.093 176.781 18.178C174.784 19.2617 173.339 21.1528 172.765 23.3202C173.955 21.7053 175.697 20.5366 177.801 20.1116C178.035 20.0691 178.268 20.0266 178.502 20.0054L180.797 22.3215L183.092 20.0054C183.326 20.0266 183.559 20.0691 183.793 20.1116C185.897 20.5153 187.639 21.7053 188.829 23.3202C188.213 21.1528 186.768 19.2617 184.771 18.178Z" fill="#006E63"/>
<path d="M180.754 28.165C181.328 28.165 181.817 27.6975 181.817 27.1025C181.817 26.5075 181.349 26.0401 180.754 26.0401C180.181 26.0401 179.692 26.5075 179.692 27.1025C179.713 27.6762 180.181 28.165 180.754 28.165Z" fill="#006E63"/>
<path d="M180.754 30.3961C181.222 30.3961 181.604 30.0136 181.604 29.5461C181.604 29.0787 181.222 28.6962 180.754 28.6962C180.287 28.6962 179.905 29.0787 179.905 29.5461C179.905 30.0136 180.287 30.3961 180.754 30.3961Z" fill="#006E63"/>
<path d="M180.754 25.5513C181.477 25.5513 182.072 24.9564 182.072 24.2127C182.072 23.4689 181.477 22.874 180.754 22.874C180.032 22.874 179.437 23.4689 179.437 24.2127C179.437 24.9564 180.032 25.5513 180.754 25.5513Z" fill="#006E63"/>
<path d="M189.318 28.9087C184.239 28.9087 179.607 30.9273 176.207 34.2209H178.013C178.481 34.2209 178.906 34.0509 179.267 33.7322C182.008 31.3523 185.451 29.7161 189.318 29.2274C190.253 29.1212 191.166 29.0574 192.08 29.0999C191.188 28.9724 190.253 28.9087 189.318 28.9087Z" fill="#006E63"/>
<path d="M172.212 28.9087C177.291 28.9087 181.923 30.9273 185.323 34.2209H183.517C183.049 34.2209 182.624 34.0509 182.263 33.7322C179.522 31.3523 176.08 29.7161 172.212 29.2274C171.277 29.1212 170.364 29.0574 169.45 29.0999C170.343 28.9724 171.256 28.9087 172.212 28.9087Z" fill="#006E63"/>
<path d="M160.207 12.3133C158.656 13.8644 155.405 17.753 156.148 22.4065C157.126 28.4624 171.277 48.8826 181.732 48.8826C186.832 48.8826 190.784 45.0366 194.821 39.0019C186.194 46.694 164.435 35.1558 160.207 12.3133Z" fill="#00A19B"/>
</svg>
