<svg width="116" height="87" viewBox="0 0 116 87" fill="none" xmlns="http://www.w3.org/2000/svg">
<path d="M106.296 49.9133C106.469 49.9197 106.655 49.9235 106.824 49.9642C107.126 50.0365 107.385 50.2806 107.523 50.5514C107.666 50.8336 107.684 51.1507 107.585 51.4504C107.439 51.8919 107.185 52.0659 106.779 52.2571C106.595 52.2557 106.402 52.2465 106.222 52.2038C105.936 52.1362 105.696 51.8969 105.565 51.6411C105.404 51.3254 105.392 50.9716 105.522 50.6428C105.678 50.2489 105.92 50.0818 106.296 49.9133Z" fill="#027D3A"/>
<path d="M34.9078 49.9129C35.0895 49.9111 35.2907 49.9258 35.4665 49.9723C35.7541 50.0484 35.9937 50.2874 36.126 50.5463C36.2875 50.8624 36.2953 51.2161 36.1637 51.5444C36.0034 51.9443 35.762 52.0878 35.3836 52.262C35.2121 52.2564 35.0314 52.246 34.8637 52.2094C34.593 52.1503 34.359 51.9552 34.217 51.722C34.0336 51.4208 33.9939 51.071 34.1008 50.7352C34.2437 50.2868 34.4998 50.1105 34.9078 49.9129Z" fill="#027D3A"/>
<path d="M107.552 53.4122C107.633 53.4085 107.69 53.4319 107.768 53.4553C107.753 53.5114 107.73 53.5947 107.707 53.6441C106.94 55.2813 108.064 58.8803 107.136 60.128C106.75 60.6471 106.225 60.7295 105.629 60.8244C105.515 60.8311 105.431 60.8142 105.319 60.7927C105.379 60.6092 105.434 60.4241 105.492 60.2406C105.932 58.8687 105.153 55.0326 105.848 54.1206C106.24 53.6056 106.951 53.4884 107.552 53.4122Z" fill="#027D3A"/>
<path d="M36.173 53.4184L36.3439 53.4392C36.2751 53.8517 36.1023 54.2545 36.0699 54.672C35.9814 55.8133 36.397 59.427 35.8185 60.1507C35.4341 60.6316 34.7044 60.7431 34.1336 60.8354C34.0336 60.8277 34.0979 60.8377 33.9469 60.7791C34.5296 58.9521 33.7876 55.0722 34.5341 54.1199C34.9614 53.575 35.529 53.4958 36.173 53.4184Z" fill="#027D3A"/>
<path d="M96.078 53.5972C95.8322 54.061 95.7587 54.4557 95.7105 54.9701C95.7011 56.1603 95.8991 58.121 95.606 59.2088C95.4582 59.7572 95.0646 60.1738 94.5737 60.4435C93.7193 60.9126 92.5324 60.9605 91.6023 60.6876C88.5495 59.7917 90.7336 55.7722 89.5965 53.7165C89.5813 53.6889 89.5655 53.6615 89.5499 53.6341C90.1772 53.6806 90.838 53.7211 91.3129 54.1878C92.1157 54.9767 91.705 56.83 91.7371 57.8533C91.7486 58.2186 91.8285 58.5679 92.1221 58.8101C92.3851 59.0269 92.8211 59.0497 93.1385 58.9782C94.557 58.6586 93.3713 55.4371 94.1312 54.3861C94.5738 53.7741 95.3925 53.6988 96.078 53.5972Z" fill="#027D3A"/>
<path d="M18.1852 53.633C18.7581 53.6529 19.4205 53.7258 19.8623 54.1269C20.7366 54.9209 20.3295 56.6855 20.3802 57.7531C20.3983 58.1356 20.4393 58.5965 20.7739 58.8465C21.0189 59.0296 21.3819 59.059 21.6746 59.0062C23.2489 58.7226 21.9171 55.3466 22.7368 54.3382C23.1992 53.7693 24.0582 53.6931 24.7321 53.602C24.3968 54.1016 24.3573 54.5105 24.3175 55.0932C24.293 56.3576 24.5445 57.9279 24.2212 59.143C24.0714 59.706 23.7363 60.1554 23.2229 60.4345C22.3136 60.9287 21.0765 60.9719 20.1068 60.6432C17.2776 59.6838 19.2353 55.7783 18.2285 53.7188C18.2144 53.69 18.1997 53.6615 18.1852 53.633Z" fill="#027D3A"/>
<path d="M84.5108 53.653C85.1667 53.6024 85.9765 53.7414 86.5638 54.035C89.139 55.323 87.6649 58.1786 88.2952 60.1177C88.3577 60.3099 88.4062 60.456 88.4114 60.6609L88.2872 60.7663C87.8865 60.8046 87.421 60.6944 87.0774 60.4838C85.7977 59.6999 86.6279 57.648 86.27 56.4333C86.1721 56.1011 85.9741 55.8239 85.6571 55.6703C85.2738 55.4846 84.6305 55.4377 84.231 55.5878C83.772 55.7602 83.5272 56.1314 83.3214 56.5545L83.2771 56.6481C83.2075 57.1185 83.1689 57.5777 83.3502 58.0297C83.5072 58.4215 83.7915 58.7236 84.1892 58.8744C84.8847 59.138 85.5261 58.9127 86.1598 58.6166C86.0703 59.152 85.9993 59.7122 85.7223 60.1893C85.5383 60.5061 85.2797 60.7252 84.9201 60.8138C84.2513 60.9787 83.3312 60.6518 82.7793 60.2822C82.015 59.7704 81.5366 58.9279 81.3937 58.0283C81.2241 56.9603 81.4663 55.7917 82.1334 54.9286C82.7435 54.1392 83.5466 53.7817 84.5108 53.653Z" fill="#027D3A"/>
<path d="M13.0985 53.6508C13.7267 53.6242 14.4076 53.7206 14.9953 53.9531C17.9129 55.1076 16.1265 58.593 17.1165 60.7135C17.1315 60.7457 17.1472 60.7776 17.1626 60.8097C16.6443 60.7747 16.0779 60.7201 15.6362 60.4226C14.4349 59.613 15.1491 57.7686 14.9163 56.5662C14.8484 56.2156 14.6905 55.8983 14.371 55.7152C13.9787 55.4905 13.3016 55.441 12.8769 55.5821C12.3662 55.7516 12.1146 56.1886 11.8806 56.6395C11.7982 57.1151 11.7707 57.5712 11.957 58.0283C12.1165 58.4196 12.4017 58.7095 12.7954 58.8654C13.4768 59.1353 14.1223 58.9127 14.7559 58.6435C14.6896 59.1552 14.6321 59.6821 14.3772 60.1407C14.1935 60.4712 13.9221 60.7061 13.5504 60.7946C12.8613 60.9588 11.9603 60.6761 11.3865 60.2897C10.6154 59.7701 10.1594 58.9293 10.0158 58.0225C9.84692 56.9564 10.094 55.7767 10.7552 54.9129C11.3487 54.1377 12.1565 53.7809 13.0985 53.6508Z" fill="#027D3A"/>
<path d="M85.1913 72.1196C85.5066 69.9722 86.3605 68.1739 88.1357 66.8534C88.2315 66.7825 88.3291 66.714 88.4284 66.648C88.5277 66.5819 88.6285 66.5182 88.7308 66.457C88.8332 66.3959 88.937 66.3373 89.0423 66.2813C89.1476 66.2253 89.2541 66.1718 89.362 66.121C89.4698 66.0702 89.5789 66.0221 89.6892 65.9768C89.7994 65.9313 89.9107 65.8886 90.023 65.8486C90.1354 65.8086 90.2486 65.7714 90.3628 65.737C90.477 65.7026 90.592 65.671 90.7077 65.6423C90.8234 65.6135 90.9398 65.5876 91.0567 65.5646C91.1737 65.5415 91.2912 65.5213 91.4092 65.5041C91.5272 65.4869 91.6455 65.4725 91.7642 65.461C91.8829 65.4495 92.0018 65.441 92.1209 65.4354C92.24 65.4298 92.3592 65.4271 92.4784 65.4273C92.5977 65.4275 92.7169 65.4307 92.836 65.4368C92.9551 65.4429 93.0739 65.452 93.1925 65.4639C93.3112 65.4758 93.4295 65.4907 93.5474 65.5084C93.6648 65.5261 93.7817 65.5466 93.8981 65.5701C94.0145 65.5936 94.1302 65.6198 94.2453 65.6489C94.3604 65.678 94.4747 65.7099 94.5883 65.7446C94.7018 65.7794 94.8144 65.8168 94.926 65.8571C95.0378 65.8973 95.1484 65.9402 95.258 65.9859C95.3676 66.0315 95.476 66.0798 95.5832 66.1308C95.6905 66.1819 95.7964 66.2354 95.9009 66.2916C96.0056 66.3478 96.1087 66.4065 96.2104 66.4677C96.3121 66.529 96.4123 66.5927 96.5109 66.6587C96.6095 66.7249 96.7064 66.7935 96.8016 66.8644C96.8968 66.9353 96.9902 67.0085 97.0818 67.0839C97.1735 67.1594 97.2633 67.2372 97.3511 67.317C97.4389 67.3969 97.5247 67.4789 97.6085 67.563C97.6923 67.6471 97.774 67.7332 97.8536 67.8213C97.9332 67.9093 98.0106 67.9993 98.0857 68.0912C98.1609 68.1832 98.2337 68.2769 98.3043 68.3723C98.4052 68.5069 98.501 68.645 98.5919 68.7864C98.6828 68.9278 98.7686 69.0723 98.8492 69.2199C98.9299 69.3674 99.0051 69.5177 99.0751 69.6707C99.145 69.8236 99.2093 69.9789 99.268 70.1364C99.3269 70.294 99.38 70.4534 99.4274 70.6148C99.4748 70.7761 99.5164 70.9389 99.5523 71.1032C99.588 71.2675 99.6179 71.4329 99.6419 71.5994C99.6658 71.7658 99.6838 71.9329 99.6959 72.1006C99.7004 72.5035 99.7025 72.9065 99.7021 73.3094C99.4663 75.3478 98.6089 77.1118 96.9798 78.4031C96.1698 79.045 95.3048 79.4121 94.339 79.7566C94.3402 79.33 94.362 78.9013 94.3745 78.4747C94.8453 78.2876 95.2942 78.0796 95.7209 77.8043C97.2622 76.8098 98.0569 75.4242 98.4445 73.6649C98.5646 73.2013 98.5456 72.7404 98.5046 72.2692C98.2645 70.4853 97.5802 68.9644 96.1084 67.8602C96.0272 67.7994 95.9446 67.7407 95.8605 67.6841C95.7765 67.6275 95.691 67.5731 95.6042 67.5207C95.5174 67.4683 95.4294 67.4182 95.3401 67.3703C95.2508 67.3223 95.1603 67.2765 95.0687 67.2331C94.9771 67.1897 94.8846 67.1487 94.7909 67.1099C94.6972 67.0711 94.6027 67.0346 94.5073 67.0004C94.4118 66.9664 94.3156 66.9347 94.2186 66.9055C94.1215 66.8762 94.0237 66.8494 93.9254 66.825C93.827 66.8006 93.7281 66.7787 93.6286 66.7593C93.5292 66.7399 93.4292 66.7229 93.3289 66.7085C93.2286 66.694 93.1279 66.682 93.027 66.6726C92.9261 66.6632 92.825 66.6563 92.7238 66.6519C92.6225 66.6476 92.5212 66.6458 92.4198 66.6465C92.3185 66.6471 92.2172 66.6503 92.1159 66.6561C92.0147 66.6618 91.9138 66.6701 91.813 66.6809C91.7122 66.6918 91.6117 66.7051 91.5117 66.7209C91.4136 66.7364 91.316 66.7544 91.2188 66.7748C91.1216 66.7951 91.025 66.8179 90.9289 66.843C90.8329 66.8681 90.7375 66.8955 90.6428 66.9254C90.5481 66.9551 90.4542 66.9873 90.3611 67.0217C90.2679 67.0561 90.1757 67.0928 90.0844 67.1318C89.993 67.1708 89.9027 67.212 89.8135 67.2554C89.7242 67.2989 89.636 67.3445 89.549 67.3922C89.4619 67.44 89.3761 67.4898 89.2915 67.5418C89.2069 67.5938 89.1236 67.6478 89.0417 67.7039C88.9598 67.76 88.8793 67.818 88.8002 67.8781C88.7211 67.9381 88.6436 68 88.5675 68.0639C88.4915 68.1278 88.4172 68.1936 88.3444 68.2611C88.2716 68.3285 88.2005 68.3978 88.1311 68.4689C88.0617 68.5399 87.9941 68.6126 87.9283 68.687C87.8625 68.7613 87.7986 68.8372 87.7366 68.9147C87.6744 68.9922 87.6143 69.0712 87.5561 69.1517C86.8579 70.1199 86.554 71.1715 86.3865 72.3372C85.9914 72.2365 85.594 72.1788 85.1913 72.1196Z" fill="#292626"/>
<path d="M77.3445 78.7447C77.5374 77.4644 77.8841 76.3231 78.6242 75.2439C79.5709 73.8631 81.1 72.7065 82.7663 72.3894C82.7585 72.8038 82.7541 73.2115 82.696 73.6227C81.0616 74.2852 79.783 75.2974 79.071 76.9501C78.8608 77.4381 78.7165 77.9511 78.5864 78.4652C78.5702 78.8867 78.5472 79.3091 78.5437 79.7308C78.7787 81.5431 79.4502 83.0743 80.9357 84.2064C82.2615 85.2171 83.8675 85.593 85.5126 85.3674C85.6083 85.3542 85.7036 85.3387 85.7985 85.3209C85.8935 85.303 85.9879 85.2827 86.0818 85.2602C86.1758 85.2376 86.2691 85.2127 86.3618 85.1855C86.4544 85.1584 86.5464 85.1289 86.6377 85.0971C86.7289 85.0653 86.8193 85.0313 86.9089 84.9952C86.9984 84.9589 87.087 84.9204 87.1746 84.8798C87.2623 84.8392 87.3489 84.7965 87.4344 84.7515C87.52 84.7066 87.6043 84.6596 87.6875 84.6105C87.7707 84.5614 87.8526 84.5103 87.9332 84.4571C88.0139 84.4039 88.0933 84.3488 88.1712 84.2918C88.249 84.2346 88.3255 84.1756 88.4005 84.1148C88.4755 84.0539 88.549 83.9912 88.6209 83.9266C88.6927 83.8621 88.763 83.7959 88.8316 83.7278C88.9003 83.6599 88.9672 83.5902 89.0323 83.5189C89.0974 83.4475 89.1607 83.3746 89.2223 83.3001C89.2838 83.2257 89.3435 83.1497 89.4013 83.0723C90.141 82.091 90.4812 80.9776 90.6903 79.7825C91.0679 79.8504 91.442 79.9139 91.8238 79.9551C91.7602 81.315 91.2154 82.7108 90.3919 83.7885C90.3205 83.8835 90.2469 83.9766 90.1709 84.068C90.0949 84.1593 90.0167 84.2486 89.9363 84.336C89.8559 84.4235 89.7734 84.5089 89.6888 84.5922C89.6042 84.6756 89.5176 84.7568 89.429 84.8359C89.3404 84.915 89.2498 84.9918 89.1575 85.0664C89.065 85.141 88.9707 85.2132 88.8747 85.2832C88.7788 85.3531 88.6811 85.4206 88.5817 85.4857C88.4824 85.5508 88.3815 85.6134 88.2791 85.6736C88.1766 85.7337 88.0728 85.7912 87.9674 85.8462C87.8622 85.9011 87.7556 85.9534 87.6477 86.0031C87.5398 86.0528 87.4308 86.0998 87.3206 86.1441C87.2104 86.1885 87.0992 86.2301 86.987 86.2689C86.8746 86.3077 86.7615 86.3437 86.6474 86.3769C86.5334 86.41 86.4186 86.4404 86.3031 86.4679C86.1875 86.4955 86.0714 86.5201 85.9547 86.5419C85.8379 86.5637 85.7206 86.5826 85.603 86.5985C85.4827 86.6155 85.362 86.6294 85.241 86.6402C85.12 86.6511 84.9989 86.659 84.8775 86.6637C84.7561 86.6685 84.6347 86.6703 84.5132 86.6689C84.3918 86.6676 84.2704 86.6631 84.1491 86.6556C84.0279 86.6482 83.9069 86.6376 83.7862 86.624C83.6654 86.6105 83.5451 86.5939 83.4253 86.5742C83.3054 86.5546 83.1861 86.5319 83.0673 86.5062C82.9486 86.4806 82.8306 86.452 82.7133 86.4204C82.596 86.3888 82.4796 86.3542 82.3641 86.3168C82.2485 86.2793 82.134 86.2389 82.0205 86.1957C81.9069 86.1525 81.7946 86.1063 81.6833 86.0574C81.5722 86.0086 81.4623 85.9569 81.3537 85.9023C81.2451 85.8479 81.1379 85.7908 81.0323 85.7309C80.9265 85.6711 80.8224 85.6086 80.7199 85.5435C80.6173 85.4784 80.5165 85.4107 80.4174 85.3405C80.3182 85.2704 80.2209 85.1977 80.1254 85.1226C78.4282 83.7987 77.6114 82.0377 77.3392 79.9424C77.3104 79.5375 77.3216 79.1488 77.3445 78.7447Z" fill="#F5AF12"/>
<path d="M57.2932 7.41134C57.5564 8.07546 57.4761 14.2973 57.4951 15.6116C57.7683 36.8446 57.7268 58.0769 57.3705 79.3086C57.1444 78.7893 57.1845 72.7955 57.165 71.5709C56.8565 50.1837 56.8992 28.7972 57.2932 7.41134Z" fill="#027D3A"/>
<path d="M32.5821 49.9294L32.6975 49.9304L32.7543 50.0154C32.1848 51.3617 32.4951 55.1652 32.4798 56.7968C32.4685 57.9957 32.2146 59.1501 31.3046 60.007C30.636 60.6363 29.7379 60.8966 28.8319 60.8334C28.7748 60.8291 28.7179 60.8233 28.6612 60.8161C28.6045 60.8089 28.5479 60.8002 28.4916 60.7901C28.4353 60.7801 28.3793 60.7686 28.3236 60.7556C28.2679 60.7427 28.2125 60.7284 28.1575 60.7127C28.1025 60.6969 28.048 60.6798 27.9938 60.6613C27.9397 60.6429 27.8861 60.6231 27.833 60.6019C27.7799 60.5806 27.7273 60.5581 27.6753 60.5341C27.6233 60.5102 27.572 60.485 27.5214 60.4586C27.4707 60.4321 27.4207 60.4044 27.3714 60.3753C27.3221 60.3463 27.2736 60.316 27.2258 60.2845C27.1781 60.2531 27.1311 60.2204 27.085 60.1865C27.0389 60.1526 26.9937 60.1176 26.9494 60.0815C26.9051 60.0453 26.8617 60.0081 26.8194 59.9697C26.7769 59.9313 26.7355 59.8919 26.695 59.8514C26.6546 59.811 26.6152 59.7695 26.5769 59.727C26.5386 59.6846 26.5013 59.6412 26.4652 59.5968C25.8255 58.8202 25.5458 57.7834 25.6478 56.7874C25.7638 55.6552 26.3496 54.761 27.2272 54.0699C27.6067 53.8324 28.063 53.6294 28.5056 53.5524C28.9197 53.4804 29.3348 53.5431 29.6731 53.8037C30.3087 54.2933 30.3863 55.1132 30.4634 55.8484C30.049 55.6205 29.592 55.4572 29.1128 55.4834C28.6315 55.5098 28.1836 55.709 27.8629 56.0716C27.5489 56.4266 27.3823 56.9208 27.4348 57.3936C27.4907 57.8966 27.8004 58.3808 28.2096 58.6743C28.5496 58.9182 29.0408 58.9528 29.4404 58.8734C31.854 58.3933 29.8862 52.0318 30.8876 50.6443C31.2728 50.1107 31.9759 50.0062 32.5821 49.9294Z" fill="#027D3A"/>
<path d="M103.974 49.9254L104.095 49.9333L104.147 50.053C103.55 51.4757 103.935 55.4961 103.866 57.2851C103.828 58.3013 103.416 59.3758 102.641 60.0574C101.956 60.6606 101.012 60.9002 100.112 60.816C100.056 60.8103 100 60.8032 99.9444 60.7947C99.8887 60.7862 99.8332 60.7764 99.778 60.765C99.7227 60.7537 99.6677 60.741 99.6131 60.7269C99.5585 60.7127 99.5043 60.6973 99.4505 60.6805C99.3966 60.6636 99.3433 60.6453 99.2903 60.6258C99.2374 60.6062 99.185 60.5853 99.1331 60.563C99.0813 60.5409 99.0301 60.5174 98.9795 60.4926C98.9287 60.4677 98.8787 60.4416 98.8295 60.4143C98.7801 60.3869 98.7315 60.3584 98.6835 60.3286C98.6357 60.2988 98.5886 60.2678 98.5423 60.2356C98.496 60.2034 98.4505 60.17 98.4059 60.1355C98.3612 60.101 98.3175 60.0654 98.2746 60.0286C98.2319 59.992 98.19 59.9542 98.1491 59.9153C98.1082 59.8765 98.0683 59.8367 98.0294 59.7957C97.9905 59.7549 97.9527 59.7131 97.916 59.6703C97.8792 59.6276 97.8435 59.5839 97.809 59.5392C97.7706 59.4897 97.7335 59.4392 97.6976 59.3879C97.6618 59.3365 97.6272 59.2844 97.5939 59.2313C97.5606 59.1783 97.5286 59.1245 97.4979 59.0699C97.4672 59.0153 97.4379 58.9599 97.41 58.9039C97.382 58.8479 97.3554 58.7912 97.3302 58.7338C97.305 58.6765 97.2812 58.6186 97.2588 58.5601C97.2364 58.5015 97.2155 58.4424 97.1961 58.3829C97.1765 58.3234 97.1585 58.2635 97.1419 58.203C97.1254 58.1427 97.1103 58.0819 97.0968 58.0207C97.0832 57.9596 97.0711 57.8981 97.0605 57.8364C97.05 57.7747 97.0409 57.7127 97.0334 57.6505C97.0258 57.5884 97.0197 57.5261 97.0153 57.4636C97.0108 57.4011 97.0078 57.3385 97.0064 57.276C97.005 57.2133 97.005 57.1507 97.0066 57.0881C97.0082 57.0254 97.0114 56.9629 97.016 56.9004C97.0208 56.8379 97.027 56.7756 97.0347 56.7135C97.1685 55.6201 97.7541 54.7497 98.6028 54.0813C99.154 53.7426 99.8922 53.4205 100.553 53.5483C100.962 53.6274 101.27 53.9389 101.481 54.2838C101.689 54.6229 101.898 55.3547 101.802 55.7517C101.378 55.6401 100.842 55.4384 100.405 55.4611C99.9739 55.4836 99.5406 55.6822 99.2614 56.0138C98.9441 56.3908 98.8342 56.9052 98.8803 57.3878C98.9224 57.8275 99.0676 58.2837 99.4245 58.565C99.4662 58.5986 99.5096 58.6299 99.5546 58.6591C99.5994 58.6882 99.6457 58.7149 99.6934 58.7395C99.7411 58.764 99.7898 58.786 99.8397 58.8055C99.8896 58.825 99.9403 58.842 99.9919 58.8565C100.043 58.8709 100.096 58.8827 100.148 58.8919C100.201 58.9011 100.254 58.9076 100.308 58.9114C100.361 58.9152 100.415 58.9163 100.468 58.9147C100.522 58.9131 100.575 58.9088 100.628 58.9019C101.185 58.8237 101.636 58.5204 101.866 58C102.558 56.4276 101.428 51.7587 102.357 50.5869C102.762 50.0764 103.373 50.0132 103.974 49.9254Z" fill="#027D3A"/>
<path d="M80.3684 50.072L80.4428 50.1351C80.4549 50.243 80.459 50.2487 80.4527 50.3759C80.2951 53.5812 76.8026 51.3812 75.5507 52.5518C75.298 53.6488 78.6312 55.0212 79.3348 56.6352C79.6512 57.3606 79.5594 58.0866 79.2603 58.8001C78.1238 61.5114 74.2308 59.7406 72.084 60.6778L71.9884 60.7205L71.9438 60.6644C71.9289 60.1761 72.0641 59.4596 72.3351 59.0512C73.1799 57.7788 75.6475 58.7073 76.8209 58.3471C77.0061 58.2903 77.1305 58.2034 77.2139 58.0234C77.6495 57.0837 75.4023 56.0192 74.7988 55.5369C74.2877 55.1283 73.8201 54.5845 73.5528 53.9866C73.5337 53.9446 73.5157 53.9022 73.4987 53.8593C73.4818 53.8164 73.466 53.7731 73.4513 53.7294C73.4366 53.6857 73.423 53.6417 73.4106 53.5973C73.3981 53.553 73.3869 53.5083 73.3768 53.4633C73.3668 53.4183 73.3579 53.373 73.3501 53.3277C73.3423 53.2822 73.3358 53.2365 73.3304 53.1907C73.325 53.145 73.3208 53.0991 73.3179 53.053C73.3148 53.007 73.313 52.961 73.3124 52.915C73.3118 52.8688 73.3124 52.8227 73.3142 52.7766C73.316 52.7306 73.3189 52.6846 73.3231 52.6387C73.3272 52.5928 73.3326 52.547 73.3392 52.5014C73.3457 52.4557 73.3534 52.4103 73.3623 52.3651C73.3711 52.3199 73.3812 52.2749 73.3924 52.2302C73.4037 52.1855 73.4161 52.141 73.4296 52.0969C73.4431 52.0529 73.4578 52.0092 73.4736 51.9658C73.4894 51.9225 73.5063 51.8797 73.5243 51.8373C74.6568 49.241 78.229 50.9902 80.2785 50.1117C80.3086 50.0988 80.3385 50.0852 80.3684 50.072Z" fill="#027D3A"/>
<path d="M8.96536 50.0709C9.10356 50.2181 9.07846 50.269 9.06755 50.4668C9.06434 50.518 9.05923 50.5691 9.05221 50.62C9.0452 50.6708 9.03628 50.7213 9.02546 50.7715C9.01464 50.8216 9.00192 50.8713 8.9873 50.9205C8.97276 50.9697 8.95636 51.0183 8.9381 51.0663C8.91985 51.1142 8.89981 51.1614 8.87801 51.2079C8.8562 51.2544 8.83266 51.2999 8.80739 51.3446C8.78211 51.3893 8.75519 51.433 8.72662 51.4757C8.69814 51.5183 8.66804 51.5598 8.63635 51.6002C8.44262 51.8493 8.21668 52.0541 7.9257 52.1829C7.20504 52.502 5.04319 51.774 4.16442 52.5516C3.89221 53.603 7.25512 55.0458 7.94675 56.6321C8.23684 57.2975 8.19221 57.9983 7.93357 58.664C6.78905 61.6096 2.97173 59.6829 0.747491 60.657C0.71795 60.6699 0.688661 60.6835 0.659373 60.6967L0.577975 60.6043C0.580891 60.1218 0.683208 59.5561 0.90851 59.1249C1.66949 57.6679 4.35447 58.7807 5.46628 58.3298C5.64948 58.2555 5.78375 58.1564 5.8578 57.9664C6.18694 57.1218 3.95002 55.9444 3.36984 55.4666C2.90022 55.0799 2.46534 54.6181 2.19528 54.0681C1.84851 53.3624 1.85384 52.6149 2.13138 51.8871C3.16026 49.1902 6.88617 51.0472 8.88891 50.108C8.91452 50.096 8.93988 50.0833 8.96536 50.0709Z" fill="#027D3A"/>
<path d="M98.4445 73.6649C98.5646 73.2013 98.5456 72.7404 98.5046 72.2692C98.4983 72.2749 98.4921 72.2808 98.4859 72.2866C98.4734 72.2984 98.461 72.3102 98.4472 72.3202C98.2266 72.482 97.9235 72.5784 97.6192 72.6752C97.3778 72.752 97.1357 72.829 96.9335 72.9391C96.8751 72.9708 96.8172 73.0033 96.7597 73.0366C96.7022 73.0699 96.6452 73.104 96.5886 73.1389C96.532 73.1737 96.4759 73.2093 96.4204 73.2456C96.3648 73.282 96.3097 73.3191 96.2551 73.357C96.2005 73.3948 96.1464 73.4334 96.0928 73.4727C96.0392 73.512 95.9862 73.552 95.9338 73.5928C95.8813 73.6335 95.8294 73.675 95.778 73.7172C95.7267 73.7593 95.6759 73.8022 95.6257 73.8457C95.5755 73.8893 95.5259 73.9335 95.477 73.9783C95.4279 74.0232 95.3796 74.0687 95.3318 74.1149C95.284 74.1611 95.2369 74.2079 95.1904 74.2554C95.1439 74.3029 95.0981 74.351 95.0529 74.3997C95.0077 74.4483 94.9632 74.4977 94.9194 74.5476C94.8755 74.5975 94.8323 74.648 94.7898 74.6991C94.7473 74.7502 94.7056 74.8018 94.6645 74.8541C94.6234 74.9062 94.583 74.959 94.5433 75.0123C94.5037 75.0656 94.4647 75.1195 94.4265 75.1738C94.3883 75.2282 94.3509 75.283 94.3142 75.3384C94.2775 75.3937 94.2415 75.4496 94.2063 75.506C94.1711 75.5624 94.1366 75.6192 94.103 75.6764C94.0693 75.7337 94.0364 75.7915 94.0043 75.8496C93.9722 75.9078 93.9409 75.9664 93.9104 76.0255C93.8799 76.0844 93.8502 76.1439 93.8213 76.2037C93.7924 76.2635 93.7644 76.3237 93.7371 76.3843C93.7098 76.4449 93.6833 76.5058 93.6577 76.5671C93.6321 76.6284 93.6073 76.69 93.5833 76.7519C93.5593 76.814 93.5363 76.8763 93.514 76.9388C93.4917 77.0015 93.4703 77.0644 93.4498 77.1275C93.4292 77.1907 93.4095 77.2542 93.3907 77.3178C93.3718 77.3815 93.3538 77.4455 93.3367 77.5098C93.3196 77.5739 93.3034 77.6383 93.288 77.703C93.2726 77.7676 93.2581 77.8325 93.2445 77.8975C93.186 78.1673 93.1494 78.4428 93.113 78.7165C93.1116 78.727 93.1102 78.7375 93.1088 78.748C93.0807 79.1602 93.0686 79.5494 93.0994 79.9625C93.4527 82.1185 94.2642 83.9329 96.0754 85.2494C96.1734 85.3204 96.273 85.3889 96.3742 85.4549C96.4756 85.5209 96.5785 85.5844 96.683 85.6454C96.7874 85.7062 96.8934 85.7645 97.0007 85.8202C97.108 85.8759 97.2167 85.9289 97.3267 85.9792C97.4366 86.0295 97.5478 86.077 97.6601 86.1217C97.7725 86.1665 97.8859 86.2085 98.0003 86.2476C98.1147 86.2868 98.2301 86.3231 98.3463 86.3565C98.4625 86.39 98.5795 86.4205 98.6971 86.4482C98.8149 86.4758 98.9333 86.5005 99.0523 86.5223C99.1712 86.5441 99.2906 86.5629 99.4106 86.5788C99.5304 86.5946 99.6506 86.6074 99.7711 86.6173C99.8917 86.6273 100.012 86.6342 100.133 86.6381C100.254 86.642 100.375 86.6429 100.496 86.6409C100.617 86.6388 100.738 86.6337 100.858 86.6257C100.979 86.6176 101.099 86.6065 101.219 86.5924C101.34 86.5784 101.459 86.5614 101.578 86.5415C101.697 86.5214 101.815 86.4983 101.933 86.4724C102.05 86.4464 102.167 86.4176 102.283 86.3859C102.399 86.3542 102.514 86.3196 102.629 86.2822C102.743 86.2448 102.857 86.2045 102.969 86.1615C103.081 86.1185 103.192 86.0727 103.302 86.0241C103.413 85.9755 103.522 85.9243 103.629 85.8704C103.737 85.8165 103.843 85.7599 103.948 85.7008C104.052 85.6415 104.156 85.5798 104.257 85.5155C104.359 85.4512 104.459 85.3844 104.558 85.3151C104.656 85.2458 104.753 85.1742 104.848 85.1002C104.943 85.0261 105.035 84.9498 105.127 84.8712C105.218 84.7925 105.307 84.7116 105.394 84.6286C105.481 84.5455 105.566 84.4604 105.649 84.3732C105.732 84.2859 105.813 84.1967 105.891 84.1054C105.97 84.0141 106.046 83.9209 106.12 83.8259C106.193 83.7309 106.264 83.6342 106.334 83.5356C106.427 83.4043 106.515 83.27 106.599 83.1327C106.682 82.9953 106.761 82.8552 106.835 82.7125C106.909 82.5696 106.978 82.4244 107.041 82.2769C107.106 82.1293 107.164 81.9797 107.218 81.828C107.271 81.6764 107.319 81.523 107.362 81.368C107.405 81.2131 107.442 81.0569 107.474 80.8993C107.506 80.7418 107.532 80.5833 107.553 80.4239C107.575 80.2644 107.59 80.1045 107.6 79.944L106.421 79.7485C106.26 81.0323 105.915 82.1356 105.091 83.1569C105.029 83.2353 104.964 83.3121 104.897 83.3873C104.831 83.4624 104.762 83.5359 104.692 83.6076C104.622 83.6793 104.55 83.7492 104.476 83.8173C104.403 83.8854 104.327 83.9517 104.249 84.016C104.172 84.0802 104.094 84.1425 104.014 84.2029C103.933 84.2632 103.852 84.3216 103.769 84.3778C103.685 84.4341 103.601 84.4882 103.515 84.5401C103.429 84.5921 103.342 84.6419 103.254 84.6895C103.165 84.7372 103.076 84.7825 102.985 84.8255C102.894 84.8686 102.803 84.9095 102.71 84.948C102.617 84.9865 102.523 85.0226 102.429 85.0564C102.334 85.0901 102.239 85.1215 102.143 85.1505C102.047 85.1795 101.95 85.206 101.853 85.2301C101.755 85.2542 101.657 85.2758 101.559 85.295C101.46 85.3142 101.361 85.3309 101.262 85.3451C101.162 85.3593 101.063 85.371 100.963 85.3802C100.862 85.3903 100.762 85.3979 100.661 85.4029C100.56 85.4081 100.459 85.4107 100.358 85.4107C100.257 85.4107 100.156 85.4083 100.056 85.4033C99.9548 85.3983 99.8542 85.3908 99.7538 85.3809C99.6534 85.3709 99.5532 85.3584 99.4534 85.3435C99.3536 85.3285 99.2542 85.311 99.1553 85.2911C99.0564 85.2712 98.958 85.2489 98.8602 85.224C98.7624 85.1992 98.6652 85.172 98.5687 85.1424C98.4722 85.1127 98.3766 85.0806 98.2818 85.0461C98.1868 85.0117 98.0929 84.975 97.9999 84.936C97.9069 84.8968 97.8148 84.8554 97.7238 84.8117C97.6328 84.7681 97.543 84.7222 97.4543 84.674C97.3657 84.6258 97.2782 84.5755 97.192 84.523C97.1058 84.4705 97.021 84.4159 96.9376 84.3591C96.854 84.3024 96.7721 84.2436 96.6916 84.1828C96.611 84.122 96.5321 84.0592 96.4546 83.9944C95.1758 82.9183 94.4697 81.4086 94.339 79.7566C94.3398 79.4615 94.3505 79.1654 94.3612 78.8698C94.3659 78.7379 94.3707 78.6062 94.3745 78.4747C94.55 77.5601 94.8546 76.7251 95.3795 75.9507C96.0584 74.9492 97.2236 73.8949 98.4445 73.6649Z" fill="#027D3A"/>
<path d="M16.583 69.3903C16.738 69.744 16.3244 70.9815 16.2416 71.4477C15.6665 74.6853 16.0392 78.5902 17.9806 81.3469C18.7176 82.3932 19.849 83.3333 21.1484 83.5269C22.537 83.7338 23.5738 83.0341 24.6179 82.237C24.1982 83.27 23.6843 84.0985 22.958 84.9454C22.2427 85.6511 21.4167 86.2303 20.3957 86.3732C19.3999 86.5127 18.4393 86.1924 17.6482 85.5923C15.6023 84.0408 14.7276 81.2813 14.4084 78.8424C13.9864 75.6192 14.5776 72.0129 16.583 69.3903Z" fill="#0B7FC3"/>
<path d="M35.2472 74.3553C35.3591 74.4218 35.331 74.3971 35.4361 74.4983C36.3902 75.4164 36.9839 77.3302 36.9553 78.6227C36.9335 79.6063 36.5998 80.5367 35.8606 81.2076C34.7439 82.2213 33.041 82.5306 31.5795 82.4554C27.8659 82.2642 24.3147 80.3081 21.8582 77.5847C21.0138 76.6273 20.4252 75.6905 20.0135 74.4837C20.6912 75.2176 21.4203 75.8963 22.2006 76.5199C24.6604 78.4624 28.1899 79.8892 31.3703 79.5053C32.6019 79.3567 33.8764 78.9012 34.6495 77.8778C35.4545 76.812 35.4147 75.6047 35.2472 74.3553Z" fill="#02A147"/>
<path d="M17.1206 63.563C17.8633 63.4443 18.7232 63.486 19.4606 63.6321L19.4288 63.6464L19.4061 63.7315C18.4753 63.9176 17.4667 64.276 16.6019 64.6615C13.7264 65.9433 10.7276 68.2436 9.58219 71.286C9.15986 72.4078 9.02216 73.7122 9.56089 74.8206C10.1436 76.0195 11.2321 76.5364 12.4191 76.9632L11.4744 77.0652C10.0026 77.0969 8.47469 76.9263 7.26514 76.0087C6.49604 75.4254 6.05368 74.6257 5.93526 73.6709C5.70755 71.8359 6.65947 70.0948 7.77001 68.7076C9.99222 65.9316 13.591 63.9559 17.1206 63.563Z" fill="#E9304B"/>
<path d="M77.3392 79.9424C75.4532 79.9977 73.7718 79.6199 72.2577 78.4444C72.1633 78.3717 72.0706 78.2968 71.9799 78.2195C71.8891 78.1423 71.8003 78.0628 71.7134 77.9811C71.6266 77.8995 71.5418 77.8158 71.459 77.73C71.3764 77.6442 71.2958 77.5564 71.2174 77.4665C71.139 77.3768 71.0629 77.2851 70.989 77.1915C70.9152 77.098 70.8437 77.0027 70.7745 76.9056C70.7053 76.8086 70.6385 76.7098 70.5743 76.6094C70.51 76.5091 70.4482 76.4072 70.3889 76.3037C70.3297 76.2004 70.273 76.0956 70.2188 75.9894C70.1647 75.8832 70.1133 75.7757 70.0645 75.6669C70.0157 75.5582 69.9696 75.4483 69.9262 75.3372C69.8828 75.2263 69.8422 75.1143 69.8043 75.0013C69.7665 74.8882 69.7314 74.7744 69.6992 74.6596C69.6669 74.5449 69.6375 74.4294 69.611 74.3132C69.5844 74.197 69.5608 74.0802 69.54 73.9629C69.5192 73.8455 69.5013 73.7276 69.4863 73.6094C69.2544 71.6643 69.7668 69.7127 70.9885 68.1736C71.0632 68.0794 71.1403 67.9872 71.2197 67.897C71.2989 67.8066 71.3804 67.7183 71.4641 67.632C71.5478 67.5457 71.6335 67.4614 71.7212 67.3793C71.8091 67.2972 71.8989 67.2173 71.9907 67.1397C72.0824 67.0621 72.176 66.9867 72.2715 66.9136C72.3669 66.8406 72.4641 66.7699 72.5631 66.7016C72.662 66.6334 72.7625 66.5676 72.8647 66.5043C72.9669 66.441 73.0706 66.3802 73.1757 66.322C73.281 66.2639 73.3875 66.2083 73.4954 66.1553C73.6033 66.1024 73.7125 66.0521 73.8229 66.0045C73.9333 65.9569 74.0447 65.9121 74.1573 65.87C74.27 65.8279 74.3836 65.7887 74.4981 65.7522C74.6127 65.7157 74.728 65.6821 74.8441 65.6513C74.9604 65.6204 75.0773 65.5925 75.1948 65.5675C75.3124 65.5425 75.4305 65.5203 75.5492 65.5011C75.6679 65.4819 75.7869 65.4656 75.9064 65.4522C76.0243 65.4392 76.1425 65.4291 76.261 65.4219C76.3794 65.4148 76.498 65.4104 76.6166 65.409C76.7353 65.4077 76.8539 65.4092 76.9725 65.4136C77.0911 65.418 77.2095 65.4254 77.3278 65.4356C77.446 65.4459 77.5638 65.459 77.6814 65.4751C77.799 65.4911 77.9161 65.51 78.0329 65.5319C78.1495 65.5537 78.2655 65.5783 78.3809 65.6058C78.4963 65.6332 78.6111 65.6636 78.725 65.6967C78.8389 65.7298 78.952 65.7657 79.0643 65.8045C79.1764 65.8431 79.2876 65.8845 79.3977 65.9286C79.5079 65.9728 79.6169 66.0196 79.7248 66.0691C79.8327 66.1185 79.9392 66.1706 80.0445 66.2254C80.1498 66.2801 80.2537 66.3373 80.3562 66.3972C80.4587 66.457 80.5596 66.5193 80.6591 66.5841C80.7585 66.6489 80.8563 66.7161 80.9524 66.7857C81.0485 66.8552 81.1429 66.9271 81.2355 67.0013C82.8512 68.2944 83.7347 70.0871 83.9623 72.1246C83.9598 72.528 83.9688 72.9364 83.9531 73.3393C83.6542 75.4261 82.7927 77.1995 81.084 78.4896C80.3035 79.0789 79.4676 79.4296 78.5437 79.7308C78.5472 79.3091 78.5702 78.8867 78.5864 78.4652C78.7165 77.9511 78.8608 77.4381 79.071 76.9501C79.783 75.2974 81.0616 74.2852 82.696 73.6227C82.7541 73.2115 82.7585 72.8038 82.7663 72.3894C82.545 70.6044 81.9091 69.0654 80.4611 67.9256C80.3819 67.8638 80.3012 67.804 80.2191 67.7462C80.1369 67.6884 80.0533 67.6326 79.9684 67.5788C79.8835 67.5251 79.7974 67.4734 79.71 67.4239C79.6226 67.3744 79.5341 67.327 79.4444 67.2818C79.3546 67.2366 79.2638 67.1936 79.172 67.1528C79.0802 67.1121 78.9874 67.0736 78.8937 67.0373C78.8 67.0011 78.7055 66.9671 78.6101 66.9355C78.5148 66.9039 78.4187 66.8747 78.3219 66.8478C78.2252 66.8208 78.1277 66.7963 78.0297 66.7741C77.9317 66.752 77.8333 66.7322 77.7343 66.7148C77.6353 66.6975 77.536 66.6825 77.4363 66.67C77.3367 66.6575 77.2368 66.6475 77.1366 66.6399C77.0363 66.6322 76.936 66.6271 76.8356 66.6244C76.7352 66.6217 76.6348 66.6214 76.5343 66.6236C76.4338 66.6258 76.3335 66.6304 76.2334 66.6375C76.1331 66.6446 76.0331 66.6541 75.9334 66.6661C75.8358 66.6781 75.7386 66.6925 75.6418 66.7093C75.5449 66.7261 75.4485 66.7452 75.3526 66.7668C75.2566 66.7883 75.1613 66.8122 75.0667 66.8385C74.9719 66.8647 74.8779 66.8933 74.7846 66.9242C74.6912 66.9552 74.5987 66.9884 74.507 67.0238C74.4153 67.0593 74.3246 67.097 74.2348 67.137C74.145 67.1769 74.0562 67.219 73.9684 67.2634C73.8807 67.3078 73.7941 67.3543 73.7086 67.4029C73.6232 67.4515 73.539 67.5021 73.4561 67.5549C73.3732 67.6077 73.2916 67.6625 73.2114 67.7193C73.1311 67.7761 73.0522 67.8349 72.9749 67.8956C72.8977 67.9563 72.8219 68.0188 72.7476 68.0832C72.6734 68.1477 72.6008 68.2139 72.5298 68.2819C72.4588 68.3499 72.3896 68.4197 72.3221 68.4912C72.2545 68.5626 72.1888 68.6357 72.1249 68.7103C72.061 68.785 71.999 68.8613 71.9388 68.939C71.8766 69.0184 71.8164 69.0993 71.7584 69.1817C71.7002 69.264 71.6441 69.3478 71.5901 69.433C71.5362 69.5181 71.4844 69.6046 71.4348 69.6924C71.3852 69.7801 71.3378 69.8691 71.2926 69.9592C71.2473 70.0493 71.2044 70.1406 71.1639 70.2328C71.1232 70.3251 71.0849 70.4183 71.0489 70.5125C71.013 70.6066 70.9793 70.7017 70.9481 70.7976C70.9169 70.8935 70.8881 70.99 70.8616 71.0873C70.8352 71.1846 70.8113 71.2825 70.7898 71.381C70.7683 71.4795 70.7492 71.5785 70.7327 71.6779C70.7161 71.7774 70.702 71.8772 70.6904 71.9774C70.6789 72.0775 70.6698 72.1779 70.6632 72.2785C70.6567 72.3791 70.6526 72.4798 70.651 72.5806C70.6495 72.6815 70.6505 72.7823 70.6541 72.883C70.6575 72.9838 70.6635 73.0844 70.6721 73.1848C70.6806 73.2853 70.6916 73.3855 70.7052 73.4854C70.7174 73.5841 70.7322 73.6825 70.7494 73.7804C70.7666 73.8784 70.7862 73.9758 70.8082 74.0728C70.8303 74.1698 70.8547 74.2662 70.8815 74.362C70.9084 74.4578 70.9376 74.5528 70.9693 74.647C71.0009 74.7413 71.0348 74.8348 71.0709 74.9275C71.1072 75.0201 71.1457 75.1118 71.1866 75.2025C71.2274 75.2932 71.2705 75.3828 71.3158 75.4713C71.3611 75.5598 71.4085 75.6472 71.4581 75.7333C71.5079 75.8195 71.5596 75.9044 71.6135 75.988C71.6674 76.0716 71.7233 76.1538 71.7813 76.2346C71.8393 76.3155 71.8993 76.3948 71.9612 76.4726C72.0231 76.5504 72.0869 76.6266 72.1527 76.7012C72.2185 76.7759 72.286 76.8488 72.3554 76.9202C72.4248 76.9914 72.4959 77.0609 72.5687 77.1286C72.6415 77.1963 72.716 77.2622 72.7922 77.3262C72.8684 77.3902 72.946 77.4523 73.0252 77.5124C74.3369 78.5069 75.735 78.7508 77.3445 78.7447C77.3216 79.1488 77.3104 79.5375 77.3392 79.9424Z" fill="#0B7FC3"/>
<path d="M82.696 73.6227C82.3093 75.3823 81.4968 76.8058 79.9491 77.793C79.5183 78.0677 79.0591 78.275 78.5864 78.4652C78.7165 77.9511 78.8608 77.4381 79.071 76.9501C79.783 75.2974 81.0616 74.2852 82.696 73.6227Z" fill="#FEFEFE"/>
<path fill-rule="evenodd" clip-rule="evenodd" d="M85.212 72.1227C85.2051 72.1217 85.1982 72.1206 85.1913 72.1196C85.1535 72.1189 85.1158 72.1182 85.0781 72.1174C84.7059 72.1101 84.3345 72.1028 83.9623 72.1246C83.9615 72.2529 83.9619 72.3817 83.9623 72.5107C83.963 72.7872 83.9638 73.0646 83.9531 73.3393L85.1784 73.3474C85.6164 75.5898 86.4291 77.413 88.3855 78.7347C89.0933 79.2129 89.8742 79.5391 90.6903 79.7825C91.0679 79.8504 91.442 79.9139 91.8238 79.9551C91.8988 79.9567 91.9739 79.9584 92.0489 79.9602C92.3991 79.9684 92.7495 79.9767 93.0994 79.9625C93.0686 79.5494 93.0807 79.1602 93.1088 78.748L91.8388 78.7466C91.7881 77.7695 91.4447 76.7294 90.9755 75.8746C89.9846 74.0695 88.3412 72.8997 86.3865 72.3372C85.9982 72.2383 85.6076 72.1808 85.212 72.1227ZM90.1583 76.995C89.445 75.294 88.1184 74.2708 86.4487 73.6001C86.8498 75.378 87.6573 76.8265 89.2244 77.8242C89.6612 78.1021 90.1182 78.3022 90.6014 78.4837C90.4914 77.9762 90.3596 77.475 90.1583 76.995Z" fill="#027D3A"/>
<path d="M85.1784 73.3474C85.6061 73.4167 86.0327 73.4761 86.4487 73.6001C86.8498 75.378 87.6573 76.8265 89.2244 77.8242C89.6612 78.1021 90.1182 78.3022 90.6014 78.4837C91.0133 78.5859 91.4195 78.678 91.8388 78.7466L93.1088 78.748C93.0807 79.1602 93.0686 79.5494 93.0994 79.9625C92.6746 79.9797 92.2489 79.9639 91.8238 79.9551C91.442 79.9139 91.0679 79.8504 90.6903 79.7825C89.8742 79.5391 89.0933 79.2129 88.3855 78.7347C86.4291 77.413 85.6164 75.5898 85.1784 73.3474Z" fill="#292626"/>
<path d="M92.841 35.8465C96.9934 32.7934 104.367 28.5929 109.633 29.4081C111.173 29.6464 112.537 30.2396 113.726 31.2524C112.733 31.084 111.755 30.9593 110.747 30.9861C105.179 31.1347 99.2944 34.1688 94.7071 37.1374C96.3924 38.2997 98.0859 39.4497 99.7878 40.5875C100.627 39.8327 101.852 38.6288 103.069 38.653C103.344 38.6586 103.57 38.7369 103.759 38.9452C103.825 39.1521 103.837 39.2088 103.732 39.4107C103.626 39.614 103.442 39.789 103.221 39.8559C103.08 39.8987 102.917 39.8613 102.794 39.7834C102.603 39.6622 102.475 39.4861 102.346 39.3044C101.653 39.7106 101.046 40.4346 100.411 40.9444C101.574 41.692 104.59 43.6711 105.908 43.337C106.22 43.258 106.528 43.1399 106.832 43.0355C106.878 43.2488 106.841 43.4158 106.718 43.6C106.443 44.0118 105.994 44.2111 105.519 44.2835C103.358 44.6115 100.931 43.2608 99.0858 42.2583C98.5526 42.7859 97.9227 43.5258 97.2469 43.8513C96.9611 44.09 96.286 44.5023 95.9 44.4559C95.7339 44.436 95.6078 44.3414 95.5256 44.1967C95.4328 44.0331 95.4245 43.8154 95.455 43.6333C95.4972 43.3827 95.6053 43.2063 95.8074 43.0533C95.9523 43.0308 95.9946 43.0037 96.136 43.0625C96.4712 43.2024 96.6141 43.4631 96.7267 43.7916C96.7367 43.8207 96.7458 43.8503 96.7555 43.8797C97.2748 43.185 97.8518 42.5446 98.4274 41.897C96.4778 40.8893 94.6319 39.6356 92.8183 38.4036C90.9821 39.6357 89.1391 40.8486 87.1957 41.9083C87.5957 42.3463 88.4907 43.5368 88.8944 43.7708C88.9058 43.7426 88.9169 43.7142 88.9286 43.6861C89.0416 43.4161 89.1358 43.1988 89.4444 43.1112C89.5982 43.0675 89.7166 43.1021 89.8657 43.139C90.0315 43.2593 90.158 43.3484 90.2069 43.559C90.2548 43.7658 90.233 43.9946 90.1046 44.1708C89.986 44.3337 89.8178 44.4007 89.6225 44.4075C88.6606 44.4415 87.1726 42.8999 86.5724 42.2667C84.9254 43.0911 81.8404 44.8505 79.9864 44.2303C79.6013 44.1014 78.9829 43.8609 78.753 43.4988C78.7108 43.4323 78.7029 43.3861 78.6835 43.3151C78.7481 43.185 78.7416 43.163 78.8691 43.0798C79.3793 43.202 79.9608 43.3938 80.49 43.3467C81.6341 43.2445 83.9839 41.7271 85.0251 41.0885C85.0891 41.0494 85.1527 41.0096 85.2159 40.969C84.5743 40.3982 83.9169 39.8373 83.2905 39.2503C83.2743 39.2769 83.2584 39.3038 83.2418 39.3303C83.076 39.5962 82.946 39.8026 82.614 39.8637C82.4139 39.9006 82.2548 39.849 82.1138 39.7025C81.9488 39.5314 81.8482 39.2342 81.9088 38.9985C81.9567 38.8126 82.0657 38.6724 82.2437 38.5958C82.7189 38.3912 83.5169 38.8499 83.9271 39.0941C84.6199 39.5063 85.2459 40.044 85.8499 40.5747C87.5582 39.4538 89.247 38.3042 90.9163 37.126C85.6068 33.788 78.3735 29.9239 71.9141 31.2684C73.843 29.6693 76.0837 29.1109 78.5671 29.3492C83.6767 29.8393 88.6693 33.0817 92.841 35.8465Z" fill="#027D3A"/>
<path d="M21.4469 35.842C25.0568 33.1709 31.0408 29.844 35.5401 29.3638C38.0765 29.0929 40.3382 29.6417 42.3306 31.2467C35.7125 30.1175 28.7517 33.6517 23.3219 37.1365C25.0344 38.2489 26.7009 39.4471 28.3998 40.5831L28.6934 40.3196C29.4305 39.6654 30.7182 38.5272 31.7751 38.635C32.0289 38.6608 32.1857 38.7572 32.3391 38.9622C32.3807 39.1056 32.4021 39.1934 32.3557 39.3427C32.2655 39.632 32.0636 39.7668 31.8181 39.9081C31.2588 39.9408 31.3434 39.5421 30.9559 39.3321C30.2633 39.7647 29.6441 40.4179 29.0332 40.9612C30.3377 41.7703 32.566 43.2943 34.0773 43.3602C34.3893 43.3739 35.358 43.0439 35.4596 43.0828C35.4733 43.2523 35.4376 43.3785 35.364 43.5295C35.1969 43.8723 34.8708 44.097 34.5121 44.2046C32.5224 44.8021 30.0011 43.4475 28.2754 42.5606L27.7017 42.2503C27.0876 42.8722 26.1001 43.9684 25.2448 44.2361C24.8446 44.3614 24.5268 44.3806 24.1504 44.1899C24.066 44.0748 24.0013 44.0292 23.9934 43.8797C23.9827 43.6745 24.0433 43.434 24.1981 43.2877C24.3476 43.1462 24.6074 43.0423 24.8116 43.0473C25.0893 43.0542 25.1218 43.4951 25.2742 43.6893C25.6998 43.6458 26.7002 42.2905 27.0492 41.9078C25.1071 40.8662 23.2663 39.6379 21.4392 38.4096C19.5973 39.6367 17.749 40.8278 15.8167 41.9093C16.3175 42.4368 16.8904 43.4205 17.5135 43.7507C17.5469 43.6881 17.5822 43.6264 17.6123 43.5621C17.7007 43.3728 17.7416 43.2267 17.9475 43.1334C18.1108 43.0595 18.3116 43.0756 18.4705 43.1538C18.6475 43.2411 18.7894 43.3985 18.8322 43.5937C18.8737 43.7821 18.818 44.015 18.6984 44.1664C18.5686 44.3305 18.3948 44.397 18.1915 44.3984C17.2114 44.4047 15.8113 42.8939 15.1818 42.264C13.3995 43.1718 10.6089 44.8463 8.5495 44.2206C8.09763 44.0834 7.52315 43.7871 7.3028 43.3515C7.34311 43.1753 7.34147 43.1855 7.49158 43.0832L7.72918 43.1434C8.14568 43.2478 8.70798 43.4301 9.13298 43.3668C10.3119 43.191 12.7454 41.6248 13.831 40.9733C13.2792 40.4716 12.6653 39.7913 12.0355 39.4062C11.777 39.2481 11.5616 39.8388 11.1342 39.9391C10.8988 39.8718 10.6731 39.7312 10.5677 39.4976C10.4507 39.2381 10.5657 38.9892 10.6831 38.7597C10.8383 38.6463 10.9005 38.5866 11.0983 38.5708C12.1597 38.4866 13.7426 39.9423 14.4835 40.5875C16.0851 39.3633 17.8688 38.2782 19.531 37.1281C14.2716 33.7575 6.89289 29.9912 0.5 31.2732C1.92852 30.0739 3.45289 29.5156 5.29866 29.3326C10.5081 28.7483 17.257 33.0812 21.4469 35.842Z" fill="#027D3A"/>
<path fill-rule="evenodd" clip-rule="evenodd" d="M100.97 72.1209C101.259 70.008 102.102 68.2011 103.83 66.8842C105.377 65.7057 107.419 65.2101 109.336 65.4898C109.454 65.5074 109.571 65.528 109.687 65.5515C109.804 65.575 109.92 65.6014 110.036 65.6306C110.151 65.6599 110.265 65.692 110.38 65.727C110.494 65.7619 110.607 65.7996 110.718 65.8402C110.83 65.8807 110.94 65.924 111.05 65.9701C111.16 66.016 111.269 66.0648 111.376 66.1162C111.483 66.1676 111.59 66.2217 111.694 66.2784C111.799 66.335 111.902 66.3943 112.004 66.4562C112.105 66.5179 112.205 66.5822 112.304 66.649C112.403 66.7158 112.5 66.7849 112.595 66.8564C112.69 66.928 112.783 67.0019 112.875 67.0782C112.966 67.1543 113.055 67.2327 113.142 67.3134C113.23 67.394 113.316 67.4768 113.4 67.5616C113.483 67.6466 113.564 67.7335 113.643 67.8224C113.723 67.9113 113.799 68.002 113.874 68.0948C113.948 68.1875 114.021 68.282 114.091 68.3784C114.163 68.476 114.231 68.5754 114.297 68.6765C114.364 68.7775 114.428 68.8803 114.49 68.9846C114.552 69.0889 114.61 69.1946 114.666 69.3019C114.723 69.4091 114.777 69.5177 114.827 69.6276C114.878 69.7375 114.926 69.8486 114.972 69.9608C115.017 70.0732 115.059 70.1865 115.099 70.3009C115.138 70.4153 115.175 70.5306 115.209 70.6469C115.243 70.7631 115.274 70.8801 115.301 70.9979C115.329 71.1157 115.355 71.2341 115.378 71.3531C115.4 71.4722 115.419 71.5917 115.435 71.7116C115.451 71.8317 115.464 71.952 115.474 72.0726C115.484 72.1932 115.491 72.314 115.495 72.4351C115.5 72.556 115.501 72.6771 115.499 72.7982C115.497 72.9193 115.492 73.0402 115.484 73.1609C115.476 73.2817 115.465 73.4023 115.451 73.5225C115.438 73.6428 115.421 73.7627 115.4 73.8821C115.382 73.9987 115.36 74.1147 115.334 74.2303C115.31 74.3457 115.282 74.4606 115.252 74.5748C115.222 74.6889 115.189 74.8023 115.153 74.9148C115.118 75.0274 115.079 75.139 115.038 75.2496C114.996 75.3603 114.952 75.4699 114.906 75.5784C114.859 75.6869 114.81 75.7941 114.758 75.9002C114.706 76.0064 114.651 76.1111 114.594 76.2145C114.537 76.318 114.478 76.4199 114.417 76.5204C114.354 76.6209 114.289 76.7199 114.223 76.8172C114.156 76.9146 114.086 77.0103 114.015 77.1043C113.944 77.1983 113.87 77.2905 113.794 77.3808C113.718 77.4712 113.64 77.5596 113.559 77.6462C113.479 77.7327 113.397 77.8171 113.312 77.8996C113.228 77.9821 113.141 78.0625 113.052 78.1408C112.964 78.2191 112.873 78.2951 112.781 78.369C112.689 78.4429 112.595 78.5144 112.499 78.5837C110.993 79.6668 109.419 79.9604 107.6 79.944L106.421 79.7485C105.56 79.4809 104.768 79.149 104.029 78.6251C102.171 77.308 101.338 75.5151 100.965 73.3252C100.669 73.2905 100.358 73.2973 100.052 73.3041C99.9344 73.3067 99.8172 73.3092 99.7021 73.3094C99.7025 72.9065 99.7004 72.5035 99.6959 72.1006C99.776 72.0998 99.8563 72.0984 99.9365 72.0971C100.282 72.0912 100.628 72.0853 100.97 72.1209ZM102.206 73.5755C103.842 74.1906 105.128 75.2273 105.868 76.8388C106.111 77.3679 106.25 77.8994 106.378 78.4646C105.963 78.3239 105.566 78.1427 105.188 77.9211C103.449 76.9131 102.714 75.4534 102.206 73.5755ZM104.608 67.8341C103.093 68.9569 102.44 70.4907 102.164 72.3053C104.164 72.9341 105.811 74.0642 106.803 75.9576C107.244 76.7979 107.546 77.7787 107.613 78.7268C109.043 78.8393 110.487 78.5021 111.669 77.6826C111.752 77.6251 111.833 77.5656 111.914 77.5039C111.994 77.4424 112.073 77.3789 112.149 77.3134C112.226 77.2479 112.301 77.1805 112.374 77.1113C112.447 77.042 112.519 76.971 112.589 76.8983C112.624 76.8619 112.659 76.8251 112.693 76.7879C112.727 76.7506 112.761 76.7128 112.794 76.6746C112.86 76.5985 112.925 76.5207 112.986 76.4412C113.049 76.3617 113.109 76.2808 113.168 76.1984C113.226 76.116 113.282 76.0321 113.336 75.9468C113.39 75.8616 113.442 75.7751 113.492 75.6872C113.542 75.5994 113.59 75.5104 113.635 75.4202C113.681 75.3299 113.724 75.2386 113.765 75.1463C113.805 75.0539 113.844 74.9606 113.88 74.8662C113.917 74.772 113.95 74.6769 113.982 74.5808C114.013 74.4849 114.042 74.3882 114.068 74.2907C114.095 74.1934 114.119 74.0954 114.141 73.9967C114.155 73.935 114.167 73.8731 114.179 73.811C114.185 73.7739 114.192 73.7367 114.198 73.6994C114.215 73.6006 114.23 73.5014 114.241 73.4018C114.253 73.3023 114.263 73.2025 114.269 73.1025C114.276 73.0025 114.28 72.9024 114.282 72.8023C114.285 72.702 114.284 72.6018 114.281 72.5016C114.278 72.4015 114.273 72.3014 114.264 72.2014C114.257 72.1015 114.247 72.0018 114.234 71.9024C114.221 71.803 114.206 71.704 114.188 71.6054C114.171 71.5067 114.15 71.4085 114.127 71.3109C114.105 71.2132 114.08 71.1161 114.053 71.0196C114.026 70.9232 113.996 70.8275 113.964 70.7324C113.932 70.6374 113.897 70.5433 113.861 70.4501C113.825 70.3568 113.786 70.2644 113.744 70.1731C113.703 70.0816 113.66 69.9912 113.614 69.902C113.568 69.8128 113.521 69.7247 113.471 69.6378C113.421 69.5509 113.369 69.4653 113.315 69.381C113.261 69.2967 113.204 69.2137 113.146 69.1321C113.089 69.0519 113.029 68.9732 112.967 68.8958C112.905 68.8186 112.841 68.7429 112.776 68.6687C112.711 68.5945 112.644 68.522 112.574 68.4512C112.505 68.3803 112.434 68.3112 112.363 68.2439C112.29 68.1765 112.215 68.1109 112.139 68.0472C112.064 67.9835 111.987 67.9217 111.909 67.8617C111.83 67.8019 111.75 67.744 111.668 67.688C111.587 67.632 111.504 67.5781 111.419 67.5262C111.335 67.4743 111.249 67.4246 111.163 67.3769C111.076 67.3292 110.988 67.2837 110.899 67.2403C110.811 67.197 110.721 67.1558 110.629 67.1168C110.539 67.078 110.447 67.0413 110.354 67.0069C110.261 66.9725 110.168 66.9404 110.074 66.9107C109.979 66.8809 109.884 66.8534 109.789 66.8283C109.693 66.8032 109.597 66.7804 109.5 66.7601C109.403 66.7397 109.306 66.7217 109.208 66.7062C109.108 66.6896 109.008 66.6756 108.906 66.6641C108.806 66.6526 108.705 66.6436 108.603 66.6372C108.503 66.6308 108.402 66.6269 108.3 66.6257C108.199 66.6244 108.097 66.6257 107.996 66.6296C107.895 66.6335 107.793 66.6399 107.692 66.6489C107.591 66.6579 107.49 66.6694 107.39 66.6835C107.289 66.6976 107.189 66.7142 107.089 66.7333C106.99 66.7525 106.891 66.7742 106.793 66.7983C106.694 66.8224 106.596 66.8491 106.499 66.8782C106.401 66.9073 106.305 66.9388 106.21 66.9728C106.114 67.0068 106.019 67.0432 105.925 67.082C105.832 67.1208 105.739 67.1619 105.648 67.2053C105.556 67.2488 105.465 67.2945 105.377 67.3425C105.287 67.3906 105.199 67.4409 105.112 67.4934C105.025 67.5459 104.94 67.6005 104.855 67.6573C104.772 67.7141 104.689 67.7731 104.608 67.8341Z" fill="#027D3A"/>
<path d="M101.358 72.176C101.228 72.1582 101.098 72.1405 100.97 72.1209C100.628 72.0853 100.282 72.0912 99.9365 72.0971C99.8563 72.0984 99.776 72.0998 99.6959 72.1006C99.7004 72.5035 99.7025 72.9065 99.7021 73.3094C99.8172 73.3092 99.9344 73.3067 100.052 73.3041C100.358 73.2973 100.669 73.2905 100.965 73.3252C101.405 73.3718 101.786 73.4315 102.206 73.5755C103.842 74.1906 105.128 75.2273 105.868 76.8388C106.111 77.3679 106.25 77.8994 106.378 78.4646L107.613 78.7268C107.546 77.7787 107.244 76.7979 106.803 75.9576C105.811 74.0642 104.164 72.9341 102.164 72.3053C101.901 72.2504 101.629 72.2131 101.358 72.176Z" fill="#027D3A"/>
<path d="M92.7862 0.598783C93.5484 1.37295 93.8901 2.28481 94.0676 3.33588C95.7229 2.36773 97.0719 2.14674 98.935 2.59493C98.123 2.92204 97.4652 3.24865 96.8063 3.83212C97.3206 3.84556 97.838 3.85507 98.3508 3.89488C102.653 4.22821 106.873 5.92197 109.733 9.22935C106.308 7.48057 102.844 6.70551 98.994 6.91814C100.198 7.37064 101.377 7.83494 102.502 8.46558C106.047 10.4527 108.397 13.3094 109.491 17.2217C106.652 14.1397 103.065 10.6841 98.786 9.9703C99.584 10.7594 100.345 11.5805 101.03 12.4708C103.165 15.2475 104.28 17.9966 103.831 21.512C102.151 18.0225 100.15 14.0586 96.6284 12.1456C98.4153 15.8214 98.5607 19.1287 97.3118 22.9875C97.0934 19.5923 96.3131 15.7629 94.0622 13.1224L94.0658 30.6197C94.5331 31.0073 95.022 31.3664 95.4712 31.776L93.0322 31.7688L90.1108 31.7736L91.5664 30.6376C91.4996 24.8123 91.5609 18.9782 91.5574 13.1523C89.2377 15.7044 88.5605 19.691 88.3498 23.0278C88.3175 22.9483 88.2866 22.8682 88.2571 22.7875C86.9152 19.1871 87.4203 15.585 88.9772 12.1623C85.4905 13.9244 83.5196 18.099 81.8034 21.4202C81.7292 20.9297 81.6661 20.4319 81.6624 19.9352C81.6326 15.9799 84.1982 12.6644 86.8309 9.9736C82.6085 10.6991 78.9394 14.1118 76.158 17.2051C76.3579 16.4423 76.5977 15.6995 76.9178 14.9777C78.804 10.7225 82.4633 8.53329 86.624 6.91281C82.8162 6.66989 79.2146 7.50504 75.836 9.26726L75.9466 9.14833C79.4194 5.43295 83.8107 3.98896 88.8079 3.82553C88.1835 3.25232 87.4988 2.94055 86.7379 2.58567C88.5717 2.12581 89.9116 2.39321 91.5401 3.32409C91.7763 2.22788 92.1172 1.49631 92.7862 0.598783Z" fill="#027D3A"/>
<path d="M21.4091 0.594727C22.1631 1.36205 22.4793 2.29115 22.7125 3.31356C24.3371 2.40285 25.7017 2.10718 27.5196 2.59797C26.7268 2.94081 26.0853 3.24713 25.4346 3.82439L25.6858 3.83111C30.6911 3.98199 34.8879 5.53641 38.3484 9.20374C34.1222 7.378 32.2133 6.76054 27.5519 6.90064C28.7172 7.32576 29.8561 7.7775 30.9477 8.37341C34.6699 10.4053 36.9166 13.1685 38.103 17.2191C35.2386 14.0297 31.711 10.8459 27.4032 9.95585C28.2412 10.7807 29.0184 11.6594 29.7347 12.5918C31.7466 15.265 32.903 18.052 32.4385 21.4204C30.4612 17.917 28.9244 14.1727 25.2073 12.1202C25.3314 12.3509 25.4498 12.5845 25.5624 12.8211C27.0961 16.0483 27.072 19.6846 25.9019 23.0076C25.8176 19.5923 24.8273 15.8138 22.6938 13.121L22.6977 30.6358C23.1646 31.0368 23.6525 31.4017 24.1482 31.7661L18.7359 31.7746L20.1751 30.6339C20.0971 24.8108 20.1748 18.9776 20.1638 13.1533C17.9143 15.6864 17.1252 19.6871 16.9699 22.9903C16.9115 22.8443 16.8549 22.6977 16.8001 22.5504C15.517 19.0953 16.0846 15.4408 17.5869 12.173C14.1132 14.0041 12.0798 18.0567 10.422 21.4637C10.3399 20.9524 10.2779 20.4406 10.2741 19.9219C10.2448 16.0077 12.8222 12.607 15.458 9.9632C11.1641 10.7273 7.60785 14.1136 4.75335 17.2162C4.977 16.4616 5.20814 15.7119 5.52726 14.991C7.38812 10.7873 11.0964 8.50628 15.2239 6.92321C11.3969 6.64161 7.88919 7.55157 4.47556 9.23557L4.65648 9.04335C8.09484 5.41253 12.5044 3.96677 17.421 3.83263C16.7671 3.24332 16.139 2.94131 15.3345 2.59569C17.1681 2.086 18.5017 2.42643 20.1431 3.30291C20.3886 2.21457 20.7372 1.48528 21.4091 0.594727Z" fill="#027D3A"/>
</svg>
