<svg width="140" height="72" viewBox="0 0 140 72" fill="none" xmlns="http://www.w3.org/2000/svg">
<path d="M8.73904 71.4279L0 58.7732L0.234653 57.4341C0.234653 57.4341 0.876984 53.772 4.61009 32.3167C5.61982 26.5144 9.7772 21.5013 15.4373 19.0648C16.4636 13.9498 19.1657 9.37287 23.1832 6.01188C27.452 2.43995 32.8396 0.472656 38.3527 0.472656C42.1996 0.472656 45.8758 1.44208 49.1088 3.29559C52.3797 1.46341 56.0797 0.50347 59.9313 0.50347C63.9939 0.50347 68.0113 1.57481 71.5454 3.60136C72.8704 4.35982 74.1052 5.24156 75.2334 6.23231L75.653 3.84549H107.028L107.597 0.612499H131.223L140 13.2577L139.77 14.5969C139.77 14.5969 136.726 32.2835 135.928 36.8865C134.342 46.0427 127.492 55.827 113.022 55.827H85.9919C85.4657 57.7279 84.539 60.1859 82.9248 62.6035C80.2394 66.6282 75.0131 71.4255 65.3781 71.4255H8.74141L8.73904 71.4279Z" fill="#30CDCC"/>
<path d="M129.487 3.93222H110.38L109.812 7.16522H78.4393L77.2376 13.9938C71.8998 4.01281 58.4132 0.630498 49.084 7.23159C37.7732 -0.995486 20.0771 6.24083 18.4155 21.5051C13.6419 22.9557 8.91334 26.9566 7.87991 32.8894C4.14206 54.3541 3.5021 58.009 3.5021 58.009L10.4777 68.111H65.3746C81.5491 68.111 83.2484 52.8016 83.3054 52.5124H113.018C125.531 52.5124 131.269 44.3305 132.656 36.3238C133.452 31.7208 136.499 14.0365 136.499 14.0365L129.487 3.9346V3.93222Z" fill="#091968"/>
<path d="M113.145 7.22632L109.711 26.7002H106.447L109.303 10.4593H96.8831L94.027 26.7002H90.7655L93.6216 10.4593H81.2017L78.3456 26.7002H75.5937C78.2911 12.6423 64.1052 2.08054 51.7231 9.48277C57.8952 15.5482 58.6892 26.0721 53.963 33.1827L51.1211 31.5449C57.6629 22.0118 51.2823 7.95397 39.7013 7.16233C30.1184 6.04832 21.0666 14.5836 21.5998 24.2208C17.0656 24.5906 12.0502 28.1388 11.1235 33.4553C10.2014 38.7433 7.4354 54.7186 7.4354 54.7186H19.8554L23.5032 33.7539H25.2595C29.8033 39.5444 39.4287 40.938 45.6837 36.8352C39.5188 30.7769 38.7177 20.2673 43.4273 13.1566L46.2005 14.9058C38.9429 26.0768 48.073 40.9547 61.2941 39.0988L60.7465 42.2986H25.2691L23.0789 54.7186H58.3669C65.6624 54.7566 71.9411 48.8499 73.1477 41.9455C73.3111 41.0044 73.4463 39.9877 73.5363 39.1178H107.521C114.8 39.1178 120.611 35.4202 122.131 26.6978C122.979 21.827 125.565 7.22394 125.565 7.22394H113.145V7.22632Z" fill="white"/>
<path d="M60.7416 42.2955L25.2639 42.2978L23.0739 54.7154H58.362" fill="white"/>
</svg>
