<svg width="114" height="88" viewBox="0 0 114 88" fill="none" xmlns="http://www.w3.org/2000/svg">
<path d="M19.6002 76.5795C19.3619 76.3427 19.0745 76.2281 18.7364 76.2251L1.2212 76.2355C0.878666 76.2325 0.594218 76.3546 0.355936 76.5914C0.117654 76.8297 0 77.1201 0 77.4582C0.00297852 77.7977 0.123609 78.0881 0.358913 78.3205C0.600173 78.5617 0.884621 78.6794 1.22864 78.6764L9.57893 78.7002C9.3064 79.1768 9.10386 79.6831 8.97578 80.2178C8.83579 80.7509 8.77175 81.2811 8.77175 81.8098L8.78813 86.2091C8.78813 86.5457 8.90728 86.8346 9.14705 87.0714C9.38384 87.3126 9.67127 87.4243 10.0168 87.4228C10.3519 87.4228 10.6423 87.3067 10.8791 87.0669C11.1159 86.8286 11.2335 86.5382 11.2335 86.1972L11.2186 81.7994C11.2231 81.5134 11.2454 81.1918 11.3169 80.8358C11.3839 80.4769 11.5075 80.1463 11.6967 79.8395C11.8813 79.5297 12.1375 79.2721 12.4711 79.0621C12.8002 78.8432 13.2217 78.7211 13.728 78.6883L18.8436 78.6734C19.1459 78.6377 19.414 78.5036 19.6344 78.2758C19.8504 78.0464 19.9636 77.7665 19.9621 77.4448C19.9591 77.1037 19.8414 76.8148 19.6002 76.5795Z" fill="#424245"/>
<path d="M71.3892 79.8723C71.1822 79.2259 70.8874 78.6406 70.5091 78.1134C70.1263 77.5892 69.6677 77.1514 69.1211 76.8059C68.576 76.4574 67.961 76.2682 67.2595 76.231H55.6537C54.924 76.234 54.2702 76.4008 53.6894 76.7403C53.1145 77.0799 52.6231 77.5192 52.218 78.0524C51.8084 78.587 51.5031 79.1768 51.2887 79.835C51.0742 80.4858 50.97 81.1366 50.97 81.7815C50.9685 82.4085 51.0683 83.0414 51.2753 83.6892C51.4793 84.3371 51.7712 84.9164 52.148 85.4451C52.5337 85.9723 52.9939 86.4116 53.5375 86.7586C54.0766 87.1056 54.6976 87.2962 55.4005 87.3275H58.3746C58.7156 87.3305 59.0016 87.1831 59.2443 86.9477C59.4766 86.705 59.5973 86.4205 59.6002 86.0825C59.5988 85.7429 59.4766 85.4555 59.2428 85.2276C59.0001 85.0013 58.7141 84.8896 58.3746 84.8866L56.1824 84.8881C55.5897 84.8866 55.1116 84.7764 54.7497 84.5664C54.3834 84.352 54.0944 84.0973 53.88 83.7875C53.6685 83.4852 53.527 83.1486 53.4511 82.7853C53.3751 82.4204 53.3349 82.0853 53.3334 81.783C53.3364 81.4732 53.3751 81.1396 53.4511 80.7747C53.5285 80.4099 53.6715 80.0748 53.8815 79.771C54.0974 79.4642 54.3819 79.2095 54.7482 78.9936C55.1131 78.7791 55.5912 78.6779 56.1869 78.6764L66.4717 78.6779C67.0495 78.6794 67.5246 78.7821 67.9014 78.9981C68.2722 79.2066 68.5671 79.4657 68.7786 79.7695C68.9871 80.0763 69.1315 80.4114 69.209 80.7762C69.2864 81.1426 69.3281 81.4777 69.3251 81.7845C69.3236 82.0883 69.2849 82.4219 69.209 82.7867C69.133 83.1546 68.9885 83.4882 68.7786 83.7935C68.5686 84.1033 68.2722 84.3594 67.9059 84.5709C67.5246 84.7824 67.0525 84.8911 66.4747 84.8926H64.5625C64.3614 84.8553 64.1872 84.7526 64.0442 84.5813C63.9012 84.4115 63.8283 84.2015 63.8268 83.9513V82.9789C63.8268 82.6408 63.7061 82.3534 63.4604 82.1151C63.2117 81.8768 62.9273 81.7562 62.6041 81.7577C62.2675 81.7547 61.9771 81.8768 61.7403 82.1106C61.5035 82.3504 61.3829 82.6378 61.3859 82.9789L61.3829 84.2254C61.3829 84.6483 61.4588 85.0519 61.6122 85.4332C61.7597 85.8159 61.9816 86.148 62.2616 86.425C62.5401 86.7065 62.8632 86.9284 63.2296 87.0848C63.593 87.2471 63.9936 87.3305 64.4389 87.326L67.0063 87.3275C67.7361 87.329 68.3899 87.1637 68.9692 86.8182C69.5411 86.4801 70.0385 86.0482 70.445 85.5091C70.8531 84.973 71.1599 84.3788 71.3758 83.728C71.5828 83.0712 71.6916 82.4293 71.693 81.78C71.693 81.153 71.5903 80.5126 71.3892 79.8723Z" fill="#424245"/>
<path d="M91.1547 85.7817C91.0922 85.6417 91.0073 85.5136 90.9075 85.4004L84.9073 77.4135C84.6288 77.0352 84.2669 76.7403 83.8246 76.5304C83.3823 76.3189 82.9161 76.2102 82.4247 76.2146C81.9005 76.2161 81.406 76.3368 80.9518 76.575C80.4901 76.8193 80.1253 77.1246 79.8423 77.4999L73.8942 85.5285C73.7334 85.7146 73.65 85.9485 73.6514 86.2448C73.6544 86.571 73.7691 86.8524 73.9984 87.0788C74.2263 87.3096 74.5063 87.4184 74.8369 87.4213C75.1973 87.4213 75.5011 87.2739 75.7498 86.9745L81.4984 79.3168C81.5952 79.1827 81.7322 79.0383 81.9034 78.8819C82.0732 78.7285 82.2519 78.6466 82.4291 78.6481C82.6123 78.6466 82.7896 78.724 82.9593 78.8774C83.1306 79.0353 83.2765 79.1783 83.3897 79.3078L89.1427 86.9537C89.3721 87.2635 89.6833 87.4184 90.0795 87.4184C90.4086 87.4139 90.6856 87.3007 90.912 87.0714C91.1443 86.8435 91.2545 86.5591 91.2575 86.2344C91.2545 86.0691 91.2203 85.9187 91.1547 85.7817Z" fill="#424245"/>
<path d="M113.973 77.4522C113.976 77.1156 113.857 76.8267 113.62 76.5855C113.383 76.3472 113.099 76.231 112.752 76.2281C112.579 76.2281 112.42 76.2593 112.274 76.3219C112.269 76.3234 112.265 76.3263 112.261 76.3293C112.197 76.3576 112.135 76.3889 112.076 76.4291C112.007 76.4753 111.94 76.5274 111.879 76.5899C111.643 76.8312 111.513 77.1231 111.516 77.4626V79.6876L111.508 80.6095H96.4744V77.4641C96.4774 77.1246 96.3463 76.8327 96.111 76.5914C95.8727 76.3546 95.5838 76.234 95.2487 76.237C94.9062 76.234 94.6158 76.3546 94.3775 76.587C94.1407 76.8282 94.0171 77.1156 94.0171 77.4552L94.0156 86.2001C94.0171 86.5337 94.1362 86.8271 94.3715 87.0639C94.6054 87.3022 94.8943 87.4184 95.2338 87.4228C95.5749 87.4258 95.8623 87.3082 96.0991 87.0714C96.3403 86.8316 96.4744 86.5412 96.4759 86.2046L96.4729 83.0593H111.51L111.505 86.157C111.505 86.3401 111.543 86.5099 111.613 86.6648C111.622 86.6871 111.637 86.708 111.647 86.7288C111.669 86.7705 111.689 86.8108 111.715 86.8495C111.766 86.9269 111.824 87.0014 111.894 87.0699C112.131 87.3067 112.417 87.4243 112.759 87.4213C113.099 87.4169 113.386 87.3007 113.62 87.0624C113.856 86.8256 113.975 86.5322 113.976 86.1987L113.975 77.899L113.973 77.4522Z" fill="#424245"/>
<path d="M47.6757 76.5884C47.4375 76.3531 47.1485 76.231 46.8134 76.234C46.4694 76.231 46.1805 76.3517 45.9422 76.584C45.7054 76.8252 45.5818 77.1127 45.5803 77.4522L45.5789 86.1972C45.5803 86.5308 45.6995 86.8241 45.9348 87.0609C46.1686 87.2992 46.4575 87.4154 46.7971 87.4199C47.1381 87.4228 47.4255 87.3052 47.6608 87.0684C47.9021 86.8286 48.0361 86.5382 48.0391 86.2016V77.4612C48.0421 77.1231 47.911 76.8297 47.6757 76.5884Z" fill="#424245"/>
<path d="M42.4737 77.4522C42.4767 77.1156 42.3576 76.8267 42.1208 76.5855C41.884 76.3472 41.5996 76.231 41.2526 76.2281C41.0798 76.2281 40.9204 76.2593 40.7745 76.3219C40.77 76.3234 40.7656 76.3263 40.7611 76.3293C40.6971 76.3576 40.636 76.3889 40.5764 76.4291C40.5079 76.4753 40.4409 76.5274 40.3798 76.5899C40.143 76.8312 40.0135 77.1231 40.0165 77.4626V79.6876L40.009 80.6095H24.9749V77.4641C24.9779 77.1246 24.8468 76.8327 24.6115 76.5914C24.3733 76.3546 24.0843 76.234 23.7493 76.237C23.4067 76.234 23.1163 76.3546 22.878 76.587C22.6413 76.8282 22.5176 77.1156 22.5176 77.4552L22.5161 86.2001C22.5176 86.5337 22.6368 86.8271 22.8721 87.0639C23.1059 87.3022 23.3948 87.4184 23.7329 87.4228C24.0739 87.4258 24.3613 87.3082 24.5981 87.0714C24.8394 86.8316 24.9734 86.5412 24.9749 86.2046L24.9719 83.0593H40.009L40.0046 86.157C40.0046 86.3401 40.0418 86.5099 40.1118 86.6648C40.1207 86.6871 40.1356 86.708 40.146 86.7288C40.1684 86.7705 40.1877 86.8108 40.2145 86.8495C40.2652 86.9269 40.3232 87.0014 40.3932 87.0699C40.63 87.3067 40.916 87.4243 41.2585 87.4213C41.5981 87.4169 41.8855 87.3007 42.1193 87.0624C42.3546 86.8256 42.4737 86.5322 42.4752 86.1987L42.4737 77.4522Z" fill="#424245"/>
<path d="M76.4393 23.4635C74.4482 22.9348 72.5002 24.4628 72.5002 26.5224V31.9553C72.5002 33.2167 73.3 34.3247 74.4839 34.7625C78.6122 36.2875 81.5549 40.2564 81.5549 44.9148C81.5549 50.8912 76.7104 55.7358 70.734 55.7358C70.7042 55.7358 70.6744 55.7328 70.6446 55.7328C64.7084 55.6852 59.9115 50.86 59.9115 44.9133C59.9115 42.8522 60.4893 40.9266 61.4901 39.2884C62.75 37.2228 64.6816 35.6114 66.9825 34.7625C68.1665 34.3247 68.9662 33.2167 68.9662 31.9553V26.5224C68.9662 24.4628 67.0183 22.9348 65.0271 23.462C55.5331 25.9804 48.535 34.627 48.535 44.9133C48.535 45.2633 48.5455 45.6118 48.5604 45.9588C49.1054 57.7031 58.7752 67.0631 70.6446 67.1093C70.6744 67.1093 70.7042 67.1123 70.734 67.1123C82.9936 67.1123 92.9329 57.1729 92.9329 44.9133C92.9314 34.6285 85.9334 25.9818 76.4393 23.4635Z" fill="#3CB4E5"/>
<path d="M97.9547 9.44359L96.0916 9.45849C94.9851 9.46742 94.0379 9.86059 93.2725 10.6499C92.5025 11.4288 92.1257 12.3819 92.1332 13.4914C92.1421 14.5964 92.5397 15.5391 93.3201 16.3091C94.102 17.085 95.0521 17.4618 96.1616 17.4514L98.0217 17.4365C99.1312 17.426 100.075 17.0329 100.842 16.245C101.614 15.4632 101.995 14.516 101.985 13.408C101.974 12.294 101.578 11.3513 100.793 10.5859C100.011 9.80995 99.0627 9.43466 97.9547 9.44359Z" fill="#424245"/>
<path d="M112.774 10.5799C111.989 9.80697 111.047 9.43019 109.937 9.44061L108.076 9.45699C106.963 9.46593 106.022 9.8576 105.254 10.6469C104.482 11.4288 104.102 12.3789 104.113 13.4884C104.125 14.5935 104.516 15.5376 105.3 16.3061C106.086 17.0775 107.029 17.4573 108.147 17.4513L110.007 17.4335C111.117 17.4231 112.055 17.0284 112.825 16.2421C113.595 15.4587 113.975 14.5086 113.964 13.4035C113.957 12.2911 113.559 11.3498 112.774 10.5799Z" fill="#424245"/>
<path d="M17.819 59.4634C11.0935 59.52 8.50369 51.6329 8.45752 46.0288C8.40986 40.2385 10.0987 30.7013 17.5703 30.6328L27.0346 30.5509L27.0554 59.447L17.819 59.4634ZM49.8292 59.5558V59.447H35.0036V23.3593H17.2322C6.67636 23.4501 0.0148951 30.8785 0.141482 46.1033C0.282962 61.9803 10.4114 67.2791 17.609 67.2225L58.3701 67.2374C54.9523 65.3832 52.0259 62.7398 49.8292 59.5558Z" fill="#424245"/>
<path d="M114 27.34C113.991 26.2261 113.587 25.2789 112.801 24.5075C112.015 23.7331 111.227 23.3488 110.107 23.3593C108.996 23.3697 108.052 23.7673 107.275 24.5551C106.502 25.34 106.335 26.2946 106.345 27.41L106.403 36.4558V36.4573L106.336 48.2359C106.4 55.2414 102.911 59.3785 95.4364 59.4396L91.4347 59.4098C89.2887 62.637 86.3742 65.3103 82.9891 67.221H95.7983L97.6092 67.081C107.967 66.116 114.073 59.2475 113.981 48.5397L113.999 36.3858L113.967 32.6701L114 27.34Z" fill="#424245"/>
<path d="M106.786 1.73666C106.001 0.963736 105.058 0.586954 103.949 0.597378L102.087 0.613758C100.975 0.622694 100.034 1.01437 99.2653 1.80368C98.4938 2.58554 98.1141 3.53569 98.1245 4.64519C98.1364 5.75022 98.5295 6.69442 99.3114 7.46288C100.098 8.23431 101.04 8.61407 102.159 8.60812L104.019 8.59024C105.128 8.57982 106.067 8.18517 106.837 7.39884C107.607 6.61548 107.986 5.66533 107.976 4.5603C107.967 3.44782 107.569 2.5081 106.786 1.73666Z" fill="#424245"/>
<path d="M65.6213 9.44359L63.7583 9.45849C62.6517 9.46742 61.7046 9.86059 60.9391 10.6499C60.1691 11.4288 59.7924 12.3819 59.7998 13.4914C59.8087 14.5964 60.2064 15.5391 60.9868 16.3091C61.7686 17.085 62.7188 17.4618 63.8283 17.4514L65.6883 17.4365C66.7978 17.426 67.742 17.0329 68.5105 16.245C69.2804 15.4632 69.6632 14.516 69.6528 13.408C69.6423 12.294 69.2462 11.3513 68.4613 10.5859C67.678 9.80995 66.7293 9.43466 65.6213 9.44359Z" fill="#424245"/>
<path d="M80.441 10.5799C79.6561 9.80697 78.7134 9.43019 77.6039 9.44061L75.7424 9.45699C74.6299 9.46593 73.6887 9.8576 72.9202 10.6469C72.1488 11.4288 71.769 12.3789 71.7794 13.4884C71.7914 14.5935 72.1845 15.5376 72.9664 16.3061C73.7527 17.0775 74.6954 17.4573 75.8139 17.4513L77.6739 17.4335C78.7834 17.4231 79.7217 17.0284 80.4916 16.2421C81.2616 15.4587 81.6413 14.5086 81.6309 13.4035C81.6235 12.2911 81.2243 11.3498 80.441 10.5799Z" fill="#424245"/>
<path d="M18.7781 9.44359L16.915 9.45849C15.8085 9.46742 14.8613 9.86059 14.0959 10.6499C13.3259 11.4288 12.9491 12.3819 12.9566 13.4914C12.9655 14.5964 13.3631 15.5391 14.1435 16.3091C14.9254 17.085 15.8755 17.4618 16.985 17.4514L18.8451 17.4365C19.9546 17.426 20.8988 17.0329 21.6673 16.245C22.4372 15.4632 22.82 14.516 22.8095 13.408C22.7991 12.294 22.403 11.3513 21.6181 10.5859C20.8348 9.80995 19.8861 9.43466 18.7781 9.44359Z" fill="#424245"/>
<path d="M33.5977 10.5799C32.8129 9.80697 31.8702 9.43019 30.7607 9.44061L28.8991 9.45699C27.7866 9.46593 26.8454 9.8576 26.077 10.6469C25.3055 11.4288 24.9258 12.3789 24.9362 13.4884C24.9481 14.5935 25.3413 15.5376 26.1231 16.3061C26.9095 17.0775 27.8522 17.4573 28.9706 17.4513L30.8307 17.4335C31.9402 17.4231 32.8784 17.0284 33.6484 16.2421C34.4183 15.4587 34.7981 14.5086 34.7877 13.4035C34.7802 12.2911 34.3811 11.3498 33.5977 10.5799Z" fill="#424245"/>
</svg>
