<svg width="120" height="83" viewBox="0 0 120 83" fill="none" xmlns="http://www.w3.org/2000/svg">
<path d="M113.3 47.0206C114.452 46.6416 115.473 46.0733 116.368 45.2523C117.199 44.4314 117.903 43.5473 118.35 42.4737C118.797 41.4001 119.053 40.2634 119.053 39.0636C119.053 37.8637 118.797 36.727 118.35 35.6534C117.903 34.5798 117.199 33.6325 116.368 32.8748C114.707 31.3591 112.469 30.6014 109.658 30.6014H98.5376V53.0199H104.417V47.5257H106.59L112.79 53.0199H119.5L113.3 47.0206ZM112.279 41.4001C111.703 42.0316 110.744 42.2843 109.338 42.2843H104.417V35.8428H109.338C110.744 35.8428 111.703 36.1586 112.279 36.7901C112.853 37.4216 113.173 38.1794 113.173 39.1267C113.173 40.0108 112.853 40.7686 112.279 41.4001Z" fill="#00CDCA"/>
<path d="M8.68046 47.9043L19.609 34.3269V30.6642H1.45865V35.7162H11.3647L0.5 49.2937V52.9564H20.5677V47.9043H8.68046Z" fill="#282828"/>
<path d="M44.0863 41.5896C44.0863 39.5056 43.6389 37.6111 42.7442 35.906C41.8495 34.1378 40.5713 32.7484 38.9097 31.738C37.2479 30.7277 35.4584 30.1592 33.4134 30.1592C31.7518 30.1592 30.2818 30.475 28.8758 31.1065C27.4698 31.738 26.3194 32.559 25.4246 33.6325C24.466 34.7061 23.763 35.9691 23.2517 37.3584C22.7405 38.7478 22.4848 40.2634 22.4848 41.779C22.4848 45.2523 23.5713 48.031 25.8081 50.1781C27.2141 51.5675 28.8758 52.4515 30.7931 52.9568C31.8795 53.2093 33.0299 53.3988 34.2442 53.3988C35.3946 53.3988 36.4811 53.2725 37.5675 52.9568C38.2066 52.7673 38.7818 52.5779 39.4209 52.3252C41.0825 51.6306 42.4247 50.6202 43.5111 49.3572L40.06 45.947C39.4209 46.6416 38.5901 47.21 37.6314 47.7152C36.6089 48.3467 35.5224 48.5993 34.372 48.5993C32.7743 48.5993 31.3683 48.0942 30.2178 47.1469C29.0675 46.1364 28.4284 44.8734 28.2366 43.3577H43.9585C44.0224 42.7894 44.0863 42.2211 44.0863 41.5896ZM28.5562 38.9373C28.684 37.8637 29.2592 36.9796 30.1539 36.2217C31.1126 35.464 32.1991 35.0218 33.4134 35.0218C34.6277 35.0218 35.6502 35.4008 36.4811 36.2217C37.3118 36.9796 37.8231 37.9268 37.887 38.9373H28.5562Z" fill="#282828"/>
<path d="M68.9472 36.9796C68.5637 35.7797 67.9885 34.7061 67.1578 33.7588C66.1991 32.6221 65.0487 31.738 63.7066 31.1065C62.3646 30.475 60.8945 30.1592 59.3607 30.1592C56.9961 30.1592 54.8871 30.9171 52.9698 32.4327V30.6644H47.154V53.0199H53.2254V38.4951C53.7367 37.8005 54.5036 37.169 55.4622 36.6007C56.4848 36.0323 57.5073 35.7165 58.7217 35.7165C60.1277 35.7165 61.278 36.1586 62.1089 36.9796C63.0036 37.8637 63.451 39.253 63.451 41.2107V53.0199H69.5224V41.6527C69.5224 39.7582 69.3307 38.2426 68.9472 36.9796Z" fill="#282828"/>
<path d="M88.3759 30.6642V38.8107H80.0677V30.6642H73.8045V53.0196H80.0677V44.4942H88.3759V52.9564H94.703V30.6642H88.3759Z" fill="#00CDCA"/>
<path d="M78.3711 22.9964C78.3518 22.9884 78.3323 22.9852 78.3121 22.9804C78.222 22.9592 78.2098 23.0361 78.2823 23.0936C78.7689 23.4797 79.3491 23.7687 79.8757 24.0578C80.4509 24.4367 81.0261 24.7525 81.6652 25.1314C81.8356 25.2517 81.781 25.5173 81.5768 25.5605L77.4497 26.4345C76.5106 26.6334 75.5662 26.1583 75.0854 25.3274C74.0054 23.4602 72.6088 21.6896 70.9284 20.0794C69.5863 18.8162 68.1163 17.6796 66.4546 16.6692C54.2479 9.34367 37.5035 11.8696 28.9396 22.3528C28.2539 23.1715 26.7509 22.601 27.1384 21.6058C28.2165 18.8381 29.7755 16.1489 31.8155 13.6379C43.1915 -0.381574 65.6878 -3.79173 81.9848 6.05982C87.5449 9.40681 91.699 13.8274 94.2554 18.8162C94.5054 19.3102 94.4041 19.9016 94.0058 20.2861C90.9012 23.2826 86.9581 24.4671 82.1764 23.9947C80.8451 23.8694 79.5767 23.4955 78.3711 22.9964Z" fill="#00CDCA"/>
<path d="M41.8884 61.0554C41.9049 61.0614 41.9213 61.0638 41.9386 61.0674C42.0295 61.0863 42.038 61.0147 41.9616 60.9619C41.4774 60.6278 40.9021 60.341 40.3796 60.0541C39.8044 59.7384 39.1653 59.3595 38.5902 59.0437C38.4297 58.9531 38.4628 58.7128 38.6419 58.6691L42.8721 57.6348C43.735 57.4239 44.6225 57.8351 45.0884 58.5914C46.2276 60.4399 47.6944 62.182 49.4548 63.7168C50.7969 64.9167 52.3307 65.9903 53.9924 66.9375C66.263 73.8841 82.7518 70.9793 90.8684 60.4331C91.4651 59.6557 92.9793 60.1823 92.6567 61.1077C91.6924 63.8743 90.2555 66.5596 88.3119 69.0847C77.5112 83.1673 55.3984 87.0827 38.9737 77.7996C33.3496 74.642 29.1315 70.3477 26.4473 65.4851C26.2073 65.0108 26.227 64.4618 26.6011 64.0841C29.5875 61.0676 33.4172 59.7626 38.1428 60.1172C39.4756 60.2427 40.6824 60.6172 41.8884 61.0554Z" fill="#00CDCA"/>
</svg>
